<svg width="300" height="300" viewBox="0 0 300 300" fill="none" xmlns="http://www.w3.org/2000/svg">
<path d="M99.114 45.45C99.114 45.45 53.652 68.616 30.978 104.31C8.30397 140.004 10.098 185.91 37.65 219.978C65.202 254.046 117.864 249.6 161.958 271.2C206.052 292.8 254.7 288.348 275.55 242.604C296.4 196.86 264.96 179.742 259.56 126.816C254.16 73.89 206.442 -3.60001 99.114 45.45Z" fill="#EE7814"/>
<path opacity="0.7" d="M99.114 45.45C99.114 45.45 53.652 68.616 30.978 104.31C8.30397 140.004 10.098 185.91 37.65 219.978C65.202 254.046 117.864 249.6 161.958 271.2C206.052 292.8 254.7 288.348 275.55 242.604C296.4 196.86 264.96 179.742 259.56 126.816C254.16 73.89 206.442 -3.60001 99.114 45.45Z" fill="white"/>
<path d="M280.32 164.1H277.83V163.674C277.828 162.511 277.366 161.397 276.544 160.574C275.722 159.752 274.607 159.29 273.444 159.288H271.758C270.594 159.288 269.478 159.75 268.655 160.572C267.831 161.395 267.368 162.51 267.366 163.674V164.1H264.882C264.55 164.099 264.221 164.164 263.914 164.291C263.608 164.417 263.329 164.603 263.094 164.838C262.859 165.073 262.673 165.352 262.547 165.658C262.42 165.965 262.355 166.294 262.356 166.626V178.134C262.356 178.804 262.622 179.446 263.096 179.92C263.57 180.394 264.212 180.66 264.882 180.66H280.32C280.99 180.658 281.631 180.392 282.104 179.918C282.578 179.445 282.844 178.803 282.846 178.134V166.626C282.846 165.956 282.58 165.314 282.106 164.84C281.633 164.366 280.99 164.1 280.32 164.1ZM268.566 163.674C268.568 162.828 268.905 162.018 269.503 161.421C270.102 160.823 270.913 160.488 271.758 160.488H273.444C274.289 160.488 275.099 160.824 275.697 161.421C276.294 162.019 276.63 162.829 276.63 163.674V164.1H268.566V163.674Z" fill="#263238"/>
<path d="M277.2 171.204H274.02V168.03H271.176V171.204H267.996V174.054H271.176V177.228H274.02V174.054H277.2V171.204Z" fill="white"/>
<path d="M275.4 95.52C274.906 95.52 274.416 95.4225 273.959 95.2331C273.502 95.0436 273.087 94.766 272.738 94.416C272.388 94.066 272.111 93.6506 271.923 93.1935C271.734 92.7364 271.637 92.2465 271.638 91.752V81.6C271.637 81.1055 271.734 80.6156 271.923 80.1585C272.111 79.7014 272.388 79.286 272.738 78.936C273.087 78.586 273.502 78.3084 273.959 78.1189C274.416 77.9295 274.906 77.832 275.4 77.832C275.895 77.832 276.384 77.9295 276.841 78.1189C277.298 78.3084 277.713 78.586 278.062 78.936C278.412 79.286 278.689 79.7014 278.877 80.1585C279.066 80.6156 279.163 81.1055 279.162 81.6V91.734C279.165 92.23 279.07 92.7218 278.883 93.181C278.695 93.6402 278.418 94.0578 278.069 94.4097C277.719 94.7615 277.303 95.0408 276.845 95.2314C276.387 95.4219 275.896 95.52 275.4 95.52Z" fill="white" stroke="#263238" stroke-linecap="round" stroke-linejoin="round"/>
<path d="M275.4 95.52C274.906 95.52 274.416 95.4225 273.959 95.2331C273.502 95.0436 273.087 94.766 272.738 94.416C272.388 94.0661 272.111 93.6506 271.923 93.1935C271.734 92.7364 271.637 92.2465 271.638 91.752V86.682H279.162V91.752C279.163 92.2465 279.066 92.7364 278.877 93.1935C278.689 93.6506 278.412 94.0661 278.062 94.416C277.713 94.766 277.298 95.0436 276.841 95.2331C276.384 95.4225 275.895 95.52 275.4 95.52Z" fill="#263238" stroke="#263238" stroke-linecap="round" stroke-linejoin="round"/>
<path d="M256.476 80.568C256.167 80.1817 255.937 79.738 255.799 79.2625C255.662 78.787 255.62 78.2891 255.676 77.7973C255.732 77.3055 255.884 76.8296 256.124 76.3969C256.365 75.9642 256.688 75.5833 257.076 75.276L264.978 68.928C265.761 68.306 266.758 68.0198 267.751 68.1323C268.744 68.2448 269.652 68.7468 270.276 69.528C270.898 70.3095 271.184 71.3059 271.071 72.2982C270.959 73.2905 270.457 74.1975 269.676 74.82L261.768 81.162C261.382 81.4709 260.938 81.7006 260.463 81.838C259.988 81.9753 259.49 82.0176 258.999 81.9625C258.507 81.9073 258.031 81.7557 257.599 81.5165C257.166 81.2772 256.784 80.9549 256.476 80.568Z" fill="white" stroke="#263238" stroke-linecap="round" stroke-linejoin="round"/>
<path d="M256.476 80.568C256.167 80.1817 255.937 79.738 255.799 79.2625C255.662 78.787 255.62 78.289 255.676 77.7973C255.732 77.3055 255.884 76.8296 256.124 76.3969C256.365 75.9642 256.688 75.5833 257.076 75.276L261.03 72.102L265.74 77.976L261.786 81.144C261.4 81.4567 260.957 81.69 260.48 81.8303C260.004 81.9707 259.505 82.0154 259.011 81.9619C258.517 81.9083 258.039 81.7576 257.604 81.5184C257.169 81.2791 256.786 80.9561 256.476 80.568Z" fill="#263238" stroke="#263238" stroke-linecap="round" stroke-linejoin="round"/>
<path d="M218.85 52.944C218.381 52.9442 217.924 53.0911 217.542 53.364L208.8 46.578C209.229 45.7851 209.43 44.8891 209.381 43.9891C209.332 43.0891 209.036 42.2201 208.524 41.478L213.864 34.65C214.316 34.8243 214.812 34.8493 215.279 34.7214C215.746 34.5935 216.16 34.3194 216.46 33.9392C216.76 33.559 216.931 33.0928 216.947 32.6087C216.963 32.1246 216.823 31.6481 216.549 31.249C216.275 30.8499 215.88 30.5491 215.422 30.3906C214.964 30.2322 214.468 30.2245 214.005 30.3686C213.543 30.5126 213.139 30.801 212.852 31.1914C212.565 31.5817 212.411 32.0537 212.412 32.538C212.409 33.0048 212.554 33.4605 212.826 33.84L207.63 40.494C206.933 39.9073 206.087 39.5263 205.186 39.3938C204.284 39.2613 203.364 39.3826 202.528 39.744C201.692 40.1054 200.973 40.6926 200.452 41.4397C199.931 42.1869 199.628 43.0645 199.578 43.974H193.506C193.44 43.435 193.182 42.9377 192.78 42.5725C192.379 42.2073 191.859 41.9984 191.316 41.9838C190.773 41.9692 190.243 42.1498 189.822 42.4929C189.401 42.836 189.117 43.3187 189.022 43.8533C188.927 44.388 189.027 44.939 189.303 45.4063C189.58 45.8736 190.015 46.2262 190.53 46.3998C191.044 46.5735 191.604 46.5568 192.107 46.3528C192.61 46.1488 193.024 45.771 193.272 45.288H199.692C199.88 46.1604 200.302 46.9651 200.913 47.6155C201.524 48.2659 202.301 48.7374 203.16 48.9793C204.019 49.2212 204.927 49.2243 205.788 48.9883C206.649 48.7523 207.429 48.2862 208.044 47.64L216.738 54.402C216.567 54.853 216.544 55.3471 216.673 55.812C216.802 56.2769 217.077 56.6883 217.457 56.986C217.836 57.2838 218.301 57.4523 218.784 57.467C219.266 57.4816 219.74 57.3417 220.137 57.0675C220.535 56.7934 220.834 56.3994 220.991 55.9432C221.148 55.487 221.155 54.9925 221.012 54.5319C220.868 54.0713 220.58 53.6687 220.192 53.383C219.803 53.0974 219.333 52.9435 218.85 52.944Z" fill="#263238"/>
<path d="M41.268 95.592C40.5413 95.5904 39.8447 95.301 39.3309 94.7871C38.817 94.2733 38.5276 93.5767 38.526 92.85V70.05H44.01V92.85C44.01 93.5772 43.7211 94.2747 43.2069 94.7889C42.6927 95.3031 41.9952 95.592 41.268 95.592Z" fill="white" stroke="#263238" stroke-linecap="round" stroke-linejoin="round"/>
<path d="M41.268 95.592C40.5413 95.5904 39.8447 95.301 39.3309 94.7871C38.817 94.2733 38.5276 93.5767 38.526 92.85V78.828H44.01V92.85C44.01 93.5772 43.7211 94.2747 43.2069 94.7889C42.6927 95.3031 41.9952 95.592 41.268 95.592Z" fill="#263238" stroke="#263238" stroke-linecap="round" stroke-linejoin="round"/>
<path d="M44.7961 68.718H37.7461V70.716H44.7961V68.718Z" fill="white" stroke="#263238" stroke-linecap="round" stroke-linejoin="round"/>
<path d="M32.9581 95.592C32.2313 95.5904 31.5348 95.301 31.0209 94.7871C30.507 94.2733 30.2176 93.5767 30.2161 92.85V70.05H35.7001V92.85C35.7001 93.5772 35.4112 94.2747 34.8969 94.7889C34.3827 95.3031 33.6853 95.592 32.9581 95.592Z" fill="white" stroke="#263238" stroke-linecap="round" stroke-linejoin="round"/>
<path d="M32.9581 95.592C32.2313 95.5904 31.5348 95.301 31.0209 94.7871C30.507 94.2733 30.2176 93.5767 30.2161 92.85V78.828H35.7001V92.85C35.7001 93.5772 35.4112 94.2747 34.8969 94.7889C34.3827 95.3031 33.6853 95.592 32.9581 95.592Z" fill="#263238" stroke="#263238" stroke-linecap="round" stroke-linejoin="round"/>
<path d="M36.486 68.718H29.436V70.716H36.486V68.718Z" fill="white" stroke="#263238" stroke-linecap="round" stroke-linejoin="round"/>
<path d="M112.068 46.242L114.252 40.998C114.289 40.9135 114.351 40.8421 114.429 40.7929C114.507 40.7437 114.598 40.719 114.69 40.722C114.782 40.7266 114.871 40.7596 114.944 40.8165C115.017 40.8734 115.071 40.9515 115.098 41.04L117.744 49.764L119.76 43.338C119.788 43.2476 119.843 43.1682 119.919 43.1111C119.994 43.054 120.085 43.0222 120.18 43.02C120.273 43.0225 120.364 43.0523 120.441 43.1056C120.517 43.1589 120.577 43.2334 120.612 43.32L121.734 46.548H127.8C129.041 45.2506 129.763 43.5425 129.828 41.748C129.84 40.0719 129.231 38.4505 128.12 37.1954C127.009 35.9403 125.474 35.1399 123.809 34.948C122.144 34.756 120.466 35.186 119.099 36.1554C117.731 37.1248 116.77 38.5652 116.4 40.2C116.019 38.5767 115.054 37.15 113.69 36.1915C112.325 35.2329 110.656 34.8093 109 35.0011C107.343 35.193 105.815 35.987 104.706 37.2321C103.597 38.4772 102.984 40.0865 102.984 41.754C103.051 43.4159 103.674 45.0071 104.754 46.272L112.068 46.242Z" fill="#263238"/>
<path d="M121.416 47.448C121.323 47.4484 121.232 47.4197 121.155 47.3659C121.079 47.3122 121.021 47.236 120.99 47.148L120.21 44.904L118.164 51.426C118.135 51.5179 118.077 51.5981 118 51.6552C117.922 51.7124 117.828 51.7434 117.732 51.744C117.636 51.7437 117.542 51.7119 117.465 51.6534C117.388 51.5949 117.332 51.513 117.306 51.42L114.6 42.498L112.8 46.866C112.766 46.9476 112.708 47.0173 112.635 47.0664C112.561 47.1155 112.475 47.1418 112.386 47.142H105.48C106.962 48.798 108.81 50.262 110.19 51.624C112.278 53.688 114.324 55.824 116.454 57.816C119.184 55.122 121.932 52.416 124.638 49.722C125.388 48.972 126.204 48.228 126.96 47.448H121.416Z" fill="#263238"/>
<path d="M20.2012 181.556L23.1432 182.577L26.3266 173.399L23.3846 172.379L20.2012 181.556Z" fill="white" stroke="#263238" stroke-miterlimit="10"/>
<path d="M18.8064 183.013L23.347 184.588L23.9468 182.859L19.4062 181.284L18.8064 183.013Z" fill="white" stroke="#263238" stroke-miterlimit="10"/>
<path d="M20.1404 174.74L27.4133 177.263L33.1804 160.637L25.9075 158.114L20.1404 174.74Z" fill="white" stroke="#263238" stroke-miterlimit="10"/>
<path d="M23.6768 167.628L29.045 169.49L32.2284 160.312L26.8602 158.45L23.6768 167.628Z" fill="#263238" stroke="#263238" stroke-miterlimit="10"/>
<path d="M22.7273 174.281L25.6693 175.301L28.8527 166.124L25.9107 165.103L22.7273 174.281Z" fill="#263238" stroke="#263238" stroke-miterlimit="10"/>
<path d="M19.627 174.566L27.9373 177.448L28.6589 175.368L20.3486 172.485L19.627 174.566Z" fill="white" stroke="#263238" stroke-miterlimit="10"/>
<path d="M27.6809 157.768L32.0117 159.27L32.9732 156.498L28.6424 154.996L27.6809 157.768Z" fill="white" stroke="#263238" stroke-miterlimit="10"/>
<path d="M25.2123 158.458L33.5226 161.341L34.2442 159.26L25.9339 156.378L25.2123 158.458Z" fill="white" stroke="#263238" stroke-miterlimit="10"/>
<path d="M30.8521 155.37L34.3321 145.326" stroke="#263238" stroke-miterlimit="10"/>
<path d="M224.34 280.2C241.681 280.2 255.738 277.03 255.738 273.12C255.738 269.21 241.681 266.04 224.34 266.04C206.999 266.04 192.942 269.21 192.942 273.12C192.942 277.03 206.999 280.2 224.34 280.2Z" fill="#263238" stroke="#263238" stroke-linecap="round" stroke-linejoin="round"/>
<path d="M200.13 113.088C200.13 113.088 195.882 115.686 195.93 116.826C195.978 117.966 194.346 138.756 194.16 141.354C193.974 143.952 191.502 149.316 191.31 151.752C191.118 154.188 191.73 156.63 192.444 157.752C193.158 158.874 195.78 162.462 195.78 162.462L202.83 151.572C203.003 149.194 203.039 146.808 202.938 144.426C202.83 139.236 200.13 113.088 200.13 113.088Z" fill="white" stroke="#263238" stroke-linecap="round" stroke-linejoin="round"/>
<path d="M227.256 61.572C227.256 61.572 219.756 61.092 215.484 66.294C211.212 71.496 212.13 79.452 212.1 81.894C212.07 84.336 204.816 91.494 205.62 94.41C206.424 97.326 208.56 97.656 207.876 100.092C207.192 102.528 202.728 103.992 203.376 107.082C204.024 110.172 206.376 114.552 206.376 114.552L249.576 114.846C249.576 114.846 251.118 110.298 249.474 106.884C247.83 103.47 245.496 102.342 245.874 100.716C246.252 99.09 248.34 95.19 247.536 92.268C246.732 89.346 243.936 88.536 243.642 83.334C243.348 78.132 242.58 69.534 238.452 65.334C234.324 61.134 227.256 61.572 227.256 61.572Z" fill="#263238" stroke="#263238" stroke-linecap="round" stroke-linejoin="round"/>
<path d="M213.972 262.038C212.645 264.594 211.035 266.994 209.172 269.19C206.412 272.28 203.736 273.906 203.826 275.532C203.916 277.158 209.94 277.476 213.126 276.336C216.312 275.196 218.628 272.922 219.27 272.736C219.912 272.55 221.706 272.736 221.748 270.456C221.79 268.176 221.442 261.684 221.442 261.684L213.972 262.038Z" fill="white" stroke="#263238" stroke-linecap="round" stroke-linejoin="round"/>
<path d="M213.114 276.336C216.306 275.196 218.616 272.922 219.258 272.736C219.9 272.55 221.694 272.736 221.736 270.456C221.736 269.256 221.67 266.856 221.586 264.894C221.114 265.779 220.415 266.524 219.561 267.051C218.707 267.578 217.729 267.869 216.726 267.894C216.726 267.894 216.666 266.754 214.926 264.81C213.804 263.538 212.67 264.54 212.01 265.41L211.476 266.214L211.434 266.292C210.741 267.314 209.984 268.29 209.166 269.214C206.406 272.304 203.73 273.93 203.82 275.556C203.91 277.182 209.928 277.476 213.114 276.336Z" fill="white" stroke="#263238" stroke-linecap="round" stroke-linejoin="round"/>
<path d="M236.202 262.026C237.814 264.591 239.684 266.986 241.782 269.172C244.872 272.256 247.722 273.876 247.782 275.502C247.842 277.128 241.878 277.452 238.566 276.318C235.254 275.184 232.698 272.91 232.044 272.748C231.39 272.586 229.602 272.748 229.32 270.48C229.038 268.212 228.684 261.708 228.684 261.708L236.202 262.026Z" fill="white" stroke="#263238" stroke-linecap="round" stroke-linejoin="round"/>
<path d="M238.59 276.318C235.284 275.184 232.722 272.91 232.068 272.748C231.414 272.586 229.626 272.748 229.344 270.48C229.194 269.28 229.026 266.88 228.9 264.912C229.455 265.792 230.217 266.522 231.12 267.039C232.023 267.556 233.038 267.843 234.078 267.876C234.078 267.876 234.018 266.736 235.536 264.786C236.526 263.52 237.768 264.516 238.536 265.386C238.734 265.65 238.938 265.914 239.136 266.19L239.19 266.268C239.996 267.288 240.858 268.263 241.77 269.19C244.86 272.274 247.71 273.894 247.77 275.52C247.83 277.146 241.902 277.452 238.59 276.318Z" fill="white" stroke="#263238" stroke-linecap="round" stroke-linejoin="round"/>
<path d="M200.922 176.28C200.922 176.28 201.924 210.066 203.256 216.726C204.588 223.386 210.534 261.558 210.534 261.558C212.352 262.327 214.309 262.711 216.282 262.686H222.78L223.38 234.258L223.602 192.996L226.86 262.842C226.86 262.842 235.812 263.16 236.778 262.998C237.744 262.836 238.548 262.674 238.548 262.674L244.302 218.484L247.596 189.084L247.776 177.39C247.776 177.39 220.272 176.436 212.28 175.788C204.288 175.14 201 174.978 201 174.978L200.922 176.28Z" fill="#EE7814" stroke="#263238" stroke-linecap="round" stroke-linejoin="round"/>
<path d="M238.062 235.932C237.99 236.496 237.918 237.018 237.834 237.498" stroke="#263238" stroke-linecap="round" stroke-linejoin="round"/>
<path d="M238.8 195.258C238.8 195.258 239.358 219.33 238.38 232.398" stroke="#263238" stroke-linecap="round" stroke-linejoin="round"/>
<path d="M209.31 193.326C209.31 193.326 210 209.25 210.684 212.82" stroke="#263238" stroke-linecap="round" stroke-linejoin="round"/>
<path d="M234.948 183.18V195.336C236.505 195.755 238.098 196.03 239.706 196.158C242.172 196.32 246.774 196.158 246.774 196.158L247.104 191.556L234.948 183.18Z" fill="#263238" stroke="#263238" stroke-linecap="round" stroke-linejoin="round"/>
<path d="M201.432 192.54C201.432 192.54 207.678 194.514 210.306 194.676C212.934 194.838 215.394 195.168 215.394 195.168L215.07 191.886L201.102 190.572L201.432 192.54Z" fill="#263238" stroke="#263238" stroke-linecap="round" stroke-linejoin="round"/>
<path d="M220.392 100.242L215.49 105.768L201.894 115.686L204.792 175.8C204.792 175.8 215.628 178.716 224.928 179.526C234.228 180.336 246.186 178.206 246.186 178.206L244.428 115.206C244.428 115.206 239.136 107.406 236.424 105.3C233.712 103.194 232.47 101.244 228.876 100.92C225.282 100.596 220.392 100.242 220.392 100.242Z" fill="#EE7814" stroke="#263238" stroke-linecap="round" stroke-linejoin="round"/>
<path d="M214.704 103.2L200.13 113.118L202.416 149.664L201.642 153.336L195.516 160.392L198.126 172.788L196.962 190.278C196.962 190.278 202.752 192.228 206.676 192.708C209.598 193.021 212.534 193.183 215.472 193.194L215.976 169.314C215.976 169.314 217.914 129.672 218.142 127.914C218.37 126.156 220.392 100.314 220.392 100.314L214.704 103.2Z" fill="white" stroke="#263238" stroke-linecap="round" stroke-linejoin="round"/>
<path d="M214.938 104.694L207.882 122.388L215.496 125.55L208.308 126.858L214.674 151.8" stroke="#263238" stroke-linecap="round" stroke-linejoin="round"/>
<path d="M219.168 95.532C219.168 95.532 221.7 112.422 223.692 116.322C225.684 120.222 226.248 121.518 226.248 121.518C226.248 121.518 230.58 108.354 231.45 106.404C232.32 104.454 233.25 97.47 233.25 97.47C233.25 97.47 224.616 100.236 219.168 95.532Z" fill="white" stroke="#263238" stroke-linecap="round" stroke-linejoin="round"/>
<path d="M219.168 95.532C219.168 95.532 219.396 97.068 219.768 99.318C221.034 100.284 224.388 102.672 226.866 102.798C228.756 102.894 231.156 101.67 232.752 100.692C233.04 98.922 233.238 97.47 233.238 97.47C233.238 97.47 224.616 100.236 219.168 95.532Z" fill="#263238" stroke="#263238" stroke-linecap="round" stroke-linejoin="round"/>
<path d="M215.73 83.856C215.73 83.856 214.002 81.396 212.838 83.856C211.674 86.316 214.638 89.958 215.466 90.456C217.818 91.854 217.194 89.256 217.194 89.256L215.73 83.856Z" fill="white" stroke="#263238" stroke-linecap="round" stroke-linejoin="round"/>
<path d="M237.192 84.918C237.192 84.918 238.65 82.374 240.078 84.774C241.506 87.174 238.932 90.948 238.164 91.482C235.968 93 236.316 90.396 236.316 90.396L237.192 84.918Z" fill="white" stroke="#263238" stroke-linecap="round" stroke-linejoin="round"/>
<path d="M215.322 81.684C215.322 81.684 221.586 80.22 224.742 78.354C226.675 77.1865 228.361 75.6516 229.704 73.836C229.704 73.836 232.416 78.96 234.804 81.036C237.192 83.112 237.69 83.232 237.69 83.232C237.69 83.232 236.544 92.202 235.248 95.322C233.952 98.442 229.722 101.478 225.774 100.602C223.53 100.11 219.642 98.49 218.514 95.76C217.386 93.03 215.322 81.684 215.322 81.684Z" fill="white" stroke="#263238" stroke-linecap="round" stroke-linejoin="round"/>
<path d="M231.306 88.578C229.362 88.626 222.852 88.638 219.492 86.61C218.145 85.826 216.884 84.9029 215.73 83.856C215.85 84.456 215.994 85.206 216.15 85.986L216.882 86.52L218.718 93.456L217.86 93.642C218.041 94.351 218.259 95.05 218.514 95.736C219.642 98.466 223.53 100.086 225.774 100.578C229.716 101.448 233.934 98.43 235.242 95.316C234.933 94.711 234.842 94.0182 234.984 93.354C235.362 91.392 235.83 87.954 235.83 87.954L237.168 86.754C237.24 86.316 237.3 85.896 237.36 85.512C235.74 86.634 232.704 88.542 231.306 88.578Z" fill="#EE7814" stroke="#263238" stroke-linecap="round" stroke-linejoin="round"/>
<path d="M224.16 85.68C224.16 85.68 222.066 83.136 219.318 83.37" stroke="#263238" stroke-linecap="round" stroke-linejoin="round"/>
<path d="M229.554 86.184C230.222 85.4815 231.052 84.9534 231.972 84.6459C232.891 84.3384 233.872 84.2608 234.828 84.42" stroke="#263238" stroke-linecap="round" stroke-linejoin="round"/>
<path d="M218.112 82.098C218.112 82.098 221.112 80.898 223.77 81.462" stroke="#263238" stroke-linecap="round" stroke-linejoin="round"/>
<path d="M229.8 82.116C230.59 81.7122 231.486 81.5612 232.365 81.6836C233.244 81.8059 234.064 82.1957 234.714 82.8" stroke="#263238" stroke-linecap="round" stroke-linejoin="round"/>
<path d="M222.144 84.846C222.158 84.9382 222.153 85.0322 222.13 85.1226C222.107 85.2129 222.067 85.2979 222.011 85.3726C221.955 85.4473 221.885 85.5103 221.805 85.5579C221.725 85.6055 221.636 85.6368 221.544 85.65C221.356 85.6289 221.184 85.5372 221.061 85.3934C220.939 85.2497 220.875 85.0647 220.884 84.876C220.87 84.7837 220.874 84.6894 220.896 84.5987C220.919 84.508 220.959 84.4228 221.015 84.3479C221.071 84.273 221.141 84.21 221.222 84.1627C221.302 84.1153 221.391 84.0845 221.484 84.072C221.671 84.0945 221.843 84.1866 221.965 84.33C222.088 84.4734 222.151 84.6577 222.144 84.846Z" fill="#263238"/>
<path d="M233.01 85.626C233.026 85.7185 233.023 85.8134 233.001 85.9047C232.98 85.9961 232.939 86.082 232.883 86.1573C232.827 86.2326 232.756 86.2956 232.675 86.3425C232.593 86.3894 232.503 86.4192 232.41 86.43C232.223 86.4103 232.05 86.3198 231.928 86.1771C231.805 86.0343 231.741 85.85 231.75 85.662C231.734 85.5695 231.737 85.4746 231.759 85.3833C231.78 85.2919 231.821 85.206 231.877 85.1307C231.933 85.0554 232.004 84.9924 232.085 84.9455C232.167 84.8986 232.257 84.8689 232.35 84.858C232.537 84.8777 232.71 84.9682 232.833 85.111C232.955 85.2537 233.019 85.438 233.01 85.626Z" fill="#263238"/>
<path d="M249.168 109.644C249.168 109.644 252.666 111.264 253.968 113.844C255.27 116.424 265.68 144.378 265.632 146.49C265.584 148.602 262.14 151.038 258.912 151.368C255.684 151.698 250.98 145.848 250.278 144.876C249.576 143.904 249.45 132.528 249.45 132.528L249.168 109.644Z" fill="white" stroke="#263238" stroke-linecap="round" stroke-linejoin="round"/>
<path d="M232.68 102.18L234.384 158.064L234.984 193.314C238.251 194.117 241.598 194.55 244.962 194.604C247.768 194.663 250.557 194.165 253.17 193.14C253.17 193.14 252.15 171.21 251.97 167.634C251.79 164.058 250.602 157.236 250.602 157.236L249.186 109.644C249.186 109.644 236.004 103.476 232.68 102.18Z" fill="white" stroke="#263238" stroke-linecap="round" stroke-linejoin="round"/>
<path d="M236.424 105.264L242.466 124.974L236.958 126.468L242.316 129.066L235.632 150.3" fill="white"/>
<path d="M236.424 105.264L242.466 124.974L236.958 126.468L242.316 129.066L235.632 150.3" stroke="#263238" stroke-linecap="round" stroke-linejoin="round"/>
<path d="M240.636 123.294L233.142 159.198C233.142 159.198 238.266 160.818 242.01 160.998C245.754 161.178 253.554 161.154 253.554 161.154L261.354 127.686C261.354 127.686 246 126.216 240.636 123.294Z" fill="#263238" stroke="#263238" stroke-linecap="round" stroke-linejoin="round"/>
<path d="M243.246 156.756L243.492 145.536L249.438 146.79C249.438 146.79 245.508 155.448 243.246 156.756Z" fill="white" stroke="#263238" stroke-linecap="round" stroke-linejoin="round"/>
<path d="M247.8 141.48C247.8 141.48 246.216 139.212 245.706 138.72C245.196 138.228 242.676 136.776 242.19 136.776C241.704 136.776 239.094 136.614 238.59 136.614C238.086 136.614 237.516 137.754 238.032 138.24C238.548 138.726 240.342 138.888 240.342 138.888L241.572 140.688L236.022 140.202C236.022 140.202 235.098 141.18 235.308 142.002C235.465 142.559 235.666 143.103 235.908 143.628C235.887 144.821 235.949 146.014 236.094 147.198C236.31 148.176 237.294 148.5 238.644 149.31C239.994 150.12 244.512 149.634 244.512 149.634H246.6L247.8 141.48Z" fill="white" stroke="#263238" stroke-linecap="round" stroke-linejoin="round"/>
<path d="M261.33 142.608L246.93 140.67C246.93 140.67 245.808 149.934 244.674 153.018C243.54 156.102 243.246 156.756 243.246 156.756C243.246 156.756 258.336 156.42 261.894 156.096C265.452 155.772 267.45 153.654 267.294 150.732C267.138 147.81 265.356 144.882 265.356 144.882" fill="white"/>
<path d="M261.33 142.608L246.93 140.67C246.93 140.67 245.808 149.934 244.674 153.018C243.54 156.102 243.246 156.756 243.246 156.756C243.246 156.756 258.336 156.42 261.894 156.096C265.452 155.772 267.45 153.654 267.294 150.732C267.138 147.81 265.356 144.882 265.356 144.882" stroke="#263238" stroke-linecap="round" stroke-linejoin="round"/>
<path d="M201.282 152.724C201.282 152.724 204.642 154.83 205.482 155.484C206.322 156.138 206.394 160.356 206.928 161.166C207.462 161.976 206.832 162.468 205.86 162.468C204.888 162.468 203.418 159.384 203.418 159.384L203.358 158.244L196.494 160.524L194.694 157.44C194.694 157.44 196.734 152.724 201.282 152.724Z" fill="white" stroke="#263238" stroke-linecap="round" stroke-linejoin="round"/>
<path d="M151.278 280.2C168.619 280.2 182.676 277.03 182.676 273.12C182.676 269.21 168.619 266.04 151.278 266.04C133.937 266.04 119.88 269.21 119.88 273.12C119.88 277.03 133.937 280.2 151.278 280.2Z" fill="#263238" stroke="#263238" stroke-linecap="round" stroke-linejoin="round"/>
<path d="M175.8 104.874C175.8 104.874 179.916 125.532 180.648 129.354C181.38 133.176 182.724 142.26 184.248 146.244C185.772 150.228 185.274 155.328 184.512 156.762C183.748 158.008 182.87 159.181 181.89 160.266L176.778 153.6C176.778 153.6 173.736 120.936 173.622 116.31C173.508 111.684 175.8 104.874 175.8 104.874Z" fill="white" stroke="#263238" stroke-linecap="round" stroke-linejoin="round"/>
<path d="M178.512 152.784C178.512 152.784 181.752 154.806 182.322 155.664C182.892 156.522 183.3 157.614 182.856 158.544C182.412 159.474 179.994 162.282 179.382 162.828C178.77 163.374 178.254 161.196 178.182 159.324C178.11 157.452 178.512 152.784 178.512 152.784Z" fill="white" stroke="#263238" stroke-linecap="round" stroke-linejoin="round"/>
<path d="M161.088 266.064C161.088 266.064 171.246 271.002 171.888 271.962C172.53 272.922 170.214 274.2 164.16 274.2C158.106 274.2 157.926 273.402 155.52 272.766C153.114 272.13 148.32 272.604 147.672 271.17C147.024 269.736 148.152 264.798 148.152 264.798L161.088 266.064Z" fill="white" stroke="#263238" stroke-linecap="round" stroke-linejoin="round"/>
<path d="M147.6 268.614C147.6 268.614 156 273.714 155.262 275.466C154.524 277.218 148.452 277.218 145.254 276.738C142.056 276.258 135.258 271.938 134.898 270.366C134.538 268.794 135.438 266.382 140.364 265.908C145.29 265.434 147.6 268.614 147.6 268.614Z" fill="white" stroke="#263238" stroke-linecap="round" stroke-linejoin="round"/>
<path d="M173.1 185.28C173.1 185.28 168.3 222.246 167.466 227.664C166.632 233.082 163.986 241.686 162.558 248.22C161.749 252.063 161.148 255.946 160.758 259.854C160.612 260.965 160.638 262.093 160.836 263.196C161.04 264.792 161.07 266.064 161.07 266.064C158.933 266.6 156.759 266.973 154.566 267.18C151.86 267.342 148.194 267.342 148.194 267.342L146.994 256.986C146.994 256.986 147.888 241.686 148.416 237.228C148.944 232.77 149.508 197.712 149.484 196.752C149.46 195.792 149.25 187.35 149.25 187.35L165.6 185.598C165.6 185.598 167.832 179.226 171.186 179.544C174.54 179.862 173.1 185.28 173.1 185.28Z" fill="white" stroke="#263238" stroke-linecap="round" stroke-linejoin="round"/>
<path d="M171.21 179.544C167.856 179.226 165.624 185.598 165.624 185.598L149.256 187.35C149.256 187.35 149.31 189.594 149.364 191.898C151.11 192.054 152.724 192.144 154.104 192.144C159.348 192.135 164.588 191.841 169.8 191.262L170.502 183.918L171.6 191.4L172.356 191.154C172.824 187.59 173.124 185.268 173.124 185.268C173.124 185.268 174.564 179.862 171.21 179.544Z" fill="#263238" stroke="#263238" stroke-linecap="round" stroke-linejoin="round"/>
<path d="M132.18 186.396C132.18 186.396 132.18 186.624 132.216 187.038C132.438 191.394 133.758 216.636 134.16 221.292C134.61 226.392 132.36 231.966 132.474 236.586C132.588 241.206 133.674 266.226 133.674 266.226L134.874 270.366C134.874 270.366 137.694 268.458 140.4 268.458C143.106 268.458 147.6 268.614 147.6 268.614C147.6 268.614 147.834 265.266 147.81 264.156C147.786 263.046 147.684 259.056 147.684 259.056C147.684 259.056 152.262 238.182 152.538 236.43C152.814 234.678 156.366 204.402 156.342 203.43C156.318 202.458 157.092 188.928 157.092 188.928L132.18 186.396Z" fill="white" stroke="#263238" stroke-linecap="round" stroke-linejoin="round"/>
<path d="M156.924 192.114C157.026 190.266 157.098 188.946 157.098 188.946L132.18 186.396C132.18 186.396 132.18 186.624 132.216 187.038C132.216 187.566 132.282 188.4 132.342 189.438C138.168 190.482 148.278 192.126 154.104 192.126C155.064 192.144 156 192.132 156.924 192.114Z" fill="#263238" stroke="#263238" stroke-linecap="round" stroke-linejoin="round"/>
<path d="M150.54 88.56C150.54 88.56 147.906 89.004 146.904 90.18C145.9 91.3239 144.996 92.5525 144.204 93.852C144.066 94.296 128.574 103.698 128.574 103.698L129.69 148.53C129.69 148.53 130.152 155.436 129.33 157.788C127.941 162.412 127.268 167.222 127.332 172.05C127.476 177.78 127.848 187.05 127.848 187.05C127.848 187.05 145.578 190.578 154.104 190.578C159.348 190.566 164.588 190.267 169.8 189.684L170.502 182.334L171.57 189.834L175.212 188.634L178.212 166.434C178.212 166.434 180.3 161.73 180.276 160.698C180.252 159.666 180.804 158.346 180.198 157.464C179.592 156.582 178.512 154.818 178.512 154.818C178.512 154.818 175.8 106.2 175.8 104.874C175.8 103.548 167.778 95.766 167.184 95.472C166.59 95.178 162.93 89.736 158.184 88.272C153.438 86.808 150.54 88.56 150.54 88.56Z" fill="white" stroke="#263238" stroke-linecap="round" stroke-linejoin="round"/>
<path d="M145.71 95.322L143.934 111.468L151.23 114.858L149.406 120.336L167.652 152.4" stroke="#263238" stroke-linecap="round" stroke-linejoin="round"/>
<path d="M166.092 97.134L171.564 109.908L169.218 113.034L173.13 118.506L171.564 153.702" stroke="#263238" stroke-linecap="round" stroke-linejoin="round"/>
<path d="M149.862 90.768C149.995 93.9179 150.566 97.0339 151.56 100.026C153.138 104.436 163.596 134.862 163.596 134.862L170.358 158.67C170.358 158.67 169.464 134.418 169.44 133.392C169.416 132.366 164.316 98.7 164.316 98.7C164.316 98.7 163.446 93.264 162.072 91.206C160.698 89.148 151.488 85.326 149.862 90.768Z" fill="#EE7814" stroke="#263238" stroke-linecap="round" stroke-linejoin="round"/>
<path d="M149.214 88.416C149.214 88.416 144.96 88.854 145.71 95.322C146.46 101.79 147.45 106.2 147.45 106.2" stroke="#263238" stroke-width="2" stroke-linecap="round" stroke-linejoin="round"/>
<path d="M146.928 114.726C146.928 114.726 148.728 122.22 149.958 124.278C151.188 126.336 154.908 128.394 157.554 128.394" stroke="#263238" stroke-linecap="round" stroke-linejoin="round"/>
<path d="M152.616 112.962C152.616 112.962 154.596 121.632 154.926 123.252C155.256 124.872 154.164 127.95 152.328 131.052" stroke="#263238" stroke-linecap="round" stroke-linejoin="round"/>
<path d="M151.8 132.078C151.611 131.974 151.471 131.8 151.41 131.593C151.35 131.386 151.373 131.164 151.476 130.974L151.686 130.59C151.738 130.498 151.807 130.418 151.89 130.353C151.973 130.288 152.069 130.241 152.17 130.214C152.272 130.186 152.378 130.18 152.482 130.194C152.587 130.208 152.687 130.243 152.778 130.296C152.967 130.4 153.107 130.574 153.169 130.781C153.231 130.987 153.209 131.209 153.108 131.4L152.898 131.778C152.846 131.87 152.777 131.952 152.693 132.017C152.61 132.082 152.514 132.13 152.412 132.158C152.31 132.186 152.203 132.193 152.098 132.18C151.993 132.166 151.892 132.131 151.8 132.078Z" fill="#263238"/>
<path d="M158.538 128.556C158.538 128.662 158.517 128.767 158.475 128.864C158.434 128.961 158.373 129.049 158.297 129.123C158.221 129.196 158.131 129.253 158.032 129.291C157.933 129.329 157.828 129.346 157.722 129.342H157.284C157.068 129.337 156.863 129.248 156.712 129.093C156.562 128.938 156.478 128.73 156.48 128.514C156.479 128.409 156.5 128.304 156.54 128.207C156.581 128.109 156.641 128.021 156.717 127.948C156.793 127.874 156.882 127.817 156.981 127.779C157.079 127.741 157.185 127.724 157.29 127.728H157.728C157.944 127.734 158.149 127.824 158.3 127.978C158.451 128.133 158.537 128.34 158.538 128.556Z" fill="#263238"/>
<path d="M146.94 115.314L145.932 108.924C145.819 108.265 145.962 107.588 146.331 107.031C146.7 106.474 147.267 106.078 147.918 105.924V105.924C148.619 105.765 149.354 105.883 149.97 106.255C150.585 106.626 151.032 107.222 151.218 107.916L152.94 114.276" stroke="#263238" stroke-width="2" stroke-linecap="round" stroke-linejoin="round"/>
<path d="M170.657 119.633C172.101 119.488 173.137 118.021 172.97 116.356C172.803 114.691 171.497 113.458 170.053 113.603C168.609 113.747 167.574 115.215 167.74 116.88C167.907 118.545 169.213 119.777 170.657 119.633Z" fill="white" stroke="#263238" stroke-linecap="round" stroke-linejoin="round"/>
<path d="M163.278 91.11C163.278 91.11 169.056 99.24 170.898 115.812" stroke="#263238" stroke-width="2" stroke-linecap="round" stroke-linejoin="round"/>
<path d="M171.051 117.731C171.84 117.657 172.41 116.852 172.324 115.931C172.239 115.011 171.53 114.324 170.742 114.397C169.953 114.47 169.383 115.276 169.469 116.196C169.554 117.117 170.263 117.804 171.051 117.731Z" fill="white" stroke="#263238" stroke-linecap="round" stroke-linejoin="round"/>
<path d="M179.496 154.05C179.142 155.148 178.851 156.266 178.626 157.398C178.626 157.878 178.512 159.312 177.39 158.988C176.268 158.664 176.604 152.934 176.748 152.298C176.892 151.662 179.622 153.72 179.622 153.72" fill="white"/>
<path d="M179.496 154.05C179.142 155.148 178.851 156.266 178.626 157.398C178.626 157.878 178.512 159.312 177.39 158.988C176.268 158.664 176.604 152.934 176.748 152.298C176.892 151.662 179.622 153.72 179.622 153.72" stroke="#263238" stroke-linecap="round" stroke-linejoin="round"/>
<path d="M143.076 148.974C144.074 149.523 145.189 149.826 146.328 149.856C148.092 149.856 151.314 149.256 152.496 149.562C153.678 149.868 156.696 153.672 156.696 153.672C156.696 153.672 157.596 154.554 157.17 154.998C156.744 155.442 155.874 156.198 155.274 155.73C154.674 155.262 151.674 152.79 151.674 152.79L144.108 155.88L141 154.26L143.076 148.974Z" fill="white" stroke="#263238" stroke-linecap="round" stroke-linejoin="round"/>
<path d="M131.49 102.672C131.49 102.672 126.504 103.272 125.658 104.58C124.812 105.888 111.15 135.888 111.18 137.214C111.21 138.54 138.498 160.014 138.498 160.014L144.39 148.8L129.648 135.132L136.044 120.288" fill="white"/>
<path d="M131.49 102.672C131.49 102.672 126.504 103.272 125.658 104.58C124.812 105.888 111.15 135.888 111.18 137.214C111.21 138.54 138.498 160.014 138.498 160.014L144.39 148.8L129.648 135.132L136.044 120.288" stroke="#263238" stroke-linecap="round" stroke-linejoin="round"/>
<path d="M140.688 165.432L155.1 165.726L155.028 156.762" stroke="#263238" stroke-linecap="round" stroke-linejoin="round"/>
<path d="M144.126 155.88L140.316 157.302" stroke="#263238" stroke-linecap="round" stroke-linejoin="round"/>
<path d="M148.47 82.092C148.47 82.092 150.108 94.884 151.188 96.792C152.268 98.7 159.948 106.344 159.948 106.344C159.948 106.344 162.348 97.53 162.618 95.472C162.888 93.414 163.098 85.182 163.098 85.182L148.44 81.066L148.47 82.092Z" fill="white" stroke="#263238" stroke-linecap="round" stroke-linejoin="round"/>
<path d="M148.47 82.092C148.47 82.092 148.662 83.592 148.956 85.638C150.105 86.7078 151.417 87.5869 152.844 88.242C154.734 89.076 159.774 89.544 162.96 89.172C163.044 87.018 163.098 85.182 163.098 85.182L148.44 81.066L148.47 82.092Z" fill="#263238" stroke="#263238" stroke-linecap="round" stroke-linejoin="round"/>
<path d="M144.222 70.926C144.222 70.926 142.26 68.868 141.288 71.214C140.316 73.56 142.488 77.094 143.646 77.244C144.333 77.3336 145.031 77.2826 145.698 77.094C145.698 77.094 146.52 80.478 147.276 81.504C148.764 83.3854 150.67 84.8934 152.844 85.908C155.52 87.108 164.478 87.534 165.612 85.908C166.746 84.282 166.68 75.618 166.662 74.886C166.644 74.154 166.518 63.678 166.518 63.678C166.518 63.678 167.322 60.042 166.23 57.54C165.138 55.038 154.176 51.54 151.422 52.986C148.668 54.432 145.494 56.952 145.278 60.186C145.062 63.42 145.194 68.712 145.194 68.712L144.222 70.926Z" fill="white" stroke="#263238" stroke-linecap="round" stroke-linejoin="round"/>
<path d="M160.422 66.366C160.422 66.366 162.252 74.766 161.832 75.774C161.412 76.782 160.098 76.8 158.454 75.918C156.81 75.036 157.668 73.86 157.668 73.86" stroke="#263238" stroke-linecap="round" stroke-linejoin="round"/>
<path d="M154.05 76.068C154.05 76.068 154.842 78.27 156.312 78.42C157.782 78.57 161.472 78.858 161.472 78.858" stroke="#263238" stroke-linecap="round" stroke-linejoin="round"/>
<path d="M148.8 66.66L149.034 70.188C149.034 70.188 150.378 70.926 153.462 70.926C156.546 70.926 157.56 70.188 157.56 70.188L157.476 66.66C157.476 66.66 153 64.014 148.8 66.66Z" stroke="#263238" stroke-linecap="round" stroke-linejoin="round"/>
<path d="M160.434 66.66L161.55 70.338C161.55 70.338 162.006 70.938 165.096 70.938C168.186 70.938 169.2 70.2 169.2 70.2L169.11 66.672C169.11 66.672 164.628 64.014 160.434 66.66Z" stroke="#263238" stroke-linecap="round" stroke-linejoin="round"/>
<path d="M157.494 66.66H160.434" stroke="#263238" stroke-linecap="round" stroke-linejoin="round"/>
<path d="M148.818 66.66L143.022 70.044" stroke="#263238" stroke-linecap="round" stroke-linejoin="round"/>
<path d="M150.246 64.896C150.246 64.896 151.818 63.132 155.382 64.602" stroke="#263238" stroke-linecap="round" stroke-linejoin="round"/>
<path d="M160.974 64.896C161.503 64.4714 162.142 64.2049 162.816 64.1274C163.49 64.0499 164.172 64.1645 164.784 64.458" stroke="#263238" stroke-linecap="round" stroke-linejoin="round"/>
<path d="M154.002 68.28C154.002 68.928 153.768 69.48 153.444 69.48C153.12 69.48 152.844 68.952 152.844 68.28C152.844 67.608 153.078 67.08 153.408 67.08C153.738 67.08 153.99 67.626 154.002 68.28Z" fill="#263238"/>
<path d="M163.41 68.13C163.41 68.778 163.176 69.33 162.852 69.33C162.528 69.33 162.252 68.802 162.252 68.13C162.252 67.458 162.486 66.93 162.81 66.93C163.134 66.93 163.392 67.482 163.41 68.13Z" fill="#263238"/>
<path d="M153.342 54.534C153.342 54.534 154.758 57.66 153 58.8C152.457 59.1139 151.842 59.2792 151.215 59.2792C150.588 59.2792 149.972 59.1139 149.43 58.8C149.897 59.4456 150.158 60.2176 150.179 61.0143C150.199 61.8111 149.978 62.5954 149.544 63.264C148.682 64.6999 147.677 66.0448 146.544 67.278C146.544 67.278 146.862 71.076 146.202 71.52C145.542 71.964 143.742 71.298 143.712 70.182C143.682 69.066 142.962 66.834 142.932 65.718C142.902 64.602 142.386 61.698 142.386 61.698C142.386 61.698 137.874 59.688 140.268 57.234C142.662 54.78 147.744 52.77 147.744 52.77C147.744 52.77 147.858 48.306 150.948 46.968C154.038 45.63 160.686 43.62 160.74 45.852C160.824 47.0007 160.618 48.1522 160.14 49.2C160.14 49.2 165.714 48.978 169.602 52.8C173.49 56.622 173.358 60.168 171.348 60.168C169.338 60.168 168.684 60.612 168.684 60.612C168.684 60.612 172.53 62.844 170.55 63.96C168.57 65.076 166.53 63.738 166.53 63.738C166.53 63.738 167.382 62.178 164.874 60.138C162.366 58.098 153.342 54.534 153.342 54.534Z" fill="#263238" stroke="#263238" stroke-linecap="round" stroke-linejoin="round"/>
<path d="M77.2081 280.2C94.5487 280.2 108.606 277.03 108.606 273.12C108.606 269.21 94.5487 266.04 77.2081 266.04C59.8674 266.04 45.8101 269.21 45.8101 273.12C45.8101 277.03 59.8674 280.2 77.2081 280.2Z" fill="#263238" stroke="#263238" stroke-linecap="round" stroke-linejoin="round"/>
<path d="M97.884 126.678V132.414L106.224 136.236C106.224 136.236 107.094 132.414 106.398 125.634L97.884 126.678Z" fill="#999999" stroke="#263238" stroke-linecap="round" stroke-linejoin="round"/>
<path d="M56.49 264.324C54.5811 265.963 52.7775 267.72 51.09 269.586C48.69 272.292 48.222 274.986 50.454 276.276C52.686 277.566 56.19 277.23 60.012 274.842C63.834 272.454 63.678 271.494 65.91 270.702C68.142 269.91 69.576 268.302 69.576 265.758C69.576 263.214 61.446 262.89 59.694 262.758C57.942 262.626 56.49 264.324 56.49 264.324Z" fill="white" stroke="#263238" stroke-linecap="round" stroke-linejoin="round"/>
<path d="M69.558 265.758C69.558 265.758 65.958 267.354 64.212 268.806C62.466 270.258 58.986 275.484 54.918 275.484C52.8463 275.486 50.8091 274.955 49.002 273.942C49.0046 274.425 49.1397 274.898 49.3925 275.31C49.6454 275.721 50.0063 276.055 50.436 276.276C52.668 277.548 56.172 277.23 59.994 274.842C63.816 272.454 63.66 271.494 65.892 270.702C68.124 269.91 69.558 268.308 69.558 265.758Z" stroke="#263238" stroke-linecap="round" stroke-linejoin="round"/>
<path d="M96.924 264.324C98.8329 265.963 100.637 267.72 102.324 269.586C104.724 272.292 105.192 274.986 102.96 276.276C100.728 277.566 97.224 277.23 93.402 274.842C89.58 272.454 89.736 271.494 87.504 270.702C85.272 269.91 83.838 268.302 83.838 265.758C83.838 263.214 91.968 262.89 93.72 262.758C95.472 262.626 96.924 264.324 96.924 264.324Z" fill="white" stroke="#263238" stroke-linecap="round" stroke-linejoin="round"/>
<path d="M83.856 265.758C83.856 265.758 87.456 267.354 89.202 268.806C90.948 270.258 94.428 275.484 98.496 275.484C100.568 275.486 102.605 274.955 104.412 273.942C104.409 274.425 104.274 274.898 104.021 275.31C103.769 275.721 103.408 276.055 102.978 276.276C100.746 277.548 97.242 277.23 93.42 274.842C89.598 272.454 89.754 271.494 87.522 270.702C85.29 269.91 83.856 268.308 83.856 265.758Z" stroke="#263238" stroke-linecap="round" stroke-linejoin="round"/>
<path d="M51.87 173.82C51.87 173.82 52.824 209.67 53.304 214.932C53.784 220.194 55.2 232.14 55.2 232.8C55.2 233.46 55.992 259.89 55.992 259.89L54.558 262.29L55.038 265.638L61.41 266.91C64.596 267.546 68.742 268.506 69.378 267.87C70.014 267.234 70.176 265.956 70.494 264.204C70.812 262.452 71.448 259.26 70.812 256.716C70.176 254.172 71.61 227.076 71.772 226.44C71.934 225.804 75.6 199.632 75.6 199.632C75.6 199.632 78 221.148 79.74 227.676C81.48 234.204 80.856 243.93 81.492 247.752C82.128 251.574 83.406 264.486 83.568 265.44C83.73 266.394 84.042 267.84 84.042 267.84C84.042 267.84 92.01 266.724 93.444 266.082C94.8979 265.546 96.3901 265.121 97.908 264.81C97.908 264.81 98.382 255.726 97.746 252.06C97.2826 249.484 97.0158 246.876 96.948 244.26C96.948 243.144 97.746 207.774 97.746 207.774L96.948 173.514C96.948 173.514 75.438 175.746 67.152 174.15C58.866 172.554 52.032 171.6 52.032 171.6L51.87 173.82Z" fill="#EE7814" stroke="#263238" stroke-linecap="round" stroke-linejoin="round"/>
<path d="M67.164 174.138C58.878 172.548 52.032 171.6 52.032 171.6L51.87 173.826C51.87 173.826 51.924 175.884 52.014 179.076C55.812 180.138 63.528 182.004 70.986 182.004C78.87 182.004 91.428 179.604 97.08 178.458L96.96 173.508C96.96 173.508 75.45 175.734 67.164 174.138Z" fill="#263238" stroke="#263238" stroke-linecap="round" stroke-linejoin="round"/>
<path d="M94.842 254.874C94.944 255.972 95.01 256.602 95.01 256.602" stroke="#263238" stroke-linecap="round" stroke-linejoin="round"/>
<path d="M92.4 182.232C92.4 182.232 93 213.024 93 224.646C93 232.686 93.972 244.89 94.572 251.646" stroke="#263238" stroke-linecap="round" stroke-linejoin="round"/>
<path d="M60.15 180.492L61.602 213.9" stroke="#263238" stroke-linecap="round" stroke-linejoin="round"/>
<path d="M61.308 216.51V222.03" stroke="#263238" stroke-linecap="round" stroke-linejoin="round"/>
<path d="M68.8621 89.664C68.0776 89.6682 67.3054 89.8592 66.6094 90.2213C65.9135 90.5833 65.3138 91.106 64.8601 91.746C63.8678 93.0553 62.7636 94.2759 61.5601 95.394L47.3101 103.044L48.7021 157.44L49.2241 176.04C49.2241 176.04 60.1681 179.688 70.5961 179.688C81.0241 179.688 99.6181 175.488 99.6181 175.488C99.6181 175.488 98.0581 103.02 98.5801 103.02C99.1021 103.02 88.3261 93.66 83.4601 91.2C78.5941 88.74 68.8621 89.664 68.8621 89.664Z" fill="#EE7814" stroke="#263238" stroke-linecap="round" stroke-linejoin="round"/>
<path d="M64.8 96.24C64.8 96.24 70.3201 106.41 72.6481 111.06C74.9761 115.71 79.32 122.4 79.32 122.4L86.586 102.936" stroke="#263238" stroke-linecap="round" stroke-linejoin="round"/>
<path d="M68.8801 160.746L68.5981 152.628L52.2001 151.674C52.2001 151.674 52.3621 163.626 52.6801 164.274" stroke="#263238" stroke-linecap="round" stroke-linejoin="round"/>
<path d="M69.078 166.494L69 164.214" stroke="#263238" stroke-linecap="round" stroke-linejoin="round"/>
<path d="M88.518 165.216L88.038 151.836C88.038 151.836 93.774 152.31 98.556 149.124" stroke="#263238" stroke-linecap="round" stroke-linejoin="round"/>
<path d="M63.93 119.952C64.434 121.542 65.97 122.478 67.356 122.034C68.742 121.59 69.444 119.94 68.934 118.35C68.424 116.76 66.894 115.824 65.508 116.268C64.122 116.712 63.42 118.362 63.93 119.952Z" stroke="#263238" stroke-linecap="round" stroke-linejoin="round"/>
<path d="M64.092 92.112C64.092 92.112 62.25 99.192 66.438 118.41" stroke="#263238" stroke-width="2" stroke-linecap="round" stroke-linejoin="round"/>
<path d="M67.728 119.07C67.6045 119.319 67.4122 119.527 67.1739 119.67C66.9356 119.813 66.6613 119.885 66.3835 119.876C66.1058 119.868 65.8363 119.78 65.607 119.623C65.3777 119.466 65.1982 119.247 65.09 118.991C64.9817 118.735 64.9491 118.453 64.9961 118.179C65.0432 117.905 65.1678 117.651 65.3552 117.446C65.5426 117.24 65.7849 117.093 66.0535 117.022C66.322 116.95 66.6054 116.957 66.87 117.042C67.2512 117.199 67.555 117.5 67.7157 117.88C67.8763 118.259 67.8807 118.687 67.728 119.07V119.07Z" stroke="#263238" stroke-linecap="round" stroke-linejoin="round"/>
<path d="M97.884 102C97.884 102 100.488 103.914 100.662 104.61C100.836 105.306 109.698 126.504 109.698 126.504L96.84 128.4L97.014 115.884" fill="#EE7814"/>
<path d="M97.884 102C97.884 102 100.488 103.914 100.662 104.61C100.836 105.306 109.698 126.504 109.698 126.504L96.84 128.4L97.014 115.884" stroke="#263238" stroke-linecap="round" stroke-linejoin="round"/>
<path d="M49.05 102.348C49.05 102.348 46.092 102.696 45.396 104.952C44.7 107.208 39.666 130.152 39.666 130.152L58.086 128.4L56.346 111.192" fill="#EE7814"/>
<path d="M49.05 102.348C49.05 102.348 46.092 102.696 45.396 104.952C44.7 107.208 39.666 130.152 39.666 130.152L58.086 128.4L56.346 111.192" stroke="#263238" stroke-linecap="round" stroke-linejoin="round"/>
<path d="M84.63 91.032C84.63 91.032 89.196 93.636 89.646 100.116C90.096 106.596 89.646 108.24 89.646 108.24" stroke="#263238" stroke-width="2" stroke-linecap="round" stroke-linejoin="round"/>
<path d="M91.71 116.538C91.71 116.538 91.302 124.2 90.468 126.414C89.634 128.628 86.334 131.25 83.718 131.67" stroke="#263238" stroke-linecap="round" stroke-linejoin="round"/>
<path d="M85.8 115.71C85.8 115.71 85.434 124.548 85.398 126.192C85.362 127.836 87.018 130.698 89.394 133.44" stroke="#263238" stroke-linecap="round" stroke-linejoin="round"/>
<path d="M90.0754 134.403L90.1453 134.346C90.4722 134.081 90.5223 133.601 90.2572 133.274L89.9209 132.859C89.6558 132.533 89.1759 132.482 88.8491 132.747L88.7792 132.804C88.4523 133.069 88.4022 133.549 88.6673 133.876L89.0036 134.291C89.2687 134.618 89.7486 134.668 90.0754 134.403Z" fill="#263238"/>
<path d="M82.7786 131.95L82.7954 132.039C82.8737 132.452 83.2725 132.724 83.6859 132.645L84.2106 132.546C84.6241 132.468 84.8958 132.069 84.8174 131.655L84.8006 131.567C84.7223 131.153 84.3236 130.882 83.9101 130.96L83.3854 131.06C82.972 131.138 82.7003 131.537 82.7786 131.95Z" fill="#263238"/>
<path d="M91.8 117.12L91.626 110.682C91.6098 110.01 91.3438 109.369 90.8801 108.883C90.4163 108.397 89.7881 108.102 89.118 108.054V108.054C88.4064 108.001 87.7026 108.232 87.1607 108.696C86.6188 109.161 86.2827 109.821 86.226 110.532L85.686 117.06" stroke="#263238" stroke-width="2" stroke-linecap="round" stroke-linejoin="round"/>
<path d="M106.746 131.892L102.6 131.022L88.002 128.592L67.53 124.692L62.676 122.55C62.676 122.55 58.086 116.55 57.69 115.95C57.294 115.35 52.104 117.444 52.29 118.242C52.476 119.04 53.088 127.014 53.49 127.518C53.892 128.022 58.374 128.016 58.374 128.016C58.374 128.016 79.758 138.336 80.646 138.714C92.988 143.916 98.94 143.868 101.046 144.21C103.152 144.552 104.526 143.7 105.738 142.308C106.95 140.916 106.746 131.892 106.746 131.892Z" fill="#999999" stroke="#263238" stroke-linecap="round" stroke-linejoin="round"/>
<path d="M57.066 115.866C57.066 115.866 54.576 115.968 50.886 118.458C49.512 119.388 48.792 120.054 48.792 120.456C48.8706 120.934 49.0056 121.401 49.194 121.848C51.5864 120.696 54.0918 119.795 56.67 119.16" fill="#999999"/>
<path d="M57.066 115.866C57.066 115.866 54.576 115.968 50.886 118.458C49.512 119.388 48.792 120.054 48.792 120.456C48.8706 120.934 49.0056 121.401 49.194 121.848C51.5864 120.696 54.0918 119.795 56.67 119.16" stroke="#263238" stroke-linecap="round" stroke-linejoin="round"/>
<path d="M58.062 122.25C58.062 122.25 51.288 123.942 50.19 124.146C49.092 124.35 48.894 123.246 48.894 122.85C48.894 122.454 49.194 121.848 50.388 121.254C51.582 120.66 57.588 119.058 57.588 119.058" fill="#999999"/>
<path d="M58.062 122.25C58.062 122.25 51.288 123.942 50.19 124.146C49.092 124.35 48.894 123.246 48.894 122.85C48.894 122.454 49.194 121.848 50.388 121.254C51.582 120.66 57.588 119.058 57.588 119.058" stroke="#263238" stroke-linecap="round" stroke-linejoin="round"/>
<path d="M58.7641 125.34C58.7641 125.34 50.8861 126.138 50.2861 125.64C50.1025 125.44 49.9632 125.204 49.8774 124.946C49.7916 124.689 49.7611 124.416 49.7881 124.146L56.8681 122.646" fill="#999999"/>
<path d="M58.7641 125.34C58.7641 125.34 50.8861 126.138 50.2861 125.64C50.1025 125.44 49.9632 125.204 49.8774 124.946C49.7916 124.689 49.7611 124.416 49.7881 124.146L56.8681 122.646" stroke="#263238" stroke-linecap="round" stroke-linejoin="round"/>
<path d="M56.568 125.736L50.49 126.036C50.49 126.036 50.784 126.936 51.09 127.032C52.5299 127.388 53.997 127.622 55.476 127.734C56.4458 127.766 57.4122 127.866 58.368 128.034" fill="#999999"/>
<path d="M56.568 125.736L50.49 126.036C50.49 126.036 50.784 126.936 51.09 127.032C52.5299 127.388 53.997 127.622 55.476 127.734C56.4458 127.766 57.4122 127.866 58.368 128.034" stroke="#263238" stroke-linecap="round" stroke-linejoin="round"/>
<path d="M43.488 129.804C43.488 129.804 46.266 141.804 46.962 142.668C47.658 143.532 53.394 142.668 59.13 140.928C64.866 139.188 89.196 128.766 89.196 128.766L92.67 129.456C92.67 129.456 91.278 125.112 88.848 124.938C86.418 124.764 58.086 128.4 58.086 128.4L43.488 129.804Z" fill="#999999" stroke="#263238" stroke-linecap="round" stroke-linejoin="round"/>
<path d="M67.8 82.014C67.8 82.014 67.8 82.272 67.8 82.71C67.854 84.996 68.076 92.256 68.658 94.008C69.354 96.09 78.738 113.646 79.458 112.254C80.178 110.862 84.4981 91.92 84.4981 91.92V84.45C84.4981 84.45 82.236 86.358 78.066 86.358C73.896 86.358 67.8 82.014 67.8 82.014Z" fill="#999999" stroke="#263238" stroke-linecap="round" stroke-linejoin="round"/>
<path d="M81.72 92.31C82.6931 91.7158 83.6234 91.0541 84.504 90.33V84.45C84.504 84.45 82.242 86.358 78.072 86.358C73.902 86.358 67.8 82.014 67.8 82.014C67.8 82.014 67.8 82.272 67.8 82.71C67.8 83.514 67.86 84.936 67.932 86.52C68.0966 86.7837 68.2812 87.0345 68.484 87.27C69.684 88.656 75.432 92.136 76.824 92.484C78.216 92.832 80.154 93.174 81.72 92.31Z" fill="#263238" stroke="#263238" stroke-linecap="round" stroke-linejoin="round"/>
<path d="M88.6741 71.934C88.6741 71.934 91.4521 70.368 91.4521 73.326C91.4521 76.284 88.8481 79.758 88.8481 79.758L88.6741 71.934Z" fill="#999999" stroke="#263238" stroke-linecap="round" stroke-linejoin="round"/>
<path d="M63.822 72.108C63.822 72.108 59.994 71.064 59.994 74.544C59.994 78.024 63.474 80.274 63.474 80.274H65.874C65.874 80.274 67.266 83.754 68.484 85.14C69.702 86.526 75.432 90.006 76.824 90.354C78.216 90.702 80.124 91.05 81.69 90.18C83.6575 88.9535 85.4705 87.495 87.09 85.836C87.786 84.972 89.004 79.062 89.004 79.062C89.004 79.062 89.352 68.46 88.656 64.812C87.96 61.164 83.442 55.428 77.184 54.732C70.926 54.036 65.016 59.076 64.152 63.072C63.288 67.068 63.822 72.108 63.822 72.108Z" fill="#999999" stroke="#263238" stroke-linecap="round" stroke-linejoin="round"/>
<path d="M75.114 74.892C75.114 74.892 73.914 77.322 75.984 78.018C78.054 78.714 80.676 78.54 81.198 77.496C81.72 76.452 80.85 75.24 80.85 75.24" stroke="#263238" stroke-linecap="round" stroke-linejoin="round"/>
<path d="M73.032 79.236C73.032 79.236 77.376 82.884 83.286 79.41" stroke="#263238" stroke-linecap="round" stroke-linejoin="round"/>
<path d="M75.462 82.536C75.462 82.536 79.116 84.624 81.546 82.188" stroke="#263238" stroke-linecap="round" stroke-linejoin="round"/>
<path d="M73.38 72.804C73.8605 72.804 74.25 72.1808 74.25 71.412C74.25 70.6432 73.8605 70.02 73.38 70.02C72.8995 70.02 72.51 70.6432 72.51 71.412C72.51 72.1808 72.8995 72.804 73.38 72.804Z" fill="#263238"/>
<path d="M82.7641 71.238C82.7641 72.006 82.3741 72.63 81.8941 72.63C81.4141 72.63 81.024 72.03 81.024 71.238C81.024 70.446 81.4141 69.852 81.8941 69.852C82.3741 69.852 82.7641 70.47 82.7641 71.238Z" fill="#263238"/>
<path d="M70.944 69.504C70.944 69.504 71.814 68.112 75.144 68.634" stroke="#263238" stroke-linecap="round" stroke-linejoin="round"/>
<path d="M80.502 68.808C80.502 68.808 82.068 66.372 84.504 68.808" stroke="#263238" stroke-linecap="round" stroke-linejoin="round"/>
<path d="M88.674 64.8C88.4483 63.768 88.0573 62.7792 87.516 61.872C87.3136 62.834 87.243 63.819 87.306 64.8C87.558 66.072 88.452 67.848 88.452 68.736C88.452 69.624 88.32 73.182 88.956 72.678C89.019 72.6114 89.0698 72.5342 89.106 72.45C89.1457 69.8929 89.0014 67.3363 88.674 64.8Z" fill="#263238" stroke="#263238" stroke-linecap="round" stroke-linejoin="round"/>
<path d="M79.9381 57.6C81.0538 57.5409 82.1644 57.4066 83.2621 57.198C81.4893 55.8709 79.4001 55.0311 77.2021 54.762C70.9441 54.066 65.0341 59.106 64.1701 63.102C63.3061 67.098 63.8221 72.138 63.8221 72.138C63.8221 72.138 65.2021 73.098 65.7121 72.084C66.2221 71.07 65.7121 69.414 66.2221 67.638C66.7321 65.862 67.4881 64.968 67.6141 63.57C67.7401 62.172 66.8521 60.144 67.3621 58.998C67.8721 57.852 71.0461 55.698 73.0801 56.46C75.2684 57.2888 77.5992 57.6763 79.9381 57.6Z" fill="#263238" stroke="#263238" stroke-linecap="round" stroke-linejoin="round"/>
</svg>
