<svg width="300" height="300" viewBox="0 0 300 300" fill="none" xmlns="http://www.w3.org/2000/svg">
<path d="M105.216 263.358C105.216 263.358 150.696 279.558 194.808 253.662C238.92 227.766 260.7 176.484 279.438 135.396C298.176 94.308 286.56 52.536 252.396 33.522C218.232 14.508 195.516 42.6 147.936 44.028C100.356 45.456 87.474 38.628 48.336 65.736C9.19797 92.844 2.84998 156.864 34.602 204.18C66.354 251.496 105.216 263.358 105.216 263.358Z" fill="#EE7814"/>
<path opacity="0.7" d="M105.216 263.358C105.216 263.358 150.696 279.558 194.808 253.662C238.92 227.766 260.7 176.484 279.438 135.396C298.176 94.308 286.56 52.536 252.396 33.522C218.232 14.508 195.516 42.6 147.936 44.028C100.356 45.456 87.474 38.628 48.336 65.736C9.19797 92.844 2.84998 156.864 34.602 204.18C66.354 251.496 105.216 263.358 105.216 263.358Z" fill="#FDF1E7"/>
<path d="M217.614 61.2C217.614 61.2 227.214 80.4 229.614 90C232.014 99.6 228.816 113.202 228.816 116.4C228.816 119.598 234.414 141.204 237.612 146.4C240.81 151.596 240.414 154.404 240.414 154.404C240.414 154.404 231.612 158.802 226.812 160.404L222 162C222 162 208.8 138.804 208.002 132C207.204 125.196 212.802 107.202 213.6 93.204C214.398 79.206 213.6 52.8 217.614 61.2Z" fill="white" stroke="#263238" stroke-miterlimit="10"/>
<path d="M153.846 131.286C153.846 131.286 146.646 133.458 144.066 135.636C141.486 137.814 117.768 176.28 116.466 179.538C115.164 182.796 118.866 190.62 124.506 195.618C130.146 200.616 133.638 215.616 133.638 215.616L118.422 269.52H225.354C225.798 266.922 224.07 258.21 212.964 242.784C208.164 236.142 204.924 231.702 204.924 231.702L206.448 227.136C206.448 227.136 212.964 222.786 217.53 209.532C222.096 196.278 224.922 179.322 225.57 171.732C226.218 164.142 226.656 151.932 223.17 144.564C219.684 137.196 210.57 135.432 210.57 135.432C210.57 135.432 181.662 130.434 178.836 129.786C176.01 129.138 153.846 131.286 153.846 131.286Z" fill="#EE7814" stroke="#263238" stroke-miterlimit="10"/>
<path d="M145.206 225.144L142.29 269.508H146.958L147.834 225.144H145.206Z" fill="white" stroke="#263238" stroke-miterlimit="10"/>
<path d="M149.208 225.144L150.756 269.508H155.424L151.83 225.144H149.208Z" fill="white" stroke="#263238" stroke-miterlimit="10"/>
<path d="M197.166 252.678C197.274 253.812 197.346 254.94 197.382 256.032" stroke="#263238" stroke-miterlimit="10"/>
<path d="M193.05 232.836C194.627 238.112 195.848 243.488 196.704 248.928" stroke="#263238" stroke-miterlimit="10"/>
<path d="M185.784 241.5C185.958 247.5 185.886 255.522 184.704 261.594" stroke="#263238" stroke-miterlimit="10"/>
<path d="M185.322 232.836C185.322 232.836 185.484 234.636 185.628 237.492" stroke="#263238" stroke-miterlimit="10"/>
<path d="M189.648 227.892C192.653 225.888 195.545 223.721 198.312 221.4" stroke="#263238" stroke-miterlimit="10"/>
<path d="M206.448 227.136C206.448 227.136 195.816 229.386 181.014 227.586C166.212 225.786 164.4 225.384 164.4 225.384C164.4 225.384 165 228.582 172.2 229.782C179.4 230.982 185.622 233.016 204.912 231.702C204.924 231.702 207.678 230.088 206.448 227.136Z" fill="white" stroke="#263238" stroke-miterlimit="10"/>
<path d="M129.414 169.8C129.414 169.8 117.6 174.384 114 176.184C110.4 177.984 108.804 185.382 109.2 189.984C109.596 194.586 112.2 212.382 112.2 215.586C112.2 218.79 116.4 220.986 121.002 221.982C125.604 222.978 134.4 224.184 137.802 222.786C141.204 221.388 143.91 215.226 144.054 206.706C144.198 198.186 141 182.4 140.016 175.986C139.032 169.572 129.414 169.8 129.414 169.8Z" fill="white" stroke="#263238" stroke-miterlimit="10"/>
<path d="M139.284 133.026C139.284 133.026 131.028 125.826 130.374 124.986C129.72 124.146 130.59 122.16 130.59 122.16C130.59 122.16 136.68 115.422 136.68 114.114C136.68 112.806 134.94 113.466 133.638 114.552C133.638 114.552 134.502 111.726 133.416 111.726C132.33 111.726 129.96 113.706 128.616 114.798C127.727 115.632 127.06 116.676 126.678 117.834C126.678 117.834 126.9 112.812 125.376 113.466C123.852 114.12 123.42 118.026 122.766 120.204C122.112 122.382 120.366 128.46 120.366 128.46L121.668 131.502L118.41 129.102C118.41 129.102 117.972 121.302 117.756 119.754C117.54 118.206 115.584 118.884 115.584 123.234C115.598 126.584 115.889 129.928 116.454 133.23C116.67 134.1 131.016 144.75 132.102 145.83C133.328 146.875 134.636 147.82 136.014 148.656C136.014 148.656 132.972 158.436 130.362 164.958C127.752 171.48 124.494 179.304 123.624 184.302C122.754 189.3 127.536 198.426 128.19 199.512C128.844 200.598 134.49 205.164 137.1 200.166C139.71 195.168 142.752 173.214 143.838 163.872C144.924 154.53 145.578 147.57 146.238 144.744C146.898 141.918 146.022 132.354 145.152 130.182C144.282 128.01 140.316 127.182 139.014 124.368C137.712 121.554 136.014 118.446 135.156 121.272C134.298 124.098 135.372 125.184 136.242 127.14C137.112 129.096 139.284 133.026 139.284 133.026Z" fill="white" stroke="#263238" stroke-miterlimit="10"/>
<path d="M126.678 117.834C126.639 119.14 126.495 120.44 126.246 121.722C125.808 124.122 125.376 126.942 125.376 126.942L128.202 130.416" stroke="#263238" stroke-miterlimit="10"/>
<path d="M133.638 114.552C133.638 114.552 132.15 116.316 131.394 117.24C130.638 118.164 129.204 119.598 129.204 119.598C129.204 119.598 127.938 125.238 127.938 125.496C127.938 125.754 130.296 128.358 130.296 128.358" stroke="#263238" stroke-miterlimit="10"/>
<path d="M121.68 131.502L124.416 133.584" stroke="#263238" stroke-miterlimit="10"/>
<path d="M124.614 134.382L131.412 128.382" stroke="#263238" stroke-miterlimit="10"/>
<path d="M135.216 138.186C135.216 138.186 140.814 140.784 141.012 144.384C141.21 147.984 139.416 149.184 139.416 149.184" stroke="#263238" stroke-miterlimit="10"/>
<path d="M166.236 127.8C166.236 127.8 155.154 129.534 153.846 131.274C152.538 133.014 151.674 152.142 151.446 166.074C151.218 180.006 153.186 188.274 153.186 188.274L144.054 206.748L148.404 209.79C148.404 209.79 186.654 171.54 192.09 163.932C197.526 156.324 213.39 138.282 213.39 136.332C213.39 134.382 202.956 130.68 199.476 129.816C195.996 128.952 190.35 128.946 184.266 128.292C178.182 127.638 166.236 127.8 166.236 127.8Z" fill="white" stroke="#263238" stroke-miterlimit="10"/>
<path d="M162.546 177.534L153.198 188.232" stroke="#263238" stroke-miterlimit="10"/>
<path d="M153.186 62.964C153.186 62.964 143.322 74.856 143.322 78.9C143.322 82.944 143.322 89.268 141.81 91.548C140.298 93.828 134.472 96.348 135.738 99.132C136.121 99.9524 136.686 100.675 137.39 101.245C138.094 101.814 138.918 102.216 139.8 102.42C139.8 102.42 143.598 115.824 145.62 119.112C147.642 122.4 152.22 122.904 154.218 122.4C156.216 121.896 161.046 119.112 161.046 119.112C161.046 119.112 167.118 130.998 167.37 132.768C167.622 134.538 161.55 169.44 161.55 172.968C161.55 176.496 162.564 177.522 162.564 177.522C162.564 177.522 189.372 139.836 192.156 136.296C194.94 132.756 197.214 130.23 197.214 130.23C197.214 130.23 190.89 121.884 188.616 115.83C186.342 109.776 185.58 107.988 186.846 106.23C188.112 104.472 190.128 101.682 190.128 101.682C190.128 101.682 170.154 78.414 163.578 70.068C157.002 61.722 155.466 59.934 153.186 62.964Z" fill="white" stroke="#263238" stroke-miterlimit="10"/>
<path d="M161.028 119.112L169.212 113.586L163.614 122.784L161.028 119.112Z" fill="#263238" stroke="#263238" stroke-miterlimit="10"/>
<path d="M149.814 87.21L148.944 89.466" stroke="#263238" stroke-miterlimit="10" stroke-linecap="round"/>
<path d="M154.68 89.814C154.68 89.814 149.28 91.38 146.514 88.944" stroke="#263238" stroke-width="2" stroke-miterlimit="10" stroke-linecap="round"/>
<path d="M153.846 62.208C153.606 62.4417 153.385 62.6946 153.186 62.964C153.186 62.964 151.146 65.43 148.92 68.496C151.488 70.896 158.1 76.932 160.524 78.138C163.398 79.578 155.148 64.44 153.846 62.208Z" fill="#263238"/>
<path d="M180 97.362C180 97.362 182.07 103.248 184.098 105.054C186.126 106.86 187.698 105.054 189.738 102.342C191.778 99.63 190.188 96.252 189.288 96.252C188.388 96.252 180.036 94.452 180.036 94.452L180 97.362Z" fill="#263238" stroke="#263238" stroke-miterlimit="10"/>
<path d="M171.648 99.384C171.648 99.384 172.914 104.184 176.448 102.924C179.982 101.664 179.988 97.362 179.988 97.362" stroke="#263238" stroke-miterlimit="10"/>
<path d="M147.378 83.4C147.378 83.4 150.858 80.448 153.81 83.922" stroke="#263238" stroke-width="2" stroke-miterlimit="10" stroke-linecap="round"/>
<path d="M150.51 91.986C150.51 93.09 150.162 93.984 149.73 93.984C149.298 93.984 148.944 93.09 148.944 91.986C148.944 90.882 149.298 89.988 149.73 89.988C150.162 89.988 150.51 90.882 150.51 91.986Z" fill="#263238"/>
<path d="M141.822 106.152C141.822 106.152 144.426 108.06 147.222 103.716" stroke="#263238" stroke-miterlimit="10" stroke-linecap="round"/>
<path d="M148.638 60.69C148.638 60.69 157.74 76.89 162.042 82.944C166.344 88.998 186.318 101.406 187.842 102.672C189.366 103.938 193.152 103.176 194.166 102.42C195.18 101.664 205.566 98.118 208.836 91.29C212.106 84.462 215.436 67.518 211.362 59.172C207.288 50.826 195.432 46.272 188.346 45.516C184.204 45.0454 180.011 45.3012 175.956 46.272C175.956 46.272 172.668 45.012 168.366 47.286C164.064 49.56 163.056 50.826 163.056 50.826C163.056 50.826 153.948 53.61 148.638 60.69Z" fill="white" stroke="#263238" stroke-miterlimit="10"/>
<path d="M179.742 45.516C179.742 45.516 184.8 41.724 188.85 40.716C192.9 39.708 204.276 42.234 208.32 44.508C212.364 46.782 221.982 67.272 223.752 73.848C225.522 80.424 221.472 91.554 221.22 98.124C220.968 104.694 229.314 126.96 230.328 129.738C231.342 132.516 231.588 132.522 225.528 136.062C219.468 139.602 203.772 143.4 199.974 144.654C196.176 145.908 192.138 136.56 189.6 127.458C187.062 118.356 187.83 108.258 190.362 94.836C192.894 81.414 194.658 69.288 193.392 59.172C192.126 49.056 184.8 45 179.742 45.516Z" fill="white" stroke="#263238" stroke-miterlimit="10"/>
<path d="M175.95 46.272C180.741 49.7965 184.139 54.894 185.55 60.672C187.824 70.272 190.86 75.072 193.134 76.872" stroke="#263238" stroke-miterlimit="10"/>
<path d="M163.05 50.826C163.05 50.826 180.822 56.592 188.154 68.73" stroke="#263238" stroke-miterlimit="10"/>
<path d="M83.3479 132.067C88.5406 130.193 89.1817 118.789 84.7799 106.596C80.3781 94.4026 72.6003 86.0379 67.4077 87.9124C62.2151 89.787 61.574 101.191 65.9757 113.384C70.3775 125.577 78.1553 133.942 83.3479 132.067Z" fill="white" stroke="#263238" stroke-miterlimit="10"/>
<path d="M84.4459 131.853C89.6385 129.979 90.2796 118.575 85.8778 106.382C81.476 94.1886 73.6982 85.8239 68.5056 87.6985C63.313 89.5731 62.6719 100.977 67.0736 113.17C71.4754 125.363 79.2532 133.728 84.4459 131.853Z" fill="white" stroke="#263238" stroke-miterlimit="10"/>
<path d="M76.392 118.458L76.296 120.456" stroke="#263238" stroke-miterlimit="10" stroke-linecap="round"/>
<path d="M77.6101 93.642L76.5181 115.92" stroke="#263238" stroke-miterlimit="10" stroke-linecap="round"/>
<path d="M74.7181 99.69L73.9321 113.88" stroke="#263238" stroke-miterlimit="10" stroke-linecap="round"/>
<path d="M85.608 126.864L85.494 128.076" stroke="#263238" stroke-miterlimit="10" stroke-linecap="round"/>
<path d="M86.5501 116.772L85.8601 124.14" stroke="#263238" stroke-miterlimit="10" stroke-linecap="round"/>
<path d="M83.358 132.066L90.57 152.064L95.04 149.442L85.2 131.37L83.358 132.066Z" fill="#263238" stroke="#263238" stroke-miterlimit="10"/>
<path d="M134.94 195.6C134.94 195.6 116.028 184.95 111.468 179.304C109.209 176.598 107.104 173.768 105.162 170.826C105.162 170.826 103.644 158.652 102.99 154.962C102.336 151.272 97.5541 143.874 96.6841 141.264C95.9576 139 95.4493 136.671 95.1661 134.31C94.9501 132.57 92.5561 133.008 91.4701 135.396C90.3841 137.784 92.1241 141.918 92.3401 143.442C92.5296 144.552 92.8209 145.643 93.2101 146.7C93.2101 146.7 86.6881 140.616 86.0101 140.178C85.3321 139.74 83.8381 139.746 83.4061 142.134C82.9741 144.522 84.9241 147.57 84.9241 147.57C84.9241 147.57 81.6661 149.97 81.6661 151.482C81.7192 152.794 81.8636 154.102 82.0981 155.394C82.0981 155.394 80.5801 160.608 80.7961 161.916C81.0121 163.224 82.9681 167.13 82.9681 167.13C82.9681 167.13 80.5681 167.346 79.9261 166.698C79.2841 166.05 77.7541 162.564 76.8841 163.434C76.0141 164.304 76.4521 167.568 76.8841 168.654C77.3161 169.74 79.2841 169.74 80.5801 171.258C81.8761 172.776 87.7501 172.998 88.8361 173.658C89.9221 174.318 101.88 186.258 107.532 191.694C113.184 197.13 129.48 213.216 130.566 215.172C131.652 217.128 134.7 219.516 134.7 219.516L134.94 195.6Z" fill="white" stroke="#263238" stroke-miterlimit="10"/>
<path d="M93.2101 146.718L98.8621 151.716" stroke="#263238" stroke-miterlimit="10"/>
<path d="M84.9481 147.588L88.4281 153.24" stroke="#263238" stroke-miterlimit="10"/>
<path d="M82.1221 155.412L84.9481 160.626" stroke="#263238" stroke-miterlimit="10"/>
<path d="M199.926 158.67L165.126 199.968C165.126 199.968 162.3 198.666 161.214 199.752C160.614 200.327 160.101 200.986 159.69 201.708L153.39 199.968C153.39 199.968 139.044 193.446 136.218 193.446C133.392 193.446 132.522 193.884 132.522 194.97C132.522 196.056 132.744 236.916 132.744 239.742C132.744 242.568 132.96 245.178 136.656 246.48C140.352 247.782 152.088 249.738 155.346 249.522C158.604 249.306 161.214 247.35 162.084 245.61C162.954 243.87 162.954 236.484 162.954 236.484C162.954 236.484 172.08 237.57 178.602 232.134C185.124 226.698 205.986 196.056 209.028 191.934C212.07 187.812 218.808 177.15 220.764 173.238" fill="#EE7814"/>
<path d="M199.926 158.67L165.126 199.968C165.126 199.968 162.3 198.666 161.214 199.752C160.614 200.327 160.101 200.986 159.69 201.708L153.39 199.968C153.39 199.968 139.044 193.446 136.218 193.446C133.392 193.446 132.522 193.884 132.522 194.97C132.522 196.056 132.744 236.916 132.744 239.742C132.744 242.568 132.96 245.178 136.656 246.48C140.352 247.782 152.088 249.738 155.346 249.522C158.604 249.306 161.214 247.35 162.084 245.61C162.954 243.87 162.954 236.484 162.954 236.484C162.954 236.484 172.08 237.57 178.602 232.134C185.124 226.698 205.986 196.056 209.028 191.934C212.07 187.812 218.808 177.15 220.764 173.238" stroke="#263238" stroke-miterlimit="10"/>
<path d="M155.946 200.664L153.414 199.968C153.414 199.968 139.068 193.446 136.242 193.446C133.416 193.446 132.546 193.884 132.546 194.97C132.546 196.056 132.768 236.916 132.768 239.742C132.768 242.568 132.984 245.178 136.68 246.48C140.376 247.782 152.112 249.738 155.37 249.522C158.628 249.306 161.238 247.35 162.108 245.61C162.978 243.87 162.978 236.484 162.978 236.484C162.978 236.484 160.578 209.532 156.24 201.054L155.946 200.664Z" fill="white" stroke="#263238" stroke-miterlimit="10"/>
<path d="M211.008 189.318C211.008 189.318 217.746 184.32 220.356 179.538" stroke="#263238" stroke-miterlimit="10"/>
<path d="M169.116 213.648C169.326 214.146 169.524 214.656 169.716 215.184" stroke="#263238" stroke-miterlimit="10"/>
<path d="M159.714 201.708C163.253 204.27 166.132 207.636 168.114 211.53" stroke="#263238" stroke-miterlimit="10"/>
<path d="M165.804 201.054C165.804 201.054 170.148 203.88 171.45 207.576" stroke="#263238" stroke-miterlimit="10"/>
<path d="M162.732 102.096C162.522 102.096 162.438 102.054 162.42 101.994C163.908 101.25 165.054 100.404 165.498 99.594C166.866 97.092 163.908 95.724 161.406 96.408C161.406 96.408 154.656 97.788 151.242 99.156C147.828 100.524 147.294 103.458 151.842 104.142C152.118 104.184 152.4 104.214 152.7 104.232H152.598H152.826C153.83 104.265 154.834 104.203 155.826 104.046C156.312 104.046 156.57 104.106 156.282 104.25C155.364 104.712 153.366 105.936 156.132 106.248C158.898 106.56 165.336 103.944 165.948 103.176C166.56 102.408 163.656 102.096 162.732 102.096Z" fill="#EE7814"/>
<path opacity="0.6" d="M162.732 102.096C162.522 102.096 162.438 102.054 162.42 101.994C163.908 101.25 165.054 100.404 165.498 99.594C166.866 97.092 163.908 95.724 161.406 96.408C161.406 96.408 154.656 97.788 151.242 99.156C147.828 100.524 147.294 103.458 151.842 104.142C152.118 104.184 152.4 104.214 152.7 104.232H152.598H152.826C153.83 104.265 154.834 104.203 155.826 104.046C156.312 104.046 156.57 104.106 156.282 104.25C155.364 104.712 153.366 105.936 156.132 106.248C158.898 106.56 165.336 103.944 165.948 103.176C166.56 102.408 163.656 102.096 162.732 102.096Z" fill="white"/>
<path d="M17.3999 269.52H285.798" stroke="#263238" stroke-miterlimit="10"/>
<path d="M105.99 273.6H97.59C97.0918 273.601 96.6107 273.418 96.2395 273.086C95.8684 272.753 95.6334 272.295 95.5801 271.8L91.8 234H111.804L108 271.8C107.947 272.295 107.712 272.753 107.341 273.086C106.969 273.418 106.488 273.601 105.99 273.6Z" fill="#EE7814" stroke="#263238" stroke-miterlimit="10"/>
<path d="M106.506 273.612H96.942V277.2H106.506V273.612Z" fill="#263238" stroke="#263238" stroke-miterlimit="10"/>
<path d="M84.2101 255.798H57.6121C55.9552 255.798 54.6121 257.141 54.6121 258.798V274.2C54.6121 275.857 55.9552 277.2 57.6121 277.2H84.2101C85.8669 277.2 87.2101 275.857 87.2101 274.2V258.798C87.2101 257.141 85.8669 255.798 84.2101 255.798Z" fill="white" stroke="#263238" stroke-miterlimit="10"/>
<path d="M77.448 260.1H55.908V270.438H77.448V260.1Z" fill="#263238" stroke="#263238" stroke-miterlimit="10"/>
<path d="M84.4141 250.998H57.6121V255.798H84.4141V250.998Z" fill="white" stroke="#263238" stroke-miterlimit="10"/>
<path d="M58.0142 253.8L72.6122 250.998" stroke="#263238" stroke-miterlimit="10"/>
<path d="M63.6121 256.002L81.0121 251.202" stroke="#263238" stroke-miterlimit="10"/>
<path d="M77.8141 256.002L84.2161 253.2" stroke="#263238" stroke-miterlimit="10"/>
<path d="M37.3441 217.536H34.8721V220.14H37.3441V217.536Z" fill="#EE7814" stroke="#263238" stroke-miterlimit="10"/>
<path d="M38.6462 219.882H33.7021V221.052H38.6462V219.882Z" fill="#EE7814" stroke="#263238" stroke-miterlimit="10"/>
<path d="M51.6001 240.168C51.3798 237.393 50.3205 234.751 48.5629 232.593C46.8053 230.434 44.4326 228.862 41.7601 228.084L40.3921 227.688L37.3141 227.316H35.8381L32.7601 227.688L31.3921 228.084C28.7166 228.86 26.3404 230.431 24.5796 232.589C22.8187 234.748 21.7565 237.391 21.5341 240.168C21.054 245.992 21.1244 251.848 21.7441 257.658C22.4221 263.412 23.4121 269.142 24.4861 272.508C24.9235 273.871 25.7828 275.061 26.9399 275.904C28.0971 276.747 29.4922 277.201 30.9241 277.2H42.2341C43.6649 277.2 45.0587 276.745 46.2146 275.902C47.3706 275.059 48.2289 273.87 48.6661 272.508C49.7401 269.142 50.7301 263.412 51.4081 257.658C52.0247 251.847 52.089 245.991 51.6001 240.168Z" fill="white" stroke="#263238" stroke-miterlimit="10"/>
<path d="M39.594 222.228H32.76V227.694H39.594V222.228Z" fill="#EE7814" stroke="#263238" stroke-miterlimit="10"/>
<path d="M40.0802 220.53H32.2742V225.996H40.0802V220.53Z" fill="#EE7814" stroke="#263238" stroke-miterlimit="10"/>
<path d="M32.922 218.58C32.922 218.58 40.212 218.448 43.332 218.838L43.2 217.638C43.2 217.638 38.13 216.078 36.174 216.21C34.218 216.342 32.226 216.474 32.874 218.424L32.922 218.58Z" fill="#EE7814" stroke="#263238" stroke-miterlimit="10"/>
<path d="M36.2042 268.464C41.8209 268.464 46.3742 260.816 46.3742 251.382C46.3742 241.948 41.8209 234.3 36.2042 234.3C30.5874 234.3 26.0342 241.948 26.0342 251.382C26.0342 260.816 30.5874 268.464 36.2042 268.464Z" fill="#EE7814" stroke="#263238" stroke-miterlimit="10"/>
<path d="M247.296 243.114C245.044 242.414 242.988 241.193 241.296 239.55C240.081 238.314 238.687 237.266 237.162 236.442C233.874 234.792 227.01 233.442 227.01 233.442C227.01 233.442 233.046 232.068 237.714 233.166C242.382 234.264 245.67 238.926 245.67 238.926C245.67 238.926 244.296 237.006 242.376 231.246C240.456 225.486 240.456 213.132 240.456 213.132C240.456 213.132 245.124 218.346 247.314 224.658C248.642 228.485 249.563 232.44 250.062 236.46C250.062 236.46 249.51 226.86 251.16 221.364C252.81 215.868 257.472 209.016 257.472 209.016C257.472 209.016 257.742 221.094 255.822 227.676C253.902 234.258 253.08 237.276 253.08 237.276C254.279 233.856 256.25 230.758 258.84 228.222C262.956 224.376 272.838 221.088 272.838 221.088C272.838 221.088 268.2 229.578 265.2 232.326C262.2 235.074 259.164 238.086 259.164 238.086C259.164 238.086 262.458 235.614 268.218 235.614C273.978 235.614 280.818 239.46 280.818 239.46C280.818 239.46 266.148 239.37 260.748 241.86C259.665 242.389 258.517 242.774 257.334 243.006L254.334 243.534C251.978 243.953 249.556 243.799 247.272 243.084L247.296 243.114Z" fill="#EE7814" stroke="#263238" stroke-linecap="round" stroke-linejoin="round"/>
<path d="M247.23 240.462L243.852 238.122" stroke="#263238" stroke-linecap="round" stroke-linejoin="round"/>
<path d="M250.872 242.28L246.192 229.8" stroke="#263238" stroke-linecap="round" stroke-linejoin="round"/>
<path d="M250.872 242.28L253.47 225.636" stroke="#263238" stroke-linecap="round" stroke-linejoin="round"/>
<path d="M250.872 242.28L259.716 231.36" stroke="#263238" stroke-linecap="round" stroke-linejoin="round"/>
<path d="M252.72 242.064L262.056 237.858" stroke="#263238" stroke-linecap="round" stroke-linejoin="round"/>
<path d="M260.7 277.2H240.972C240.544 277.2 240.12 277.111 239.728 276.939C239.336 276.767 238.983 276.516 238.693 276.202C238.402 275.888 238.18 275.517 238.039 275.112C237.898 274.708 237.843 274.279 237.876 273.852L240.276 243.252H261.432L263.832 273.852C263.865 274.282 263.809 274.714 263.666 275.121C263.523 275.528 263.298 275.901 263.003 276.215C262.708 276.53 262.352 276.78 261.955 276.95C261.559 277.119 261.131 277.205 260.7 277.2Z" fill="white" stroke="#263238" stroke-linecap="round" stroke-linejoin="round"/>
<path d="M248.496 260.604C248.028 267.318 246.024 272.646 244.026 272.502C242.028 272.358 240.786 266.808 241.254 260.1C241.722 253.392 243.72 248.058 245.718 248.196C247.716 248.334 248.964 253.89 248.496 260.604Z" stroke="#EE7814" stroke-miterlimit="10"/>
<path d="M252.138 260.604C252.606 267.318 254.61 272.646 256.608 272.502C258.606 272.358 259.848 266.808 259.38 260.1C258.912 253.392 256.914 248.058 254.916 248.196C252.918 248.334 251.67 253.89 252.138 260.604Z" stroke="#EE7814" stroke-miterlimit="10"/>
</svg>
