<svg width="300" height="300" viewBox="0 0 300 300" fill="none" xmlns="http://www.w3.org/2000/svg">
<path d="M262.44 188.958C262.44 188.958 293.094 154.506 283.35 94.56C273.606 34.614 223.548 12.528 190.35 24.066C157.152 35.604 149.664 55.686 122.55 67.17C95.436 78.654 43.914 70.77 18.15 109.344C-7.61402 147.918 25.278 211.836 67.152 251.916C109.026 291.996 215.88 266.904 262.44 188.958Z" fill="#EE7814"/>
<path opacity="0.7" d="M262.44 188.958C262.44 188.958 293.094 154.506 283.35 94.56C273.606 34.614 223.548 12.528 190.35 24.066C157.152 35.604 149.664 55.686 122.55 67.17C95.436 78.654 43.914 70.77 18.15 109.344C-7.61402 147.918 25.278 211.836 67.152 251.916C109.026 291.996 215.88 266.904 262.44 188.958Z" fill="#FDF1E7"/>
<path d="M16.314 285.75H277.038" stroke="#263238" stroke-miterlimit="10"/>
<path d="M51.1921 194.556L60.7201 285.63" stroke="#263238" stroke-width="2" stroke-miterlimit="10"/>
<path d="M59.028 266.946L54.792 262.47" stroke="#263238" stroke-width="2" stroke-miterlimit="10"/>
<path d="M56.0821 263.814C56.0745 263.128 55.9201 262.452 55.6293 261.831C55.3385 261.21 54.918 260.659 54.3961 260.214C53.3101 259.242 47.5861 256.836 47.0401 258.852C46.4521 261.048 52.3081 265.356 56.0821 263.814Z" fill="#EE7814" stroke="#263238" stroke-miterlimit="10"/>
<path d="M56.082 263.814L50.634 260.418" stroke="#263238" stroke-width="0.5" stroke-miterlimit="10"/>
<path d="M60.09 277.128L55.854 272.652" stroke="#263238" stroke-width="2" stroke-miterlimit="10"/>
<path d="M57.1441 273.996C57.1365 273.31 56.9821 272.634 56.6913 272.013C56.4005 271.392 55.98 270.841 55.4581 270.396C54.3721 269.424 48.6481 267.018 48.1081 269.034C47.5141 271.23 53.4001 275.532 57.1441 273.996Z" fill="#EE7814" stroke="#263238" stroke-miterlimit="10"/>
<path d="M57.144 273.996L51.696 270.6" stroke="#263238" stroke-width="0.5" stroke-miterlimit="10"/>
<path d="M56.4362 242.1L52.2002 237.63" stroke="#263238" stroke-width="2" stroke-miterlimit="10"/>
<path d="M53.4901 238.968C53.4825 238.282 53.3281 237.606 53.0373 236.985C52.7464 236.364 52.3259 235.813 51.8041 235.368C50.7121 234.408 45.0001 231.996 44.4481 234C43.8601 236.208 49.7161 240.51 53.4901 238.968Z" fill="#EE7814" stroke="#263238" stroke-miterlimit="10"/>
<path d="M53.49 238.968L48.042 235.578" stroke="#263238" stroke-width="0.5" stroke-miterlimit="10"/>
<path d="M57.4982 252.282L53.2622 247.812" stroke="#263238" stroke-width="2" stroke-miterlimit="10"/>
<path d="M54.5521 249.15C54.5445 248.464 54.3901 247.788 54.0993 247.167C53.8084 246.546 53.3879 245.995 52.8661 245.55C51.7801 244.578 46.0561 242.172 45.5101 244.188C44.9221 246.384 50.7781 250.692 54.5521 249.15Z" fill="#EE7814" stroke="#263238" stroke-miterlimit="10"/>
<path d="M54.552 249.15L49.104 245.754" stroke="#263238" stroke-width="0.5" stroke-miterlimit="10"/>
<path d="M54.7082 225.564L50.4722 221.088" stroke="#263238" stroke-width="2" stroke-miterlimit="10"/>
<path d="M51.7621 222.432C51.7546 221.746 51.6002 221.07 51.3093 220.449C51.0185 219.828 50.598 219.277 50.0761 218.832C48.9901 217.86 43.2661 215.454 42.7261 217.47C42.1321 219.666 48.0001 223.974 51.7621 222.432Z" fill="#EE7814" stroke="#263238" stroke-miterlimit="10"/>
<path d="M51.7622 222.432L46.3142 219.036" stroke="#263238" stroke-width="0.5" stroke-miterlimit="10"/>
<path d="M52.974 208.956L48.738 204.48" stroke="#263238" stroke-width="2" stroke-miterlimit="10"/>
<path d="M50.0281 205.8C50.0205 205.114 49.8661 204.438 49.5753 203.817C49.2845 203.196 48.864 202.645 48.3421 202.2C47.2561 201.228 41.5321 198.822 40.9921 200.838C40.3981 203.058 46.2541 207.36 50.0281 205.8Z" fill="#EE7814" stroke="#263238" stroke-miterlimit="10"/>
<path d="M50.0281 205.818L44.5801 202.428" stroke="#263238" stroke-width="0.5" stroke-miterlimit="10"/>
<path d="M58.3142 260.922L61.5362 255.672" stroke="#263238" stroke-width="2" stroke-miterlimit="10"/>
<path d="M60.552 257.25C60.4196 256.578 60.4325 255.886 60.5898 255.219C60.7471 254.553 61.0452 253.928 61.464 253.386C62.328 252.186 67.428 248.676 68.376 250.536C69.402 252.558 64.566 258 60.552 257.25Z" fill="#EE7814" stroke="#263238" stroke-miterlimit="10"/>
<path d="M60.552 257.25L65.46 252.558" stroke="#263238" stroke-width="0.5" stroke-miterlimit="10"/>
<path d="M55.5181 234.132L58.7401 228.882" stroke="#263238" stroke-width="2" stroke-miterlimit="10"/>
<path d="M57.7561 230.454C57.6246 229.783 57.638 229.092 57.7952 228.426C57.9525 227.761 58.2501 227.137 58.6681 226.596C59.5321 225.396 64.6321 221.88 65.5801 223.74C66.6001 225.762 61.8001 231.186 57.7561 230.454Z" fill="#EE7814" stroke="#263238" stroke-miterlimit="10"/>
<path d="M57.7561 230.454L62.6641 225.768" stroke="#263238" stroke-width="0.5" stroke-miterlimit="10"/>
<path d="M54.2942 222.354L57.5102 217.104" stroke="#263238" stroke-width="2" stroke-miterlimit="10"/>
<path d="M56.5322 218.682C56.3962 218.008 56.4068 217.312 56.5631 216.643C56.7194 215.973 57.0178 215.344 57.4382 214.8C58.3022 213.63 63.4022 210.09 64.3502 211.95C65.4002 213.99 60.5402 219.414 56.5322 218.682Z" fill="#EE7814" stroke="#263238" stroke-miterlimit="10"/>
<path d="M56.532 218.682L61.434 213.996" stroke="#263238" stroke-width="0.5" stroke-miterlimit="10"/>
<path d="M52.488 205.098L55.71 199.848" stroke="#263238" stroke-width="2" stroke-miterlimit="10"/>
<path d="M54.7261 201.42C54.5937 200.748 54.6066 200.056 54.7639 199.389C54.9212 198.723 55.2192 198.098 55.6381 197.556C56.5021 196.386 61.6021 192.846 62.5501 194.706C63.6001 196.728 58.7401 202.152 54.7261 201.42Z" fill="#EE7814" stroke="#263238" stroke-miterlimit="10"/>
<path d="M54.7261 201.42L59.6341 196.734" stroke="#263238" stroke-width="0.5" stroke-miterlimit="10"/>
<path d="M51.1141 194.058C50.9817 193.387 50.9941 192.696 51.1503 192.031C51.3066 191.366 51.6031 190.742 52.02 190.2C52.884 189 57.9841 185.484 58.9321 187.344C59.9641 189.366 55.1221 194.79 51.1141 194.058Z" fill="#EE7814" stroke="#263238" stroke-miterlimit="10"/>
<path d="M51.114 194.058L56.016 189.372" stroke="#263238" stroke-width="0.5" stroke-miterlimit="10"/>
<path d="M51.3962 194.262C50.7149 194.323 50.0285 194.238 49.3827 194.013C48.737 193.787 48.147 193.426 47.6521 192.954C46.5721 191.976 43.5902 186.528 45.5402 185.784C47.6582 184.968 52.5422 190.356 51.3962 194.262Z" fill="#EE7814" stroke="#263238" stroke-miterlimit="10"/>
<path d="M51.396 194.262L47.25 188.892" stroke="#263238" stroke-width="0.5" stroke-miterlimit="10"/>
<path d="M75.8342 206.886L67.9502 285.63" stroke="#263238" stroke-width="2" stroke-miterlimit="10"/>
<path d="M68.598 279.336L65.376 274.086" stroke="#263238" stroke-width="2" stroke-miterlimit="10"/>
<path d="M66.3542 275.664C66.4874 274.993 66.4755 274.3 66.3192 273.634C66.163 272.968 65.866 272.342 65.4482 271.8C64.5842 270.63 59.4482 267.096 58.5362 268.956C57.5042 270.978 62.3462 276.396 66.3542 275.664Z" fill="#EE7814" stroke="#263238" stroke-miterlimit="10"/>
<path d="M66.354 275.664L61.728 271.218" stroke="#263238" stroke-width="0.5" stroke-miterlimit="10"/>
<path d="M71.1782 254.49L67.9502 249.24" stroke="#263238" stroke-width="2" stroke-miterlimit="10"/>
<path d="M68.9341 250.8C69.0665 250.128 69.0536 249.436 68.8963 248.769C68.739 248.103 68.4409 247.478 68.0221 246.936C67.1641 245.766 62.0581 242.232 61.1101 244.092C60.0841 246.132 64.9261 251.55 68.9341 250.8Z" fill="#EE7814" stroke="#263238" stroke-miterlimit="10"/>
<path d="M68.934 250.818L64.302 246.378" stroke="#263238" stroke-width="0.5" stroke-miterlimit="10"/>
<path d="M70.116 264.672L66.894 259.422" stroke="#263238" stroke-width="2" stroke-miterlimit="10"/>
<path d="M67.8782 261C68.0106 260.328 67.9977 259.636 67.8404 258.969C67.6831 258.303 67.385 257.678 66.9662 257.136C66.1022 255.966 61.0022 252.432 60.0542 254.292C59.0282 256.314 63.8702 261.732 67.8782 261Z" fill="#EE7814" stroke="#263238" stroke-miterlimit="10"/>
<path d="M67.8781 261L63.2461 256.56" stroke="#263238" stroke-width="0.5" stroke-miterlimit="10"/>
<path d="M72.894 237.954L69.666 232.704" stroke="#263238" stroke-width="2" stroke-miterlimit="10"/>
<path d="M70.6502 234.282C70.7834 233.611 70.7715 232.918 70.6152 232.252C70.459 231.586 70.162 230.96 69.7442 230.418C68.8802 229.218 63.7742 225.708 62.8262 227.568C61.8002 229.59 66.6422 235.008 70.6502 234.282Z" fill="#EE7814" stroke="#263238" stroke-miterlimit="10"/>
<path d="M70.6501 234.282L66.0181 229.836" stroke="#263238" stroke-width="0.5" stroke-miterlimit="10"/>
<path d="M74.616 221.34L71.394 216.09" stroke="#263238" stroke-width="2" stroke-miterlimit="10"/>
<path d="M72.372 217.668C72.5052 216.997 72.4933 216.304 72.3371 215.638C72.1808 214.972 71.8838 214.346 71.466 213.804C70.602 212.634 65.466 209.1 64.554 210.96C63.522 213 68.364 218.4 72.372 217.668Z" fill="#EE7814" stroke="#263238" stroke-miterlimit="10"/>
<path d="M72.3721 217.668L67.7461 213.228" stroke="#263238" stroke-width="0.5" stroke-miterlimit="10"/>
<path d="M69.1382 273.294L73.3742 268.818" stroke="#263238" stroke-width="2" stroke-miterlimit="10"/>
<path d="M72.0901 270.162C72.0969 269.477 72.2504 268.801 72.5402 268.18C72.8299 267.559 73.2493 267.007 73.7701 266.562C74.8561 265.59 80.5801 263.178 81.1201 265.194C81.7141 267.39 75.8581 271.698 72.0901 270.162Z" fill="#EE7814" stroke="#263238" stroke-miterlimit="10"/>
<path d="M72.0901 270.162L77.8501 266.586" stroke="#263238" stroke-width="0.5" stroke-miterlimit="10"/>
<path d="M71.9221 246.504L76.1521 242.028" stroke="#263238" stroke-width="2" stroke-miterlimit="10"/>
<path d="M74.8682 243.366C74.8757 242.68 75.0301 242.004 75.321 241.383C75.6118 240.762 76.0323 240.211 76.5542 239.766C77.6402 238.794 83.3582 236.388 83.9042 238.398C84.4922 240.6 78.6422 244.908 74.8682 243.366Z" fill="#EE7814" stroke="#263238" stroke-miterlimit="10"/>
<path d="M74.8682 243.366L80.6342 239.79" stroke="#263238" stroke-width="0.5" stroke-miterlimit="10"/>
<path d="M73.1401 234.726L77.3761 230.25" stroke="#263238" stroke-width="2" stroke-miterlimit="10"/>
<path d="M76.092 231.6C76.0989 230.915 76.2523 230.239 76.5421 229.618C76.8319 228.997 77.2513 228.445 77.772 228C78.858 227.028 84.582 224.616 85.122 226.632C85.716 228.822 79.86 233.13 76.092 231.6Z" fill="#EE7814" stroke="#263238" stroke-miterlimit="10"/>
<path d="M76.092 231.594L81.852 228.018" stroke="#263238" stroke-width="0.5" stroke-miterlimit="10"/>
<path d="M74.9341 217.464L79.1641 212.988" stroke="#263238" stroke-width="2" stroke-miterlimit="10"/>
<path d="M77.8801 214.332C77.8877 213.646 78.0421 212.97 78.3329 212.349C78.6238 211.728 79.0443 211.177 79.5661 210.732C80.6521 209.76 86.3701 207.348 86.9161 209.364C87.5041 211.56 81.6541 215.868 77.8801 214.332Z" fill="#EE7814" stroke="#263238" stroke-miterlimit="10"/>
<path d="M77.8801 214.332L83.6461 210.756" stroke="#263238" stroke-width="0.5" stroke-miterlimit="10"/>
<path d="M75.8582 206.4C75.8657 205.714 76.0201 205.038 76.311 204.417C76.6018 203.796 77.0223 203.245 77.5442 202.8C78.6302 201.828 84.3482 199.422 84.8942 201.438C85.4822 203.616 79.6322 207.924 75.8582 206.4Z" fill="#EE7814" stroke="#263238" stroke-miterlimit="10"/>
<path d="M75.8582 206.382L81.6242 202.806" stroke="#263238" stroke-width="0.5" stroke-miterlimit="10"/>
<path d="M76.092 206.64C75.4124 206.56 74.7578 206.335 74.1721 205.981C73.5864 205.627 73.0831 205.152 72.696 204.588C71.844 203.388 70.05 197.466 72.096 197.136C74.352 196.8 78 203.052 76.092 206.64Z" fill="#EE7814" stroke="#263238" stroke-miterlimit="10"/>
<path d="M76.0921 206.64L73.1401 200.532" stroke="#263238" stroke-width="0.5" stroke-miterlimit="10"/>
<path d="M65.1901 170.43L64.6021 285.768" stroke="#263238" stroke-width="2" stroke-miterlimit="10"/>
<path d="M65.28 266.622L61.53 261.732" stroke="#263238" stroke-width="2" stroke-miterlimit="10"/>
<path d="M62.6702 263.196C62.7323 262.515 62.6483 261.829 62.4237 261.183C62.1992 260.538 61.8393 259.947 61.3682 259.452C60.3842 258.372 54.9482 255.384 54.1682 257.328C53.4002 259.452 58.7582 264.336 62.6702 263.196Z" fill="#EE7814" stroke="#263238" stroke-miterlimit="10"/>
<path d="M62.6702 263.196L57.6062 259.254" stroke="#263238" stroke-width="0.5" stroke-miterlimit="10"/>
<path d="M65.28 245.346L61.53 240.456" stroke="#263238" stroke-width="2" stroke-miterlimit="10"/>
<path d="M62.6702 241.92C62.7323 241.239 62.6483 240.553 62.4237 239.907C62.1992 239.262 61.8393 238.671 61.3682 238.176C60.3842 237.096 54.9482 234.108 54.1682 236.058C53.4002 238.2 58.7582 243.06 62.6702 241.92Z" fill="#EE7814" stroke="#263238" stroke-miterlimit="10"/>
<path d="M62.6702 241.92L57.6062 237.978" stroke="#263238" stroke-width="0.5" stroke-miterlimit="10"/>
<path d="M65.28 220.368L61.53 215.478" stroke="#263238" stroke-width="2" stroke-miterlimit="10"/>
<path d="M62.6702 216.942C62.7323 216.261 62.6483 215.575 62.4237 214.929C62.1992 214.284 61.8393 213.693 61.3682 213.198C60.3842 212.118 54.9482 209.13 54.1682 211.08C53.4002 213.198 58.7582 218.082 62.6702 216.942Z" fill="#EE7814" stroke="#263238" stroke-miterlimit="10"/>
<path d="M62.6702 216.942L57.6062 213" stroke="#263238" stroke-width="0.5" stroke-miterlimit="10"/>
<path d="M65.28 203.736L61.53 198.852" stroke="#263238" stroke-width="2" stroke-miterlimit="10"/>
<path d="M62.6702 200.316C62.7332 199.634 62.6496 198.947 62.425 198.3C62.2004 197.653 61.8401 197.062 61.3682 196.566C60.3842 195.492 54.9482 192.504 54.1682 194.448C53.4002 196.566 58.7582 201.456 62.6702 200.316Z" fill="#EE7814" stroke="#263238" stroke-miterlimit="10"/>
<path d="M62.6702 200.316L57.6062 196.374" stroke="#263238" stroke-width="0.5" stroke-miterlimit="10"/>
<path d="M65.28 187.038L61.53 182.148" stroke="#263238" stroke-width="2" stroke-miterlimit="10"/>
<path d="M62.6702 183.6C62.7332 182.918 62.6496 182.231 62.425 181.584C62.2004 180.937 61.8401 180.346 61.3682 179.85C60.3842 178.77 54.9482 175.782 54.1682 177.732C53.4002 179.868 58.7582 184.758 62.6702 183.6Z" fill="#EE7814" stroke="#263238" stroke-miterlimit="10"/>
<path d="M62.6702 183.618L57.6062 179.676" stroke="#263238" stroke-width="0.5" stroke-miterlimit="10"/>
<path d="M65.196 273.114L68.94 268.23" stroke="#263238" stroke-width="2" stroke-miterlimit="10"/>
<path d="M67.8001 269.694C67.7379 269.012 67.8225 268.324 68.0481 267.677C68.2737 267.031 68.6351 266.44 69.1081 265.944C70.0861 264.87 75.5281 261.882 76.2781 263.826C77.0881 265.944 71.7121 270.834 67.8001 269.694Z" fill="#EE7814" stroke="#263238" stroke-miterlimit="10"/>
<path d="M67.8 269.694L73.164 265.542" stroke="#263238" stroke-width="0.5" stroke-miterlimit="10"/>
<path d="M65.196 239.28L68.94 234.39" stroke="#263238" stroke-width="2" stroke-miterlimit="10"/>
<path d="M67.8001 235.86C67.7379 235.178 67.8225 234.49 68.0481 233.843C68.2737 233.197 68.6351 232.606 69.1081 232.11C70.0861 231.03 75.5281 228.042 76.2781 229.992C77.0881 232.11 71.7121 237 67.8001 235.86Z" fill="#EE7814" stroke="#263238" stroke-miterlimit="10"/>
<path d="M67.8 235.86L73.164 231.702" stroke="#263238" stroke-width="0.5" stroke-miterlimit="10"/>
<path d="M65.196 222.576L68.94 217.692" stroke="#263238" stroke-width="2" stroke-miterlimit="10"/>
<path d="M67.8001 219.156C67.7379 218.474 67.8225 217.786 68.0481 217.139C68.2737 216.493 68.6351 215.902 69.1081 215.406C70.0861 214.332 75.5281 211.344 76.2781 213.288C77.0881 215.4 71.7121 220.296 67.8001 219.156Z" fill="#EE7814" stroke="#263238" stroke-miterlimit="10"/>
<path d="M67.8 219.156L73.164 215.004" stroke="#263238" stroke-width="0.5" stroke-miterlimit="10"/>
<path d="M65.196 200.502L68.94 195.618" stroke="#263238" stroke-width="2" stroke-miterlimit="10"/>
<path d="M67.8001 197.082C67.7379 196.4 67.8225 195.712 68.0481 195.065C68.2737 194.419 68.6351 193.828 69.1081 193.332C70.0861 192.258 75.5281 189.27 76.2781 191.214C77.0881 193.332 71.7121 198.222 67.8001 197.082Z" fill="#EE7814" stroke="#263238" stroke-miterlimit="10"/>
<path d="M67.8 197.082L73.164 192.93" stroke="#263238" stroke-width="0.5" stroke-miterlimit="10"/>
<path d="M65.196 183.15L68.94 178.26" stroke="#263238" stroke-width="2" stroke-miterlimit="10"/>
<path d="M67.8001 179.73C67.7379 179.048 67.8225 178.36 68.0481 177.713C68.2737 177.067 68.6351 176.476 69.1081 175.98C70.0861 174.9 75.5281 171.912 76.2781 173.862C77.0881 175.98 71.7121 180.87 67.8001 179.73Z" fill="#EE7814" stroke="#263238" stroke-miterlimit="10"/>
<path d="M67.8 179.73L73.164 175.578" stroke="#263238" stroke-width="0.5" stroke-miterlimit="10"/>
<path d="M64.9681 172.032C64.9059 171.35 64.9904 170.662 65.216 170.015C65.4416 169.369 65.8031 168.778 66.2761 168.282C67.2541 167.202 72.6961 164.22 73.4761 166.164C74.2561 168.282 68.8801 173.172 64.9681 172.032Z" fill="#EE7814" stroke="#263238" stroke-miterlimit="10"/>
<path d="M64.968 172.032L70.332 167.88" stroke="#263238" stroke-width="0.5" stroke-miterlimit="10"/>
<path d="M65.232 172.26C64.5463 172.252 63.8702 172.098 63.2493 171.807C62.6283 171.516 62.0768 171.096 61.632 170.574C60.666 169.482 58.266 163.758 60.282 163.218C62.478 162.63 66.774 168.492 65.232 172.26Z" fill="#EE7814" stroke="#263238" stroke-miterlimit="10"/>
<path d="M65.2321 172.26L61.6621 166.494" stroke="#263238" stroke-width="0.5" stroke-miterlimit="10"/>
<path d="M159.786 68.034C159.786 68.034 153.69 66.834 148.344 75.3C142.998 83.766 143.322 95.1 143.64 105.9C143.958 116.7 143.364 130.68 143.04 135.6C142.716 140.52 137.358 145.254 137.358 145.254L213.87 147.054C211.047 138.435 207.781 129.968 204.084 121.686C198.216 108.6 193.134 87.6 193.134 87.6C193.134 87.6 200.622 89.31 199.98 85.038C199.338 80.766 195.06 75.948 183.3 69.858C171.54 63.768 163.74 63.972 159.786 68.034Z" fill="#263238" stroke="#263238" stroke-miterlimit="10"/>
<path d="M131.274 285.6L134.286 263.64L224.61 256.908L232.23 285.774L131.274 285.6Z" fill="#263238" stroke="#263238" stroke-miterlimit="10"/>
<path d="M219.63 231.924C217.394 227.393 215.411 222.742 213.69 217.992C215.28 214.158 220.62 204.39 220.62 204.39L223.788 198.684C223.788 198.684 223.188 196.926 223.338 192.258C223.441 189.857 223.379 187.451 223.152 185.058C223.152 185.058 226.482 157.956 226.482 154.152C226.482 150.348 226.482 145.914 225.534 144.642C224.586 143.37 218.082 138.942 204.774 134.658C191.466 130.374 187.02 130.224 186.072 129.906C185.124 129.588 168.324 131.016 168.324 131.016C168.324 131.016 142.014 135.45 140.724 136.878C139.434 138.306 144.234 208.2 144.234 208.2C144.234 208.2 142.26 213.306 141.792 217.134C139.548 223.512 132.63 243.804 131.832 253.482C130.884 265.05 131.04 268.38 131.04 268.38C131.04 268.38 151.956 277.884 162.24 279.948C172.524 282.012 181.578 283.752 181.578 283.752L185.064 274.398L189.498 283.59C189.498 283.59 207.246 276.936 213.426 272.496C219.606 268.056 227.694 257.76 227.694 257.76C227.694 257.76 223.428 239.532 219.63 231.924Z" fill="#EE7814" stroke="#263238" stroke-miterlimit="10"/>
<path d="M216 146.4C216 146.4 210.564 153.6 209.4 157.266" stroke="#263238" stroke-miterlimit="10"/>
<path d="M191.142 220.656C191.142 220.656 198.99 222.426 200.508 223.566C202.026 224.706 207.978 226.476 210.51 226.476C212.672 226.41 214.829 226.209 216.966 225.876L212.916 221.316C212.916 221.316 197.22 219 194.814 219C194.119 218.994 193.43 219.138 192.796 219.424C192.162 219.71 191.598 220.13 191.142 220.656Z" fill="#263238" stroke="#263238" stroke-miterlimit="10"/>
<path d="M184.086 263.088C184.41 266.358 184.62 268.488 184.62 268.71" stroke="#263238" stroke-miterlimit="10"/>
<path d="M180.072 224.112C180.072 224.112 182.472 247.212 183.792 260.166" stroke="#263238" stroke-miterlimit="10"/>
<path d="M184.098 186.18C184.17 186.78 184.248 187.326 184.326 187.752C184.962 191.076 184.17 195.198 182.586 196.308C181.002 197.418 179.586 202.308 180.186 202.962" stroke="#263238" stroke-miterlimit="10"/>
<path d="M183.378 174.438C183.378 174.438 183.528 179.16 183.828 183.192" stroke="#263238" stroke-miterlimit="10"/>
<path d="M172.392 125.022C172.392 125.022 170.262 124.89 169.728 125.556C169.194 126.222 165.078 131.274 164.928 132.336C164.778 133.398 164.526 149.736 164.526 151.08C164.526 152.424 166.386 156.666 167.316 154.272C168.246 151.878 168.912 148.824 169.848 147.228C170.784 145.632 173.166 148.956 173.166 148.956L188.856 153.21C188.856 153.21 193.908 150.282 194.856 148.41C195.804 146.538 195.654 153.996 196.854 154.26C198.054 154.524 199.116 152.532 197.916 148.014C196.716 143.496 196.986 134.85 195.258 129.666C193.53 124.482 192.33 124.08 189.54 123.948C186.75 123.816 172.392 125.022 172.392 125.022Z" fill="#EE7814" stroke="#263238" stroke-miterlimit="10"/>
<path d="M170.262 115.356C170.262 115.356 171.33 127.956 171.33 130.11C171.33 132.264 170.796 141.012 172.932 146.784C175.068 152.556 181.164 171.48 182.448 172.23C183.732 172.98 185.118 171.162 187.47 165.066C189.822 158.97 195.168 150 194.208 141C193.248 132 189.072 114.168 189.072 114.168L170.262 115.356Z" fill="white" stroke="#263238" stroke-miterlimit="10"/>
<path d="M183.342 126.408L171.324 131.286L170.628 123.618L183.342 126.408Z" fill="#263238" stroke="#263238" stroke-miterlimit="10"/>
<path d="M174.696 151.8C177.396 159.63 181.428 171.63 182.448 172.2C183.732 172.95 185.118 171.132 187.47 165.036C188.712 161.826 190.776 157.836 192.318 153.426C189.49 154.7 186.381 155.22 183.293 154.935C180.204 154.65 177.243 153.57 174.696 151.8Z" fill="#263238" stroke="#263238" stroke-miterlimit="10"/>
<path d="M157.116 103.2C157.116 103.2 163.764 119.634 166.716 122.004C169.668 124.374 179.73 128.178 183.24 127.896C186.75 127.614 190.362 125.328 191.316 123.144C192.27 120.96 196.254 115.344 195.588 110.802C194.922 106.26 190.554 89.526 190.554 89.526C190.554 89.526 181.614 88.2 175.44 86.1C169.266 84 165.756 78.3 165.756 78.3C165.756 78.3 164.616 89.316 161.958 95.298C159.3 101.28 157.116 103.2 157.116 103.2Z" fill="white" stroke="#263238" stroke-miterlimit="10"/>
<path d="M180.168 98.652C180.168 98.652 181.08 103.62 182.778 104.652C184.476 105.684 185.136 106.224 184.482 107.4C183.828 108.576 181.866 109.2 181.344 109.2" stroke="#263238" stroke-miterlimit="10"/>
<path d="M174.804 111.726C174.804 111.726 178.728 115.518 182.652 114.864" stroke="#263238" stroke-miterlimit="10"/>
<path d="M165.24 99.276C165.24 99.276 169.566 96.756 172.86 98.028" stroke="#263238" stroke-miterlimit="10"/>
<path d="M180.504 97.854C180.504 97.854 179.472 93.432 184.656 92.19" stroke="#263238" stroke-miterlimit="10"/>
<path d="M174.918 103.2C175.302 104.256 175.092 105.306 174.45 105.54C173.808 105.774 172.968 105.108 172.584 104.046C172.2 102.984 172.41 101.946 173.058 101.712C173.706 101.478 174.534 102.132 174.918 103.2Z" fill="#263238"/>
<path d="M186.744 99.114C187.128 100.17 186.918 101.22 186.27 101.454C185.622 101.688 184.794 101.022 184.41 99.966C184.026 98.91 184.236 97.86 184.878 97.626C185.52 97.392 186.36 98.058 186.744 99.114Z" fill="#263238"/>
<path d="M157.116 103.2L154.716 109.974C154.716 109.974 157.278 113.718 158.778 114.36C160.278 115.002 161.982 113.61 161.982 113.61L157.116 103.2Z" fill="white" stroke="#263238" stroke-miterlimit="10"/>
<path d="M156.438 203.436C156.438 203.436 188.292 208.668 195.438 208.668C202.584 208.668 208.908 208.35 209.7 208.032C210.492 207.714 220.5 206.766 221.268 208.194C222.036 209.622 221.748 212.316 221.748 212.316C222.117 213.872 222.277 215.47 222.222 217.068C222.139 218.375 221.701 219.634 220.956 220.71C221.14 221.098 221.207 221.531 221.151 221.957C221.094 222.383 220.916 222.783 220.638 223.11C219.684 224.376 219.528 225.51 217.782 225.804C216.036 226.098 212.082 225.168 211.446 225.012C210.81 224.856 204.156 224.058 202.41 223.11C201.199 222.412 199.925 221.827 198.606 221.364C197.301 221.069 195.978 220.856 194.646 220.728C194.646 220.728 163.566 222.6 159 222.294C154.434 221.988 151.554 221.982 151.554 221.982L156.438 203.436Z" fill="white" stroke="#263238" stroke-miterlimit="10"/>
<path d="M201.378 196.968C201.378 196.968 203.952 208.218 206.178 211.536C208.404 214.854 213.246 219.78 217.638 218.07C222.03 216.36 223.206 216.786 223.956 208.644C224.706 200.502 224.49 194.508 223.314 192.258C222.405 190.648 221.327 189.14 220.098 187.758L201.378 196.968Z" fill="#EE7814" stroke="#263238" stroke-miterlimit="10"/>
<path d="M204.378 138.384C204.378 138.384 198.378 133.14 195.378 130.782C192.177 128.185 189.138 125.396 186.276 122.43C184.134 120.18 182.844 119.004 182.634 121.038C182.424 123.072 185.526 127.89 186.168 128.748C186.81 129.606 190.452 133.674 190.452 133.674C190.452 133.674 186.168 136.674 185.094 137.532C184.02 138.39 184.026 139.332 183.702 141.816C183.378 144.3 184.56 145.35 186.378 145.884C186.945 146.027 187.537 146.044 188.112 145.933C188.686 145.822 189.229 145.586 189.702 145.242C189.702 145.242 193.986 148.134 196.662 148.56C199.338 148.986 201.804 151.026 201.804 151.026C201.804 151.026 200.946 190.626 200.838 191.616C200.73 192.606 206.514 192.366 212.082 190.542C217.65 188.718 219.156 186.582 219.156 186.582C219.156 186.582 211.956 152.526 210.156 147.702C208.356 142.878 206.4 139.566 204.378 138.384Z" fill="white" stroke="#263238" stroke-miterlimit="10"/>
<path d="M189.708 145.242L186.924 142.992C186.924 142.992 186.816 143.958 186.282 144.276" fill="white"/>
<path d="M189.708 145.242L186.924 142.992C186.924 142.992 186.816 143.958 186.282 144.276" stroke="#263238" stroke-miterlimit="10"/>
<path d="M198.918 189.048C198.918 189.048 199.236 197.61 200.31 198.258C201.384 198.906 209.52 196.968 213.804 195.468C218.088 193.968 221.196 192.15 221.304 190.758C221.412 189.366 220.338 185.958 219.588 184.116C218.838 182.274 217.788 182.724 217.338 183.156C216.888 183.588 213.054 184.956 207.27 186.474C201.486 187.992 198.81 187.44 198.918 189.048Z" fill="#EE7814" stroke="#263238" stroke-miterlimit="10"/>
<path d="M146.304 171.072C146.106 168.894 145.944 166.908 145.818 165.246L146.304 171.072Z" fill="#EE7814"/>
<path d="M146.304 171.072C146.106 168.894 145.944 166.908 145.818 165.246" stroke="#263238" stroke-miterlimit="10"/>
<path d="M149.466 135.294C149.466 135.294 133.14 136.248 132.504 138.942C131.868 141.636 129.972 163.026 129.336 184.104C128.7 205.182 129.81 220.554 131.238 221.028C132.666 221.502 148.986 221.502 148.986 221.502L151.05 203.124L149.304 200.43C149.304 200.43 147.648 179.562 146.556 168.168" fill="#EE7814"/>
<path d="M149.466 135.294C149.466 135.294 133.14 136.248 132.504 138.942C131.868 141.636 129.972 163.026 129.336 184.104C128.7 205.182 129.81 220.554 131.238 221.028C132.666 221.502 148.986 221.502 148.986 221.502L151.05 203.124L149.304 200.43C149.304 200.43 147.648 179.562 146.556 168.168" stroke="#263238" stroke-miterlimit="10"/>
<path d="M147.72 199.638C147.72 199.638 144.552 220.398 144.078 221.346C143.604 222.294 143.286 224.04 145.182 223.884C147.078 223.728 152.316 225.15 152.952 223.722C153.588 222.294 158.658 206.766 158.178 204.522C157.698 202.278 155.484 201.522 154.692 201.198C153.9 200.874 148.674 198.84 147.72 199.638Z" fill="#EE7814" stroke="#263238" stroke-miterlimit="10"/>
<path d="M140.766 190.518C140.052 189.606 139.47 188.886 139.164 188.544" stroke="#263238" stroke-miterlimit="10"/>
<path d="M136.47 197.1L147.72 199.638C147.72 199.638 144.786 195.726 142.32 192.504" stroke="#263238" stroke-miterlimit="10"/>
<path d="M151.56 116.268C151.56 116.268 146.916 143.304 146.76 155.736C146.604 168.168 151.56 175.326 158.4 177.6C165.24 179.874 171.18 175.896 169.758 173.91C168.336 171.924 162.66 175.896 160.674 168.798C158.688 161.7 165.786 155.736 166.074 141.798C166.362 127.86 166.074 124.194 166.074 124.194" fill="#263238"/>
<path d="M151.56 116.268C151.56 116.268 146.916 143.304 146.76 155.736C146.604 168.168 151.56 175.326 158.4 177.6C165.24 179.874 171.18 175.896 169.758 173.91C168.336 171.924 162.66 175.896 160.674 168.798C158.688 161.7 165.786 155.736 166.074 141.798C166.362 127.86 166.074 124.194 166.074 124.194" stroke="#263238" stroke-miterlimit="10"/>
<path d="M140.094 51.6C140.097 48.7973 139.399 46.0383 138.063 43.5745C136.727 41.1106 134.796 39.0201 132.446 37.4933C130.095 35.9665 127.4 35.0521 124.606 34.8332C121.812 34.6143 119.007 35.0979 116.448 36.24C115.35 34.0869 113.799 32.1961 111.903 30.6969C110.007 29.1976 107.81 28.1252 105.462 27.5527C103.113 26.9803 100.669 26.9214 98.2957 27.38C95.9224 27.8385 93.6761 28.8039 91.71 30.21C90.8893 28.0385 89.6274 26.0606 88.004 24.4011C86.3806 22.7417 84.4309 21.4367 82.2779 20.5685C80.1249 19.7003 77.8153 19.2878 75.4949 19.3569C73.1745 19.426 70.8935 19.9752 68.796 20.97C66.2093 18.3535 62.8351 16.6585 59.1917 16.1454C55.5484 15.6323 51.8373 16.3294 48.6285 18.1297C45.4197 19.93 42.8907 22.7339 41.4298 26.1108C39.969 29.4876 39.657 33.2507 40.542 36.822C36.7502 38.2143 33.3852 40.568 30.777 43.6524C28.1688 46.7368 26.4069 50.4461 25.664 54.4165C24.9211 58.3869 25.2227 62.4823 26.5392 66.3011C27.8558 70.1198 30.1421 73.531 33.174 76.2C32.034 79.6638 32.052 83.4044 33.2252 86.857C34.3983 90.3097 36.663 93.2869 39.6773 95.3391C42.6915 97.3912 46.2917 98.407 49.934 98.2329C53.5764 98.0588 57.0632 96.7043 59.868 94.374C61.5453 98.4668 64.3521 101.998 67.9609 104.556C71.5697 107.113 75.8315 108.592 80.2489 108.818C84.6662 109.044 89.0569 108.01 92.9083 105.835C96.7597 103.66 99.913 100.434 102 96.534C105.753 98.0732 109.906 98.3473 113.829 97.3148C117.753 96.2822 121.232 93.9992 123.742 90.8116C126.251 87.6241 127.653 83.7055 127.736 79.6496C127.819 75.5936 126.577 71.6212 124.2 68.334C128.485 68.1026 132.52 66.2399 135.475 63.1282C138.431 60.0164 140.083 55.8916 140.094 51.6Z" fill="#263238" stroke="#263238" stroke-miterlimit="10"/>
<path d="M128.58 104.285C132.222 102.507 134.085 98.833 132.74 96.0785C131.395 93.324 127.353 92.5323 123.711 94.3101C120.069 96.088 118.207 99.7622 119.551 102.517C120.896 105.271 124.938 106.063 128.58 104.285Z" fill="#263238" stroke="#263238" stroke-miterlimit="10"/>
<path d="M128.07 112.554C129.078 114.618 132.108 115.212 134.838 113.88C137.568 112.548 138.96 109.794 137.952 107.73C136.944 105.666 133.914 105.072 131.184 106.404C128.454 107.736 127.062 110.49 128.07 112.554Z" fill="#263238" stroke="#263238" stroke-miterlimit="10"/>
<path d="M142.08 48C142.083 45.1973 141.385 42.4383 140.049 39.9745C138.713 37.5106 136.782 35.4201 134.432 33.8933C132.081 32.3665 129.386 31.4521 126.592 31.2332C123.798 31.0143 120.993 31.4979 118.434 32.64C117.333 30.4884 115.78 28.5997 113.883 27.1029C111.985 25.6061 109.787 24.5364 107.438 23.9668C105.089 23.3972 102.645 23.3412 100.272 23.8025C97.8995 24.2639 95.6544 25.2317 93.69 26.64C92.869 24.4716 91.6079 22.4965 89.9862 20.8393C88.3645 19.182 86.4174 17.8784 84.2672 17.0105C82.1171 16.1425 79.8106 15.7291 77.4929 15.7961C75.1752 15.8631 72.8964 16.4092 70.8 17.4C68.2151 14.7746 64.8387 13.0718 61.1909 12.5537C57.5431 12.0357 53.8262 12.7312 50.6125 14.5331C47.3988 16.335 44.8665 19.1434 43.4057 22.5258C41.9449 25.9082 41.6365 29.6771 42.528 33.252C38.7333 34.6435 35.3655 36.9976 32.755 40.0832C30.1445 43.1689 28.3809 46.8801 27.6373 50.8529C26.8937 54.8257 27.1955 58.9236 28.5133 62.7445C29.8311 66.5655 32.1195 69.9782 35.154 72.648C34.0121 76.1127 34.0289 79.855 35.202 83.3093C36.3752 86.7636 38.6408 89.7422 41.6565 91.7949C44.6722 93.8476 48.2742 94.863 51.918 94.6875C55.5619 94.5119 59.0496 93.1551 61.854 90.822C63.5302 94.9142 66.3355 98.4453 69.9427 101.003C73.5499 103.562 77.8101 105.041 82.2264 105.269C86.6426 105.498 91.0328 104.465 94.8845 102.293C98.7363 100.121 101.891 96.8975 103.98 93C107.733 94.5392 111.886 94.8133 115.81 93.7808C119.733 92.7482 123.213 90.4652 125.722 87.2776C128.231 84.0901 129.633 80.1715 129.716 76.1156C129.799 72.0596 128.557 68.0872 126.18 64.8C130.478 64.5694 134.523 62.6982 137.482 59.5722C140.44 56.4462 142.086 52.304 142.08 48Z" fill="white" stroke="#263238" stroke-miterlimit="10"/>
<path d="M130.557 100.718C134.199 98.9405 136.062 95.2663 134.717 92.5118C133.372 89.7573 129.33 88.9656 125.688 90.7434C122.046 92.5212 120.184 96.1954 121.528 98.9499C122.873 101.704 126.915 102.496 130.557 100.718Z" fill="white" stroke="#263238" stroke-miterlimit="10"/>
<path d="M130.056 108.984C131.064 111.048 134.094 111.642 136.818 110.316C139.542 108.99 140.94 106.23 139.932 104.16C138.924 102.09 135.9 101.502 133.17 102.834C130.44 104.166 129.048 106.92 130.056 108.984Z" fill="white" stroke="#263238" stroke-miterlimit="10"/>
<path d="M99.7561 51.468C99.7579 48.57 99.0616 45.7143 97.7262 43.1424C96.3907 40.5705 94.4554 38.3581 92.0839 36.6925C89.7124 35.0269 86.9746 33.957 84.1022 33.5734C81.2297 33.1899 78.3071 33.5039 75.5817 34.4889C72.8563 35.4739 70.4082 37.1009 68.4447 39.2323C66.4812 41.3636 65.06 43.9366 64.3013 46.7335C63.5427 49.5304 63.4689 52.4689 64.0863 55.3003C64.7037 58.1318 65.994 60.7728 67.8481 63C70.5044 66.1864 71.9588 70.2036 71.9581 74.352V76.824H91.4641V74.352C91.46 70.2077 92.9126 66.1938 95.5681 63.012C98.2742 59.7739 99.7565 55.688 99.7561 51.468Z" fill="#EE7814" stroke="#263238" stroke-miterlimit="10"/>
<path opacity="0.44" d="M81.6962 64.146C88.0154 64.146 93.1381 59.0232 93.1381 52.704C93.1381 46.3848 88.0154 41.262 81.6962 41.262C75.3769 41.262 70.2542 46.3848 70.2542 52.704C70.2542 59.0232 75.3769 64.146 81.6962 64.146Z" fill="white"/>
<path d="M91.464 76.842H71.958V81.666H91.464V76.842Z" fill="#7D7D7D" stroke="#263238" stroke-linecap="round" stroke-linejoin="round"/>
<path d="M71.958 81.678H91.464V83.67C91.464 84.4227 91.165 85.1445 90.6328 85.6768C90.1005 86.209 89.3787 86.508 88.626 86.508H74.796C74.0433 86.508 73.3215 86.209 72.7892 85.6768C72.257 85.1445 71.958 84.4227 71.958 83.67V81.678Z" fill="#7D7D7D" stroke="#263238" stroke-linecap="round" stroke-linejoin="round"/>
<path d="M74.4001 86.496H88.9801V87.474C88.9801 88.494 88.5749 89.4723 87.8537 90.1935C87.1324 90.9148 86.1542 91.32 85.1341 91.32H78.2641C77.2441 91.32 76.2659 90.9148 75.5446 90.1935C74.8234 89.4723 74.4181 88.494 74.4181 87.474V86.496H74.4001Z" fill="white" stroke="#263238" stroke-linecap="round" stroke-linejoin="round"/>
<path d="M102.312 51.564H110.58" stroke="#263238" stroke-linecap="round" stroke-linejoin="round"/>
<path d="M52.0681 51.564H60.4381" stroke="#263238" stroke-linecap="round" stroke-linejoin="round"/>
<path d="M81.3242 30.6V22.308" stroke="#263238" stroke-linecap="round" stroke-linejoin="round"/>
<path d="M96.3062 36.582L102.012 30.876" stroke="#263238" stroke-linecap="round" stroke-linejoin="round"/>
<path d="M60.6362 72.252L66.4262 66.462" stroke="#263238" stroke-linecap="round" stroke-linejoin="round"/>
<path d="M66.1802 36.42L60.6362 30.876" stroke="#263238" stroke-linecap="round" stroke-linejoin="round"/>
<path d="M102.012 72.252L96.4922 66.732" stroke="#263238" stroke-linecap="round" stroke-linejoin="round"/>
</svg>
