<svg width="200" height="200" viewBox="0 0 200 200" fill="none" xmlns="http://www.w3.org/2000/svg">
<path d="M167.076 20.7361C154.896 13.1601 140.296 12.3361 127.432 18.6441C116.476 24.0001 107.952 33.1081 96.984 38.4681C82 45.8001 65.548 49.8081 50.4 56.8321C35.252 63.8561 20.752 74.8641 15.32 90.6561C8.91997 109.308 11.168 131.24 20.956 148.292C36.868 176.008 68.428 185.852 98.812 185.492C163.016 184.736 196.088 106.976 185.612 51.0921C183.324 38.9841 177.748 27.3721 167.076 20.7361Z" fill="#EE7814"/>
<path opacity="0.7" d="M167.076 20.7361C154.896 13.1601 140.296 12.3361 127.432 18.6441C116.476 24.0001 107.952 33.1081 96.984 38.4681C82 45.8001 65.548 49.8081 50.4 56.8321C35.252 63.8561 20.752 74.8641 15.32 90.6561C8.91997 109.308 11.168 131.24 20.956 148.292C36.868 176.008 68.428 185.852 98.812 185.492C163.016 184.736 196.088 106.976 185.612 51.0921C183.324 38.9841 177.748 27.3721 167.076 20.7361Z" fill="white"/>
<path d="M48.2439 124.108L44.8839 124.716L44.2239 121.076L40.2319 121.8L40.8919 125.44L37.5359 126.048L38.2839 130.18L41.6399 129.572L42.2999 133.212L46.2919 132.492L45.6319 128.848L48.9919 128.24L48.2439 124.108Z" stroke="#EE7814" stroke-linecap="round" stroke-linejoin="round"/>
<path d="M81.7879 68.3481L78.5679 67.2121L79.7999 63.7241L75.9759 62.3721L74.7439 65.8601L71.5239 64.7241L70.1279 68.6841L73.3439 69.8201L72.1119 73.3121L75.9359 74.6601L77.1719 71.1721L80.3879 72.3081L81.7879 68.3481Z" stroke="#EE7814" stroke-linecap="round" stroke-linejoin="round"/>
<path d="M163.004 110.036L159.988 111.632L158.256 108.36L154.668 110.256L156.4 113.528L153.384 115.124L155.348 118.836L158.364 117.24L160.096 120.508L163.684 118.612L161.952 115.34L164.968 113.744L163.004 110.036Z" stroke="#EE7814" stroke-linecap="round" stroke-linejoin="round"/>
<path d="M34.2119 115.436C35.5639 115.436 36.6599 114.34 36.6599 112.988C36.6599 111.636 35.5639 110.54 34.2119 110.54C32.8599 110.54 31.7639 111.636 31.7639 112.988C31.7639 114.34 32.8599 115.436 34.2119 115.436Z" stroke="#EE7814" stroke-linecap="round" stroke-linejoin="round"/>
<path d="M72.3439 80.2598C72.3439 80.388 72.3058 80.5133 72.2346 80.6198C72.1634 80.7264 72.0622 80.8094 71.9438 80.8585C71.8254 80.9075 71.6951 80.9204 71.5694 80.8954C71.4437 80.8704 71.3283 80.8086 71.2376 80.718C71.147 80.6274 71.0853 80.5119 71.0603 80.3862C71.0353 80.2605 71.0481 80.1302 71.0972 80.0118C71.1462 79.8934 71.2293 79.7922 71.3358 79.721C71.4424 79.6498 71.5677 79.6118 71.6959 79.6118C71.8677 79.6118 72.0325 79.6801 72.1541 79.8016C72.2756 79.9231 72.3439 80.088 72.3439 80.2598V80.2598Z" stroke="#EE7814" stroke-linecap="round" stroke-linejoin="round"/>
<path d="M42.692 69.144C42.692 69.5965 42.5578 70.0388 42.3064 70.4151C42.055 70.7914 41.6976 71.0846 41.2795 71.2578C40.8615 71.431 40.4014 71.4763 39.9576 71.388C39.5138 71.2997 39.1061 71.0818 38.7861 70.7618C38.4661 70.4418 38.2482 70.0342 38.1599 69.5903C38.0716 69.1465 38.117 68.6865 38.2901 68.2684C38.4633 67.8503 38.7566 67.493 39.1328 67.2416C39.5091 66.9901 39.9514 66.856 40.404 66.856C41.0105 66.857 41.5918 67.0984 42.0207 67.5273C42.4495 67.9561 42.6909 68.5375 42.692 69.144V69.144Z" stroke="#EE7814" stroke-linecap="round" stroke-linejoin="round"/>
<path d="M143.504 100.136C143.504 100.392 143.428 100.643 143.285 100.856C143.143 101.069 142.941 101.235 142.704 101.333C142.467 101.431 142.206 101.457 141.955 101.407C141.704 101.357 141.473 101.234 141.291 101.052C141.11 100.871 140.987 100.64 140.937 100.389C140.887 100.137 140.912 99.8767 141.011 99.6399C141.109 99.4031 141.275 99.2007 141.488 99.0583C141.701 98.9159 141.952 98.8398 142.208 98.8398C142.552 98.8398 142.881 98.9764 143.124 99.2194C143.367 99.4625 143.504 99.7921 143.504 100.136V100.136Z" stroke="#EE7814" stroke-linecap="round" stroke-linejoin="round"/>
<path d="M130.404 60.6359C132.006 60.6359 133.304 59.3376 133.304 57.7359C133.304 56.1343 132.006 54.8359 130.404 54.8359C128.802 54.8359 127.504 56.1343 127.504 57.7359C127.504 59.3376 128.802 60.6359 130.404 60.6359Z" stroke="#EE7814" stroke-linecap="round" stroke-linejoin="round"/>
<path d="M112.548 83.8042C112.7 84.0322 117.288 84.9482 119.668 88.4082C121.053 90.396 122.214 92.5302 123.132 94.7722C123.132 94.7722 127.112 97.1402 129.152 99.0922C131.192 101.044 133.624 103.636 135.5 104.996C137.376 106.356 141.236 108.936 142.208 111.956C142.208 111.956 136.42 127.808 134.784 131.312C133.148 134.816 129.112 142.252 129.112 142.252L121.912 172.84H80.148L78.724 162.348C78.724 162.348 65.924 159.836 60.576 155.148C60.576 155.148 60.072 143.548 62.308 133.2C64.544 122.852 72.148 101.336 77.3 94.7642C77.3 94.7642 85.528 90.8282 92.788 89.5642C92.788 89.5642 97.5 85.8402 100.584 85.4442C103.668 85.0482 112.548 83.8042 112.548 83.8042Z" fill="white"/>
<path d="M79.2879 167.076C82.9959 167.784 86.2279 168.396 90.0039 168.352C93.7799 168.308 97.6359 167.46 100.724 165.296C101.32 164.8 101.997 164.407 102.724 164.136C104.364 163.676 105.988 164.76 107.616 165.264C109.68 165.904 111.944 165.6 113.968 164.832C115.992 164.064 117.812 162.868 119.616 161.676C119.349 165.356 119.263 169.043 119.356 172.736L121.928 172.84L128.516 143.852C128.516 143.852 117.248 156.94 111.756 160.848L101.22 158.136C101.22 158.136 100.228 158.96 98.1399 159.376C98.1399 159.376 97.1839 163.052 91.8079 163.06C86.4319 163.068 78.7239 162.348 78.7239 162.348L79.2879 167.076Z" fill="#EE7814"/>
<path opacity="0.5" d="M79.2879 167.076C82.9959 167.784 86.2279 168.396 90.0039 168.352C93.7799 168.308 97.6359 167.46 100.724 165.296C101.32 164.8 101.997 164.407 102.724 164.136C104.364 163.676 105.988 164.76 107.616 165.264C109.68 165.904 111.944 165.6 113.968 164.832C115.992 164.064 117.812 162.868 119.616 161.676C119.349 165.356 119.263 169.043 119.356 172.736L121.928 172.84L128.516 143.852C128.516 143.852 117.248 156.94 111.756 160.848L101.22 158.136C101.22 158.136 100.228 158.96 98.1399 159.376C98.1399 159.376 97.1839 163.052 91.8079 163.06C86.4319 163.068 78.7239 162.348 78.7239 162.348L79.2879 167.076Z" fill="white"/>
<path d="M68.492 112.988C68.492 112.988 63.6 136.736 63.848 144.892C63.848 144.892 70.496 143.028 75.136 144.892C75.136 144.892 67.24 144.012 63.84 147.632C60.44 151.252 70.904 160.764 91.84 158.832C91.84 158.832 96.016 160.14 98.136 159.372C98.136 159.372 97.568 163.156 91.804 163.056C86.064 162.828 69.272 162.688 60.572 155.152C60.576 155.156 59.48 133.324 68.492 112.988Z" fill="#EE7814"/>
<path opacity="0.6" d="M68.492 112.988C68.492 112.988 63.6 136.736 63.848 144.892C63.848 144.892 70.496 143.028 75.136 144.892C75.136 144.892 67.24 144.012 63.84 147.632C60.44 151.252 70.904 160.764 91.84 158.832C91.84 158.832 96.016 160.14 98.136 159.372C98.136 159.372 97.568 163.156 91.804 163.056C86.064 162.828 69.272 162.688 60.572 155.152C60.576 155.156 59.48 133.324 68.492 112.988Z" fill="white"/>
<path d="M78.4961 117.54C78.4961 117.54 79.9401 128.056 82.2721 130.256C84.6041 132.456 95.4721 131.736 99.7761 134.108C99.7761 134.108 103.828 127.088 111.156 122.696L101.22 138.34L92.6321 136.312L82.1481 134.712L81.2681 136.736H79.6921C79.6921 136.736 79.5161 125.512 78.4961 117.54Z" fill="#EE7814"/>
<path opacity="0.5" d="M78.4961 117.54C78.4961 117.54 79.9401 128.056 82.2721 130.256C84.6041 132.456 95.4721 131.736 99.7761 134.108C99.7761 134.108 103.828 127.088 111.156 122.696L101.22 138.34L92.6321 136.312L82.1481 134.712L81.2681 136.736H79.6921C79.6921 136.736 79.5161 125.512 78.4961 117.54Z" fill="white"/>
<path d="M119.572 96.1201C124.064 98.7641 124.568 101.744 125.492 103.872C123.156 104.336 120.74 104.832 118.812 106.228C116.412 107.972 115.112 110.86 114.104 113.664C113.15 116.318 112.349 119.023 111.704 121.768C113.875 117.846 116.961 114.506 120.7 112.032C122.856 110.608 125.52 109.46 127.98 110.264C125.916 111.14 123.58 112.324 123.144 114.524C123.058 114.889 123.073 115.271 123.188 115.628C123.556 116.664 124.844 116.944 125.82 117.448C127.724 118.428 128.716 120.648 128.8 122.8C128.884 124.952 128.224 127.032 127.572 129.068C126.999 130.852 126.425 132.636 125.852 134.42C125.12 136.7 124.376 139.012 123.052 141.012C121.728 143.012 119.74 144.688 117.376 145.08C116.388 145.271 115.365 145.155 114.444 144.748C113.746 144.369 113.097 143.905 112.512 143.368C109.676 141.078 106.268 139.606 102.656 139.112C107.304 142.184 109.504 147.764 111.432 152.992C110.547 151.442 109.271 150.152 107.732 149.248C107.338 148.973 106.869 148.825 106.388 148.824C105.124 148.924 104.724 150.536 103.964 151.544C103.052 152.744 101.384 153.172 99.888 152.98C98.392 152.788 97.016 152.088 95.672 151.38L78.668 142.612L77.468 146.212C77.468 146.212 91.012 157.012 111.764 160.832C111.764 160.832 125.244 150.18 130.02 140.736C134.796 131.292 142.216 111.936 142.216 111.936C142.216 111.936 139.5 106.792 134.844 104.108C134.844 104.108 131.368 102.464 130.636 100.432C129.904 98.4001 123.372 94.8921 123.372 94.8921C123.372 94.8921 124.22 97.0601 119.572 96.1201Z" fill="#EE7814"/>
<path opacity="0.6" d="M119.572 96.1201C124.064 98.7641 124.568 101.744 125.492 103.872C123.156 104.336 120.74 104.832 118.812 106.228C116.412 107.972 115.112 110.86 114.104 113.664C113.15 116.318 112.349 119.023 111.704 121.768C113.875 117.846 116.961 114.506 120.7 112.032C122.856 110.608 125.52 109.46 127.98 110.264C125.916 111.14 123.58 112.324 123.144 114.524C123.058 114.889 123.073 115.271 123.188 115.628C123.556 116.664 124.844 116.944 125.82 117.448C127.724 118.428 128.716 120.648 128.8 122.8C128.884 124.952 128.224 127.032 127.572 129.068C126.999 130.852 126.425 132.636 125.852 134.42C125.12 136.7 124.376 139.012 123.052 141.012C121.728 143.012 119.74 144.688 117.376 145.08C116.388 145.271 115.365 145.155 114.444 144.748C113.746 144.369 113.097 143.905 112.512 143.368C109.676 141.078 106.268 139.606 102.656 139.112C107.304 142.184 109.504 147.764 111.432 152.992C110.547 151.442 109.271 150.152 107.732 149.248C107.338 148.973 106.869 148.825 106.388 148.824C105.124 148.924 104.724 150.536 103.964 151.544C103.052 152.744 101.384 153.172 99.888 152.98C98.392 152.788 97.016 152.088 95.672 151.38L78.668 142.612L77.468 146.212C77.468 146.212 91.012 157.012 111.764 160.832C111.764 160.832 125.244 150.18 130.02 140.736C134.796 131.292 142.216 111.936 142.216 111.936C142.216 111.936 139.5 106.792 134.844 104.108C134.844 104.108 131.368 102.464 130.636 100.432C129.904 98.4001 123.372 94.8921 123.372 94.8921C123.372 94.8921 124.22 97.0601 119.572 96.1201Z" fill="white"/>
<path d="M118.144 59.3C118.144 59.3 119.052 48.712 114.488 47.7C109.924 46.688 107.36 42.5 107.36 42.5L91.168 47.02L88.656 56.756L90.256 61.684C90.256 61.684 90.592 66.256 90.656 68.516C90.72 70.776 90.656 72.516 92.368 75.26C94.08 78.004 95.672 80.728 99.372 83.1V89.336C99.372 89.336 97.084 96.012 98.348 100.108C98.348 100.108 99.104 100.908 101.192 99.708C103.28 98.508 112.212 92.54 115.328 86.308L116.296 70.464C116.296 70.464 118.868 70.864 119.976 68.52C121.604 66.228 121.54 63.556 120.908 61.38C120.276 59.204 117.556 60.612 117.556 60.612L118.144 59.3Z" fill="#999999"/>
<path d="M99.5479 74.824C100.006 74.3254 100.57 73.9364 101.199 73.6857C101.827 73.435 102.505 73.3292 103.18 73.376C103.18 73.376 105.128 70.3 107.18 70.864C107.18 70.864 107.812 74.124 105.352 75.408C102.152 77.076 99.5479 74.824 99.5479 74.824Z" fill="#737373"/>
<path d="M93.532 45.6719C93.532 45.6719 89.656 50.7639 89.88 56.0719C90.104 61.3799 90.876 65.1439 90.652 69.2399C90.428 73.3359 94.748 80.1959 99.176 82.9599C102.484 85.0279 106.632 84.6759 109.852 82.5599C113.452 80.1599 115.432 75.8479 116.156 71.7079C116.228 71.3079 116.284 70.9079 116.324 70.4759" stroke="#263238" stroke-linecap="round" stroke-linejoin="round"/>
<path d="M99.176 82.9639C99.176 82.9639 99.804 88.6999 99.176 90.6639C98.484 92.8199 97.648 97.8399 98.376 100.108C99.104 102.376 112.724 92.8439 115.356 86.3039C115.356 86.3039 115.72 73.5959 116.628 70.4199" stroke="#263238" stroke-linecap="round" stroke-linejoin="round"/>
<path d="M98.8 74.684C98.8 74.684 104.996 76.436 107.532 70.04" stroke="#263238" stroke-linecap="round" stroke-linejoin="round"/>
<path d="M99.3 84.3439C99.3 84.3439 100.62 88.4359 103.468 88.6799C106.316 88.9239 113.44 83.2159 115.868 76.4919V73.1279C115.868 73.1279 113.868 81.9279 108.012 83.5279C102.156 85.1279 99.416 83.0919 99.416 83.0919L99.3 84.3439Z" fill="#263238"/>
<path d="M107.176 70.8643C104.424 70.6723 103.176 73.3763 103.176 73.3763C102.498 73.2935 101.809 73.3828 101.175 73.6358C100.54 73.8888 99.9792 74.2975 99.5439 74.8243C100.222 75.4324 101.055 75.8404 101.952 76.0029C102.848 76.1653 103.772 76.0758 104.62 75.7443C107.748 74.6563 107.176 70.8643 107.176 70.8643Z" stroke="#263238" stroke-linecap="round" stroke-linejoin="round"/>
<path d="M100.276 58.8003C100.31 60.0693 100.254 61.3392 100.108 62.6003C99.9599 63.7323 99.4359 64.8163 98.9999 65.8803C98.5999 66.8483 97.9319 68.3363 98.4879 69.3563C99.1199 70.5123 101.22 69.3563 101.22 69.3563" stroke="#263238" stroke-linecap="round" stroke-linejoin="round"/>
<path d="M102.512 69.1162C103.22 69.2122 104.224 69.1162 104.424 67.8882" stroke="#263238" stroke-linecap="round" stroke-linejoin="round"/>
<path d="M104.8 57.272C105.485 56.6191 106.394 56.2549 107.34 56.2549C108.286 56.2549 109.196 56.6191 109.88 57.272" stroke="#263238" stroke-width="2" stroke-linecap="round" stroke-linejoin="round"/>
<path d="M96.728 58.2722C96.728 58.2722 94.852 55.8722 92.396 58.2722" stroke="#263238" stroke-width="2" stroke-linecap="round" stroke-linejoin="round"/>
<path d="M114.852 64.3403C114.852 64.3403 116.992 59.2003 119.784 60.3043C121.708 61.0683 121.824 64.3883 120.804 66.7043C119.784 69.0203 119.272 71.3803 115.872 70.0603" stroke="#263238" stroke-linecap="round" stroke-linejoin="round"/>
<path d="M115.232 63.5521C115.232 63.5521 113.176 62.8241 112.796 59.4841C112.416 56.1441 114.464 52.8001 113.704 50.4001C112.944 48.0001 106.956 49.2001 105.592 45.0161C105.592 45.0161 101.096 48.3681 92.392 47.6481C92.392 47.6481 90.556 50.7761 90.236 52.6881C89.8075 55.6776 89.8183 58.7137 90.268 61.7001C90.268 61.8041 90.304 61.9041 90.324 62.0081C90.948 65.2641 87.84 57.5761 87.924 54.2921C88.008 51.0081 86.028 46.8361 88.608 43.7281C91.188 40.6201 100.648 38.8001 102.512 37.3401C104.376 35.8801 108 39.7681 112.188 41.2001C116.376 42.6321 119.848 44.3401 119.32 50.2801C118.792 56.2201 119.348 57.0161 119.372 60.1441C119.372 60.1521 117.436 59.4241 115.232 63.5521Z" fill="#263238"/>
<path d="M107.348 61.6001C107.348 62.4001 107.04 63.0641 106.656 63.0641C106.272 63.0641 105.968 62.4081 105.968 61.6001C105.968 60.7921 106.276 60.1401 106.656 60.1401C107.036 60.1401 107.348 60.8001 107.348 61.6001Z" fill="#263238"/>
<path d="M96.7281 61.6001C96.7281 62.4001 96.4201 63.0641 96.0401 63.0641C95.6601 63.0641 95.3521 62.4081 95.3521 61.6001C95.3521 60.7921 95.6601 60.1401 96.0401 60.1401C96.4201 60.1401 96.7281 60.8001 96.7281 61.6001Z" fill="#263238"/>
<path d="M104.8 63.5522C104.8 63.5522 106.228 65.0682 108.036 65.2842" stroke="#263238" stroke-linecap="round" stroke-linejoin="round"/>
<path d="M95.072 65.2842C95.072 65.2842 97.684 65.1002 98.272 63.5522" stroke="#263238" stroke-linecap="round" stroke-linejoin="round"/>
<path d="M101.144 101.08C103.088 99.8439 105.66 100.308 107.788 101.184C108.956 101.668 110.068 102.276 111.232 102.784C111.808 103.038 112.401 103.25 113.008 103.416C114.468 103.796 113.944 101.984 113.86 101.172C113.74 100.008 113.656 98.8399 113.516 97.6839C113.459 97.4445 113.487 97.1926 113.596 96.9719C113.74 96.7939 113.94 96.671 114.164 96.6239C116.728 95.8239 119.492 96.1759 122.164 96.2239C122.407 96.2526 122.652 96.2066 122.868 96.0919C123.268 95.8319 123.224 95.2439 123.116 94.7799C122.192 90.8279 118.932 86.8959 115.388 84.9199" stroke="#263238" stroke-linecap="round" stroke-linejoin="round"/>
<path d="M99.4 85.5601C97.636 86.2961 95.824 87.0601 94.304 88.1881C93.7525 88.5902 93.2445 89.0487 92.788 89.5561C92.4202 89.9059 92.1891 90.3753 92.136 90.8801C92.1458 91.1148 92.2081 91.3445 92.3181 91.5521C92.4281 91.7597 92.5832 91.9401 92.772 92.0801C93.0404 92.301 93.3362 92.4865 93.652 92.6321C94.388 92.9801 95.252 93.3201 95.564 94.0601C95.6398 94.2151 95.6676 94.3891 95.644 94.5601C95.6043 94.7102 95.5272 94.8478 95.42 94.9601C94.812 95.7001 93.74 96.2721 93.82 97.2281C93.872 97.9681 94.62 98.4281 95.284 98.7561C95.948 99.0841 96.724 99.4241 96.952 100.132" stroke="#263238" stroke-linecap="round" stroke-linejoin="round"/>
<path d="M88.9561 48.0522C89.2161 46.4522 90.8881 45.4202 92.4961 45.1602C94.1041 44.9002 95.7561 45.1602 97.3761 45.0202C98.7309 44.8863 100.041 44.4631 101.219 43.7792C102.396 43.0954 103.413 42.1668 104.2 41.0562" stroke="white" stroke-linecap="round" stroke-linejoin="round"/>
<path d="M90.7759 43.5562C93.6799 41.8402 97.7599 43.6242 100.592 41.7922C101.393 41.2087 102.091 40.4948 102.656 39.6802" stroke="white" stroke-linecap="round" stroke-linejoin="round"/>
<path d="M127.82 109.2C117.42 111.276 113.54 118.928 113.54 118.928L101.22 138.332" stroke="#263238" stroke-linecap="round" stroke-linejoin="round"/>
<path d="M119.028 107.104C119.891 106.305 120.868 105.639 121.928 105.128" stroke="#263238" stroke-linecap="round" stroke-linejoin="round"/>
<path d="M111.756 121.752C111.756 121.752 113.068 114.744 116.836 109.58" stroke="#263238" stroke-linecap="round" stroke-linejoin="round"/>
<path d="M79.692 136.704C79.692 136.704 79.152 115.236 77.292 111.956" stroke="#263238" stroke-linecap="round" stroke-linejoin="round"/>
<path d="M123.132 94.772C123.132 94.772 129.132 98.372 131.796 101.756C134.46 105.14 140.756 107.388 142.196 111.956C142.196 111.956 133.904 138.084 125.216 147.528C116.528 156.972 111.744 160.848 111.744 160.848C111.744 160.848 90.8441 157.216 77.2881 145.832L82.1361 134.692C82.1361 134.692 95.8041 136.42 101.208 138.34C106.612 140.26 111.744 151.888 111.744 151.888" stroke="#263238" stroke-linecap="round" stroke-linejoin="round"/>
<path d="M101.22 138.34C101.22 138.34 110.788 140.2 113.896 144.556" stroke="#263238" stroke-linecap="round" stroke-linejoin="round"/>
<path d="M128.752 142.82L121.928 172.84H80.1479L78.7239 162.348" stroke="#263238" stroke-linecap="round" stroke-linejoin="round"/>
<path d="M98.14 159.376C95.832 164.104 92.788 163.06 92.788 163.06C69.248 163.952 60.576 155.156 60.576 155.156C60.576 155.156 59.376 142.784 64.004 126.088C68.632 109.392 77.3 94.7721 77.3 94.7721C81.144 92.2161 89.72 90.2202 92.14 89.6922L92.788 89.5562" stroke="#263238" stroke-linecap="round" stroke-linejoin="round"/>
<path d="M92.8 163.06C92.8 163.06 91.556 162.856 91.872 154.608" stroke="#263238" stroke-linecap="round" stroke-linejoin="round"/>
<path d="M77.936 146.36C77.936 146.36 72.056 144.288 64.772 149.328" stroke="#263238" stroke-linecap="round" stroke-linejoin="round"/>
<path d="M66.092 144.556C66.092 144.556 73.796 142.264 77.292 145.936" stroke="#263238" stroke-linecap="round" stroke-linejoin="round"/>
<path d="M76.4599 145.728L77.4599 146.228L81.2679 136.716C81.2679 136.716 77.3239 136.072 71.0759 143.852C73.0269 143.875 74.9173 144.533 76.4599 145.728Z" fill="#999999" stroke="#263238" stroke-miterlimit="10"/>
<path d="M91.8599 154.608V158.836C91.8599 158.836 97.2479 160.436 101.236 158.136L91.8599 154.608Z" fill="#999999" stroke="#263238" stroke-miterlimit="10"/>
<path d="M121.064 96.1803C121.068 96.2584 121.06 96.3367 121.04 96.4123C120.872 97.0723 116.764 112.58 103.616 119.48C103.502 119.542 103.374 119.573 103.244 119.572C103.065 119.572 102.892 119.512 102.751 119.402C102.61 119.292 102.51 119.137 102.468 118.964C102.425 118.79 102.441 118.607 102.515 118.444C102.588 118.281 102.714 118.148 102.872 118.064C114.872 111.772 119.1 97.4323 119.468 96.1123L121.064 96.1803Z" fill="#263238"/>
<path d="M92.7721 92.0679C90.6935 96.8153 89.5721 101.926 89.4721 107.108C89.4721 107.528 89.4721 107.956 89.4721 108.392C89.4721 108.5 89.4721 108.608 89.4721 108.716C89.3527 108.72 89.2338 108.732 89.1161 108.752C88.6832 108.82 88.2636 108.955 87.8721 109.152C87.8721 108.564 87.8721 107.992 87.8721 107.428C88.0441 98.4519 90.7241 92.3439 92.1521 89.7039L92.8001 89.5679C92.4323 89.9177 92.2012 90.3871 92.1481 90.8919C92.16 91.1215 92.222 91.3458 92.3298 91.549C92.4376 91.7522 92.5886 91.9293 92.7721 92.0679Z" fill="#263238"/>
<path d="M108.524 115.872C109.46 117.172 108.692 119.332 106.804 120.696C104.916 122.06 102.628 122.108 101.688 120.808C100.748 119.508 101.516 117.348 103.404 115.984C105.292 114.62 107.6 114.572 108.524 115.872Z" fill="white" stroke="#263238" stroke-linecap="round" stroke-linejoin="round"/>
<path d="M106.196 115.1C106.86 116.02 106.316 117.548 104.996 118.512C103.676 119.476 102.04 119.512 101.396 118.592C100.752 117.672 101.276 116.144 102.596 115.18C103.916 114.216 105.532 114.184 106.196 115.1Z" fill="white" stroke="#263238" stroke-linecap="round" stroke-linejoin="round"/>
<path d="M95.624 131.336C95.4537 131.449 95.2464 131.493 95.0448 131.458C94.8432 131.423 94.6626 131.312 94.5402 131.148C94.4177 130.984 94.3627 130.78 94.3865 130.577C94.4103 130.373 94.5111 130.187 94.668 130.056C94.736 130 97.42 127.716 96.244 120.024C96.144 119.372 96.016 118.676 95.844 117.944C95.336 115.612 94.552 112.66 92.948 110.492C92.5664 109.92 92.0439 109.456 91.4308 109.145C90.8178 108.834 90.1349 108.686 89.448 108.716C89.3287 108.72 89.2098 108.732 89.092 108.752C88.6592 108.82 88.2396 108.955 87.848 109.152C86.6531 109.769 85.7461 110.828 85.32 112.104L85.176 112.504C84.269 114.957 83.5273 117.468 82.956 120.02C82.316 123.16 82.1 126.452 83.236 128.752C83.5404 129.383 83.974 129.943 84.5088 130.396C85.0435 130.848 85.6674 131.184 86.34 131.38C86.5206 131.439 86.6742 131.561 86.7732 131.723C86.8722 131.886 86.9102 132.078 86.8803 132.265C86.8505 132.453 86.7548 132.624 86.6103 132.748C86.4659 132.871 86.2821 132.939 86.092 132.94C86.0078 132.94 85.9241 132.926 85.844 132.9C84.9693 132.637 84.1585 132.196 83.4631 131.604C82.7677 131.012 82.2028 130.282 81.804 129.46C80.524 126.872 80.692 123.348 81.34 120.02C81.9145 117.283 82.6927 114.593 83.668 111.972L83.812 111.572C84.1265 110.62 84.6532 109.752 85.3524 109.033C86.0516 108.315 86.905 107.764 87.848 107.424C88.1745 107.311 88.5105 107.228 88.852 107.176C89.056 107.148 89.252 107.128 89.46 107.116C90.3963 107.09 91.3241 107.3 92.1585 107.725C92.9929 108.151 93.7072 108.779 94.236 109.552C96.02 111.952 96.868 115.124 97.408 117.612C97.596 118.468 97.74 119.272 97.848 120.032C99.112 128.656 95.78 131.224 95.624 131.336Z" fill="#263238" stroke="#263238" stroke-miterlimit="10"/>
<path d="M85.532 132.8C85.532 132.8 88.432 134 89.168 132.8C89.904 131.6 89.308 131.036 88.304 130.94C87.3034 130.889 86.3007 130.889 85.3 130.94L85.532 132.8Z" fill="#263238" stroke="#263238" stroke-miterlimit="10"/>
<path d="M86.864 132.4C86.8117 132.561 86.71 132.7 86.5735 132.8C86.4371 132.899 86.2727 132.952 86.104 132.952C86.0197 132.952 85.9361 132.939 85.856 132.912C84.9812 132.65 84.1705 132.208 83.4751 131.616C82.7797 131.024 82.2147 130.294 81.816 129.472C80.536 126.884 80.704 123.36 81.352 120.032H82.952C82.312 123.172 82.096 126.464 83.232 128.764C83.5364 129.395 83.97 129.955 84.5047 130.408C85.0395 130.861 85.6634 131.196 86.336 131.392C86.4372 131.423 86.5313 131.474 86.6127 131.542C86.6941 131.609 86.7614 131.692 86.8105 131.786C86.8596 131.88 86.8896 131.982 86.8988 132.088C86.908 132.193 86.8962 132.299 86.864 132.4Z" fill="white" stroke="#263238" stroke-linecap="round" stroke-linejoin="round"/>
<path d="M92.952 130.468C92.8314 130.611 92.7424 130.778 92.6907 130.958C92.639 131.138 92.6258 131.327 92.652 131.512C92.7319 131.786 92.9053 132.023 93.1421 132.183C93.3789 132.342 93.6641 132.413 93.948 132.384C94.5162 132.308 95.0355 132.023 95.404 131.584C95.804 131.136 97.192 128.204 95.908 128.708C94.976 129.06 93.576 129.656 92.952 130.468Z" fill="#263238" stroke="#263238" stroke-miterlimit="10"/>
<path d="M95.624 131.336C95.4537 131.449 95.2464 131.493 95.0448 131.458C94.8432 131.423 94.6626 131.312 94.5402 131.148C94.4177 130.985 94.3627 130.78 94.3865 130.577C94.4103 130.374 94.5111 130.187 94.668 130.056C94.736 130 97.42 127.716 96.244 120.024H97.844C99.112 128.656 95.78 131.224 95.624 131.336Z" fill="white" stroke="#263238" stroke-linecap="round" stroke-linejoin="round"/>
<path opacity="0.2" d="M102.8 60.6363C102.8 60.6363 107.836 58.0203 112.464 60.6363C112.464 60.6363 112.54 64.4963 110.792 66.0843C110.172 66.6483 107.332 66.7443 106.256 66.6483C101.888 66.2523 102.8 60.6363 102.8 60.6363Z" fill="white"/>
<path opacity="0.2" d="M99.64 60.6363C99.64 60.6363 94.604 58.0203 89.98 60.6363C89.98 60.6363 89.904 64.4963 91.648 66.0843C92.268 66.6483 95.112 66.7443 96.184 66.6483C100.552 66.2523 99.64 60.6363 99.64 60.6363Z" fill="white"/>
<path d="M102.8 60.6363C102.8 60.6363 107.836 58.0203 112.464 60.6363C112.464 60.6363 112.54 64.4963 110.792 66.0843C110.172 66.6483 107.332 66.7443 106.256 66.6483C101.888 66.2523 102.8 60.6363 102.8 60.6363Z" stroke="#263238" stroke-miterlimit="10"/>
<path d="M99.64 60.6363C99.64 60.6363 94.604 58.0203 89.98 60.6363C89.98 60.6363 89.904 64.4963 91.648 66.0843C92.268 66.6483 95.112 66.7443 96.184 66.6483C100.552 66.2523 99.64 60.6363 99.64 60.6363Z" stroke="#263238" stroke-miterlimit="10"/>
<path d="M99.6399 60.6361C99.6399 60.6361 100.768 59.8081 102.8 60.6361" stroke="#263238" stroke-miterlimit="10"/>
<path d="M112.464 60.6362L114.568 61.6122" stroke="#263238" stroke-miterlimit="10"/>
<path d="M31.928 183.488L46.732 169.504H164.228L173.124 183.488H31.928Z" fill="white" stroke="#263238" stroke-linecap="round" stroke-linejoin="round"/>
<path d="M173.124 183.488H31.928V187.252H173.124V183.488Z" fill="#263238" stroke="#263238" stroke-linecap="round" stroke-linejoin="round"/>
<path d="M46.7319 180.032V177.132H69.9319V180.032H65.4559H46.7319Z" fill="white" stroke="#263238" stroke-miterlimit="10"/>
<path d="M46.7319 177.132L60.4359 167.94L78.7239 168.372L69.9319 177.132H46.7319Z" fill="white" stroke="#263238" stroke-linecap="round" stroke-linejoin="round"/>
<path d="M69.9319 180.032L78.7239 171.224V168.372L69.9319 177.132V180.032Z" fill="white" stroke="#263238" stroke-linecap="round" stroke-linejoin="round"/>
<path d="M69.3039 176.4C69.3039 176.4 67.4519 176.768 67.4519 178.372C67.4519 179.976 69.0519 180.448 69.0519 180.448" stroke="#263238" stroke-width="2" stroke-linecap="round" stroke-linejoin="round"/>
<path d="M67.4519 176.4C67.4519 176.4 65.5999 176.768 65.5999 178.372C65.5999 179.976 67.1999 180.448 67.1999 180.448" stroke="#263238" stroke-width="2" stroke-linecap="round" stroke-linejoin="round"/>
<path d="M65.6 176.4C65.6 176.4 63.748 176.768 63.748 178.372C63.748 179.976 65.348 180.448 65.348 180.448" stroke="#263238" stroke-width="2" stroke-linecap="round" stroke-linejoin="round"/>
<path d="M63.748 176.4C63.748 176.4 61.896 176.768 61.896 178.372C61.896 179.976 63.496 180.448 63.496 180.448" stroke="#263238" stroke-width="2" stroke-linecap="round" stroke-linejoin="round"/>
<path d="M61.8959 176.4C61.8959 176.4 60.0439 176.768 60.0439 178.372C60.0439 179.976 61.6439 180.448 61.6439 180.448" stroke="#263238" stroke-width="2" stroke-linecap="round" stroke-linejoin="round"/>
<path d="M60.0439 176.4C60.0439 176.4 58.1919 176.768 58.1919 178.372C58.1919 179.976 59.7919 180.448 59.7919 180.448" stroke="#263238" stroke-width="2" stroke-linecap="round" stroke-linejoin="round"/>
<path d="M58.1918 176.4C58.1918 176.4 56.3398 176.768 56.3398 178.372C56.3398 179.976 57.9398 180.448 57.9398 180.448" stroke="#263238" stroke-width="2" stroke-linecap="round" stroke-linejoin="round"/>
<path d="M56.34 176.4C56.34 176.4 54.488 176.768 54.488 178.372C54.488 179.976 56.088 180.448 56.088 180.448" stroke="#263238" stroke-width="2" stroke-linecap="round" stroke-linejoin="round"/>
<path d="M54.26 176.4C54.26 176.4 52.408 176.768 52.408 178.372C52.408 179.976 54.008 180.448 54.008 180.448" stroke="#263238" stroke-width="2" stroke-linecap="round" stroke-linejoin="round"/>
<path d="M52.176 176.4C52.176 176.4 50.324 176.768 50.324 178.372C50.324 179.976 51.924 180.448 51.924 180.448" stroke="#263238" stroke-width="2" stroke-linecap="round" stroke-linejoin="round"/>
<path d="M49.8598 176.4C49.8598 176.4 48.0078 176.768 48.0078 178.372C48.0078 179.976 49.6078 180.448 49.6078 180.448" stroke="#263238" stroke-width="2" stroke-linecap="round" stroke-linejoin="round"/>
<path d="M61.5998 170.192C60.3222 170.897 59.3096 171.999 58.7158 173.332C60.3998 172.8 61.7318 171.6 63.0078 170.4L61.6238 173.832C62.2609 173.78 62.8769 173.579 63.4218 173.245C63.9666 172.91 64.425 172.452 64.7598 171.908C64.6502 171.955 64.5518 172.025 64.471 172.113C64.3903 172.201 64.329 172.305 64.2912 172.418C64.2535 172.532 64.2401 172.652 64.2519 172.77C64.2637 172.889 64.3005 173.004 64.3598 173.108C65.5198 172.94 66.2598 171.82 66.8438 170.804C66.9511 171.369 66.9927 171.945 66.9678 172.52C67.9378 172.659 68.9274 172.533 69.8318 172.156" stroke="#263238" stroke-width="0.75" stroke-linecap="round" stroke-linejoin="round"/>
<path d="M163.444 155.496H123.12V177.636H163.444V155.496Z" fill="white" stroke="#263238" stroke-linecap="round" stroke-linejoin="round"/>
<path d="M122.964 177.632L116.48 171.468V149.328L122.964 155.496V177.632Z" fill="white" stroke="#263238" stroke-linecap="round" stroke-linejoin="round"/>
<path d="M163.444 155.496L156.96 149.328H116.64L123.12 155.496H163.444Z" fill="white" stroke="#263238" stroke-linecap="round" stroke-linejoin="round"/>
<path d="M148.616 163.8H145.052V160.072H140.028V163.8H136.14V168.824H140.028V172.548H145.052V168.824H148.616V163.8Z" fill="#EE7814" stroke="#263238" stroke-miterlimit="10"/>
<path d="M142.932 155.496L136.448 149.328" stroke="#263238" stroke-linecap="round" stroke-linejoin="round"/>
<path d="M57.6986 61.3977C62.4021 56.6943 62.4021 49.0684 57.6986 44.365C52.9951 39.6615 45.3693 39.6615 40.6658 44.365C35.9623 49.0684 35.9623 56.6943 40.6658 61.3977C45.3693 66.1012 52.9951 66.1012 57.6986 61.3977Z" fill="white" stroke="#263238" stroke-linecap="round" stroke-linejoin="round"/>
<path d="M59.2001 51.0362C59.1999 51.8424 58.9471 52.6284 58.4772 53.2834C58.0072 53.9385 57.3437 54.4298 56.5801 54.6882L51.2001 56.5002L44.6521 58.7122C43.6875 59.0293 42.6366 58.9524 41.7285 58.498C40.8205 58.0437 40.1288 57.2489 39.8042 56.2867C39.4796 55.3246 39.5485 54.2732 39.9958 53.3617C40.443 52.4501 41.2325 51.7522 42.1921 51.4202L48.1401 49.4202L54.1161 47.4202C54.6942 47.2258 55.3103 47.1714 55.9135 47.2616C56.5168 47.3517 57.09 47.5839 57.5861 47.9389C58.0821 48.2939 58.4867 48.7617 58.7666 49.3036C59.0465 49.8456 59.1937 50.4463 59.1961 51.0562L59.2001 51.0362Z" fill="white"/>
<path d="M59.2001 51.0358C59.2 51.8421 58.9472 52.628 58.4772 53.283C58.0073 53.9381 57.3438 54.4294 56.5801 54.6878L51.2001 56.4998C51.0567 53.8494 49.9715 51.3372 48.1401 49.4158L54.1161 47.4158C54.6943 47.2214 55.3103 47.167 55.9136 47.2572C56.5169 47.3473 57.0901 47.5795 57.5861 47.9345C58.0821 48.2895 58.4867 48.7573 58.7667 49.2992C59.0466 49.8412 59.1938 50.4419 59.1961 51.0518L59.2001 51.0358Z" fill="#EE7814"/>
<path d="M59.2001 51.0362C59.1999 51.8424 58.9471 52.6284 58.4772 53.2834C58.0072 53.9385 57.3437 54.4298 56.5801 54.6882L51.2001 56.5002L44.6521 58.7122C43.6875 59.0293 42.6366 58.9524 41.7285 58.498C40.8205 58.0437 40.1288 57.2489 39.8042 56.2867C39.4796 55.3246 39.5485 54.2732 39.9958 53.3617C40.443 52.4501 41.2325 51.7522 42.1921 51.4202L48.1401 49.4202L54.1161 47.4202C54.6942 47.2258 55.3103 47.1714 55.9135 47.2616C56.5168 47.3517 57.09 47.5839 57.5861 47.9389C58.0821 48.2939 58.4867 48.7617 58.7666 49.3036C59.0465 49.8456 59.1937 50.4463 59.1961 51.0562L59.2001 51.0362Z" stroke="#263238" stroke-linecap="round" stroke-linejoin="round"/>
<path d="M51.2001 56.5C51.0777 53.8446 49.9895 51.3254 48.1401 49.416" stroke="#263238" stroke-linecap="round" stroke-linejoin="round"/>
<path d="M57.9121 49.6001C58.1647 50.0255 58.2922 50.5135 58.2801 51.0081" stroke="white" stroke-linecap="round" stroke-linejoin="round"/>
<path d="M49.6602 49.9999L54.4602 48.3999C54.8907 48.2523 55.3486 48.2019 55.8009 48.2524C56.2533 48.3029 56.6888 48.453 57.0762 48.6919" stroke="white" stroke-linecap="round" stroke-linejoin="round"/>
<path d="M131.017 36.5423C137.143 33.9497 140.007 26.8821 137.414 20.7565C134.822 14.6308 127.754 11.7667 121.628 14.3594C115.503 16.952 112.639 24.0195 115.231 30.1452C117.824 36.2709 124.891 39.1349 131.017 36.5423Z" fill="white" stroke="#263238" stroke-linecap="round" stroke-linejoin="round"/>
<path d="M130.476 30.4919L119.972 26.9759C119.099 26.6823 118.378 26.0539 117.967 25.2288C117.557 24.4037 117.491 23.4495 117.784 22.5759C118.078 21.7025 118.706 20.9814 119.531 20.5711C120.356 20.1608 121.311 20.0949 122.184 20.3879L132.688 23.8999C133.561 24.1944 134.281 24.8229 134.691 25.6477C135.102 26.4725 135.168 27.4262 134.876 28.2999C134.582 29.1734 133.954 29.8947 133.129 30.3057C132.305 30.7166 131.35 30.7836 130.476 30.4919Z" fill="#EE7814"/>
<path d="M122.78 26.6962L124.54 22.4922" stroke="#263238" stroke-linecap="round" stroke-linejoin="round"/>
<path d="M128.568 28.6202L130.32 24.4282" stroke="#263238" stroke-linecap="round" stroke-linejoin="round"/>
<path d="M124.232 26.9439C124.429 26.9439 124.588 26.7845 124.588 26.5879C124.588 26.3913 124.429 26.2319 124.232 26.2319C124.035 26.2319 123.876 26.3913 123.876 26.5879C123.876 26.7845 124.035 26.9439 124.232 26.9439Z" fill="#263238"/>
<path d="M127.732 27.6363C127.732 27.7067 127.711 27.7755 127.672 27.8341C127.633 27.8926 127.577 27.9382 127.512 27.9652C127.447 27.9921 127.376 27.9992 127.307 27.9854C127.238 27.9717 127.174 27.9378 127.124 27.888C127.074 27.8382 127.041 27.7748 127.027 27.7057C127.013 27.6367 127.02 27.5651 127.047 27.5C127.074 27.435 127.12 27.3794 127.178 27.3403C127.237 27.3012 127.306 27.2803 127.376 27.2803C127.47 27.2803 127.561 27.3178 127.628 27.3845C127.695 27.4513 127.732 27.5419 127.732 27.6363Z" fill="#263238"/>
<path d="M125.612 23.776C125.809 23.776 125.968 23.6166 125.968 23.42C125.968 23.2234 125.809 23.064 125.612 23.064C125.415 23.064 125.256 23.2234 125.256 23.42C125.256 23.6166 125.415 23.776 125.612 23.776Z" fill="#263238"/>
<path d="M129.06 24.4361C129.06 24.5065 129.039 24.5753 129 24.6339C128.961 24.6924 128.905 24.738 128.84 24.765C128.775 24.7919 128.704 24.799 128.635 24.7852C128.566 24.7715 128.502 24.7376 128.452 24.6878C128.403 24.638 128.369 24.5746 128.355 24.5055C128.341 24.4365 128.348 24.3649 128.375 24.2998C128.402 24.2348 128.448 24.1792 128.506 24.1401C128.565 24.101 128.634 24.0801 128.704 24.0801C128.799 24.0801 128.889 24.1176 128.956 24.1843C129.023 24.2511 129.06 24.3417 129.06 24.4361Z" fill="#263238"/>
<path d="M130.476 30.4919L119.972 26.9759C119.099 26.6823 118.378 26.0539 117.967 25.2288C117.557 24.4037 117.491 23.4495 117.784 22.5759V22.5759C118.078 21.7025 118.706 20.9814 119.531 20.5711C120.356 20.1608 121.311 20.0949 122.184 20.3879L132.688 23.8999C133.561 24.1944 134.281 24.8229 134.691 25.6477C135.102 26.4725 135.168 27.4262 134.876 28.2999V28.2999C134.582 29.1734 133.954 29.8947 133.129 30.3057C132.305 30.7166 131.35 30.7836 130.476 30.4919V30.4919Z" stroke="#263238" stroke-linecap="round" stroke-linejoin="round"/>
<path d="M80.856 36.84C87.5077 36.84 92.9 31.4477 92.9 24.796C92.9 18.1442 87.5077 12.752 80.856 12.752C74.2043 12.752 68.812 18.1442 68.812 24.796C68.812 31.4477 74.2043 36.84 80.856 36.84Z" fill="white" stroke="#263238" stroke-linecap="round" stroke-linejoin="round"/>
<path d="M87.7561 25.1042V30.0402C87.7561 31.2922 86.9561 32.3082 85.9761 32.3082H75.7361C74.7521 32.3082 73.9561 31.2922 73.9561 30.0402V25.1042C73.9561 23.8522 74.7561 22.8362 75.7361 22.8362H77.4201V19.9722H84.2201V22.8362H85.9641C86.9561 22.8362 87.7561 23.8522 87.7561 25.1042Z" fill="white" stroke="#263238" stroke-linecap="round" stroke-linejoin="round"/>
<path d="M87.7521 25.6719H73.9561V28.7319H87.7521V25.6719Z" fill="#EE7814" stroke="#263238" stroke-miterlimit="10"/>
<path d="M78.3601 16.6201H83.4161C83.9868 16.6201 84.5342 16.8468 84.9378 17.2504C85.3414 17.654 85.5681 18.2014 85.5681 18.7721V21.0081H76.2041V18.7721C76.2041 18.4892 76.2599 18.209 76.3683 17.9477C76.4767 17.6863 76.6356 17.4489 76.8358 17.249C77.0361 17.0491 77.2738 16.8907 77.5353 16.7828C77.7969 16.6749 78.0772 16.6196 78.3601 16.6201Z" fill="#EE7814" stroke="#263238" stroke-miterlimit="10"/>
<path d="M77.8401 16.7559V21.0079" stroke="#263238" stroke-linecap="round" stroke-linejoin="round"/>
<path d="M80.052 16.6201V21.0081" stroke="#263238" stroke-linecap="round" stroke-linejoin="round"/>
<path d="M82.2642 16.6201V21.0081" stroke="#263238" stroke-linecap="round" stroke-linejoin="round"/>
<path d="M84.4761 16.8682V21.0082" stroke="#263238" stroke-linecap="round" stroke-linejoin="round"/>
<path d="M49.9994 90.638C51.0755 84.0739 46.6266 77.8803 40.0625 76.8042C33.4984 75.7281 27.3048 80.177 26.2287 86.7411C25.1526 93.3052 29.6015 99.4988 36.1656 100.575C42.7297 101.651 48.9233 97.2021 49.9994 90.638Z" fill="white" stroke="#263238" stroke-linecap="round" stroke-linejoin="round"/>
<path d="M44.2235 91.7966C45.5354 89.0226 43.7317 85.418 40.1948 83.7454C36.658 82.0728 32.7274 82.9656 31.4156 85.7395C30.1037 88.5135 31.9074 92.1181 35.4443 93.7907C38.9811 95.4633 42.9117 94.5705 44.2235 91.7966Z" fill="#EE7814" stroke="#263238" stroke-linecap="round" stroke-linejoin="round"/>
<path d="M44.661 90.8532C45.8916 88.251 44.022 84.7856 40.4852 83.113C36.9483 81.4404 33.0836 82.1939 31.853 84.7961C30.6224 87.3983 32.4919 90.8637 36.0288 92.5363C39.5656 94.2089 43.4303 93.4554 44.661 90.8532Z" fill="#EE7814" stroke="#263238" stroke-linecap="round" stroke-linejoin="round"/>
<path d="M40.3 84.2642L35.928 90.4122" stroke="#263238" stroke-linecap="round" stroke-linejoin="round"/>
<path d="M37.668 83.2681C38.2539 83.3471 38.8311 83.481 39.392 83.6681" stroke="white" stroke-linecap="round" stroke-linejoin="round"/>
<path d="M33.784 89.0559C33.784 89.0559 31.552 86.6119 33.732 84.2559C34.235 83.7431 34.8902 83.4064 35.6 83.2959" stroke="white" stroke-linecap="round" stroke-linejoin="round"/>
<path d="M176.865 90.6453C177.941 84.0812 173.492 77.8876 166.928 76.8115C160.364 75.7354 154.171 80.1843 153.094 86.7484C152.018 93.3125 156.467 99.5061 163.031 100.582C169.595 101.658 175.789 97.2094 176.865 90.6453Z" fill="white" stroke="#263238" stroke-linecap="round" stroke-linejoin="round"/>
<path d="M171.892 89.9041C171.8 90.0361 171.708 90.1721 171.612 90.3041C169.808 92.8041 167.028 95.1361 164.968 95.5961V95.5641C162.968 95.1161 160.276 92.8961 158.472 90.4721C158.372 90.3401 158.276 90.2041 158.184 90.0721C156.448 87.5841 155.716 84.9721 157.648 83.8921C161.576 81.7001 164.968 86.4001 164.968 86.4001C164.968 86.4001 168.368 81.7361 172.288 83.9241C174.168 84.9721 173.524 87.4761 171.892 89.9041Z" fill="#EE7814" stroke="#263238" stroke-miterlimit="10"/>
<path d="M171.892 89.9042C171.8 90.0362 171.708 90.1722 171.612 90.3042H170.62L169.484 91.8042L168.712 87.3562L167.512 90.3802H164.676L163.224 92.8002L162.104 87.9002L160.66 90.4562H158.472C158.372 90.3242 158.276 90.1882 158.184 90.0562H160.428L162.264 86.8042L163.392 91.7442L164.46 89.9642H167.26L168.86 85.8682L169.716 90.8122L170.416 89.8882L171.892 89.9042Z" fill="white"/>
<path d="M153.384 65.0602C160.036 65.0602 165.428 59.6679 165.428 53.0162C165.428 46.3644 160.036 40.9722 153.384 40.9722C146.732 40.9722 141.34 46.3644 141.34 53.0162C141.34 59.6679 146.732 65.0602 153.384 65.0602Z" fill="white" stroke="#263238" stroke-linecap="round" stroke-linejoin="round"/>
<path d="M152.48 47.4482C152.596 47.7082 151.872 48.2841 150.88 48.7361C149.888 49.1881 148.96 49.3441 148.844 49.0801C148.728 48.8161 149.448 48.2442 150.444 47.7922C151.44 47.3402 152.36 47.2002 152.48 47.4482Z" fill="white" stroke="#263238" stroke-linecap="round" stroke-linejoin="round"/>
<path d="M157.9 58.6199L154.296 60.3639L151.064 53.7079L148.832 49.1079L152.436 47.3599L154.612 51.8479L157.9 58.6199Z" fill="white" stroke="#263238" stroke-linecap="round" stroke-linejoin="round"/>
<path d="M149.5 50.4799L151.064 49.7559L149.5 50.4799Z" fill="#EE7814"/>
<path d="M149.5 50.4799L151.064 49.7559" stroke="#263238" stroke-linecap="round" stroke-linejoin="round"/>
<path d="M150.18 51.9281L151.744 51.2041L150.18 51.9281Z" fill="#EE7814"/>
<path d="M150.18 51.9281L151.744 51.2041" stroke="#263238" stroke-linecap="round" stroke-linejoin="round"/>
<path d="M155.676 59.6961L157.536 62.1361L156.608 59.2441L155.676 59.6961Z" fill="white" stroke="#263238" stroke-linecap="round" stroke-linejoin="round"/>
<path d="M157.9 58.6201C157.056 59.4649 155.98 60.0387 154.808 60.2681L154.296 60.3641L151.064 53.7081L154.612 51.8481L157.9 58.6201Z" fill="#EE7814" stroke="#263238" stroke-miterlimit="10"/>
<path d="M151.744 54.972L153.216 54.292" stroke="#263238" stroke-linecap="round" stroke-linejoin="round"/>
<path d="M152.552 56.5199L153.996 55.8599L152.552 56.5199Z" fill="#EE7814"/>
<path d="M152.552 56.5199L153.996 55.8599" stroke="#263238" stroke-linecap="round" stroke-linejoin="round"/>
<path d="M150.08 48.5002L148.94 45.9362L149.836 45.4282L151.064 48.0242L150.08 48.5002Z" fill="white" stroke="#263238" stroke-linecap="round" stroke-linejoin="round"/>
<path d="M152.036 45.1161L151.764 44.5161L146.964 46.6641L147.236 47.2641C147.348 47.5201 148.512 47.2401 149.84 46.6481C151.168 46.0561 152.148 45.3681 152.036 45.1161Z" fill="white" stroke="#263238" stroke-linecap="round" stroke-linejoin="round"/>
<path d="M151.764 44.5162C151.652 44.2642 150.484 44.5402 149.16 45.1322C147.836 45.7242 146.852 46.4122 146.964 46.6642C147.076 46.9162 148.244 46.6402 149.568 46.0442C150.892 45.4482 151.876 44.7682 151.764 44.5162Z" fill="white" stroke="#263238" stroke-linecap="round" stroke-linejoin="round"/>
</svg>
