<svg width="300" height="300" viewBox="0 0 300 300" fill="none" xmlns="http://www.w3.org/2000/svg">
<path d="M264.426 158.256C265.626 142.314 261.918 125.67 256.95 110.856C249.6 88.7999 235.248 66.1979 211.128 60.9779C197.22 57.9779 183.066 61.1939 171.138 68.7299C159.672 75.9779 150.738 85.3439 136.632 87.1559C122.37 88.9919 107.736 88.2539 93.402 88.2539C56.544 88.2539 26.634 126.972 34.11 167.304C41.586 207.636 76.842 235.602 106.752 235.602C133.632 235.602 155.748 219.48 181.278 215.148C193.938 213 206.652 215.544 219.18 212.328C233.742 208.584 247.434 199.662 255.504 186.744C261 177.936 263.676 168.234 264.426 158.256Z" fill="#EE7814"/>
<path opacity="0.7" d="M264.426 158.256C265.626 142.314 261.918 125.67 256.95 110.856C249.6 88.7999 235.248 66.1979 211.128 60.9779C197.22 57.9779 183.066 61.1939 171.138 68.7299C159.672 75.9779 150.738 85.3439 136.632 87.1559C122.37 88.9919 107.736 88.2539 93.402 88.2539C56.544 88.2539 26.634 126.972 34.11 167.304C41.586 207.636 76.842 235.602 106.752 235.602C133.632 235.602 155.748 219.48 181.278 215.148C193.938 213 206.652 215.544 219.18 212.328C233.742 208.584 247.434 199.662 255.504 186.744C261 177.936 263.676 168.234 264.426 158.256Z" fill="white"/>
<path d="M260.112 152.658C260.112 152.658 260.112 149.658 255.912 145.5C251.712 141.342 249.048 138.93 249.048 138.93C249.048 138.93 246.96 145.794 250.848 149.976C253.702 152.913 256.797 155.606 260.1 158.028L260.112 152.658Z" fill="#EE7814"/>
<path d="M254.052 171.294C254.052 171.294 254.052 168.294 249.852 164.136C245.652 159.978 243 157.566 243 157.566C243 157.566 240.906 164.43 244.8 168.612C247.654 171.549 250.749 174.242 254.052 176.664V171.294Z" fill="#EE7814"/>
<path d="M259.848 157.74C259.848 157.74 260.166 154.776 264.762 151.062C269.358 147.348 272.28 145.26 272.28 145.26C272.28 145.26 273.63 152.304 269.334 156.06C266.186 158.68 262.824 161.032 259.284 163.092L259.848 157.74Z" fill="#EE7814"/>
<path d="M252.528 179.748C252.528 179.748 253.128 176.832 258.114 173.622C263.1 170.412 266.196 168.642 266.196 168.642C266.196 168.642 266.796 175.794 262.134 179.064C258.728 181.339 255.137 183.326 251.4 185.004L252.528 179.748Z" fill="#EE7814"/>
<path d="M253.902 203.748C253.902 203.748 253.902 200.748 258.102 196.584C262.302 192.42 264.96 190.02 264.96 190.02C264.96 190.02 267.054 196.884 263.16 201.06C260.307 204 257.212 206.696 253.908 209.118L253.902 203.748Z" fill="#EE7814"/>
<path d="M253.836 209.604C253.836 209.604 254.256 206.652 250.716 201.924C247.176 197.196 244.854 194.448 244.854 194.448C244.854 194.448 241.812 200.946 245.058 205.632C247.464 208.946 250.144 212.053 253.068 214.92L253.836 209.604Z" fill="#EE7814"/>
<path d="M249.714 226.962C249.714 226.962 249.714 223.962 253.914 219.804C258.114 215.646 260.778 213.234 260.778 213.234C260.778 213.234 262.866 220.098 258.978 224.28C256.123 227.218 253.028 229.913 249.726 232.338L249.714 226.962Z" fill="#EE7814"/>
<path d="M252.504 242.7C252.504 242.7 251.748 239.814 254.73 234.714C257.712 229.614 259.71 226.626 259.71 226.626C259.71 226.626 263.466 232.734 260.772 237.762C258.757 241.327 256.447 244.716 253.866 247.896L252.504 242.7Z" fill="#EE7814"/>
<path d="M260.49 151.896C260.28 155.003 259.899 158.095 259.35 161.16C257.694 169.692 253.566 175.2 251.916 182.904C250.266 190.608 255.006 200.538 253.716 210.438C252.426 220.338 248.598 225.84 249.696 232.446C250.794 239.052 256.578 256.944 256.578 256.944" stroke="#263238" stroke-linecap="round" stroke-linejoin="round"/>
<path d="M259.812 159.726L264.312 156.27" stroke="#263238" stroke-linecap="round" stroke-linejoin="round"/>
<path d="M260.022 155.748L258.132 152.394" stroke="#263238" stroke-linecap="round" stroke-linejoin="round"/>
<path d="M252.168 182.55C252.168 182.55 255.936 179.724 259.812 176.898" stroke="#263238" stroke-linecap="round" stroke-linejoin="round"/>
<path d="M254.052 176.664C254.052 176.664 250.908 170.508 247.35 166.428" stroke="#263238" stroke-linecap="round" stroke-linejoin="round"/>
<path d="M254.052 207.996C256.201 204.024 258.918 200.385 262.116 197.196" stroke="#263238" stroke-linecap="round" stroke-linejoin="round"/>
<path d="M253.32 212.184C252.177 209.49 250.81 206.897 249.234 204.432C247.038 201.186 246.72 200.766 246.72 200.766" stroke="#263238" stroke-linecap="round" stroke-linejoin="round"/>
<path d="M249.714 232.446C250.671 230.081 251.806 227.792 253.11 225.6C254.415 223.562 255.886 221.635 257.508 219.84" stroke="#263238" stroke-linecap="round" stroke-linejoin="round"/>
<path d="M253.866 247.896C253.647 245.635 254.037 243.356 254.994 241.296C256.566 238.26 258.342 234.282 259.074 232.71" stroke="#263238" stroke-linecap="round" stroke-linejoin="round"/>
<path d="M226.02 192.528C226.02 192.528 225.696 190.656 227.862 187.578C230.028 184.5 231.462 182.718 231.462 182.718C231.462 182.718 233.514 186.798 231.534 189.834C230.064 191.988 228.416 194.015 226.608 195.894L226.02 192.528Z" fill="#EE7814"/>
<path d="M231.846 203.556C231.846 203.556 231.522 201.684 233.688 198.606C235.854 195.528 237.288 193.746 237.288 193.746C237.288 193.746 239.34 197.826 237.36 200.868C235.888 203.019 234.241 205.044 232.434 206.922L231.846 203.556Z" fill="#EE7814"/>
<path d="M226.734 195.684C226.734 195.684 226.218 193.884 222.93 192.03C219.642 190.176 217.59 189.204 217.59 189.204C217.59 189.204 217.506 193.77 220.59 195.654C222.848 196.954 225.21 198.064 227.652 198.972L226.734 195.684Z" fill="#EE7814"/>
<path d="M233.718 208.692C233.718 208.692 233.01 206.928 229.554 205.452C226.098 203.976 223.938 203.208 223.938 203.208C223.938 203.208 224.334 207.756 227.622 209.304C230.005 210.36 232.471 211.215 234.996 211.86L233.718 208.692Z" fill="#EE7814"/>
<path d="M235.458 223.89C235.458 223.89 235.14 222.018 232.062 219.852C228.984 217.686 227.046 216.48 227.046 216.48C227.046 216.48 226.482 221.01 229.368 223.206C231.476 224.741 233.71 226.096 236.046 227.256L235.458 223.89Z" fill="#EE7814"/>
<path d="M236.142 227.556C236.142 227.556 235.542 225.756 237.264 222.396C238.986 219.036 240.126 217.074 240.126 217.074C240.126 217.074 242.736 220.818 241.212 224.112C240.064 226.45 238.721 228.688 237.198 230.802L236.142 227.556Z" fill="#EE7814"/>
<path d="M241.386 242.646C241.386 242.646 241.602 240.762 244.548 238.446C247.494 236.13 249.348 234.792 249.348 234.792C249.348 234.792 250.17 239.286 247.416 241.644C245.399 243.295 243.248 244.774 240.984 246.066L241.386 242.646Z" fill="#EE7814"/>
<path d="M240.6 237.99C240.6 237.99 240.276 236.118 237.204 233.952C234.132 231.786 232.2 230.58 232.2 230.58C232.2 230.58 231.636 235.11 234.522 237.312C236.632 238.845 238.866 240.199 241.2 241.362L240.6 237.99Z" fill="#EE7814"/>
<path d="M240.6 248.166C240.6 248.166 240.756 246.27 238.332 243.396C235.908 240.522 234.336 238.866 234.336 238.866C234.336 238.866 232.638 243.102 234.876 245.964C236.517 247.979 238.323 249.854 240.276 251.568L240.6 248.166Z" fill="#EE7814"/>
<path d="M225.702 192.084C226.172 194.01 226.747 195.909 227.424 197.772C229.386 202.944 232.572 205.95 234.444 210.6C236.316 215.25 234.444 222 236.292 228.066C238.14 234.132 241.2 237.168 241.2 241.428C241.2 245.688 239.544 257.538 239.544 257.538" stroke="#263238" stroke-linecap="round" stroke-linejoin="round"/>
<path d="M226.98 196.92L223.782 195.246" stroke="#263238" stroke-linecap="round" stroke-linejoin="round"/>
<path d="M226.416 194.448L227.232 192.144" stroke="#263238" stroke-linecap="round" stroke-linejoin="round"/>
<path d="M234.246 210.408C234.246 210.408 231.576 209.046 228.846 207.69" stroke="#263238" stroke-linecap="round" stroke-linejoin="round"/>
<path d="M232.428 206.922C233.215 204.45 234.25 202.063 235.518 199.8" stroke="#263238" stroke-linecap="round" stroke-linejoin="round"/>
<path d="M235.83 226.566C234.05 224.313 231.952 222.33 229.602 220.68" stroke="#263238" stroke-linecap="round" stroke-linejoin="round"/>
<path d="M236.742 229.11C237.169 227.3 237.745 225.528 238.464 223.812C239.49 221.538 239.664 221.238 239.664 221.238" stroke="#263238" stroke-linecap="round" stroke-linejoin="round"/>
<path d="M241.056 244.662C242.097 243.373 243.249 242.178 244.5 241.092C245.296 240.506 246.042 239.856 246.732 239.148" stroke="#263238" stroke-linecap="round" stroke-linejoin="round"/>
<path d="M241.2 241.428C240.343 240.045 239.382 238.729 238.326 237.492C237.286 236.357 236.154 235.309 234.942 234.36" stroke="#263238" stroke-linecap="round" stroke-linejoin="round"/>
<path d="M240.276 251.568C240.169 250.125 239.678 248.737 238.854 247.548C237.54 245.814 235.992 243.51 235.362 242.604" stroke="#263238" stroke-linecap="round" stroke-linejoin="round"/>
<path d="M55.6019 166.392L52.9739 158.886L55.6019 162.072L53.5379 150.81L56.7299 158.886L57.8579 143.112L59.7359 158.13L61.7999 155.13V158.886L64.2419 153.816L62.9279 162.636L65.1779 161.136L61.6139 166.014L55.6019 166.392Z" fill="#EE7814"/>
<path d="M63.8641 164.514H54.1021L55.8601 184.224H62.1061L63.8641 164.514Z" fill="#263238" stroke="#263238" stroke-linecap="round" stroke-linejoin="round"/>
<path d="M82.176 184.002H48.918V254.442H82.176V184.002Z" fill="white" stroke="#263238" stroke-linecap="round" stroke-linejoin="round"/>
<path d="M83.9939 184.002H65.5439V254.442H83.9939V184.002Z" fill="white" stroke="#263238" stroke-linecap="round" stroke-linejoin="round"/>
<path d="M81.9179 184.002H65.5439V254.442H81.9179V184.002Z" fill="#263238" stroke="#263238" stroke-linecap="round" stroke-linejoin="round"/>
<path d="M80.076 238.062H65.5439V252.486H80.076V238.062Z" fill="#EE7814" stroke="#263238" stroke-linecap="round" stroke-linejoin="round"/>
<path d="M80.076 238.842H65.5439V240.69H80.076V238.842Z" fill="white" stroke="#263238" stroke-linecap="round" stroke-linejoin="round"/>
<path d="M80.076 249.462H65.5439V251.31H80.076V249.462Z" fill="white" stroke="#263238" stroke-linecap="round" stroke-linejoin="round"/>
<path d="M68.2979 238.362V256.602" stroke="#263238" stroke-linecap="round" stroke-linejoin="round"/>
<path d="M73.3679 238.362V256.602" stroke="#263238" stroke-linecap="round" stroke-linejoin="round"/>
<path d="M77.8201 238.362V256.602" stroke="#263238" stroke-linecap="round" stroke-linejoin="round"/>
<path d="M80.076 186.618H65.5439V207.828H80.076V186.618Z" fill="#EE7814" stroke="#263238" stroke-linecap="round" stroke-linejoin="round"/>
<path d="M80.076 187.506H65.5439V189.606H80.076V187.506Z" fill="white" stroke="#263238" stroke-linecap="round" stroke-linejoin="round"/>
<path d="M80.076 201.102H65.5439V203.202H80.076V201.102Z" fill="white" stroke="#263238" stroke-linecap="round" stroke-linejoin="round"/>
<path d="M68.2979 186.954V207.684" stroke="#263238" stroke-linecap="round" stroke-linejoin="round"/>
<path d="M73.3679 186.954V207.684" stroke="#263238" stroke-linecap="round" stroke-linejoin="round"/>
<path d="M77.8201 186.954V207.684" stroke="#263238" stroke-linecap="round" stroke-linejoin="round"/>
<path d="M80.076 212.178H65.5439V233.388H80.076V212.178Z" fill="#EE7814" stroke="#263238" stroke-linecap="round" stroke-linejoin="round"/>
<path d="M80.076 213.066H65.5439V215.166H80.076V213.066Z" fill="white" stroke="#263238" stroke-linecap="round" stroke-linejoin="round"/>
<path d="M80.076 226.662H65.5439V228.762H80.076V226.662Z" fill="white" stroke="#263238" stroke-linecap="round" stroke-linejoin="round"/>
<path d="M68.2979 212.52V233.244" stroke="#263238" stroke-linecap="round" stroke-linejoin="round"/>
<path d="M73.3679 212.52V233.244" stroke="#263238" stroke-linecap="round" stroke-linejoin="round"/>
<path d="M77.8201 212.52V233.244" stroke="#263238" stroke-linecap="round" stroke-linejoin="round"/>
<path d="M82.1699 207.534H65.5439V209.946H82.1699V207.534Z" fill="white" stroke="#263238" stroke-linecap="round" stroke-linejoin="round"/>
<path d="M82.1699 233.256H65.5439V235.668H82.1699V233.256Z" fill="white" stroke="#263238" stroke-linecap="round" stroke-linejoin="round"/>
<path d="M82.1699 184.002V254.436" stroke="#263238" stroke-linecap="round" stroke-linejoin="round"/>
<path d="M63.198 184.002V254.436H65.544V186.618H81.882V183.972L63.198 184.002Z" fill="white" stroke="#263238" stroke-linecap="round" stroke-linejoin="round"/>
<path d="M65.5439 186.618V184.002" stroke="#263238" stroke-linecap="round" stroke-linejoin="round"/>
<path d="M82.0439 151.644C80.2979 148.278 79.5659 145.866 79.5659 145.308C79.5659 144.204 81.9659 143.544 81.9659 143.544C85.7099 141.564 103.32 144.426 111.246 145.746C115.683 146.52 120.171 146.961 124.674 147.066C124.674 147.066 125.772 146.19 127.074 145.086C128.376 143.982 134.556 136.722 136.98 136.086C139.404 135.45 141.6 136.968 141.6 136.968C141.6 136.968 145.566 139.368 144.9 139.83C144.234 140.292 134.556 148.632 132.132 150.174C129.708 151.716 124.65 151.056 120.246 151.938C116.454 152.694 101.094 153.63 97.5719 153.918C94.9269 154.545 92.1508 154.314 89.6459 153.258" fill="white"/>
<mask id="mask0_900_672" style="mask-type:alpha" maskUnits="userSpaceOnUse" x="79" y="135" width="66" height="20">
<path d="M82.0439 151.644C80.2979 148.278 79.5659 145.866 79.5659 145.308C79.5659 144.204 81.9659 143.544 81.9659 143.544C85.7099 141.564 103.32 144.426 111.246 145.746C115.683 146.52 120.171 146.961 124.674 147.066C124.674 147.066 125.772 146.19 127.074 145.086C128.376 143.982 134.556 136.722 136.98 136.086C139.404 135.45 141.6 136.968 141.6 136.968C141.6 136.968 145.566 139.368 144.9 139.83C144.234 140.292 134.556 148.632 132.132 150.174C129.708 151.716 124.65 151.056 120.246 151.938C116.454 152.694 101.094 153.63 97.5719 153.918C94.9269 154.545 92.1508 154.314 89.6459 153.258" fill="white"/>
</mask>
<g mask="url(#mask0_900_672)">
<path d="M141.642 136.944C141.642 136.944 139.44 135.402 137.022 136.062C134.604 136.722 128.436 143.988 127.116 145.062C125.796 146.136 124.716 147.042 124.716 147.042C120.213 146.937 115.725 146.496 111.288 145.722C103.362 144.402 85.7519 141.522 82.0079 143.52C82.0079 143.52 79.6079 144.18 79.6079 145.284C79.6913 145.901 79.8505 146.506 80.0819 147.084L80.4119 147.204C80.4119 147.204 84.8099 146.742 94.3019 146.97C103.794 147.198 125.748 148.5 127.158 149.01C127.758 149.238 132.012 148.278 136.728 146.61C140.328 143.676 144.558 140.01 144.984 139.752C145.608 139.362 141.642 136.944 141.642 136.944Z" fill="#EE7814"/>
<path opacity="0.5" d="M141.642 136.944C141.642 136.944 139.44 135.402 137.022 136.062C134.604 136.722 128.436 143.988 127.116 145.062C125.796 146.136 124.716 147.042 124.716 147.042C120.213 146.937 115.725 146.496 111.288 145.722C103.362 144.402 85.7519 141.522 82.0079 143.52C82.0079 143.52 79.6079 144.18 79.6079 145.284C79.6913 145.901 79.8505 146.506 80.0819 147.084L80.4119 147.204C80.4119 147.204 84.8099 146.742 94.3019 146.97C103.794 147.198 125.748 148.5 127.158 149.01C127.758 149.238 132.012 148.278 136.728 146.61C140.328 143.676 144.558 140.01 144.984 139.752C145.608 139.362 141.642 136.944 141.642 136.944Z" fill="white"/>
</g>
<path d="M82.0439 151.644C80.2979 148.278 79.5659 145.866 79.5659 145.308C79.5659 144.204 81.9659 143.544 81.9659 143.544C85.7099 141.564 103.32 144.426 111.246 145.746C115.683 146.52 120.171 146.961 124.674 147.066C124.674 147.066 125.772 146.19 127.074 145.086C128.376 143.982 134.556 136.722 136.98 136.086C139.404 135.45 141.6 136.968 141.6 136.968C141.6 136.968 145.566 139.368 144.9 139.83C144.234 140.292 134.556 148.632 132.132 150.174C129.708 151.716 124.65 151.056 120.246 151.938C116.454 152.694 101.094 153.63 97.5719 153.918C94.9269 154.545 92.1508 154.314 89.6459 153.258" stroke="#263238" stroke-linecap="round" stroke-linejoin="round"/>
<path d="M168.99 171.216C169.388 170.46 169.985 169.828 170.717 169.387C171.449 168.946 172.288 168.713 173.142 168.714H213.162C213.162 168.714 216.054 168.714 215.19 174.21C214.326 179.706 202.458 213.264 199.59 223.41C196.722 233.556 196.116 254.94 196.116 254.94H148.116C148.116 254.94 151.92 203.802 168.99 171.216Z" fill="white"/>
<mask id="mask1_900_672" style="mask-type:alpha" maskUnits="userSpaceOnUse" x="148" y="168" width="68" height="87">
<path d="M168.99 171.216C169.388 170.46 169.985 169.828 170.717 169.387C171.449 168.946 172.288 168.713 173.142 168.714H213.162C213.162 168.714 216.054 168.714 215.19 174.21C214.326 179.706 202.458 213.264 199.59 223.41C196.722 233.556 196.116 254.94 196.116 254.94H148.116C148.116 254.94 151.92 203.802 168.99 171.216Z" fill="white"/>
</mask>
<g mask="url(#mask1_900_672)">
<path opacity="0.16" d="M187.014 168.714H173.142C172.288 168.713 171.449 168.946 170.717 169.387C169.986 169.828 169.388 170.46 168.99 171.216C151.92 203.802 148.074 254.922 148.074 254.922H169.602L174.912 234.756L197.052 239.322C197.208 237.63 197.388 235.908 197.598 234.21L197.112 228.81C197.112 228.81 192.576 224.04 191.148 222.846C189.72 221.652 190.668 219.498 190.428 210.192C190.188 200.886 181.836 194.196 178.728 188.466C175.62 182.736 180.402 179.154 184.698 173.424C186.228 171.354 186.852 169.83 187.014 168.714Z" fill="black"/>
</g>
<path d="M168.99 171.216C169.388 170.46 169.985 169.828 170.717 169.387C171.449 168.946 172.288 168.713 173.142 168.714H213.162C213.162 168.714 216.054 168.714 215.19 174.21C214.326 179.706 202.458 213.264 199.59 223.41C196.722 233.556 196.116 254.94 196.116 254.94H148.116C148.116 254.94 151.92 203.802 168.99 171.216Z" stroke="#263238" stroke-linecap="round" stroke-linejoin="round"/>
<path d="M206.22 178.26C202.176 187.698 193.62 225.06 192.228 254.922H196.092C196.092 254.922 196.692 233.514 199.566 223.392C202.44 213.27 214.32 179.706 215.166 174.192C216.012 168.678 213.138 168.696 213.138 168.696C213.138 168.696 209.466 170.694 206.22 178.26Z" fill="#263238" stroke="#263238" stroke-linecap="round" stroke-linejoin="round"/>
<path d="M135.918 159.396C135.918 159.396 129.534 155.652 127.116 149.052C124.698 142.452 146.046 131.88 155.316 131.22C164.586 130.56 167.202 132.978 172.716 142.446C178.23 151.914 181.962 164.898 179.1 171.282C176.238 177.666 171.396 179.208 174.9 184.482C178.404 189.756 188.328 204.732 187.668 211.776C187.008 218.82 180.186 224.976 170.268 225.648C160.35 226.32 147.15 220.362 136.146 210.648C125.142 200.934 127.998 186.648 131.946 182.028C135.894 177.408 141.852 175.644 142.29 171.024C142.728 166.404 135.918 159.396 135.918 159.396Z" fill="#263238" stroke="#263238" stroke-linecap="round" stroke-linejoin="round"/>
<path d="M163.128 148.95C166.518 155.262 170.76 163.716 172.086 168.822C174.402 177.762 162.486 183.39 165.792 187.692" stroke="white" stroke-linecap="round" stroke-linejoin="round"/>
<path d="M158.508 140.682C158.508 140.682 159.828 142.932 161.652 146.244" stroke="white" stroke-linecap="round" stroke-linejoin="round"/>
<path d="M176.292 156.564C176.683 157.747 176.937 158.971 177.048 160.212" stroke="white" stroke-linecap="round" stroke-linejoin="round"/>
<path d="M160.8 137.4C160.8 137.4 171.228 145.104 175.392 154.326" stroke="white" stroke-linecap="round" stroke-linejoin="round"/>
<path d="M146.328 143.178C138.882 145.266 128.172 148.656 129.042 150.612" stroke="white" stroke-linecap="round" stroke-linejoin="round"/>
<path d="M153.21 141.342C153.21 141.342 151.62 141.738 149.25 142.374" stroke="white" stroke-linecap="round" stroke-linejoin="round"/>
<path d="M144 137.454C148.265 136.11 152.732 135.521 157.2 135.714" stroke="white" stroke-linecap="round" stroke-linejoin="round"/>
<path d="M140.964 138.696C141.638 138.345 142.336 138.04 143.052 137.784" stroke="white" stroke-linecap="round" stroke-linejoin="round"/>
<path d="M79.566 145.308C79.5633 145.35 79.5633 145.392 79.566 145.434C79.5633 145.392 79.5633 145.35 79.566 145.308ZM82.044 151.644C81.0335 149.794 80.2287 147.838 79.644 145.812C80.2258 147.839 81.0308 149.795 82.044 151.644ZM79.578 145.47C79.578 145.506 79.578 145.548 79.578 145.602C79.59 145.548 79.584 145.506 79.578 145.47ZM79.608 145.638C79.6154 145.697 79.6275 145.755 79.644 145.812C79.6275 145.755 79.6154 145.697 79.608 145.638ZM82.044 151.638C84.288 155.888 87.0798 159.826 90.348 163.35C98.274 171.936 121.17 194.394 123.348 195.936C125.526 197.478 124.89 201.876 123.348 206.28C121.806 210.684 116.082 217.08 116.304 224.112C116.526 231.144 118.704 241.944 118.506 244.146C118.308 246.348 112.8 253.836 112.8 253.836H169.596C169.596 253.836 162.516 244.836 162.516 241.758C162.516 238.68 172.236 199.242 172.674 196.38C173.112 193.518 171.354 191.538 167.832 191.316C164.31 191.094 150.882 188.232 150.222 186.03C149.562 183.828 153.744 175.464 153.744 175.464L140.544 176.124C140.544 176.124 139.884 181.848 139.002 182.952C138.12 184.056 136.8 181.848 133.716 180.312C130.632 178.776 124.716 177.45 122.49 175.686C120.264 173.922 99.156 154.086 99.156 154.086" fill="white"/>
<mask id="mask2_900_672" style="mask-type:alpha" maskUnits="userSpaceOnUse" x="79" y="145" width="94" height="109">
<path d="M79.566 145.308C79.5633 145.35 79.5633 145.392 79.566 145.434C79.5633 145.392 79.5633 145.35 79.566 145.308ZM82.044 151.644C81.0335 149.794 80.2287 147.838 79.644 145.812C80.2258 147.839 81.0308 149.795 82.044 151.644ZM79.578 145.47C79.578 145.506 79.578 145.548 79.578 145.602C79.59 145.548 79.584 145.506 79.578 145.47ZM79.608 145.638C79.6154 145.697 79.6275 145.755 79.644 145.812C79.6275 145.755 79.6154 145.697 79.608 145.638ZM82.044 151.638C84.288 155.888 87.0798 159.826 90.348 163.35C98.274 171.936 121.17 194.394 123.348 195.936C125.526 197.478 124.89 201.876 123.348 206.28C121.806 210.684 116.082 217.08 116.304 224.112C116.526 231.144 118.704 241.944 118.506 244.146C118.308 246.348 112.8 253.836 112.8 253.836H169.596C169.596 253.836 162.516 244.836 162.516 241.758C162.516 238.68 172.236 199.242 172.674 196.38C173.112 193.518 171.354 191.538 167.832 191.316C164.31 191.094 150.882 188.232 150.222 186.03C149.562 183.828 153.744 175.464 153.744 175.464L140.544 176.124C140.544 176.124 139.884 181.848 139.002 182.952C138.12 184.056 136.8 181.848 133.716 180.312C130.632 178.776 124.716 177.45 122.49 175.686C120.264 173.922 99.156 154.086 99.156 154.086" fill="white"/>
</mask>
<g mask="url(#mask2_900_672)">
<path d="M125.862 177.384C126.96 179.304 128.058 181.038 128.058 181.038C128.058 181.038 131.76 183.12 132.684 183.12C133.608 183.12 139.164 186.12 139.164 186.12C139.164 186.12 143.796 184.962 142.164 181.026C141.649 180.018 140.999 179.086 140.232 178.254C139.956 180 139.512 182.286 138.99 182.94C138.108 184.038 136.788 181.836 133.704 180.3C131.706 179.304 128.472 178.392 125.862 177.384Z" fill="#EE7814"/>
<path d="M114.558 168.474C107.76 162.18 99.156 154.11 99.156 154.11L94.152 153.39L93.552 153.726C93.552 153.726 107.676 166.224 110.682 167.616C111.898 168.175 113.22 168.468 114.558 168.474Z" fill="#EE7814"/>
<path d="M121.68 174.99L121.14 174.51C121.416 174.966 121.572 175.254 121.572 175.254L121.68 174.99Z" fill="#EE7814"/>
<g opacity="0.5">
<path d="M125.862 177.384C126.96 179.304 128.058 181.038 128.058 181.038C128.058 181.038 131.76 183.12 132.684 183.12C133.608 183.12 139.164 186.12 139.164 186.12C139.164 186.12 143.796 184.962 142.164 181.026C141.649 180.018 140.999 179.086 140.232 178.254C139.956 180 139.512 182.286 138.99 182.94C138.108 184.038 136.788 181.836 133.704 180.3C131.706 179.304 128.472 178.392 125.862 177.384Z" fill="white"/>
<path d="M114.558 168.474C107.76 162.18 99.156 154.11 99.156 154.11L94.152 153.39L93.552 153.726C93.552 153.726 107.676 166.224 110.682 167.616C111.898 168.175 113.22 168.468 114.558 168.474Z" fill="white"/>
<path d="M121.68 174.99L121.14 174.51C121.416 174.966 121.572 175.254 121.572 175.254L121.68 174.99Z" fill="white"/>
</g>
</g>
<path d="M82.044 151.638C84.288 155.888 87.0798 159.826 90.348 163.35C98.274 171.936 121.17 194.394 123.348 195.936C125.526 197.478 124.89 201.876 123.348 206.28C121.806 210.684 116.082 217.08 116.304 224.112C116.526 231.144 118.704 241.944 118.506 244.146C118.308 246.348 112.8 253.836 112.8 253.836H169.596C169.596 253.836 162.516 244.836 162.516 241.758C162.516 238.68 172.236 199.242 172.674 196.38C173.112 193.518 171.354 191.538 167.832 191.316C164.31 191.094 150.882 188.232 150.222 186.03C149.562 183.828 153.744 175.464 153.744 175.464L140.544 176.124C140.544 176.124 139.884 181.848 139.002 182.952C138.12 184.056 136.8 181.848 133.716 180.312C130.632 178.776 124.716 177.45 122.49 175.686C120.264 173.922 99.156 154.086 99.156 154.086M79.566 145.308C79.5633 145.35 79.5633 145.392 79.566 145.434C79.5633 145.392 79.5633 145.35 79.566 145.308V145.308ZM82.044 151.644C81.0335 149.794 80.2287 147.838 79.644 145.812C80.2258 147.839 81.0308 149.795 82.044 151.644V151.644ZM79.578 145.47C79.578 145.506 79.578 145.548 79.578 145.602C79.59 145.548 79.584 145.506 79.578 145.47V145.47ZM79.608 145.638C79.6154 145.697 79.6275 145.755 79.644 145.812C79.6275 145.755 79.6154 145.697 79.608 145.638Z" stroke="#263238" stroke-linecap="round" stroke-linejoin="round"/>
<path d="M99.1559 154.11C99.1559 154.11 92.124 154.242 88.2 151.008" stroke="#263238" stroke-linecap="round" stroke-linejoin="round"/>
<path d="M150.228 186.03C149.568 183.834 153.75 175.464 153.75 175.464L140.55 176.124C140.55 176.124 139.89 181.848 139.008 182.952C138.126 184.056 136.806 181.848 133.722 180.312C133.488 180.192 133.23 180.078 132.966 179.964L132.168 192.51C132.168 192.51 133.326 204.66 147.21 202.35C152.832 201.414 158.832 196.398 164.01 190.758C158.682 189.78 150.732 187.716 150.228 186.03Z" fill="white"/>
<mask id="mask3_900_672" style="mask-type:alpha" maskUnits="userSpaceOnUse" x="132" y="175" width="33" height="28">
<path d="M150.228 186.03C149.568 183.834 153.75 175.464 153.75 175.464L140.55 176.124C140.55 176.124 139.89 181.848 139.008 182.952C138.126 184.056 136.806 181.848 133.722 180.312C133.488 180.192 133.23 180.078 132.966 179.964L132.168 192.51C132.168 192.51 133.326 204.66 147.21 202.35C152.832 201.414 158.832 196.398 164.01 190.758C158.682 189.78 150.732 187.716 150.228 186.03Z" fill="white"/>
</mask>
<g mask="url(#mask3_900_672)">
<path d="M149.856 177.126C149.856 177.126 149.058 181.602 148.416 186.552C147.774 191.502 147.3 195.186 147.3 195.186L150.228 186.03L153.528 176.328C153.528 176.328 150.336 176.328 149.856 177.126Z" fill="#EE7814"/>
<path opacity="0.5" d="M149.856 177.126C149.856 177.126 149.058 181.602 148.416 186.552C147.774 191.502 147.3 195.186 147.3 195.186L150.228 186.03L153.528 176.328C153.528 176.328 150.336 176.328 149.856 177.126Z" fill="white"/>
</g>
<path d="M150.228 186.03C149.568 183.834 153.75 175.464 153.75 175.464L140.55 176.124C140.55 176.124 139.89 181.848 139.008 182.952C138.126 184.056 136.806 181.848 133.722 180.312C133.488 180.192 133.23 180.078 132.966 179.964L132.168 192.51C132.168 192.51 133.326 204.66 147.21 202.35C152.832 201.414 158.832 196.398 164.01 190.758C158.682 189.78 150.732 187.716 150.228 186.03Z" stroke="#263238" stroke-linecap="round" stroke-linejoin="round"/>
<path d="M139.002 182.952C138.12 184.05 136.8 181.848 133.716 180.312C131.772 179.334 128.676 178.446 126.114 177.486C125.388 175.764 124.428 173.52 123.81 172.164C122.712 169.764 120.948 171.282 120.948 171.282C120.028 170.235 119.284 169.046 118.746 167.76C117.648 165.36 115.884 165.558 113.466 165.12C111.048 164.682 105.978 160.056 105.978 160.056C105.978 160.056 103.608 158.256 102.63 157.362C101.49 159.606 98.76 163.554 92.856 166.02C102.27 175.854 121.368 194.538 123.372 195.942C125.574 197.478 124.914 201.882 123.372 206.286C121.83 210.69 116.106 217.086 116.328 224.118C116.55 231.15 118.728 241.95 118.53 244.152C118.332 246.114 113.94 252.264 112.986 253.584L115.224 253.836H126.876C126.81 247.932 126.816 223.836 130.854 214.236C135.48 203.202 139.002 182.952 139.002 182.952Z" fill="#EE7814"/>
<mask id="mask4_900_672" style="mask-type:alpha" maskUnits="userSpaceOnUse" x="92" y="157" width="48" height="97">
<path d="M139.002 182.952C138.12 184.05 136.8 181.848 133.716 180.312C131.772 179.334 128.676 178.446 126.114 177.486C125.388 175.764 124.428 173.52 123.81 172.164C122.712 169.764 120.948 171.282 120.948 171.282C120.028 170.235 119.284 169.046 118.746 167.76C117.648 165.36 115.884 165.558 113.466 165.12C111.048 164.682 105.978 160.056 105.978 160.056C105.978 160.056 103.608 158.256 102.63 157.362C101.49 159.606 98.76 163.554 92.856 166.02C102.27 175.854 121.368 194.538 123.372 195.942C125.574 197.478 124.914 201.882 123.372 206.286C121.83 210.69 116.106 217.086 116.328 224.118C116.55 231.15 118.728 241.95 118.53 244.152C118.332 246.114 113.94 252.264 112.986 253.584L115.224 253.836H126.876C126.81 247.932 126.816 223.836 130.854 214.236C135.48 203.202 139.002 182.952 139.002 182.952Z" fill="white"/>
</mask>
<g mask="url(#mask4_900_672)">
<path opacity="0.16" d="M133.716 180.312C131.772 179.334 128.676 178.446 126.114 177.486C125.388 175.764 124.428 173.52 123.81 172.164C122.712 169.764 120.948 171.282 120.948 171.282C120.028 170.235 119.284 169.046 118.746 167.76C117.648 165.36 115.884 165.558 113.466 165.12C111.048 164.682 105.978 160.056 105.978 160.056C105.978 160.056 103.608 158.256 102.63 157.362C102.142 158.315 101.561 159.217 100.896 160.056C104.832 163.386 109.176 166.914 110.694 167.616C113.694 169.002 114.396 167.844 116.694 169.236C118.992 170.628 121.554 175.236 121.554 175.236C121.554 175.236 122.946 171.528 124.104 174.078C125.262 176.628 128.04 181.02 128.04 181.02C128.04 181.02 131.742 183.102 132.666 183.102C133.392 183.102 136.95 184.95 138.462 185.748C138.798 183.99 138.984 182.934 138.984 182.934C138.12 184.05 136.8 181.848 133.716 180.312Z" fill="black"/>
</g>
<path d="M139.002 182.952C138.12 184.05 136.8 181.848 133.716 180.312C131.772 179.334 128.676 178.446 126.114 177.486C125.388 175.764 124.428 173.52 123.81 172.164C122.712 169.764 120.948 171.282 120.948 171.282C120.028 170.235 119.284 169.046 118.746 167.76C117.648 165.36 115.884 165.558 113.466 165.12C111.048 164.682 105.978 160.056 105.978 160.056C105.978 160.056 103.608 158.256 102.63 157.362C101.49 159.606 98.76 163.554 92.856 166.02C102.27 175.854 121.368 194.538 123.372 195.942C125.574 197.478 124.914 201.882 123.372 206.286C121.83 210.69 116.106 217.086 116.328 224.118C116.55 231.15 118.728 241.95 118.53 244.152C118.332 246.114 113.94 252.264 112.986 253.584L115.224 253.836H126.876C126.81 247.932 126.816 223.836 130.854 214.236C135.48 203.202 139.002 182.952 139.002 182.952Z" stroke="#263238" stroke-linecap="round" stroke-linejoin="round"/>
<path d="M139.158 182.184C139.158 182.184 136.422 181.344 134.736 182.82C133.05 184.296 130.536 191.868 129.054 200.082C128.141 204.864 128.771 209.812 130.854 214.212C130.854 214.212 134.316 205.134 135.366 200.712C136.416 196.29 139.158 182.184 139.158 182.184Z" fill="#EE7814"/>
<mask id="mask5_900_672" style="mask-type:alpha" maskUnits="userSpaceOnUse" x="128" y="181" width="12" height="34">
<path d="M139.158 182.184C139.158 182.184 136.422 181.344 134.736 182.82C133.05 184.296 130.536 191.868 129.054 200.082C128.141 204.864 128.771 209.812 130.854 214.212C130.854 214.212 134.316 205.134 135.366 200.712C136.416 196.29 139.158 182.184 139.158 182.184Z" fill="white"/>
</mask>
<g mask="url(#mask5_900_672)">
<path opacity="0.16" d="M133.908 183.522C133.908 183.522 135.888 183.042 136.704 183.318C137.391 183.613 138.033 184.002 138.612 184.476L139.158 182.184C138.339 181.765 137.41 181.612 136.5 181.746C135.138 182.022 133.908 183.522 133.908 183.522Z" fill="black"/>
</g>
<path d="M139.158 182.184C139.158 182.184 136.422 181.344 134.736 182.82C133.05 184.296 130.536 191.868 129.054 200.082C128.141 204.864 128.771 209.812 130.854 214.212C130.854 214.212 134.316 205.134 135.366 200.712C136.416 196.29 139.158 182.184 139.158 182.184Z" stroke="#263238" stroke-linecap="round" stroke-linejoin="round"/>
<path d="M120.732 182.904L124.254 197.214L116.328 179.16" stroke="#263238" stroke-linecap="round" stroke-linejoin="round"/>
<path d="M143.934 253.836H169.602C169.602 253.836 162.522 244.836 162.522 241.758C162.522 238.68 172.242 199.242 172.68 196.38C173.118 193.518 171.36 191.538 167.838 191.316C164.316 191.094 150.888 188.232 150.228 186.03C150.228 186.03 145.164 203.862 143.406 215.97C141.894 226.356 143.46 247.908 143.934 253.836Z" fill="#EE7814"/>
<mask id="mask6_900_672" style="mask-type:alpha" maskUnits="userSpaceOnUse" x="142" y="186" width="31" height="68">
<path d="M143.934 253.836H169.602C169.602 253.836 162.522 244.836 162.522 241.758C162.522 238.68 172.242 199.242 172.68 196.38C173.118 193.518 171.36 191.538 167.838 191.316C164.316 191.094 150.888 188.232 150.228 186.03C150.228 186.03 145.164 203.862 143.406 215.97C141.894 226.356 143.46 247.908 143.934 253.836Z" fill="white"/>
</mask>
<g mask="url(#mask6_900_672)">
<path opacity="0.16" d="M167.838 191.316C164.952 191.136 155.418 189.18 151.704 187.272L153.054 190.392C155.5 191.69 158.13 192.604 160.854 193.104C165.324 193.902 169.482 193.746 172.2 197.742L172.332 197.94C172.5 197.172 172.614 196.632 172.65 196.38C173.124 193.518 171.36 191.538 167.838 191.316Z" fill="black"/>
</g>
<path d="M143.934 253.836H169.602C169.602 253.836 162.522 244.836 162.522 241.758C162.522 238.68 172.242 199.242 172.68 196.38C173.118 193.518 171.36 191.538 167.838 191.316C164.316 191.094 150.888 188.232 150.228 186.03C150.228 186.03 145.164 203.862 143.406 215.97C141.894 226.356 143.46 247.908 143.934 253.836Z" stroke="#263238" stroke-linecap="round" stroke-linejoin="round"/>
<path d="M150.228 186.03C150.228 186.03 143.436 207.63 143.406 215.97C143.406 215.97 153.054 204.288 154.314 196.08C155.574 187.872 150.228 186.03 150.228 186.03Z" fill="#EE7814"/>
<mask id="mask7_900_672" style="mask-type:alpha" maskUnits="userSpaceOnUse" x="143" y="186" width="12" height="30">
<path d="M150.228 186.03C150.228 186.03 143.436 207.63 143.406 215.97C143.406 215.97 153.054 204.288 154.314 196.08C155.574 187.872 150.228 186.03 150.228 186.03Z" fill="white"/>
</mask>
<g mask="url(#mask7_900_672)">
<path opacity="0.16" d="M149.058 188.79C150.079 188.756 151.092 188.971 152.011 189.416C152.93 189.861 153.727 190.524 154.332 191.346C154.332 191.346 153 187.428 150.228 186.03L149.058 188.79Z" fill="black"/>
</g>
<path d="M150.228 186.03C150.228 186.03 143.436 207.63 143.406 215.97C143.406 215.97 153.054 204.288 154.314 196.08C155.574 187.872 150.228 186.03 150.228 186.03Z" stroke="#263238" stroke-linecap="round" stroke-linejoin="round"/>
<path d="M222.738 249.774C222.738 249.774 227.712 249.978 230.97 250.446C233.143 250.741 235.33 250.915 237.522 250.968C237.522 250.968 235.722 247.332 233.802 246.306C231.882 245.28 228.402 243.444 225.486 243.852C222.57 244.26 218.4 247.2 218.748 248.136C219.096 249.072 220.65 249.492 222.738 249.774Z" fill="white"/>
<mask id="mask8_900_672" style="mask-type:alpha" maskUnits="userSpaceOnUse" x="218" y="243" width="20" height="8">
<path d="M222.738 249.774C222.738 249.774 227.712 249.978 230.97 250.446C233.143 250.741 235.33 250.915 237.522 250.968C237.522 250.968 235.722 247.332 233.802 246.306C231.882 245.28 228.402 243.444 225.486 243.852C222.57 244.26 218.4 247.2 218.748 248.136C219.096 249.072 220.65 249.492 222.738 249.774Z" fill="white"/>
</mask>
<g mask="url(#mask8_900_672)">
<path d="M222.738 249.774C222.738 249.774 227.712 249.978 230.97 250.446C233.143 250.741 235.33 250.915 237.522 250.968C237.522 250.968 235.722 247.332 233.802 246.306C231.882 245.28 228.402 243.444 225.486 243.852C222.57 244.26 218.4 247.2 218.748 248.136C219.096 249.072 220.65 249.492 222.738 249.774Z" fill="#EE7814"/>
<path opacity="0.5" d="M222.738 249.774C222.738 249.774 227.712 249.978 230.97 250.446C233.143 250.741 235.33 250.915 237.522 250.968C237.522 250.968 235.722 247.332 233.802 246.306C231.882 245.28 228.402 243.444 225.486 243.852C222.57 244.26 218.4 247.2 218.748 248.136C219.096 249.072 220.65 249.492 222.738 249.774Z" fill="white"/>
</g>
<path d="M222.738 249.774C222.738 249.774 227.712 249.978 230.97 250.446C233.143 250.741 235.33 250.915 237.522 250.968C237.522 250.968 235.722 247.332 233.802 246.306C231.882 245.28 228.402 243.444 225.486 243.852C222.57 244.26 218.4 247.2 218.748 248.136C219.096 249.072 220.65 249.492 222.738 249.774Z" stroke="#263238" stroke-linecap="round" stroke-linejoin="round"/>
<path d="M231 248.286C231 248.286 234.942 246.24 235.926 246.27C236.91 246.3 243.45 250.722 243.126 251.43C242.906 251.758 242.588 252.009 242.218 252.147C241.847 252.285 241.443 252.303 241.062 252.198C240.336 251.856 235.932 249.984 235.932 249.984L233.052 250.662L231 248.286Z" fill="white"/>
<mask id="mask9_900_672" style="mask-type:alpha" maskUnits="userSpaceOnUse" x="231" y="246" width="13" height="7">
<path d="M231 248.286C231 248.286 234.942 246.24 235.926 246.27C236.91 246.3 243.45 250.722 243.126 251.43C242.906 251.758 242.588 252.009 242.218 252.147C241.847 252.285 241.443 252.303 241.062 252.198C240.336 251.856 235.932 249.984 235.932 249.984L233.052 250.662L231 248.286Z" fill="white"/>
</mask>
<g mask="url(#mask9_900_672)">
<path d="M231 248.286C231 248.286 234.942 246.24 235.926 246.27C236.91 246.3 243.45 250.722 243.126 251.43C242.802 252.138 241.254 252.714 241.062 252.198C240.87 251.682 235.932 249.984 235.932 249.984L233.052 250.662L231 248.286Z" fill="#EE7814"/>
<path opacity="0.5" d="M231 248.286C231 248.286 234.942 246.24 235.926 246.27C236.91 246.3 243.45 250.722 243.126 251.43C242.802 252.138 241.254 252.714 241.062 252.198C240.87 251.682 235.932 249.984 235.932 249.984L233.052 250.662L231 248.286Z" fill="white"/>
</g>
<path d="M231 248.286C231 248.286 234.942 246.24 235.926 246.27C236.91 246.3 243.45 250.722 243.126 251.43C242.906 251.758 242.588 252.009 242.218 252.147C241.847 252.285 241.443 252.303 241.062 252.198C240.336 251.856 235.932 249.984 235.932 249.984L233.052 250.662L231 248.286Z" stroke="#263238" stroke-linecap="round" stroke-linejoin="round"/>
<path d="M228.186 244.92C228.186 244.92 233.442 244.752 234.486 245.28C235.53 245.808 240.246 253.896 239.538 254.484C238.83 255.072 236.874 254.898 236.934 254.244C236.994 253.59 232.59 249.258 232.59 249.258L229.164 248.508L228.186 244.92Z" fill="white"/>
<mask id="mask10_900_672" style="mask-type:alpha" maskUnits="userSpaceOnUse" x="228" y="244" width="12" height="11">
<path d="M228.186 244.92C228.186 244.92 233.442 244.752 234.486 245.28C235.53 245.808 240.246 253.896 239.538 254.484C238.83 255.072 236.874 254.898 236.934 254.244C236.994 253.59 232.59 249.258 232.59 249.258L229.164 248.508L228.186 244.92Z" fill="white"/>
</mask>
<g mask="url(#mask10_900_672)">
<path d="M228.186 244.92C228.186 244.92 233.442 244.752 234.486 245.28C235.53 245.808 240.246 253.896 239.538 254.484C238.83 255.072 236.874 254.898 236.934 254.244C236.994 253.59 232.59 249.258 232.59 249.258L229.164 248.508L228.186 244.92Z" fill="#EE7814"/>
<path opacity="0.5" d="M228.186 244.92C228.186 244.92 233.442 244.752 234.486 245.28C235.53 245.808 240.246 253.896 239.538 254.484C238.83 255.072 236.874 254.898 236.934 254.244C236.994 253.59 232.59 249.258 232.59 249.258L229.164 248.508L228.186 244.92Z" fill="white"/>
</g>
<path d="M228.186 244.92C228.186 244.92 233.442 244.752 234.486 245.28C235.53 245.808 240.246 253.896 239.538 254.484C238.83 255.072 236.874 254.898 236.934 254.244C236.994 253.59 232.59 249.258 232.59 249.258L229.164 248.508L228.186 244.92Z" stroke="#263238" stroke-linecap="round" stroke-linejoin="round"/>
<path d="M225.072 243.834C225.072 243.834 230.394 243.66 231.45 244.2C232.506 244.74 237.282 252.918 236.562 253.518C235.842 254.118 233.874 253.932 233.934 253.272C233.994 252.612 229.536 248.226 229.536 248.226L226.068 247.464L225.072 243.834Z" fill="white"/>
<mask id="mask11_900_672" style="mask-type:alpha" maskUnits="userSpaceOnUse" x="225" y="243" width="12" height="11">
<path d="M225.072 243.834C225.072 243.834 230.394 243.66 231.45 244.2C232.506 244.74 237.282 252.918 236.562 253.518C235.842 254.118 233.874 253.932 233.934 253.272C233.994 252.612 229.536 248.226 229.536 248.226L226.068 247.464L225.072 243.834Z" fill="white"/>
</mask>
<g mask="url(#mask11_900_672)">
<path d="M225.072 243.834C225.072 243.834 230.394 243.66 231.45 244.2C232.506 244.74 237.282 252.918 236.562 253.518C235.842 254.118 233.874 253.932 233.934 253.272C233.994 252.612 229.536 248.226 229.536 248.226L226.068 247.464L225.072 243.834Z" fill="#EE7814"/>
<path opacity="0.5" d="M225.072 243.834C225.072 243.834 230.394 243.66 231.45 244.2C232.506 244.74 237.282 252.918 236.562 253.518C235.842 254.118 233.874 253.932 233.934 253.272C233.994 252.612 229.536 248.226 229.536 248.226L226.068 247.464L225.072 243.834Z" fill="white"/>
</g>
<path d="M225.072 243.834C225.072 243.834 230.394 243.66 231.45 244.2C232.506 244.74 237.282 252.918 236.562 253.518C235.842 254.118 233.874 253.932 233.934 253.272C233.994 252.612 229.536 248.226 229.536 248.226L226.068 247.464L225.072 243.834Z" stroke="#263238" stroke-linecap="round" stroke-linejoin="round"/>
<path d="M164.562 213.342C168.414 219.276 176.148 234.312 178.404 236.004C181.926 238.644 205.47 245.052 207.738 246.804C210.006 248.556 209.85 250.314 211.998 250.956C214.146 251.598 222.198 253.44 225.27 253.728C228.342 254.016 226.968 252.114 226.968 252.114L221.73 248.514L226.296 247.386C226.296 247.386 230.874 252.894 231.732 253.194C232.59 253.494 234.102 253.194 234.006 252.516C233.838 251.43 228.954 242.544 227.22 242.166C225.486 241.788 214.962 243.246 214.962 243.246C214.962 243.246 192.888 228.36 192.492 227.832C192.492 227.832 191.172 224.088 190.092 222.546C189.012 221.004 188.328 221.448 188.328 221.448C188.328 221.448 188.772 219.462 188.112 218.802L184.59 215.28L184.464 215.448C183.864 214.248 183.264 212.88 182.604 211.32C180.762 206.982 174.24 194.808 173.142 193.05C172.32 191.736 165.432 190.794 161.94 190.398" fill="#EE7814"/>
<mask id="mask12_900_672" style="mask-type:alpha" maskUnits="userSpaceOnUse" x="161" y="190" width="74" height="64">
<path d="M164.562 213.342C168.414 219.276 176.148 234.312 178.404 236.004C181.926 238.644 205.47 245.052 207.738 246.804C210.006 248.556 209.85 250.314 211.998 250.956C214.146 251.598 222.198 253.44 225.27 253.728C228.342 254.016 226.968 252.114 226.968 252.114L221.73 248.514L226.296 247.386C226.296 247.386 230.874 252.894 231.732 253.194C232.59 253.494 234.102 253.194 234.006 252.516C233.838 251.43 228.954 242.544 227.22 242.166C225.486 241.788 214.962 243.246 214.962 243.246C214.962 243.246 192.888 228.36 192.492 227.832C192.492 227.832 191.172 224.088 190.092 222.546C189.012 221.004 188.328 221.448 188.328 221.448C188.328 221.448 188.772 219.462 188.112 218.802L184.59 215.28L184.464 215.448C183.864 214.248 183.264 212.88 182.604 211.32C180.762 206.982 174.24 194.808 173.142 193.05C172.32 191.736 165.432 190.794 161.94 190.398" fill="white"/>
</mask>
<g mask="url(#mask12_900_672)">
<path opacity="0.16" d="M179.898 213.72C182.778 216.276 181.818 216.276 181.176 218.52C180.534 220.764 181.656 217.722 184.374 217.884C187.092 218.046 186.294 221.556 185.97 222.198C185.646 222.84 189.33 223.638 188.688 225.072C188.046 226.506 184.374 228.588 182.298 230.67C180.222 232.752 187.728 227.31 190.284 227.154C191.064 227.1 191.706 227.202 192.246 227.19C191.679 225.585 190.952 224.041 190.074 222.582C188.97 221.04 188.31 221.484 188.31 221.484C188.31 221.484 188.754 219.498 188.094 218.838L184.572 215.316L184.446 215.484C183.846 214.284 183.246 212.916 182.586 211.356C180.744 207.018 174.222 194.844 173.124 193.086C172.302 191.772 165.414 190.83 161.922 190.434L162.24 193.212L162.318 193.272C162.318 193.272 166.632 194.07 168.072 194.232C169.512 194.394 171.27 195.666 171.108 196.632C170.946 197.598 166.794 201.906 168.072 202.23C169.35 202.554 170.79 199.032 172.23 199.512C173.67 199.992 177 211.164 179.898 213.72Z" fill="black"/>
</g>
<path d="M164.562 213.342C168.414 219.276 176.148 234.312 178.404 236.004C181.926 238.644 205.47 245.052 207.738 246.804C210.006 248.556 209.85 250.314 211.998 250.956C214.146 251.598 222.198 253.44 225.27 253.728C228.342 254.016 226.968 252.114 226.968 252.114L221.73 248.514L226.296 247.386C226.296 247.386 230.874 252.894 231.732 253.194C232.59 253.494 234.102 253.194 234.006 252.516C233.838 251.43 228.954 242.544 227.22 242.166C225.486 241.788 214.962 243.246 214.962 243.246C214.962 243.246 192.888 228.36 192.492 227.832C192.492 227.832 191.172 224.088 190.092 222.546C189.012 221.004 188.328 221.448 188.328 221.448C188.328 221.448 188.772 219.462 188.112 218.802L184.59 215.28L184.464 215.448C183.864 214.248 183.264 212.88 182.604 211.32C180.762 206.982 174.24 194.808 173.142 193.05C172.32 191.736 165.432 190.794 161.94 190.398" stroke="#263238" stroke-linecap="round" stroke-linejoin="round"/>
<path d="M164.622 205.2C164.46 205.74 164.322 206.28 164.214 206.832" stroke="#263238" stroke-linecap="round" stroke-linejoin="round"/>
<path d="M170.454 195.27C168.569 197.419 166.979 199.81 165.726 202.38" stroke="#263238" stroke-linecap="round" stroke-linejoin="round"/>
<path d="M179.268 229.338C180.888 226.938 183.468 223.896 186.312 223.026" stroke="#263238" stroke-linecap="round" stroke-linejoin="round"/>
<path d="M177.474 232.29C177.474 232.29 177.762 231.726 178.278 230.874" stroke="#263238" stroke-linecap="round" stroke-linejoin="round"/>
<path d="M177.474 228.498C177.474 228.498 180.42 221.13 183.366 219.234C186.312 217.338 184.626 221.13 184.626 221.13" stroke="#263238" stroke-linecap="round" stroke-linejoin="round"/>
<path d="M207.738 246.81C210.012 248.568 209.85 250.32 211.998 250.962C214.146 251.604 222.198 253.446 225.27 253.734C228.342 254.022 226.968 252.12 226.968 252.12L221.73 248.52L226.296 247.392C226.296 247.392 230.874 252.9 231.732 253.2C232.59 253.5 234.222 253.608 234.006 252.522C233.586 250.422 228.954 242.55 227.22 242.172C225.486 241.794 214.962 243.252 214.962 243.252C214.962 243.252 194.856 229.452 192.654 227.958C184.116 228.78 180.054 233.25 178.344 235.932L178.404 235.98C181.926 238.644 205.47 245.052 207.738 246.81Z" fill="white"/>
<mask id="mask13_900_672" style="mask-type:alpha" maskUnits="userSpaceOnUse" x="178" y="227" width="57" height="27">
<path d="M207.738 246.81C210.012 248.568 209.85 250.32 211.998 250.962C214.146 251.604 222.198 253.446 225.27 253.734C228.342 254.022 226.968 252.12 226.968 252.12L221.73 248.52L226.296 247.392C226.296 247.392 230.874 252.9 231.732 253.2C232.59 253.5 234.222 253.608 234.006 252.522C233.586 250.422 228.954 242.55 227.22 242.172C225.486 241.794 214.962 243.252 214.962 243.252C214.962 243.252 194.856 229.452 192.654 227.958C184.116 228.78 180.054 233.25 178.344 235.932L178.404 235.98C181.926 238.644 205.47 245.052 207.738 246.81Z" fill="white"/>
</mask>
<g mask="url(#mask13_900_672)">
<path d="M234 252.546C232.908 249.876 228.948 242.574 227.214 242.196C225.48 241.818 214.956 243.276 214.956 243.276C214.956 243.276 194.85 229.476 192.648 227.982C190.407 228.177 188.208 228.709 186.126 229.56C189.3 231.36 210.456 243.36 213.126 243.894C215.958 244.494 225.408 242.94 227.07 244.056C228.126 244.764 231.27 249.75 233.394 253.29C234 253.2 234.222 253.086 234 252.546Z" fill="#EE7814"/>
<path opacity="0.5" d="M234 252.546C232.296 248.724 228.948 242.574 227.214 242.196C225.48 241.818 214.956 243.276 214.956 243.276C214.956 243.276 194.85 229.476 192.648 227.982C190.407 228.177 188.208 228.709 186.126 229.56C189.3 231.36 210.456 243.36 213.126 243.894C215.958 244.494 225.408 242.94 227.07 244.056C228.126 244.764 231.27 249.75 233.394 253.29C234 253.2 234.24 253.08 234 252.546Z" fill="white"/>
</g>
<path d="M207.738 246.81C210.012 248.568 209.85 250.32 211.998 250.962C214.146 251.604 222.198 253.446 225.27 253.734C228.342 254.022 226.968 252.12 226.968 252.12L221.73 248.52L226.296 247.392C226.296 247.392 230.874 252.9 231.732 253.2C232.59 253.5 234.222 253.608 234.006 252.522C233.586 250.422 228.954 242.55 227.22 242.172C225.486 241.794 214.962 243.252 214.962 243.252C214.962 243.252 194.856 229.452 192.654 227.958C184.116 228.78 180.054 233.25 178.344 235.932L178.404 235.98C181.926 238.644 205.47 245.052 207.738 246.81Z" stroke="#263238" stroke-linecap="round" stroke-linejoin="round"/>
<path d="M154.71 142.038L136.638 149.58C136.419 152.756 135.633 155.867 134.316 158.766C132.18 163.284 133.428 171.834 135.48 176.448C137.532 181.062 146.574 179.256 149.88 178.68C152.122 178.254 154.318 177.613 156.438 176.766C157.403 177.138 158.447 177.258 159.472 177.116C160.496 176.973 161.467 176.572 162.294 175.95C162.294 175.95 152.622 148.8 154.71 142.038Z" fill="white"/>
<mask id="mask14_900_672" style="mask-type:alpha" maskUnits="userSpaceOnUse" x="133" y="142" width="30" height="38">
<path d="M154.71 142.038L136.638 149.58C136.419 152.756 135.633 155.867 134.316 158.766C132.18 163.284 133.428 171.834 135.48 176.448C137.532 181.062 146.574 179.256 149.88 178.68C152.122 178.254 154.318 177.613 156.438 176.766C157.403 177.138 158.447 177.258 159.472 177.116C160.496 176.973 161.467 176.572 162.294 175.95C162.294 175.95 152.622 148.8 154.71 142.038Z" fill="white"/>
</mask>
<g mask="url(#mask14_900_672)">
<path d="M154.71 142.038L136.638 149.58C136.419 152.756 135.633 155.867 134.316 158.766C132.18 163.284 133.428 171.834 135.48 176.448C135.824 177.19 136.376 177.816 137.07 178.248V177.9C137.07 177.9 133.716 169.59 134.352 164.796C134.988 160.002 137.712 157.596 138.03 154.566C138.348 151.536 138.186 150.096 144.264 147.858C150.342 145.62 152.892 143.544 153.528 145.776C154.164 148.008 156.726 162.72 158.484 166.236C160.242 169.752 160.08 173.436 157.368 175.026C154.627 176.671 151.69 177.966 148.626 178.878L149.904 178.656C152.146 178.23 154.342 177.589 156.462 176.742C157.427 177.114 158.471 177.234 159.496 177.092C160.52 176.949 161.491 176.548 162.318 175.926C162.318 175.926 152.622 148.8 154.71 142.038Z" fill="#EE7814"/>
<path opacity="0.5" d="M154.71 142.038L136.638 149.58C136.419 152.756 135.633 155.867 134.316 158.766C132.18 163.284 133.428 171.834 135.48 176.448C135.824 177.19 136.376 177.816 137.07 178.248V177.9C137.07 177.9 133.716 169.59 134.352 164.796C134.988 160.002 137.712 157.596 138.03 154.566C138.348 151.536 138.186 150.096 144.264 147.858C150.342 145.62 152.892 143.544 153.528 145.776C154.164 148.008 156.726 162.72 158.484 166.236C160.242 169.752 160.08 173.436 157.368 175.026C154.627 176.671 151.69 177.966 148.626 178.878L149.904 178.656C152.146 178.23 154.342 177.589 156.462 176.742C157.427 177.114 158.471 177.234 159.496 177.092C160.52 176.949 161.491 176.548 162.318 175.926C162.318 175.926 152.622 148.8 154.71 142.038Z" fill="white"/>
</g>
<path d="M154.71 142.038L136.638 149.58C136.419 152.756 135.633 155.867 134.316 158.766C132.18 163.284 133.428 171.834 135.48 176.448C137.532 181.062 146.574 179.256 149.88 178.68C152.122 178.254 154.318 177.613 156.438 176.766C157.403 177.138 158.447 177.258 159.472 177.116C160.496 176.973 161.467 176.572 162.294 175.95C162.294 175.95 152.622 148.8 154.71 142.038Z" stroke="#263238" stroke-linecap="round" stroke-linejoin="round"/>
<path d="M145.578 153.864C145.627 154.927 145.495 155.99 145.188 157.008C144.708 158.208 140.178 162.924 140.316 163.434C140.454 163.944 140.862 165.582 141.666 165.738" stroke="#263238" stroke-linecap="round" stroke-linejoin="round"/>
<path d="M150.6 158.082C151.23 156.822 153.3 158.052 153.27 160.89" stroke="#263238" stroke-linecap="round" stroke-linejoin="round"/>
<path d="M140.34 154.374C140.34 154.374 142.104 153.6 143.682 156.456" stroke="#263238" stroke-linecap="round" stroke-linejoin="round"/>
<path d="M148.092 162.24C150.13 162.343 152.069 163.156 153.57 164.538" stroke="#263238" stroke-width="0.5" stroke-linecap="round" stroke-linejoin="round"/>
<path d="M138.21 158.49C139.264 158.631 140.293 158.915 141.27 159.336" stroke="#263238" stroke-width="0.5" stroke-linecap="round" stroke-linejoin="round"/>
<path d="M145.38 151.2C144.914 150.954 144.397 150.819 143.871 150.806C143.344 150.794 142.821 150.904 142.344 151.128C140.73 151.902 139.74 152.754 139.848 151.764C139.956 150.774 141.852 149.682 142.422 149.538C142.992 149.394 145.542 148.998 145.38 151.2Z" fill="#263238"/>
<path d="M149.904 148.962C151.586 150.323 152.922 152.062 153.804 154.038C155.004 157.038 155.952 153.762 155.004 151.8C154.056 149.838 151.314 147.75 149.904 148.962Z" fill="#263238"/>
<path d="M162.558 181.08C162.558 182.478 161.766 183.612 160.794 183.612C159.822 183.612 159.036 182.478 159.036 181.08C159.036 179.682 159.822 176.124 160.794 176.124C161.766 176.124 162.558 179.682 162.558 181.08Z" fill="#EE7814" stroke="#263238" stroke-linecap="round" stroke-linejoin="round"/>
<path d="M150.756 157.536C150.687 157.72 150.633 157.908 150.594 158.1C150.42 158.988 150.246 160.842 150.594 160.92C150.942 160.998 151.794 159.264 151.944 158.376C151.978 158.202 151.998 158.025 152.004 157.848C151.594 157.72 151.178 157.616 150.756 157.536Z" fill="#263238"/>
<path d="M140.52 154.2C140.467 154.357 140.425 154.517 140.394 154.68C140.214 155.568 140.22 157.518 140.598 157.59C140.976 157.662 141.594 155.838 141.768 154.95C141.812 154.735 141.836 154.516 141.84 154.296C141.411 154.178 140.962 154.145 140.52 154.2Z" fill="#263238"/>
<path d="M150.6 158.112L151.2 156.996C152.151 157.181 153.013 157.68 153.648 158.412" stroke="#263238" stroke-width="0.75" stroke-linecap="round" stroke-linejoin="round"/>
<path d="M140.52 154.2L141.12 153.498C141.12 153.498 141.378 153.372 142.794 154.014" stroke="#263238" stroke-width="0.75" stroke-linecap="round" stroke-linejoin="round"/>
<path d="M138.246 170.472C138.246 170.472 139.254 168.618 140.604 168.618C141.954 168.618 142.962 171.648 142.962 171.648" stroke="#263238" stroke-linecap="round" stroke-linejoin="round"/>
<path d="M94.8 250.428C93.4954 250.363 92.2139 250.058 91.02 249.528C90.8536 249.467 90.7014 249.372 90.5727 249.249C90.444 249.127 90.3416 248.98 90.2716 248.817C90.2017 248.654 90.1656 248.478 90.1657 248.301C90.1658 248.123 90.202 247.948 90.2721 247.785C90.3422 247.622 90.4447 247.474 90.5735 247.352C90.7023 247.23 90.8545 247.135 91.0211 247.074C91.1876 247.013 91.3649 246.986 91.5421 246.995C91.7194 247.004 91.8929 247.05 92.052 247.128C93.252 247.638 94.806 247.956 95.22 247.776C95.982 246.924 97.152 241.776 95.64 239.292C95.298 238.74 94.98 238.638 94.77 238.614C93.912 238.494 92.64 239.376 92.19 239.814C92.0648 239.932 91.9174 240.025 91.7565 240.086C91.5955 240.147 91.424 240.176 91.2519 240.171C91.0797 240.166 90.9102 240.127 90.7531 240.057C90.5959 239.986 90.4542 239.885 90.336 239.76C90.2179 239.635 90.1255 239.487 90.0643 239.326C90.003 239.166 89.9741 238.994 89.9791 238.822C89.9841 238.65 90.023 238.48 90.0935 238.323C90.164 238.166 90.2648 238.024 90.39 237.906C90.624 237.678 92.79 235.728 95.1 236.04C95.673 236.124 96.2189 236.338 96.6955 236.667C97.1721 236.996 97.5665 237.43 97.848 237.936C100.074 241.566 98.55 248.472 96.84 249.84C96.2458 250.26 95.5269 250.468 94.8 250.428Z" fill="white"/>
<mask id="mask15_900_672" style="mask-type:alpha" maskUnits="userSpaceOnUse" x="89" y="236" width="10" height="15">
<path d="M94.8 250.428C93.4954 250.363 92.2139 250.058 91.02 249.528C90.8536 249.467 90.7014 249.372 90.5727 249.249C90.444 249.127 90.3416 248.98 90.2716 248.817C90.2017 248.654 90.1656 248.478 90.1657 248.301C90.1658 248.123 90.202 247.948 90.2721 247.785C90.3422 247.622 90.4447 247.474 90.5735 247.352C90.7023 247.23 90.8545 247.135 91.0211 247.074C91.1876 247.013 91.3649 246.986 91.5421 246.995C91.7194 247.004 91.8929 247.05 92.052 247.128C93.252 247.638 94.806 247.956 95.22 247.776C95.982 246.924 97.152 241.776 95.64 239.292C95.298 238.74 94.98 238.638 94.77 238.614C93.912 238.494 92.64 239.376 92.19 239.814C92.0648 239.932 91.9174 240.025 91.7565 240.086C91.5955 240.147 91.424 240.176 91.2519 240.171C91.0797 240.166 90.9102 240.127 90.7531 240.057C90.5959 239.986 90.4542 239.885 90.336 239.76C90.2179 239.635 90.1255 239.487 90.0643 239.326C90.003 239.166 89.9741 238.994 89.9791 238.822C89.9841 238.65 90.023 238.48 90.0935 238.323C90.164 238.166 90.2648 238.024 90.39 237.906C90.624 237.678 92.79 235.728 95.1 236.04C95.673 236.124 96.2189 236.338 96.6955 236.667C97.1721 236.996 97.5665 237.43 97.848 237.936C100.074 241.566 98.55 248.472 96.84 249.84C96.2458 250.26 95.5269 250.468 94.8 250.428Z" fill="white"/>
</mask>
<g mask="url(#mask15_900_672)">
<path d="M96.558 238.896C96.4007 238.523 96.1543 238.195 95.8404 237.94C95.5266 237.685 95.1549 237.51 94.758 237.432C93.258 237.192 91.848 238.698 91.692 238.866C91.5486 239.039 91.46 239.25 91.4375 239.474C91.4151 239.697 91.4598 239.922 91.566 240.12C91.802 240.073 92.0202 239.961 92.196 239.796C92.646 239.376 93.918 238.494 94.776 238.596C94.986 238.596 95.304 238.722 95.646 239.274C97.158 241.734 95.988 246.906 95.226 247.758C94.812 247.938 93.264 247.62 92.058 247.11C91.9096 247.048 91.7509 247.013 91.59 247.008C91.6009 247.173 91.6528 247.332 91.7408 247.471C91.8288 247.61 91.9502 247.726 92.094 247.806C92.8527 248.211 93.6896 248.449 94.548 248.502C95.0378 248.526 95.5176 248.358 95.886 248.034C97.014 246.996 98.01 241.686 96.558 238.896Z" fill="#EE7814"/>
<path opacity="0.5" d="M96.558 238.896C96.4007 238.523 96.1543 238.195 95.8404 237.94C95.5266 237.685 95.1549 237.51 94.758 237.432C93.258 237.192 91.848 238.698 91.692 238.866C91.5486 239.039 91.46 239.25 91.4375 239.474C91.4151 239.697 91.4598 239.922 91.566 240.12C91.802 240.073 92.0202 239.961 92.196 239.796C92.646 239.376 93.918 238.494 94.776 238.596C94.986 238.596 95.304 238.722 95.646 239.274C97.158 241.734 95.988 246.906 95.226 247.758C94.812 247.938 93.264 247.62 92.058 247.11C91.9096 247.048 91.7509 247.013 91.59 247.008C91.6009 247.173 91.6528 247.332 91.7408 247.471C91.8288 247.61 91.9502 247.726 92.094 247.806C92.8527 248.211 93.6896 248.449 94.548 248.502C95.0378 248.526 95.5176 248.358 95.886 248.034C97.014 246.996 98.01 241.686 96.558 238.896Z" fill="white"/>
</g>
<path d="M94.8 250.428C93.4954 250.363 92.2139 250.058 91.02 249.528C90.8536 249.467 90.7014 249.372 90.5727 249.249C90.444 249.127 90.3416 248.98 90.2716 248.817C90.2017 248.654 90.1656 248.478 90.1657 248.301C90.1658 248.123 90.202 247.948 90.2721 247.785C90.3422 247.622 90.4447 247.474 90.5735 247.352C90.7023 247.23 90.8545 247.135 91.0211 247.074C91.1876 247.013 91.3649 246.986 91.5421 246.995C91.7194 247.004 91.8929 247.05 92.052 247.128C93.252 247.638 94.806 247.956 95.22 247.776C95.982 246.924 97.152 241.776 95.64 239.292C95.298 238.74 94.98 238.638 94.77 238.614C93.912 238.494 92.64 239.376 92.19 239.814C92.0648 239.932 91.9174 240.025 91.7565 240.086C91.5955 240.147 91.424 240.176 91.2519 240.171C91.0797 240.166 90.9102 240.127 90.7531 240.057C90.5959 239.986 90.4542 239.885 90.336 239.76C90.2179 239.635 90.1255 239.487 90.0643 239.326C90.003 239.166 89.9741 238.994 89.9791 238.822C89.9841 238.65 90.023 238.48 90.0935 238.323C90.164 238.166 90.2648 238.024 90.39 237.906C90.624 237.678 92.79 235.728 95.1 236.04C95.673 236.124 96.2189 236.338 96.6955 236.667C97.1721 236.996 97.5665 237.43 97.848 237.936C100.074 241.566 98.55 248.472 96.84 249.84C96.2458 250.26 95.5269 250.468 94.8 250.428V250.428Z" stroke="#263238" stroke-linecap="round" stroke-linejoin="round"/>
<path d="M92.5081 234.948H78.0781V254.1H92.5081V234.948Z" fill="white"/>
<mask id="mask16_900_672" style="mask-type:alpha" maskUnits="userSpaceOnUse" x="78" y="234" width="15" height="21">
<path d="M92.5081 234.948H78.0781V254.1H92.5081V234.948Z" fill="white"/>
</mask>
<g mask="url(#mask16_900_672)">
<path d="M83.9881 234.948H78.0781V254.1H83.9881V234.948Z" fill="#EE7814"/>
<path opacity="0.5" d="M83.9881 234.948H78.0781V254.1H83.9881V234.948Z" fill="white"/>
</g>
<path d="M92.5081 234.948H78.0781V254.1H92.5081V234.948Z" stroke="#263238" stroke-linecap="round" stroke-linejoin="round"/>
<path d="M171.804 253.836H110.16L108.15 219.948C108.094 219.619 108.111 219.283 108.198 218.961C108.285 218.639 108.441 218.341 108.655 218.085C108.869 217.83 109.136 217.623 109.437 217.481C109.738 217.339 110.067 217.263 110.4 217.26H171.54C171.875 217.26 172.206 217.333 172.511 217.473C172.815 217.614 173.085 217.82 173.301 218.076C173.518 218.332 173.676 218.632 173.764 218.955C173.853 219.279 173.87 219.617 173.814 219.948L171.804 253.836Z" fill="#263238" stroke="#263238" stroke-linecap="round" stroke-linejoin="round"/>
<path d="M113.196 218.07H171.096C171.423 218.067 171.747 218.135 172.045 218.27C172.343 218.405 172.608 218.603 172.821 218.851C173.034 219.099 173.191 219.391 173.279 219.706C173.368 220.021 173.387 220.351 173.334 220.674" stroke="white" stroke-linecap="round" stroke-linejoin="round"/>
<path d="M108.6 220.14C108.648 219.573 108.908 219.045 109.329 218.661C109.749 218.278 110.299 218.067 110.868 218.07" stroke="white" stroke-linecap="round" stroke-linejoin="round"/>
<path d="M172.062 250.536H109.902V253.836H172.062V250.536Z" fill="white" stroke="#263238" stroke-linecap="round" stroke-linejoin="round"/>
<path d="M140.76 238.32C143.192 238.32 145.164 237.138 145.164 235.68C145.164 234.222 143.192 233.04 140.76 233.04C138.328 233.04 136.356 234.222 136.356 235.68C136.356 237.138 138.328 238.32 140.76 238.32Z" fill="white" stroke="#263238" stroke-linecap="round" stroke-linejoin="round"/>
<path d="M265.818 253.446H34.302V259.068H265.818V253.446Z" fill="#263238"/>
<path d="M205.788 45H94.4101C90.6556 45 87.6121 48.0436 87.6121 51.798V115.704C87.6121 119.458 90.6556 122.502 94.4101 122.502H205.788C209.543 122.502 212.586 119.458 212.586 115.704V51.798C212.586 48.0436 209.543 45 205.788 45Z" fill="#EE7814"/>
<path d="M153.038 89.5382C163.141 87.9145 170.015 78.4081 168.391 68.305C166.768 58.2019 157.261 51.328 147.158 52.9517C137.055 54.5753 130.181 64.0818 131.805 74.1849C133.429 84.288 142.935 91.1619 153.038 89.5382Z" fill="#263238"/>
<path d="M149.958 74.6699L143.784 82.5959C143.574 82.9258 143.285 83.1984 142.944 83.389C142.602 83.5796 142.219 83.6823 141.828 83.6879C141.292 83.6952 140.774 83.4904 140.388 83.1179C140.192 82.9379 140.036 82.7177 139.933 82.4723C139.829 82.2269 139.78 81.9621 139.788 81.6959C139.807 81.0997 140.018 80.5255 140.388 80.0579L147.426 71.3519L140.826 62.6399C140.519 62.231 140.351 61.735 140.346 61.2239C140.344 60.9191 140.406 60.6173 140.527 60.3374C140.648 60.0576 140.825 59.8058 141.048 59.5979C141.257 59.3793 141.509 59.2055 141.787 59.0869C142.066 58.9683 142.365 58.9074 142.668 58.9079C143.056 58.9142 143.435 59.0174 143.773 59.2081C144.11 59.3989 144.395 59.6711 144.6 59.9999L150.564 67.8539L156.564 60.1319C156.778 59.7716 157.078 59.4698 157.437 59.2532C157.796 59.0366 158.203 58.9118 158.622 58.8899C158.882 58.8893 159.139 58.9422 159.377 59.0454C159.616 59.1487 159.831 59.3 160.008 59.4899C160.197 59.6679 160.348 59.8827 160.451 60.121C160.554 60.3593 160.608 60.6162 160.608 60.8759C160.602 61.3406 160.441 61.7901 160.152 62.1539L153.09 71.1899L159.912 80.1899C160.234 80.5922 160.414 81.0904 160.422 81.6059C160.424 81.904 160.361 82.199 160.238 82.4704C160.114 82.7418 159.934 82.9832 159.708 83.1779C159.268 83.6012 158.681 83.8378 158.07 83.8379C157.68 83.8331 157.298 83.7306 156.959 83.5398C156.619 83.349 156.333 83.076 156.126 82.7459L149.958 74.6699Z" fill="white"/>
<path d="M185.4 109.08H114.774C113.342 109.08 111.968 108.511 110.956 107.498C109.943 106.486 109.374 105.112 109.374 103.68C109.374 102.248 109.943 100.874 110.956 99.8616C111.968 98.849 113.342 98.28 114.774 98.28H185.4C186.832 98.28 188.206 98.849 189.218 99.8616C190.231 100.874 190.8 102.248 190.8 103.68C190.8 105.112 190.231 106.486 189.218 107.498C188.206 108.511 186.832 109.08 185.4 109.08Z" fill="white"/>
<path d="M124.452 105.42C124.405 105.42 124.358 105.41 124.315 105.392C124.272 105.373 124.232 105.346 124.2 105.312C124.164 105.277 124.137 105.235 124.118 105.188C124.099 105.142 124.091 105.092 124.092 105.042C124.092 104.957 124.115 104.875 124.158 104.802L124.698 103.962H123.594C123.543 103.965 123.492 103.956 123.444 103.938C123.397 103.919 123.354 103.89 123.318 103.854C123.256 103.782 123.222 103.691 123.222 103.596C123.222 103.501 123.256 103.41 123.318 103.338C123.354 103.301 123.397 103.273 123.444 103.254C123.492 103.236 123.543 103.227 123.594 103.23L124.68 103.26L124.2 102.48C124.152 102.4 124.125 102.309 124.122 102.216C124.121 102.166 124.129 102.116 124.148 102.07C124.167 102.023 124.195 101.981 124.23 101.946C124.264 101.912 124.304 101.884 124.348 101.866C124.392 101.847 124.44 101.838 124.488 101.838C124.555 101.837 124.621 101.856 124.678 101.892C124.734 101.928 124.779 101.98 124.806 102.042L125.334 102.984L125.838 102.084C125.87 102.014 125.92 101.954 125.984 101.911C126.047 101.867 126.121 101.842 126.198 101.838C126.245 101.838 126.292 101.848 126.335 101.866C126.378 101.885 126.417 101.912 126.45 101.946C126.485 101.979 126.513 102.019 126.532 102.063C126.55 102.108 126.559 102.156 126.558 102.204C126.557 102.289 126.532 102.372 126.486 102.444L125.958 103.29L127.056 103.26C127.107 103.257 127.158 103.265 127.206 103.284C127.253 103.302 127.297 103.331 127.332 103.368C127.394 103.44 127.428 103.531 127.428 103.626C127.428 103.721 127.394 103.812 127.332 103.884C127.297 103.921 127.253 103.95 127.206 103.968C127.158 103.987 127.107 103.995 127.056 103.992H125.946L126.438 104.76C126.493 104.853 126.524 104.958 126.528 105.066C126.53 105.115 126.522 105.163 126.504 105.208C126.486 105.254 126.46 105.295 126.426 105.33C126.394 105.364 126.356 105.391 126.314 105.409C126.272 105.428 126.226 105.437 126.18 105.438C126.106 105.436 126.034 105.413 125.972 105.372C125.91 105.33 125.862 105.272 125.832 105.204L125.334 104.322L124.836 105.204C124.8 105.273 124.744 105.331 124.676 105.369C124.608 105.408 124.53 105.425 124.452 105.42Z" fill="black"/>
<path d="M129.96 105.42C129.913 105.42 129.866 105.41 129.823 105.392C129.78 105.373 129.741 105.346 129.708 105.312C129.673 105.277 129.645 105.235 129.626 105.188C129.608 105.142 129.599 105.092 129.6 105.042C129.6 104.957 129.623 104.874 129.666 104.802L130.206 103.962H129.102C129.051 103.965 129 103.956 128.952 103.938C128.905 103.919 128.862 103.89 128.826 103.854C128.764 103.782 128.73 103.691 128.73 103.596C128.73 103.501 128.764 103.41 128.826 103.338C128.862 103.301 128.905 103.273 128.952 103.254C129 103.236 129.051 103.227 129.102 103.23L130.188 103.26L129.678 102.45C129.63 102.37 129.603 102.279 129.6 102.186C129.599 102.136 129.608 102.086 129.626 102.04C129.645 101.993 129.673 101.951 129.708 101.916C129.742 101.882 129.782 101.854 129.826 101.836C129.87 101.817 129.918 101.808 129.966 101.808C130.033 101.807 130.099 101.826 130.156 101.862C130.212 101.898 130.257 101.95 130.284 102.012L130.812 102.954L131.316 102.054C131.348 101.984 131.398 101.924 131.462 101.881C131.525 101.837 131.599 101.812 131.676 101.808C131.723 101.808 131.77 101.817 131.813 101.836C131.856 101.855 131.896 101.882 131.928 101.916C131.963 101.949 131.991 101.989 132.01 102.033C132.028 102.078 132.037 102.126 132.036 102.174C132.035 102.259 132.01 102.342 131.964 102.414L131.436 103.26L132.534 103.23C132.585 103.227 132.636 103.235 132.684 103.254C132.732 103.272 132.775 103.301 132.81 103.338C132.872 103.41 132.906 103.501 132.906 103.596C132.906 103.691 132.872 103.782 132.81 103.854C132.775 103.891 132.732 103.92 132.684 103.938C132.636 103.957 132.585 103.965 132.534 103.962H131.424L131.916 104.73C131.972 104.823 132.003 104.928 132.006 105.036C132.008 105.085 132 105.133 131.982 105.178C131.965 105.224 131.938 105.265 131.904 105.3C131.872 105.334 131.834 105.361 131.792 105.379C131.75 105.398 131.704 105.407 131.658 105.408C131.584 105.407 131.511 105.384 131.449 105.343C131.387 105.301 131.339 105.242 131.31 105.174L130.812 104.292L130.314 105.174C130.284 105.244 130.235 105.305 130.173 105.348C130.11 105.392 130.036 105.417 129.96 105.42Z" fill="black"/>
<path d="M135.468 105.42C135.421 105.42 135.374 105.41 135.331 105.392C135.288 105.373 135.249 105.346 135.216 105.312C135.181 105.277 135.153 105.235 135.134 105.188C135.116 105.142 135.107 105.092 135.108 105.042C135.108 104.957 135.131 104.874 135.174 104.802L135.714 103.962H134.61C134.559 103.965 134.508 103.956 134.46 103.938C134.413 103.919 134.37 103.89 134.334 103.854C134.272 103.782 134.239 103.691 134.239 103.596C134.239 103.501 134.272 103.41 134.334 103.338C134.37 103.301 134.413 103.273 134.46 103.254C134.508 103.236 134.559 103.227 134.61 103.23L135.696 103.26L135.186 102.45C135.138 102.37 135.111 102.279 135.108 102.186C135.107 102.136 135.116 102.086 135.134 102.04C135.153 101.993 135.181 101.951 135.216 101.916C135.25 101.882 135.29 101.854 135.334 101.836C135.379 101.817 135.426 101.808 135.474 101.808C135.541 101.807 135.607 101.826 135.664 101.862C135.72 101.898 135.765 101.95 135.792 102.012L136.32 102.954L136.824 102.054C136.856 101.984 136.906 101.924 136.97 101.881C137.033 101.837 137.107 101.812 137.184 101.808C137.231 101.808 137.278 101.817 137.321 101.836C137.365 101.855 137.404 101.882 137.436 101.916C137.471 101.949 137.499 101.989 137.518 102.033C137.536 102.078 137.545 102.126 137.544 102.174C137.543 102.259 137.518 102.342 137.472 102.414L136.944 103.26L138.042 103.23C138.093 103.227 138.144 103.235 138.192 103.254C138.24 103.272 138.283 103.301 138.318 103.338C138.38 103.41 138.414 103.501 138.414 103.596C138.414 103.691 138.38 103.782 138.318 103.854C138.283 103.891 138.24 103.92 138.192 103.938C138.144 103.957 138.093 103.965 138.042 103.962H136.932L137.424 104.73C137.48 104.823 137.511 104.928 137.514 105.036C137.516 105.085 137.508 105.133 137.49 105.178C137.473 105.224 137.446 105.265 137.412 105.3C137.381 105.334 137.342 105.361 137.3 105.379C137.258 105.398 137.212 105.407 137.166 105.408C137.092 105.407 137.019 105.384 136.957 105.343C136.896 105.301 136.847 105.242 136.818 105.174L136.32 104.292L135.822 105.174C135.793 105.244 135.744 105.305 135.681 105.348C135.618 105.392 135.544 105.417 135.468 105.42Z" fill="black"/>
<path d="M141 105.42C140.953 105.42 140.906 105.41 140.863 105.392C140.82 105.373 140.781 105.346 140.748 105.312C140.713 105.277 140.685 105.235 140.666 105.188C140.648 105.142 140.639 105.092 140.64 105.042C140.64 104.957 140.663 104.874 140.706 104.802L141.246 103.962H140.142C140.091 103.965 140.04 103.956 139.992 103.938C139.945 103.919 139.902 103.89 139.866 103.854C139.804 103.782 139.771 103.691 139.771 103.596C139.771 103.501 139.804 103.41 139.866 103.338C139.902 103.301 139.945 103.273 139.992 103.254C140.04 103.236 140.091 103.227 140.142 103.23L141.228 103.26L140.718 102.45C140.67 102.37 140.643 102.279 140.64 102.186C140.639 102.136 140.648 102.086 140.666 102.04C140.685 101.993 140.713 101.951 140.748 101.916C140.782 101.882 140.822 101.854 140.866 101.836C140.91 101.817 140.958 101.808 141.006 101.808C141.073 101.807 141.139 101.826 141.196 101.862C141.252 101.898 141.297 101.95 141.324 102.012L141.852 102.954L142.356 102.054C142.388 101.984 142.438 101.924 142.502 101.881C142.565 101.837 142.639 101.812 142.716 101.808C142.763 101.808 142.81 101.817 142.853 101.836C142.896 101.855 142.936 101.882 142.968 101.916C143.003 101.949 143.031 101.989 143.05 102.033C143.068 102.078 143.077 102.126 143.076 102.174C143.075 102.259 143.05 102.342 143.004 102.414L142.476 103.26L143.574 103.23C143.625 103.227 143.676 103.235 143.724 103.254C143.772 103.272 143.815 103.301 143.85 103.338C143.912 103.41 143.946 103.501 143.946 103.596C143.946 103.691 143.912 103.782 143.85 103.854C143.815 103.891 143.772 103.92 143.724 103.938C143.676 103.957 143.625 103.965 143.574 103.962H142.464L142.956 104.73C143.012 104.823 143.043 104.928 143.046 105.036C143.048 105.085 143.04 105.133 143.022 105.178C143.005 105.224 142.978 105.265 142.944 105.3C142.913 105.334 142.874 105.361 142.832 105.379C142.79 105.398 142.744 105.407 142.698 105.408C142.624 105.406 142.552 105.383 142.49 105.342C142.428 105.3 142.38 105.242 142.35 105.174L141.852 104.292L141.354 105.174C141.325 105.244 141.276 105.305 141.213 105.348C141.15 105.392 141.076 105.417 141 105.42Z" fill="black"/>
<path d="M146.484 105.42C146.437 105.42 146.39 105.41 146.347 105.392C146.304 105.373 146.264 105.346 146.232 105.312C146.196 105.277 146.169 105.235 146.15 105.188C146.131 105.142 146.123 105.092 146.124 105.042C146.127 104.958 146.149 104.876 146.19 104.802L146.73 103.962H145.626C145.575 103.965 145.524 103.956 145.476 103.938C145.429 103.919 145.386 103.89 145.35 103.854C145.288 103.782 145.254 103.691 145.254 103.596C145.254 103.501 145.288 103.41 145.35 103.338C145.386 103.301 145.429 103.273 145.476 103.254C145.524 103.236 145.575 103.227 145.626 103.23L146.712 103.26L146.202 102.45C146.154 102.37 146.127 102.279 146.124 102.186C146.123 102.136 146.131 102.086 146.15 102.04C146.169 101.993 146.196 101.951 146.232 101.916C146.266 101.882 146.306 101.854 146.35 101.836C146.394 101.817 146.442 101.808 146.49 101.808C146.557 101.807 146.623 101.826 146.68 101.862C146.736 101.898 146.781 101.95 146.808 102.012L147.336 102.954L147.84 102.054C147.872 101.984 147.922 101.924 147.986 101.881C148.049 101.837 148.123 101.812 148.2 101.808C148.247 101.807 148.294 101.816 148.337 101.835C148.381 101.854 148.42 101.881 148.452 101.916C148.487 101.949 148.515 101.989 148.534 102.033C148.552 102.078 148.561 102.126 148.56 102.174C148.559 102.259 148.534 102.342 148.488 102.414L147.96 103.26L149.058 103.23C149.109 103.227 149.16 103.235 149.208 103.254C149.255 103.272 149.299 103.301 149.334 103.338C149.396 103.41 149.43 103.501 149.43 103.596C149.43 103.691 149.396 103.782 149.334 103.854C149.299 103.891 149.255 103.92 149.208 103.938C149.16 103.957 149.109 103.965 149.058 103.962H147.948L148.44 104.73C148.495 104.823 148.526 104.928 148.53 105.036C148.532 105.085 148.524 105.133 148.506 105.178C148.488 105.224 148.462 105.265 148.428 105.3C148.396 105.334 148.358 105.361 148.316 105.379C148.274 105.398 148.228 105.407 148.182 105.408C148.108 105.406 148.035 105.383 147.974 105.342C147.912 105.3 147.864 105.242 147.834 105.174L147.336 104.292L146.838 105.174C146.808 105.244 146.759 105.305 146.697 105.348C146.634 105.392 146.56 105.417 146.484 105.42Z" fill="black"/>
<path d="M151.992 105.42C151.945 105.42 151.898 105.41 151.855 105.392C151.812 105.373 151.773 105.346 151.74 105.312C151.705 105.277 151.677 105.235 151.658 105.188C151.639 105.142 151.631 105.092 151.632 105.042C151.635 104.958 151.657 104.876 151.698 104.802L152.238 103.962H151.14C151.088 103.965 151.036 103.957 150.987 103.938C150.939 103.92 150.895 103.891 150.858 103.854C150.796 103.782 150.762 103.691 150.762 103.596C150.762 103.501 150.796 103.41 150.858 103.338C150.895 103.301 150.939 103.272 150.987 103.253C151.036 103.235 151.088 103.227 151.14 103.23L152.22 103.26L151.71 102.45C151.662 102.37 151.635 102.279 151.632 102.186C151.631 102.136 151.639 102.086 151.658 102.04C151.677 101.993 151.705 101.951 151.74 101.916C151.774 101.882 151.814 101.854 151.858 101.836C151.902 101.817 151.95 101.808 151.998 101.808C152.065 101.807 152.131 101.826 152.188 101.862C152.244 101.898 152.289 101.95 152.316 102.012L152.844 102.954L153.348 102.054C153.38 101.984 153.43 101.924 153.494 101.881C153.557 101.837 153.631 101.812 153.708 101.808C153.755 101.807 153.802 101.816 153.846 101.835C153.889 101.854 153.928 101.881 153.96 101.916C153.995 101.949 154.023 101.989 154.042 102.033C154.06 102.078 154.069 102.126 154.068 102.174C154.067 102.259 154.042 102.342 153.996 102.414L153.468 103.26L154.566 103.23C154.617 103.227 154.668 103.235 154.716 103.254C154.764 103.272 154.807 103.301 154.842 103.338C154.904 103.41 154.938 103.501 154.938 103.596C154.938 103.691 154.904 103.782 154.842 103.854C154.807 103.891 154.764 103.92 154.716 103.938C154.668 103.957 154.617 103.965 154.566 103.962H153.456L153.948 104.73C154.004 104.823 154.035 104.928 154.038 105.036C154.04 105.085 154.032 105.133 154.014 105.178C153.997 105.224 153.97 105.265 153.936 105.3C153.904 105.334 153.866 105.361 153.824 105.379C153.782 105.398 153.736 105.407 153.69 105.408C153.616 105.406 153.544 105.383 153.482 105.342C153.42 105.3 153.372 105.242 153.342 105.174L152.844 104.292L152.346 105.174C152.316 105.244 152.267 105.305 152.205 105.348C152.142 105.392 152.068 105.417 151.992 105.42Z" fill="black"/>
<path d="M157.5 105.42C157.453 105.42 157.406 105.41 157.363 105.392C157.32 105.373 157.281 105.346 157.248 105.312C157.213 105.277 157.185 105.235 157.166 105.188C157.148 105.142 157.139 105.092 157.14 105.042C157.14 104.957 157.163 104.875 157.206 104.802L157.746 103.962H156.642C156.591 103.965 156.54 103.956 156.492 103.938C156.445 103.919 156.402 103.89 156.366 103.854C156.304 103.782 156.271 103.691 156.271 103.596C156.271 103.501 156.304 103.41 156.366 103.338C156.402 103.301 156.445 103.273 156.492 103.254C156.54 103.236 156.591 103.227 156.642 103.23L157.728 103.26L157.2 102.48C157.152 102.4 157.125 102.309 157.122 102.216C157.121 102.166 157.13 102.116 157.148 102.07C157.167 102.023 157.195 101.981 157.23 101.946C157.264 101.912 157.304 101.884 157.348 101.866C157.392 101.847 157.44 101.838 157.488 101.838C157.555 101.837 157.621 101.856 157.678 101.892C157.734 101.928 157.779 101.98 157.806 102.042L158.334 102.984L158.838 102.084C158.87 102.014 158.92 101.954 158.984 101.911C159.047 101.867 159.121 101.842 159.198 101.838C159.245 101.837 159.292 101.846 159.336 101.865C159.379 101.884 159.418 101.911 159.45 101.946C159.485 101.979 159.513 102.019 159.532 102.063C159.55 102.108 159.559 102.156 159.558 102.204C159.557 102.289 159.532 102.372 159.486 102.444L158.958 103.29L160.056 103.26C160.107 103.257 160.158 103.265 160.206 103.284C160.254 103.302 160.297 103.331 160.332 103.368C160.394 103.44 160.428 103.531 160.428 103.626C160.428 103.721 160.394 103.812 160.332 103.884C160.297 103.921 160.254 103.95 160.206 103.968C160.158 103.987 160.107 103.995 160.056 103.992H158.946L159.438 104.76C159.494 104.853 159.525 104.958 159.528 105.066C159.53 105.115 159.522 105.163 159.504 105.208C159.487 105.254 159.46 105.295 159.426 105.33C159.394 105.364 159.356 105.391 159.314 105.409C159.272 105.428 159.226 105.437 159.18 105.438C159.106 105.436 159.034 105.413 158.972 105.372C158.91 105.33 158.862 105.272 158.832 105.204L158.334 104.322L157.836 105.204C157.804 105.266 157.756 105.319 157.697 105.357C157.638 105.395 157.57 105.416 157.5 105.42Z" fill="black"/>
<path d="M163.008 105.42C162.961 105.42 162.914 105.41 162.871 105.392C162.828 105.373 162.789 105.346 162.756 105.312C162.721 105.277 162.693 105.235 162.674 105.188C162.656 105.142 162.647 105.092 162.648 105.042C162.651 104.958 162.673 104.876 162.714 104.802L163.254 103.962H162.156C162.105 103.966 162.054 103.958 162.006 103.939C161.958 103.921 161.915 103.892 161.88 103.854C161.815 103.784 161.778 103.692 161.778 103.596C161.778 103.5 161.815 103.408 161.88 103.338C161.915 103.3 161.958 103.271 162.006 103.253C162.054 103.234 162.105 103.226 162.156 103.23L163.236 103.26L162.726 102.45C162.678 102.37 162.651 102.279 162.648 102.186C162.646 102.137 162.655 102.088 162.672 102.042C162.69 101.996 162.717 101.955 162.751 101.919C162.785 101.884 162.826 101.856 162.871 101.837C162.916 101.818 162.965 101.808 163.014 101.808C163.081 101.807 163.147 101.826 163.204 101.862C163.26 101.898 163.305 101.951 163.332 102.012L163.86 102.954L164.364 102.054C164.396 101.984 164.446 101.924 164.51 101.881C164.573 101.837 164.647 101.812 164.724 101.808C164.771 101.807 164.819 101.815 164.862 101.834C164.906 101.853 164.945 101.881 164.976 101.916C165.011 101.949 165.039 101.989 165.058 102.033C165.076 102.078 165.085 102.126 165.084 102.174C165.083 102.259 165.058 102.342 165.012 102.414L164.484 103.26L165.582 103.23C165.633 103.227 165.684 103.235 165.732 103.254C165.78 103.272 165.823 103.301 165.858 103.338C165.92 103.41 165.954 103.501 165.954 103.596C165.954 103.691 165.92 103.782 165.858 103.854C165.823 103.891 165.78 103.92 165.732 103.938C165.684 103.957 165.633 103.965 165.582 103.962H164.472L164.964 104.73C165.02 104.823 165.051 104.928 165.054 105.036C165.056 105.083 165.048 105.13 165.031 105.175C165.015 105.219 164.989 105.26 164.957 105.294C164.925 105.329 164.886 105.357 164.843 105.376C164.8 105.396 164.753 105.406 164.706 105.408C164.632 105.406 164.56 105.383 164.498 105.342C164.436 105.3 164.388 105.242 164.358 105.174L163.86 104.292L163.362 105.174C163.332 105.244 163.284 105.305 163.221 105.348C163.158 105.392 163.084 105.417 163.008 105.42Z" fill="black"/>
<path d="M168.516 105.42C168.469 105.42 168.422 105.41 168.379 105.392C168.336 105.373 168.297 105.346 168.264 105.312C168.229 105.277 168.201 105.235 168.182 105.188C168.164 105.142 168.155 105.092 168.156 105.042C168.159 104.958 168.182 104.876 168.222 104.802L168.762 103.962H167.658C167.608 103.965 167.558 103.957 167.511 103.938C167.464 103.919 167.422 103.891 167.388 103.854C167.323 103.784 167.286 103.692 167.286 103.596C167.286 103.5 167.323 103.408 167.388 103.338C167.422 103.301 167.464 103.273 167.511 103.254C167.558 103.235 167.608 103.227 167.658 103.23L168.744 103.26L168.234 102.45C168.186 102.37 168.159 102.279 168.156 102.186C168.155 102.137 168.163 102.088 168.18 102.042C168.198 101.996 168.225 101.955 168.259 101.919C168.293 101.884 168.334 101.856 168.379 101.837C168.424 101.818 168.473 101.808 168.522 101.808C168.589 101.807 168.655 101.826 168.712 101.862C168.768 101.898 168.813 101.951 168.84 102.012L169.368 102.954L169.872 102.054C169.904 101.984 169.954 101.924 170.018 101.881C170.081 101.837 170.155 101.812 170.232 101.808C170.279 101.807 170.327 101.815 170.37 101.834C170.414 101.853 170.453 101.881 170.484 101.916C170.519 101.949 170.547 101.989 170.566 102.033C170.584 102.078 170.593 102.126 170.592 102.174C170.591 102.259 170.566 102.342 170.52 102.414L169.992 103.26L171.09 103.23C171.141 103.227 171.192 103.235 171.24 103.254C171.288 103.272 171.331 103.301 171.366 103.338C171.428 103.41 171.462 103.501 171.462 103.596C171.462 103.691 171.428 103.782 171.366 103.854C171.331 103.891 171.288 103.92 171.24 103.938C171.192 103.957 171.141 103.965 171.09 103.962H169.98L170.472 104.73C170.528 104.823 170.559 104.928 170.562 105.036C170.564 105.083 170.556 105.13 170.539 105.175C170.523 105.219 170.498 105.26 170.465 105.294C170.433 105.329 170.394 105.357 170.351 105.376C170.308 105.396 170.261 105.406 170.214 105.408C170.14 105.406 170.068 105.383 170.006 105.342C169.944 105.3 169.896 105.242 169.866 105.174L169.368 104.292L168.87 105.174C168.841 105.244 168.792 105.305 168.729 105.348C168.666 105.392 168.592 105.417 168.516 105.42Z" fill="black"/>
<path d="M174 105.42C173.953 105.42 173.906 105.41 173.863 105.392C173.82 105.373 173.78 105.346 173.748 105.312C173.712 105.277 173.685 105.235 173.666 105.188C173.647 105.142 173.639 105.092 173.64 105.042C173.643 104.958 173.665 104.876 173.706 104.802L174.246 103.962H173.142C173.092 103.965 173.042 103.957 172.995 103.938C172.948 103.919 172.906 103.891 172.872 103.854C172.807 103.784 172.77 103.692 172.77 103.596C172.77 103.5 172.807 103.408 172.872 103.338C172.906 103.301 172.948 103.273 172.995 103.254C173.042 103.235 173.092 103.227 173.142 103.23L174.228 103.26L173.718 102.45C173.67 102.37 173.643 102.279 173.64 102.186C173.639 102.136 173.647 102.086 173.666 102.04C173.685 101.993 173.712 101.951 173.748 101.916C173.782 101.882 173.822 101.854 173.866 101.836C173.91 101.817 173.958 101.808 174.006 101.808C174.073 101.807 174.139 101.826 174.196 101.862C174.252 101.898 174.297 101.951 174.324 102.012L174.852 102.954L175.356 102.054C175.388 101.984 175.438 101.924 175.502 101.881C175.565 101.837 175.639 101.812 175.716 101.808C175.763 101.807 175.81 101.815 175.854 101.834C175.898 101.853 175.936 101.881 175.968 101.916C176.003 101.949 176.031 101.989 176.05 102.033C176.068 102.078 176.077 102.126 176.076 102.174C176.075 102.259 176.05 102.342 176.004 102.414L175.476 103.26L176.574 103.23C176.625 103.227 176.676 103.235 176.724 103.254C176.771 103.272 176.815 103.301 176.85 103.338C176.912 103.41 176.946 103.501 176.946 103.596C176.946 103.691 176.912 103.782 176.85 103.854C176.815 103.891 176.771 103.92 176.724 103.938C176.676 103.957 176.625 103.965 176.574 103.962H175.464L175.956 104.73C176.012 104.823 176.042 104.928 176.046 105.036C176.048 105.085 176.04 105.133 176.022 105.178C176.005 105.224 175.978 105.265 175.944 105.3C175.912 105.334 175.874 105.361 175.832 105.379C175.79 105.398 175.744 105.408 175.698 105.408C175.624 105.406 175.552 105.383 175.49 105.342C175.428 105.3 175.38 105.242 175.35 105.174L174.852 104.292L174.354 105.174C174.324 105.244 174.275 105.305 174.213 105.348C174.15 105.392 174.076 105.417 174 105.42Z" fill="black"/>
<path d="M192.876 118.692H200.214" stroke="white" stroke-width="3" stroke-linecap="round" stroke-linejoin="round"/>
<path d="M91.0981 64.6621V113.4C91.0981 114.812 91.6589 116.165 92.6569 117.163C93.655 118.161 95.0087 118.722 96.4201 118.722H185.91" stroke="white" stroke-width="3" stroke-linecap="round" stroke-linejoin="round"/>
<path d="M91.0981 51.738V59.046" stroke="white" stroke-width="3" stroke-linecap="round" stroke-linejoin="round"/>
</svg>
