<svg width="120" height="120" viewBox="0 0 120 120" fill="none" xmlns="http://www.w3.org/2000/svg">
<path d="M17.8944 110.496H9.28558V110.736H17.8944V110.496Z" fill="#263238"/>
<path d="M114.758 110.496H19.3344V110.736H114.758V110.496Z" fill="#263238"/>
<path d="M70.5816 68.52H45.5064C43.4161 68.52 41.4114 67.6896 39.9333 66.2115C38.4552 64.7334 37.6248 62.7287 37.6248 60.6384C37.6248 58.5481 38.4552 56.5434 39.9333 55.0653C41.4114 53.5872 43.4161 52.7568 45.5064 52.7568H70.5816C72.6719 52.7568 74.6767 53.5872 76.1548 55.0653C77.6328 56.5434 78.4632 58.5481 78.4632 60.6384C78.4632 62.7287 77.6328 64.7334 76.1548 66.2115C74.6767 67.6896 72.6719 68.52 70.5816 68.52ZM45.5064 52.9968C44.5029 52.9968 43.5092 53.1945 42.5821 53.5785C41.655 53.9625 40.8126 54.5254 40.103 55.235C39.3934 55.9446 38.8305 56.787 38.4465 57.7141C38.0625 58.6412 37.8648 59.6349 37.8648 60.6384C37.8648 61.6419 38.0625 62.6356 38.4465 63.5627C38.8305 64.4898 39.3934 65.3322 40.103 66.0418C40.8126 66.7514 41.655 67.3143 42.5821 67.6983C43.5092 68.0823 44.5029 68.28 45.5064 68.28H70.5816C71.5851 68.28 72.5788 68.0823 73.5059 67.6983C74.433 67.3143 75.2755 66.7514 75.985 66.0418C76.6946 65.3322 77.2575 64.4898 77.6415 63.5627C78.0256 62.6356 78.2232 61.6419 78.2232 60.6384C78.2232 59.6349 78.0256 58.6412 77.6415 57.7141C77.2575 56.787 76.6946 55.9446 75.985 55.235C75.2755 54.5254 74.433 53.9625 73.5059 53.5785C72.5788 53.1945 71.5851 52.9968 70.5816 52.9968H45.5064Z" fill="#263238"/>
<path d="M45.4032 68.0208C43.9431 68.0208 42.5158 67.5878 41.3018 66.7766C40.0877 65.9655 39.1415 64.8125 38.5828 63.4635C38.024 62.1146 37.8778 60.6302 38.1627 59.1982C38.4475 57.7661 39.1506 56.4507 40.1831 55.4183C41.2155 54.3858 42.5309 53.6827 43.963 53.3979C45.395 53.113 46.8794 53.2592 48.2283 53.818C49.5773 54.3767 50.7303 55.3229 51.5415 56.537C52.3526 57.751 52.7856 59.1783 52.7856 60.6384C52.7831 62.5956 52.0045 64.4718 50.6206 65.8557C49.2366 67.2397 47.3604 68.0183 45.4032 68.0208ZM45.4032 53.496C43.9906 53.496 42.6097 53.9149 41.4351 54.6997C40.2605 55.4845 39.3451 56.6 38.8045 57.9051C38.2639 59.2102 38.1225 60.6463 38.3981 62.0318C38.6736 63.4173 39.3539 64.69 40.3528 65.6888C41.3517 66.6877 42.6243 67.368 44.0098 67.6436C45.3953 67.9192 46.8314 67.7777 48.1365 67.2371C49.4416 66.6965 50.5571 65.7811 51.3419 64.6065C52.1267 63.4319 52.5456 62.051 52.5456 60.6384C52.5437 58.7447 51.7906 56.9291 50.4515 55.5901C49.1125 54.251 47.2969 53.4979 45.4032 53.496Z" fill="#263238"/>
<path d="M64.1256 60.6192L67.5216 57.2232C67.6939 57.0415 67.7884 56.7998 67.785 56.5495C67.7816 56.2991 67.6805 56.06 67.5033 55.8832C67.3261 55.7063 67.0869 55.6056 66.8365 55.6027C66.5862 55.5997 66.3446 55.6946 66.1632 55.8672L62.7672 59.2632L59.3712 55.8672C59.1899 55.6946 58.9483 55.5997 58.698 55.6027C58.4476 55.6056 58.2084 55.7063 58.0312 55.8832C57.854 56.06 57.7529 56.2991 57.7495 56.5495C57.7461 56.7998 57.8406 57.0415 58.0128 57.2232L61.4088 60.6192L58.0128 64.0152C57.8327 64.1953 57.7315 64.4396 57.7315 64.6944C57.7315 64.9491 57.8327 65.1935 58.0128 65.3736C58.193 65.5537 58.4373 65.6549 58.692 65.6549C58.9468 65.6549 59.1911 65.5537 59.3712 65.3736L62.7672 61.9776L66.1632 65.3736C66.2524 65.4628 66.3583 65.5335 66.4749 65.5818C66.5914 65.6301 66.7163 65.6549 66.8424 65.6549C66.9686 65.6549 67.0935 65.6301 67.21 65.5818C67.3266 65.5335 67.4324 65.4628 67.5216 65.3736C67.6108 65.2844 67.6816 65.1785 67.7299 65.062C67.7781 64.9454 67.803 64.8205 67.803 64.6944C67.803 64.5683 67.7781 64.4434 67.7299 64.3268C67.6816 64.2103 67.6108 64.1044 67.5216 64.0152L64.1256 60.6192Z" fill="#263238"/>
<path d="M70.5816 31.0272H45.5064C41.2198 31.0272 37.7448 34.5022 37.7448 38.7888C37.7448 43.0754 41.2198 46.5504 45.5064 46.5504H70.5816C74.8682 46.5504 78.3432 43.0754 78.3432 38.7888C78.3432 34.5022 74.8682 31.0272 70.5816 31.0272Z" fill="#263238"/>
<path d="M70.6872 47.5032C75.5014 47.5032 79.404 43.6006 79.404 38.7864C79.404 33.9723 75.5014 30.0696 70.6872 30.0696C65.873 30.0696 61.9704 33.9723 61.9704 38.7864C61.9704 43.6006 65.873 47.5032 70.6872 47.5032Z" fill="#EE7814"/>
<path d="M70.6872 47.6232C68.9394 47.6237 67.2306 47.1058 65.7771 46.1351C64.3236 45.1644 63.1906 43.7844 62.5214 42.1698C61.8522 40.5551 61.6768 38.7782 62.0175 37.0639C62.3582 35.3496 63.1997 33.7748 64.4354 32.5387C65.6712 31.3026 67.2457 30.4607 68.96 30.1196C70.6742 29.7784 72.4511 29.9533 74.066 30.622C75.6808 31.2908 77.0611 32.4234 78.0322 33.8767C79.0033 35.3299 79.5216 37.0385 79.5216 38.7864C79.5191 41.1289 78.5876 43.3747 76.9314 45.0313C75.2753 46.6879 73.0297 47.62 70.6872 47.6232ZM70.6872 30.192C68.9867 30.1915 67.3243 30.6954 65.9102 31.6398C64.4961 32.5843 63.3938 33.9269 62.7429 35.4978C62.0919 37.0688 61.9215 38.7975 62.2531 40.4654C62.5847 42.1332 63.4035 43.6652 64.606 44.8677C65.8084 46.0701 67.3404 46.8889 69.0083 47.2205C70.6761 47.5522 72.4048 47.3817 73.9758 46.7308C75.5467 46.0798 76.8894 44.9775 77.8338 43.5634C78.7782 42.1493 79.2821 40.4869 79.2816 38.7864C79.2785 36.508 78.372 34.3238 76.7609 32.7128C75.1498 31.1017 72.9656 30.1952 70.6872 30.192Z" fill="#263238"/>
<path d="M50.5608 43.7208C50.4347 43.7209 50.3098 43.6962 50.1933 43.648C50.0767 43.5998 49.9708 43.5291 49.8816 43.44L44.9592 38.5176C44.7938 38.335 44.7049 38.0957 44.7109 37.8494C44.717 37.603 44.8176 37.3684 44.9918 37.1942C45.1661 37.0199 45.4006 36.9194 45.647 36.9133C45.8934 36.9072 46.1326 36.9961 46.3152 37.1616L50.4552 41.2992L56.244 33.5448C56.3965 33.3408 56.6237 33.2057 56.8758 33.1693C57.0006 33.1512 57.1277 33.1579 57.2499 33.189C57.3721 33.2201 57.487 33.2749 57.588 33.3504C57.689 33.4259 57.7742 33.5205 57.8386 33.6289C57.9031 33.7373 57.9455 33.8573 57.9636 33.9821C57.9816 34.1069 57.9749 34.2341 57.9438 34.3563C57.9128 34.4785 57.8579 34.5934 57.7824 34.6944L51.3288 43.3344C51.2462 43.4445 51.1409 43.5356 51.02 43.6015C50.899 43.6673 50.7654 43.7064 50.628 43.716L50.5608 43.7208Z" fill="#EE7814"/>
<path d="M109.62 39.2904H106.843V39.0504H109.62C109.893 39.0498 110.155 38.9407 110.348 38.7473C110.541 38.5538 110.65 38.2917 110.65 38.0184V14.4168C110.65 14.1437 110.541 13.8818 110.348 13.6887C110.155 13.4957 109.893 13.3872 109.62 13.3872H100.02V13.1472H109.62C109.955 13.1497 110.275 13.2846 110.511 13.5224C110.748 13.7602 110.88 14.0817 110.88 14.4168V38.0184C110.88 38.3537 110.748 38.6754 110.512 38.9136C110.276 39.1518 109.955 39.2872 109.62 39.2904Z" fill="#263238"/>
<path d="M105.787 39.2904H95.6544C95.3174 39.2898 94.9945 39.1555 94.7565 38.917C94.5184 38.6785 94.3848 38.3553 94.3848 38.0184V14.4168C94.3848 14.0801 94.5185 13.7571 94.7566 13.519C94.9947 13.2809 95.3176 13.1472 95.6544 13.1472H98.6712V13.3872H95.6544C95.3815 13.3878 95.12 13.4965 94.927 13.6894C94.7341 13.8824 94.6254 14.1439 94.6248 14.4168V38.0184C94.6248 38.2917 94.7332 38.5538 94.9262 38.7473C95.1192 38.9407 95.3811 39.0498 95.6544 39.0504H105.787V39.2904Z" fill="#263238"/>
<path d="M104.806 16.3632H95.868V16.6032H104.806V16.3632Z" fill="#263238"/>
<path d="M104.803 19.7544H101.057V19.9944H104.803V19.7544Z" fill="#263238"/>
<path d="M100.063 19.7544H95.868V19.9944H100.063V19.7544Z" fill="#263238"/>
<path d="M109.25 19.2264H106.574C106.203 19.2264 105.902 19.5272 105.902 19.8984V20.0904C105.902 20.4615 106.203 20.7624 106.574 20.7624H109.25C109.621 20.7624 109.922 20.4615 109.922 20.0904V19.8984C109.922 19.5272 109.621 19.2264 109.25 19.2264Z" fill="#263238"/>
<path d="M110.026 19.9944C110.026 19.8233 109.976 19.6559 109.881 19.5135C109.786 19.371 109.651 19.2599 109.493 19.1942C109.335 19.1285 109.161 19.1112 108.994 19.1445C108.826 19.1777 108.672 19.2601 108.551 19.3811C108.43 19.502 108.347 19.6562 108.314 19.824C108.281 19.9918 108.298 20.1658 108.364 20.3237C108.429 20.4817 108.541 20.6166 108.683 20.7114C108.825 20.8061 108.993 20.8565 109.164 20.856C109.392 20.8554 109.611 20.7644 109.772 20.6029C109.934 20.4415 110.025 20.2227 110.026 19.9944Z" fill="#EE7814"/>
<path d="M109.164 20.976C108.969 20.9765 108.779 20.9191 108.616 20.8112C108.454 20.7032 108.328 20.5496 108.253 20.3697C108.178 20.1898 108.158 19.9917 108.196 19.8006C108.234 19.6095 108.328 19.434 108.466 19.2962C108.604 19.1584 108.779 19.0647 108.97 19.0268C109.161 18.9889 109.359 19.0086 109.539 19.0834C109.719 19.1581 109.873 19.2846 109.981 19.4468C110.089 19.609 110.146 19.7996 110.146 19.9944C110.145 20.2545 110.041 20.5038 109.857 20.6878C109.673 20.8717 109.424 20.9754 109.164 20.976ZM109.164 19.2504C109.017 19.2499 108.873 19.2931 108.75 19.3746C108.627 19.4561 108.532 19.5721 108.475 19.708C108.418 19.8439 108.403 19.9936 108.432 20.1381C108.46 20.2825 108.531 20.4153 108.635 20.5196C108.739 20.6239 108.871 20.695 109.016 20.7239C109.16 20.7528 109.31 20.7382 109.446 20.682C109.582 20.6257 109.698 20.5304 109.78 20.408C109.862 20.2856 109.906 20.1416 109.906 19.9944C109.906 19.7975 109.827 19.6086 109.688 19.4692C109.549 19.3297 109.361 19.251 109.164 19.2504Z" fill="#263238"/>
<path d="M109.25 22.4232H106.574C106.203 22.4232 105.902 22.7241 105.902 23.0952V23.2872C105.902 23.6583 106.203 23.9592 106.574 23.9592H109.25C109.621 23.9592 109.922 23.6583 109.922 23.2872V23.0952C109.922 22.7241 109.621 22.4232 109.25 22.4232Z" fill="#263238"/>
<path d="M110.026 23.1912C110.026 23.0201 109.976 22.8527 109.881 22.7103C109.786 22.5678 109.651 22.4567 109.493 22.391C109.335 22.3253 109.161 22.308 108.994 22.3413C108.826 22.3745 108.672 22.4569 108.551 22.5779C108.43 22.6988 108.347 22.853 108.314 23.0208C108.281 23.1887 108.298 23.3626 108.364 23.5205C108.429 23.6785 108.541 23.8134 108.683 23.9082C108.825 24.0029 108.993 24.0533 109.164 24.0528C109.392 24.0522 109.611 23.9612 109.772 23.7997C109.934 23.6383 110.025 23.4195 110.026 23.1912Z" fill="#EE7814"/>
<path d="M109.164 24.1728C108.969 24.1733 108.779 24.1159 108.616 24.008C108.454 23.9 108.328 23.7464 108.253 23.5665C108.178 23.3866 108.158 23.1885 108.196 22.9974C108.234 22.8063 108.328 22.6308 108.466 22.493C108.604 22.3553 108.779 22.2615 108.97 22.2236C109.161 22.1857 109.359 22.2054 109.539 22.2802C109.719 22.3549 109.873 22.4814 109.981 22.6436C110.089 22.8058 110.146 22.9964 110.146 23.1912C110.145 23.4513 110.041 23.7006 109.857 23.8846C109.673 24.0685 109.424 24.1722 109.164 24.1728ZM109.164 22.4472C109.017 22.4467 108.873 22.49 108.75 22.5714C108.627 22.6529 108.532 22.7689 108.475 22.9048C108.418 23.0407 108.403 23.1904 108.432 23.3349C108.46 23.4794 108.531 23.6121 108.635 23.7164C108.739 23.8207 108.871 23.8918 109.016 23.9207C109.16 23.9496 109.31 23.935 109.446 23.8788C109.582 23.8226 109.698 23.7272 109.78 23.6048C109.862 23.4824 109.906 23.3385 109.906 23.1912C109.906 22.9943 109.827 22.8054 109.688 22.666C109.549 22.5265 109.361 22.4478 109.164 22.4472Z" fill="#263238"/>
<path d="M109.25 29.2944H106.574C106.203 29.2944 105.902 29.5953 105.902 29.9664V30.1584C105.902 30.5295 106.203 30.8304 106.574 30.8304H109.25C109.621 30.8304 109.922 30.5295 109.922 30.1584V29.9664C109.922 29.5953 109.621 29.2944 109.25 29.2944Z" fill="#263238"/>
<path d="M110.026 30.0624C110.026 29.8914 109.975 29.7243 109.88 29.5821C109.785 29.44 109.65 29.3293 109.492 29.2639C109.334 29.1986 109.16 29.1816 108.992 29.2152C108.824 29.2487 108.67 29.3312 108.55 29.4523C108.429 29.5734 108.347 29.7276 108.314 29.8953C108.281 30.0631 108.298 30.2369 108.364 30.3947C108.43 30.5525 108.541 30.6873 108.683 30.782C108.826 30.8766 108.993 30.9269 109.164 30.9264C109.277 30.9264 109.39 30.904 109.494 30.8606C109.599 30.8171 109.694 30.7534 109.774 30.6732C109.854 30.5929 109.917 30.4977 109.961 30.3928C110.004 30.288 110.026 30.1757 110.026 30.0624Z" fill="#EE7814"/>
<path d="M109.164 31.0464C108.969 31.0469 108.779 30.9895 108.617 30.8817C108.454 30.7739 108.328 30.6204 108.253 30.4406C108.178 30.2608 108.158 30.0629 108.196 29.8719C108.234 29.6809 108.327 29.5053 108.465 29.3674C108.602 29.2296 108.778 29.1356 108.969 29.0975C109.16 29.0593 109.358 29.0787 109.538 29.1531C109.717 29.2275 109.871 29.3536 109.98 29.5155C110.088 29.6773 110.146 29.8677 110.146 30.0624C110.145 30.3227 110.041 30.5723 109.857 30.7566C109.674 30.941 109.424 31.0451 109.164 31.0464ZM109.164 29.3208C109.017 29.3203 108.872 29.3636 108.75 29.4452C108.627 29.5267 108.531 29.6429 108.475 29.779C108.418 29.915 108.403 30.0648 108.432 30.2093C108.46 30.3539 108.531 30.4867 108.635 30.5909C108.74 30.6951 108.872 30.766 109.017 30.7946C109.162 30.8232 109.311 30.8083 109.447 30.7517C109.583 30.6951 109.7 30.5993 109.781 30.4766C109.863 30.3539 109.906 30.2097 109.906 30.0624C109.905 29.8659 109.827 29.6776 109.688 29.5387C109.549 29.3998 109.36 29.3214 109.164 29.3208Z" fill="#263238"/>
<path d="M109.25 36.0792H106.574C106.203 36.0792 105.902 36.3801 105.902 36.7512V36.9432C105.902 37.3143 106.203 37.6152 106.574 37.6152H109.25C109.621 37.6152 109.922 37.3143 109.922 36.9432V36.7512C109.922 36.3801 109.621 36.0792 109.25 36.0792Z" fill="#263238"/>
<path d="M110.026 36.8472C110.026 36.6761 109.976 36.5087 109.881 36.3663C109.786 36.2238 109.651 36.1127 109.493 36.047C109.335 35.9813 109.161 35.964 108.994 35.9973C108.826 36.0305 108.672 36.1129 108.551 36.2338C108.43 36.3548 108.347 36.509 108.314 36.6768C108.281 36.8446 108.298 37.0186 108.364 37.1765C108.429 37.3345 108.541 37.4694 108.683 37.5642C108.825 37.6589 108.993 37.7093 109.164 37.7088C109.392 37.7082 109.611 37.6172 109.772 37.4557C109.934 37.2943 110.025 37.0755 110.026 36.8472Z" fill="#EE7814"/>
<path d="M109.164 37.8288C108.969 37.8293 108.779 37.7719 108.616 37.664C108.454 37.556 108.328 37.4024 108.253 37.2225C108.178 37.0426 108.158 36.8445 108.196 36.6534C108.234 36.4623 108.328 36.2868 108.466 36.149C108.604 36.0112 108.779 35.9175 108.97 35.8796C109.161 35.8417 109.359 35.8614 109.539 35.9362C109.719 36.0109 109.873 36.1374 109.981 36.2996C110.089 36.4618 110.146 36.6524 110.146 36.8472C110.145 37.1073 110.041 37.3566 109.857 37.5406C109.673 37.7245 109.424 37.8282 109.164 37.8288ZM109.164 36.1032C109.017 36.1027 108.873 36.1459 108.75 36.2274C108.627 36.3089 108.532 36.4249 108.475 36.5608C108.418 36.6967 108.403 36.8464 108.432 36.9909C108.46 37.1353 108.531 37.2681 108.635 37.3724C108.739 37.4767 108.871 37.5478 109.016 37.5767C109.16 37.6056 109.31 37.591 109.446 37.5348C109.582 37.4785 109.698 37.3832 109.78 37.2608C109.862 37.1384 109.906 36.9944 109.906 36.8472C109.906 36.6503 109.827 36.4614 109.688 36.3219C109.549 36.1825 109.361 36.1038 109.164 36.1032Z" fill="#263238"/>
<path d="M109.258 17.448H106.656L107.102 17.2224C107.224 17.1604 107.327 17.0658 107.399 16.9491C107.47 16.8324 107.508 16.6981 107.508 16.5612C107.508 16.4242 107.47 16.29 107.399 16.1733C107.327 16.0566 107.224 15.962 107.102 15.9L106.656 15.66H109.258C109.493 15.66 109.719 15.7535 109.885 15.9201C110.052 16.0866 110.146 16.3125 110.146 16.548C110.146 16.7835 110.052 17.0094 109.885 17.1759C109.719 17.3424 109.493 17.436 109.258 17.436V17.448ZM107.503 17.208H109.258C109.429 17.208 109.594 17.1397 109.716 17.0182C109.837 16.8967 109.906 16.7318 109.906 16.56C109.906 16.3881 109.837 16.2233 109.716 16.1018C109.594 15.9802 109.429 15.912 109.258 15.912H107.503C107.661 16.0909 107.748 16.3213 107.748 16.56C107.748 16.7986 107.661 17.0291 107.503 17.208Z" fill="#263238"/>
<path d="M106.764 17.544C106.512 17.5315 106.274 17.4225 106.1 17.2396C105.926 17.0566 105.829 16.8138 105.829 16.5612C105.829 16.3086 105.926 16.0657 106.1 15.8828C106.274 15.6998 106.512 15.5909 106.764 15.5784C106.92 15.5774 107.074 15.6144 107.213 15.6864C107.374 15.7685 107.51 15.8937 107.604 16.0481C107.699 16.2025 107.749 16.3801 107.749 16.5612C107.749 16.7423 107.699 16.9199 107.604 17.0743C107.51 17.2286 107.374 17.3538 107.213 17.436C107.074 17.508 106.92 17.545 106.764 17.544ZM106.764 15.8184C106.574 15.8292 106.396 15.9121 106.265 16.0503C106.135 16.1884 106.062 16.3712 106.062 16.5612C106.062 16.7512 106.135 16.934 106.265 17.0721C106.396 17.2102 106.574 17.2932 106.764 17.304C106.881 17.3045 106.996 17.2765 107.1 17.2224C107.222 17.1604 107.325 17.0658 107.396 16.9491C107.468 16.8324 107.506 16.6981 107.506 16.5612C107.506 16.4243 107.468 16.29 107.396 16.1733C107.325 16.0566 107.222 15.962 107.1 15.9C106.996 15.8459 106.881 15.8179 106.764 15.8184Z" fill="#263238"/>
<path d="M109.258 27.492H106.656L107.102 27.2664C107.224 27.2044 107.327 27.1098 107.399 26.9931C107.47 26.8764 107.508 26.7421 107.508 26.6052C107.508 26.4683 107.47 26.334 107.399 26.2173C107.327 26.1006 107.224 26.006 107.102 25.944L106.656 25.716H109.258C109.493 25.716 109.719 25.8095 109.885 25.9761C110.052 26.1426 110.146 26.3685 110.146 26.604C110.146 26.8395 110.052 27.0654 109.885 27.2319C109.719 27.3984 109.493 27.492 109.258 27.492ZM107.503 27.252H109.258C109.429 27.252 109.594 27.1837 109.716 27.0622C109.837 26.9407 109.906 26.7758 109.906 26.604C109.906 26.4321 109.837 26.2673 109.716 26.1458C109.594 26.0243 109.429 25.956 109.258 25.956H107.503C107.661 26.1349 107.748 26.3653 107.748 26.604C107.748 26.8426 107.661 27.0731 107.503 27.252Z" fill="#263238"/>
<path d="M106.764 27.6C106.503 27.6 106.253 27.4963 106.068 27.3118C105.884 27.1272 105.78 26.877 105.78 26.616C105.78 26.355 105.884 26.1047 106.068 25.9202C106.253 25.7357 106.503 25.632 106.764 25.632C106.92 25.6317 107.074 25.6696 107.213 25.7424C107.374 25.8245 107.51 25.9497 107.604 26.1041C107.699 26.2585 107.749 26.4361 107.749 26.6172C107.749 26.7983 107.699 26.9759 107.604 27.1303C107.51 27.2846 107.374 27.4098 107.213 27.492C107.074 27.564 106.92 27.601 106.764 27.6ZM106.764 25.872C106.567 25.872 106.377 25.9504 106.238 26.0899C106.098 26.2294 106.02 26.4187 106.02 26.616C106.02 26.8133 106.098 27.0026 106.238 27.1421C106.377 27.2816 106.567 27.36 106.764 27.36C106.881 27.3605 106.996 27.3325 107.1 27.2784C107.222 27.2164 107.325 27.1218 107.396 27.0051C107.468 26.8884 107.506 26.7541 107.506 26.6172C107.506 26.4803 107.468 26.346 107.396 26.2293C107.325 26.1126 107.222 26.018 107.1 25.956C106.998 25.8969 106.882 25.8639 106.764 25.86V25.872Z" fill="#263238"/>
<path d="M109.258 34.2312H106.656L107.102 34.0056C107.224 33.9436 107.327 33.849 107.399 33.7323C107.47 33.6156 107.508 33.4813 107.508 33.3444C107.508 33.2075 107.47 33.0732 107.399 32.9565C107.327 32.8398 107.224 32.7452 107.102 32.6832L106.656 32.4432H109.258C109.493 32.4432 109.719 32.5367 109.885 32.7033C110.052 32.8698 110.146 33.0957 110.146 33.3312C110.146 33.5667 110.052 33.7926 109.885 33.9591C109.719 34.1256 109.493 34.2192 109.258 34.2192V34.2312ZM107.503 33.9912H109.258C109.429 33.9912 109.594 33.9229 109.716 33.8014C109.837 33.6799 109.906 33.5151 109.906 33.3432C109.906 33.1713 109.837 33.0065 109.716 32.885C109.594 32.7635 109.429 32.6952 109.258 32.6952H107.503C107.661 32.8741 107.748 33.1045 107.748 33.3432C107.748 33.5818 107.661 33.8123 107.503 33.9912Z" fill="#263238"/>
<path d="M106.764 34.32C106.512 34.3075 106.274 34.1985 106.1 34.0156C105.926 33.8326 105.829 33.5898 105.829 33.3372C105.829 33.0846 105.926 32.8417 106.1 32.6588C106.274 32.4758 106.512 32.3669 106.764 32.3544C106.92 32.3534 107.074 32.3904 107.213 32.4624C107.374 32.5445 107.51 32.6697 107.604 32.8241C107.699 32.9785 107.749 33.1561 107.749 33.3372C107.749 33.5183 107.699 33.6959 107.604 33.8503C107.51 34.0046 107.374 34.1298 107.213 34.212C107.074 34.284 106.92 34.321 106.764 34.32ZM106.764 32.5944C106.574 32.6052 106.396 32.6881 106.265 32.8263C106.135 32.9644 106.062 33.1472 106.062 33.3372C106.062 33.5272 106.135 33.71 106.265 33.8481C106.396 33.9862 106.574 34.0692 106.764 34.08C106.881 34.0805 106.996 34.0525 107.1 33.9984C107.222 33.9364 107.325 33.8418 107.396 33.7251C107.468 33.6084 107.506 33.4741 107.506 33.3372C107.506 33.2003 107.468 33.066 107.396 32.9493C107.325 32.8326 107.222 32.738 107.1 32.676C106.996 32.6244 106.88 32.5989 106.764 32.6016V32.5944Z" fill="#263238"/>
<path d="M104.806 23.1456H95.868V23.3856H104.806V23.1456Z" fill="#263238"/>
<path d="M104.806 26.5368H95.868V26.7768H104.806V26.5368Z" fill="#263238"/>
<path d="M104.803 29.928H99.7512V30.168H104.803V29.928Z" fill="#263238"/>
<path d="M98.7576 29.928H95.868V30.168H98.7576V29.928Z" fill="#263238"/>
<path d="M104.806 33.3168H95.868V33.5568H104.806V33.3168Z" fill="#263238"/>
<path d="M104.806 36.708H95.868V36.948H104.806V36.708Z" fill="#263238"/>
<path d="M32.7672 105.703H10.32C9.9833 105.703 9.66037 105.569 9.42227 105.331C9.18418 105.093 9.05042 104.77 9.05042 104.434V67.3248C9.05105 66.9883 9.18501 66.6657 9.42297 66.4278C9.66093 66.1898 9.98349 66.0558 10.32 66.0552H20.5896V66.2952H10.32C10.0471 66.2958 9.78563 66.4045 9.59268 66.5975C9.39973 66.7904 9.29105 67.0519 9.29042 67.3248V104.434C9.29042 104.707 9.39889 104.969 9.59198 105.162C9.78507 105.355 10.0469 105.463 10.32 105.463H32.7648C33.0377 105.463 33.2992 105.354 33.4922 105.161C33.6851 104.968 33.7938 104.706 33.7944 104.434V94.6704H34.0344V104.434C34.0344 104.77 33.901 105.092 33.6634 105.331C33.4258 105.569 33.1035 105.703 32.7672 105.703Z" fill="#263238"/>
<path d="M34.0368 93.0552H33.7968V67.3248C33.7962 67.0519 33.6875 66.7904 33.4946 66.5975C33.3016 66.4045 33.0401 66.2958 32.7672 66.2952H21.6744V66.0552H32.7672C33.1038 66.0558 33.4263 66.1898 33.6643 66.4278C33.9022 66.6657 34.0362 66.9883 34.0368 67.3248V93.0552Z" fill="#263238"/>
<path d="M24.84 70.9512H14.1336V71.1912H24.84V70.9512Z" fill="#263238"/>
<path d="M13.056 70.9512H11.244V71.1912H13.056V70.9512Z" fill="#263238"/>
<path d="M24.84 76.1088H11.244V76.3488H24.84V76.1088Z" fill="#263238"/>
<path d="M31.4568 75.2424H27.6816C27.3716 75.2424 27.0743 75.3656 26.8552 75.5848C26.636 75.8039 26.5128 76.1012 26.5128 76.4112C26.5128 76.7212 26.636 77.0185 26.8552 77.2377C27.0743 77.4569 27.3716 77.58 27.6816 77.58H31.4568C31.7668 77.58 32.0641 77.4569 32.2833 77.2377C32.5025 77.0185 32.6256 76.7212 32.6256 76.4112C32.6256 76.1012 32.5025 75.8039 32.2833 75.5848C32.0641 75.3656 31.7668 75.2424 31.4568 75.2424Z" fill="#263238"/>
<path d="M32.7864 76.4112C32.7864 76.1516 32.7094 75.8977 32.5652 75.6819C32.4209 75.466 32.2159 75.2977 31.976 75.1983C31.7361 75.099 31.4722 75.073 31.2175 75.1236C30.9629 75.1743 30.7289 75.2993 30.5453 75.4829C30.3617 75.6665 30.2367 75.9004 30.1861 76.1551C30.1354 76.4097 30.1614 76.6737 30.2608 76.9136C30.3601 77.1535 30.5284 77.3585 30.7443 77.5028C30.9602 77.647 31.214 77.724 31.4736 77.724C31.8218 77.724 32.1557 77.5857 32.4019 77.3395C32.6481 77.0933 32.7864 76.7594 32.7864 76.4112Z" fill="#EE7814"/>
<path d="M31.4736 77.844C31.1888 77.844 30.9104 77.7595 30.6736 77.6013C30.4368 77.4431 30.2522 77.2182 30.1432 76.9551C30.0343 76.6919 30.0057 76.4024 30.0613 76.1231C30.1169 75.8437 30.254 75.5872 30.4554 75.3858C30.6568 75.1844 30.9134 75.0472 31.1927 74.9917C31.472 74.9361 31.7616 74.9646 32.0247 75.0736C32.2878 75.1826 32.5127 75.3672 32.6709 75.604C32.8292 75.8408 32.9136 76.1192 32.9136 76.404C32.9136 76.7859 32.7619 77.1522 32.4919 77.4222C32.2218 77.6923 31.8555 77.844 31.4736 77.844ZM31.4736 75.2184C31.2363 75.2184 31.0043 75.2888 30.8069 75.4206C30.6096 75.5525 30.4558 75.7399 30.365 75.9592C30.2741 76.1785 30.2504 76.4197 30.2967 76.6525C30.343 76.8853 30.4573 77.0991 30.6251 77.2669C30.7929 77.4348 31.0067 77.549 31.2395 77.5953C31.4723 77.6416 31.7136 77.6179 31.9329 77.5271C32.1521 77.4362 32.3395 77.2824 32.4714 77.0851C32.6033 76.8878 32.6736 76.6557 32.6736 76.4184C32.6736 76.1001 32.5472 75.7949 32.3222 75.5699C32.0971 75.3448 31.7919 75.2184 31.4736 75.2184Z" fill="#263238"/>
<path d="M31.4568 80.1048H27.6816C27.3714 80.1054 27.0741 80.2291 26.855 80.4487C26.6359 80.6683 26.5128 80.9658 26.5128 81.276C26.5128 81.586 26.636 81.8833 26.8552 82.1025C27.0743 82.3217 27.3716 82.4448 27.6816 82.4448H31.4568C31.7668 82.4448 32.0641 82.3217 32.2833 82.1025C32.5025 81.8833 32.6256 81.586 32.6256 81.276C32.6256 80.9658 32.5026 80.6683 32.2834 80.4487C32.0643 80.2291 31.767 80.1054 31.4568 80.1048Z" fill="#263238"/>
<path d="M31.4736 82.5888C32.1987 82.5888 32.7864 82.0011 32.7864 81.276C32.7864 80.551 32.1987 79.9632 31.4736 79.9632C30.7486 79.9632 30.1608 80.551 30.1608 81.276C30.1608 82.0011 30.7486 82.5888 31.4736 82.5888Z" fill="#EE7814"/>
<path d="M31.4736 82.7064C31.1888 82.7064 30.9104 82.6219 30.6736 82.4637C30.4368 82.3055 30.2522 82.0806 30.1432 81.8175C30.0343 81.5543 30.0057 81.2648 30.0613 80.9855C30.1169 80.7061 30.254 80.4496 30.4554 80.2482C30.6568 80.0468 30.9134 79.9096 31.1927 79.8541C31.472 79.7985 31.7616 79.827 32.0247 79.936C32.2878 80.045 32.5127 80.2296 32.6709 80.4664C32.8292 80.7032 32.9136 80.9816 32.9136 81.2664C32.9136 81.6483 32.7619 82.0146 32.4919 82.2846C32.2218 82.5547 31.8555 82.7064 31.4736 82.7064ZM31.4736 80.0832C31.2363 80.0832 31.0043 80.1536 30.8069 80.2854C30.6096 80.4173 30.4558 80.6047 30.365 80.824C30.2741 81.0433 30.2504 81.2845 30.2967 81.5173C30.343 81.7501 30.4573 81.9639 30.6251 82.1317C30.7929 82.2996 31.0067 82.4138 31.2395 82.4601C31.4723 82.5064 31.7136 82.4827 31.9329 82.3919C32.1521 82.301 32.3395 82.1472 32.4714 81.9499C32.6033 81.7525 32.6736 81.5205 32.6736 81.2832C32.6736 80.9649 32.5472 80.6597 32.3222 80.4347C32.0971 80.2096 31.7919 80.0832 31.4736 80.0832Z" fill="#263238"/>
<path d="M31.4568 90.5616H27.6816C27.3716 90.5616 27.0743 90.6847 26.8552 90.9039C26.636 91.1231 26.5128 91.4204 26.5128 91.7304C26.5128 92.0404 26.636 92.3377 26.8552 92.5569C27.0743 92.7761 27.3716 92.8992 27.6816 92.8992H31.4568C31.7668 92.8992 32.0641 92.7761 32.2833 92.5569C32.5025 92.3377 32.6256 92.0404 32.6256 91.7304C32.6256 91.4204 32.5025 91.1231 32.2833 90.9039C32.0641 90.6847 31.7668 90.5616 31.4568 90.5616Z" fill="#263238"/>
<path d="M32.7864 91.7304C32.7864 91.4708 32.7094 91.2169 32.5652 91.0011C32.4209 90.7852 32.2159 90.6169 31.976 90.5175C31.7361 90.4182 31.4722 90.3922 31.2175 90.4428C30.9629 90.4935 30.7289 90.6185 30.5453 90.8021C30.3617 90.9857 30.2367 91.2196 30.1861 91.4743C30.1354 91.7289 30.1614 91.9929 30.2608 92.2328C30.3601 92.4727 30.5284 92.6777 30.7443 92.822C30.9602 92.9662 31.214 93.0432 31.4736 93.0432C31.8218 93.0432 32.1557 92.9049 32.4019 92.6587C32.6481 92.4125 32.7864 92.0786 32.7864 91.7304Z" fill="#EE7814"/>
<path d="M31.4736 93.1632C31.1888 93.1632 30.9104 93.0788 30.6736 92.9205C30.4368 92.7623 30.2522 92.5374 30.1432 92.2743C30.0343 92.0111 30.0057 91.7216 30.0613 91.4423C30.1169 91.1629 30.254 90.9064 30.4554 90.705C30.6568 90.5036 30.9134 90.3664 31.1927 90.3109C31.472 90.2553 31.7616 90.2838 32.0247 90.3928C32.2878 90.5018 32.5127 90.6864 32.6709 90.9232C32.8292 91.16 32.9136 91.4384 32.9136 91.7232C32.9136 92.1051 32.7619 92.4714 32.4919 92.7414C32.2218 93.0115 31.8555 93.1632 31.4736 93.1632ZM31.4736 90.5376C31.2363 90.5376 31.0043 90.608 30.8069 90.7398C30.6096 90.8717 30.4558 91.0591 30.365 91.2784C30.2741 91.4977 30.2504 91.7389 30.2967 91.9717C30.343 92.2045 30.4573 92.4183 30.6251 92.5861C30.7929 92.754 31.0067 92.8682 31.2395 92.9145C31.4723 92.9608 31.7136 92.9371 31.9329 92.8463C32.1521 92.7554 32.3395 92.6016 32.4714 92.4043C32.6033 92.2069 32.6736 91.9749 32.6736 91.7376C32.6736 91.4193 32.5472 91.1141 32.3222 90.8891C32.0971 90.664 31.7919 90.5376 31.4736 90.5376Z" fill="#263238"/>
<path d="M31.4568 100.882H27.6816C27.3716 100.882 27.0743 101.005 26.8552 101.224C26.636 101.443 26.5128 101.74 26.5128 102.05C26.5128 102.36 26.636 102.658 26.8552 102.877C27.0743 103.096 27.3716 103.219 27.6816 103.219H31.4568C31.7668 103.219 32.0641 103.096 32.2833 102.877C32.5025 102.658 32.6256 102.36 32.6256 102.05C32.6256 101.74 32.5025 101.443 32.2833 101.224C32.0641 101.005 31.7668 100.882 31.4568 100.882Z" fill="#263238"/>
<path d="M31.4736 103.363C32.1987 103.363 32.7864 102.775 32.7864 102.05C32.7864 101.325 32.1987 100.738 31.4736 100.738C30.7486 100.738 30.1608 101.325 30.1608 102.05C30.1608 102.775 30.7486 103.363 31.4736 103.363Z" fill="#EE7814"/>
<path d="M31.4736 103.483C31.1888 103.483 30.9104 103.399 30.6736 103.241C30.4368 103.082 30.2522 102.857 30.1432 102.594C30.0343 102.331 30.0057 102.042 30.0613 101.762C30.1169 101.483 30.254 101.226 30.4554 101.025C30.6568 100.824 30.9134 100.686 31.1927 100.631C31.472 100.575 31.7616 100.604 32.0247 100.713C32.2878 100.822 32.5127 101.006 32.6709 101.243C32.8292 101.48 32.9136 101.758 32.9136 102.043C32.9136 102.425 32.7619 102.791 32.4919 103.061C32.2218 103.331 31.8555 103.483 31.4736 103.483ZM31.4736 100.858C31.2363 100.858 31.0043 100.928 30.8069 101.06C30.6096 101.192 30.4558 101.379 30.365 101.598C30.2741 101.818 30.2504 102.059 30.2967 102.292C30.343 102.524 30.4573 102.738 30.6251 102.906C30.7929 103.074 31.0067 103.188 31.2395 103.235C31.4723 103.281 31.7136 103.257 31.9329 103.166C32.1521 103.075 32.3395 102.922 32.4714 102.724C32.6033 102.527 32.6736 102.295 32.6736 102.058C32.6736 101.739 32.5472 101.434 32.3222 101.209C32.0971 100.984 31.7919 100.858 31.4736 100.858Z" fill="#263238"/>
<path d="M31.6152 72.48H27.9192L28.3656 72.2544C28.5591 72.1526 28.7211 71.9999 28.8341 71.8127C28.9471 71.6255 29.0069 71.411 29.0069 71.1924C29.0069 70.9738 28.9471 70.7593 28.8341 70.5721C28.7211 70.3849 28.5591 70.2322 28.3656 70.1304L27.9192 69.9024H31.6152C31.957 69.9024 32.2848 70.0382 32.5265 70.2799C32.7682 70.5216 32.904 70.8494 32.904 71.1912C32.904 71.533 32.7682 71.8608 32.5265 72.1025C32.2848 72.3442 31.957 72.48 31.6152 72.48ZM28.8 72.24H31.6152C31.8933 72.24 32.1601 72.1295 32.3568 71.9328C32.5535 71.7361 32.664 71.4694 32.664 71.1912C32.664 70.913 32.5535 70.6463 32.3568 70.4496C32.1601 70.2529 31.8933 70.1424 31.6152 70.1424H28.8C28.9431 70.277 29.0571 70.4396 29.1351 70.6199C29.2131 70.8003 29.2533 70.9947 29.2533 71.1912C29.2533 71.3877 29.2131 71.5821 29.1351 71.7625C29.0571 71.9429 28.9431 72.1054 28.8 72.24Z" fill="#263238"/>
<path d="M27.8232 72.6192C27.468 72.5836 27.1387 72.4172 26.8992 72.1525C26.6597 71.8877 26.527 71.5434 26.527 71.1864C26.527 70.8294 26.6597 70.4851 26.8992 70.2204C27.1387 69.9556 27.468 69.7893 27.8232 69.7536C28.0504 69.7531 28.2743 69.8074 28.476 69.912C28.7088 70.034 28.9038 70.2173 29.0399 70.4421C29.1759 70.667 29.2479 70.9248 29.2479 71.1876C29.2479 71.4504 29.1759 71.7082 29.0399 71.9331C28.9038 72.1579 28.7088 72.3413 28.476 72.4632C28.2744 72.5677 28.0503 72.6212 27.8232 72.6192ZM27.8232 69.9936C27.5295 70.0259 27.258 70.1655 27.0607 70.3856C26.8635 70.6057 26.7545 70.8909 26.7545 71.1864C26.7545 71.4819 26.8635 71.7671 27.0607 71.9872C27.258 72.2073 27.5295 72.3469 27.8232 72.3792C28.0111 72.3811 28.1966 72.3366 28.3632 72.2496C28.5567 72.1478 28.7187 71.9951 28.8318 71.8079C28.9448 71.6207 29.0045 71.4063 29.0045 71.1876C29.0045 70.969 28.9448 70.7545 28.8318 70.5673C28.7187 70.3801 28.5567 70.2274 28.3632 70.1256C28.1966 70.0386 28.0112 69.9933 27.8232 69.9936Z" fill="#263238"/>
<path d="M31.6152 87.756H27.9192L28.3656 87.5304C28.5591 87.4286 28.7211 87.2759 28.8341 87.0887C28.9471 86.9015 29.0069 86.6871 29.0069 86.4684C29.0069 86.2498 28.9471 86.0353 28.8341 85.8481C28.7211 85.6609 28.5591 85.5082 28.3656 85.4064L27.9192 85.1784H31.6152C31.957 85.1784 32.2848 85.3142 32.5265 85.5559C32.7682 85.7976 32.904 86.1254 32.904 86.4672C32.904 86.809 32.7682 87.1368 32.5265 87.3785C32.2848 87.6202 31.957 87.756 31.6152 87.756ZM28.8 87.516H31.6152C31.8933 87.516 32.1601 87.4055 32.3568 87.2088C32.5535 87.0121 32.664 86.7454 32.664 86.4672C32.664 86.189 32.5535 85.9223 32.3568 85.7256C32.1601 85.5289 31.8933 85.4184 31.6152 85.4184H28.8C28.9431 85.553 29.0571 85.7156 29.1351 85.8959C29.2131 86.0763 29.2533 86.2707 29.2533 86.4672C29.2533 86.6637 29.2131 86.8581 29.1351 87.0385C29.0571 87.2189 28.9431 87.3814 28.8 87.516Z" fill="#263238"/>
<path d="M27.8232 87.9C27.468 87.8644 27.1387 87.698 26.8992 87.4333C26.6597 87.1685 26.527 86.8242 26.527 86.4672C26.527 86.1102 26.6597 85.7659 26.8992 85.5012C27.1387 85.2364 27.468 85.0701 27.8232 85.0344C28.0504 85.0339 28.2743 85.0882 28.476 85.1928C28.7559 85.3437 28.978 85.583 29.1076 85.8734C29.2372 86.1637 29.2671 86.4888 29.1925 86.7979C29.118 87.107 28.9432 87.3828 28.6955 87.5821C28.4478 87.7815 28.1411 87.8933 27.8232 87.9ZM27.8232 85.2744C27.5295 85.3067 27.258 85.4463 27.0607 85.6664C26.8635 85.8865 26.7545 86.1717 26.7545 86.4672C26.7545 86.7627 26.8635 87.0479 27.0607 87.268C27.258 87.4881 27.5295 87.6277 27.8232 87.66C28.011 87.6607 28.1962 87.6163 28.3632 87.5304C28.5567 87.4286 28.7187 87.2759 28.8318 87.0887C28.9448 86.9015 29.0045 86.6871 29.0045 86.4684C29.0045 86.2498 28.9448 86.0353 28.8318 85.8481C28.7187 85.6609 28.5567 85.5082 28.3632 85.4064C28.1966 85.3194 28.0112 85.2741 27.8232 85.2744Z" fill="#263238"/>
<path d="M31.6152 98.0112H27.9192L28.3656 97.7832C28.5591 97.6814 28.7211 97.5287 28.8341 97.3415C28.9471 97.1543 29.0069 96.9399 29.0069 96.7212C29.0069 96.5026 28.9471 96.2881 28.8341 96.1009C28.7211 95.9137 28.5591 95.761 28.3656 95.6592L27.9192 95.4312H31.6152C31.9477 95.4456 32.2618 95.5877 32.492 95.8281C32.7222 96.0684 32.8507 96.3884 32.8507 96.7212C32.8507 97.054 32.7222 97.374 32.492 97.6143C32.2618 97.8547 31.9477 97.9969 31.6152 98.0112ZM28.8 97.7712H31.6152C31.885 97.7583 32.1395 97.6421 32.3258 97.4466C32.5122 97.2511 32.6162 96.9913 32.6162 96.7212C32.6162 96.4511 32.5122 96.1914 32.3258 95.9959C32.1395 95.8004 31.885 95.6841 31.6152 95.6712H28.8C28.9435 95.8059 29.0578 95.9685 29.136 96.1491C29.2142 96.3297 29.2545 96.5244 29.2545 96.7212C29.2545 96.918 29.2142 97.1127 29.136 97.2933C29.0578 97.4739 28.9435 97.6365 28.8 97.7712Z" fill="#263238"/>
<path d="M27.8232 98.16C27.623 98.1801 27.4208 98.158 27.2296 98.0952C27.0384 98.0323 26.8626 97.9301 26.7133 97.7951C26.5641 97.6601 26.4448 97.4953 26.3632 97.3114C26.2816 97.1274 26.2394 96.9284 26.2394 96.7272C26.2394 96.526 26.2816 96.327 26.3632 96.143C26.4448 95.9591 26.5641 95.7943 26.7133 95.6593C26.8626 95.5243 27.0384 95.4221 27.2296 95.3592C27.4208 95.2964 27.623 95.2743 27.8232 95.2944C28.0502 95.2931 28.2741 95.3466 28.476 95.4504C28.7088 95.5723 28.9038 95.7557 29.0399 95.9805C29.1759 96.2054 29.2478 96.4632 29.2478 96.726C29.2478 96.9888 29.1759 97.2466 29.0399 97.4715C28.9038 97.6963 28.7088 97.8797 28.476 98.0016C28.2746 98.1068 28.0505 98.1612 27.8232 98.16ZM27.8232 95.5344C27.6556 95.516 27.4859 95.5331 27.3253 95.5846C27.1647 95.6361 27.0168 95.7209 26.8912 95.8335C26.7656 95.946 26.6651 96.0838 26.5963 96.2378C26.5275 96.3918 26.4919 96.5585 26.4919 96.7272C26.4919 96.8959 26.5275 97.0626 26.5963 97.2166C26.6651 97.3706 26.7656 97.5084 26.8912 97.6209C27.0168 97.7335 27.1647 97.8183 27.3253 97.8698C27.4859 97.9213 27.6556 97.9384 27.8232 97.92C28.0113 97.921 28.1968 97.8757 28.3632 97.788C28.5567 97.6862 28.7187 97.5335 28.8317 97.3463C28.9448 97.1591 29.0045 96.9446 29.0045 96.726C29.0045 96.5074 28.9448 96.2929 28.8317 96.1057C28.7187 95.9185 28.5567 95.7658 28.3632 95.664C28.1976 95.5727 28.0123 95.5232 27.8232 95.52V95.5344Z" fill="#263238"/>
<path d="M24.84 81.2688H21.1344V81.5088H24.84V81.2688Z" fill="#263238"/>
<path d="M19.788 81.2688H11.244V81.5088H19.788V81.2688Z" fill="#263238"/>
<path d="M24.84 86.4264H11.244V86.6664H24.84V86.4264Z" fill="#263238"/>
<path d="M24.84 91.584H11.244V91.824H24.84V91.584Z" fill="#263238"/>
<path d="M24.84 96.744H19.236V96.984H24.84V96.744Z" fill="#263238"/>
<path d="M18.1512 96.744H11.244V96.984H18.1512V96.744Z" fill="#263238"/>
<path d="M24.84 101.902H11.244V102.142H24.84V101.902Z" fill="#263238"/>
<path d="M74.9904 47.3232C74.9904 47.3232 74.8944 47.3616 74.2704 46.9416C73.6464 46.5216 72.7536 46.512 72.4752 46.7952C72.1968 47.0784 73.1328 47.2488 73.4904 47.6544C73.848 48.06 74.8344 48.9528 75.3336 49.02C75.8328 49.0872 76.8624 49.116 76.8624 49.116C76.8624 49.116 81.132 54.6552 81.2352 54.7128C81.3384 54.7704 83.1192 52.2072 83.1192 52.2072L78.108 48.4392C78.108 48.4392 77.6832 46.5504 77.6592 46.188C77.6352 45.8256 77.6592 44.7984 77.3376 44.3232C77.016 43.848 76.704 43.7376 76.7208 44.0016C76.7376 44.2656 76.9152 44.4168 76.932 44.6808C76.9446 44.8237 76.9446 44.9675 76.932 45.1104C76.932 45.1104 76.3824 44.2872 76.1256 43.9104C75.8556 43.5955 75.5362 43.3264 75.18 43.1136C74.9763 42.9171 74.7421 42.755 74.4864 42.6336C74.2152 42.552 74.3736 42.9384 74.3736 42.9384C74.3736 42.9384 73.9752 42.8976 74.0328 43.2912C74.0904 43.6848 74.4936 45.2448 74.6304 45.7968C74.7672 46.3488 74.9904 47.3232 74.9904 47.3232Z" fill="white"/>
<path d="M81.2304 54.8376C81.2106 54.8364 81.1915 54.8298 81.1752 54.8184C81.0936 54.7704 79.6224 52.8984 76.8024 49.236C76.5768 49.236 75.7584 49.1976 75.3192 49.14C74.7384 49.0632 73.6944 48.0672 73.3992 47.7336C73.2256 47.5724 73.026 47.4417 72.8088 47.3472C72.5424 47.2128 72.3288 47.1072 72.3048 46.9344C72.2979 46.8933 72.3017 46.8511 72.316 46.812C72.3304 46.7729 72.3546 46.7381 72.3864 46.7112C72.7032 46.3896 73.6656 46.3872 74.3352 46.8408C74.4891 46.9495 74.6494 47.0489 74.8152 47.1384C74.7408 46.8192 74.5968 46.2144 74.5008 45.8208L74.4 45.36C74.2272 44.6664 73.9656 43.62 73.92 43.3032C73.9056 43.2395 73.9064 43.1733 73.9222 43.11C73.9381 43.0466 73.9685 42.9878 74.0112 42.9384C74.0687 42.8805 74.1423 42.8412 74.2224 42.8256C74.2094 42.7809 74.2069 42.7338 74.2153 42.6879C74.2236 42.6421 74.2425 42.5989 74.2704 42.5616C74.3038 42.5301 74.3455 42.5089 74.3906 42.5004C74.4357 42.4919 74.4823 42.4964 74.5248 42.5136C74.7928 42.6366 75.0366 42.8065 75.2448 43.0152C75.6131 43.2335 75.9418 43.5126 76.2168 43.8408L76.812 44.7264C76.812 44.7144 76.812 44.7024 76.812 44.688C76.7988 44.584 76.7671 44.4832 76.7184 44.3904C76.6552 44.2719 76.6153 44.1423 76.6008 44.0088C76.5899 43.9568 76.5979 43.9026 76.6235 43.8559C76.649 43.8093 76.6903 43.7733 76.74 43.7544C76.9992 43.6632 77.34 44.1144 77.436 44.256C77.7312 44.6784 77.7552 45.4752 77.7696 45.9528C77.7696 46.0416 77.7696 46.1208 77.7696 46.1784C77.7912 46.4976 78.1416 48.0984 78.204 48.3696L83.1816 52.1112C83.2063 52.1303 83.2227 52.158 83.2276 52.1888C83.2325 52.2195 83.2255 52.251 83.208 52.2768C81.6504 54.5328 81.36 54.8376 81.2304 54.8376ZM73.1352 46.7208C72.9312 46.7034 72.7277 46.7596 72.5616 46.8792C72.5546 46.8852 72.5489 46.8926 72.5448 46.9008C72.6557 47.0019 72.7831 47.0831 72.9216 47.1408C73.166 47.2478 73.3895 47.3973 73.5816 47.5824C73.9512 48.0024 74.9112 48.8496 75.3504 48.9072C75.8304 48.972 76.8552 49.0032 76.8648 49.0032C76.8826 49.0041 76.9 49.0088 76.9157 49.0171C76.9315 49.0254 76.9452 49.0371 76.956 49.0512C78.5136 51.0696 80.8248 54.0504 81.2496 54.5712C81.4896 54.3096 82.2624 53.2464 82.9536 52.2528L78.0336 48.5544C78.011 48.5374 77.9956 48.5126 77.9904 48.4848C77.9712 48.408 77.5656 46.5816 77.5392 46.2144C77.5392 46.152 77.5392 46.0728 77.5392 45.9744C77.5248 45.5232 77.5008 44.7744 77.2464 44.4072C77.1486 44.2422 77.0118 44.1038 76.848 44.004C76.8602 44.1085 76.8928 44.2096 76.944 44.3016C77.006 44.4213 77.0451 44.5515 77.0592 44.6856C77.0713 44.8366 77.0713 44.9882 77.0592 45.1392C77.0552 45.1632 77.0442 45.1854 77.0276 45.203C77.0109 45.2207 76.9894 45.233 76.9657 45.2384C76.942 45.2438 76.9173 45.2421 76.8946 45.2334C76.872 45.2247 76.8524 45.2095 76.8384 45.1896C76.8384 45.1896 76.2888 44.3664 76.032 43.9896C75.773 43.6884 75.4665 43.4314 75.1248 43.2288L75.1032 43.212C74.9156 43.0249 74.6972 42.8715 74.4576 42.7584C74.4627 42.8086 74.4748 42.8579 74.4936 42.9048C74.5021 42.9239 74.5052 42.9449 74.5027 42.9656C74.5002 42.9863 74.492 43.0059 74.4792 43.0224C74.4667 43.0389 74.4503 43.0519 74.4314 43.0603C74.4125 43.0687 74.3918 43.0722 74.3712 43.0704C74.307 43.064 74.2428 43.082 74.1912 43.1208C74.1743 43.1445 74.163 43.1717 74.158 43.2003C74.153 43.229 74.1545 43.2584 74.1624 43.2864C74.208 43.5888 74.4672 44.6304 74.6424 45.3192L74.7576 45.7824C74.8944 46.3344 75.1248 47.3112 75.1248 47.3112C75.131 47.3392 75.1272 47.3684 75.114 47.3938C75.1009 47.4193 75.0792 47.4393 75.0528 47.4504C75.0048 47.4696 74.8968 47.5152 74.22 47.0568C73.8995 46.8401 73.5221 46.7232 73.1352 46.7208Z" fill="#263238"/>
<path d="M75.6264 46.044C75.6038 46.0446 75.5815 46.0386 75.5623 46.0267C75.5431 46.0147 75.5278 45.9974 75.5184 45.9768C75.255 45.4305 75.0382 44.8629 74.8704 44.28C74.7497 43.8238 74.5481 43.393 74.2752 43.008C74.2652 42.9958 74.2577 42.9817 74.2532 42.9666C74.2488 42.9515 74.2474 42.9356 74.2492 42.9199C74.251 42.9043 74.2559 42.8891 74.2637 42.8754C74.2714 42.8616 74.2819 42.8496 74.2944 42.84C74.3066 42.83 74.3207 42.8225 74.3358 42.818C74.3509 42.8136 74.3668 42.8122 74.3825 42.814C74.3981 42.8158 74.4133 42.8207 74.427 42.8285C74.4408 42.8362 74.4528 42.8467 74.4624 42.8592C74.7581 43.2682 74.9746 43.729 75.1008 44.2176C75.2684 44.785 75.4794 45.3386 75.732 45.8736C75.7393 45.8875 75.7436 45.9028 75.7447 45.9185C75.7459 45.9342 75.7438 45.9499 75.7386 45.9647C75.7334 45.9796 75.7253 45.9932 75.7147 46.0048C75.704 46.0163 75.6911 46.0256 75.6768 46.032C75.6614 46.0404 75.644 46.0446 75.6264 46.044Z" fill="#263238"/>
<path d="M76.4712 45.8232C76.4477 45.8236 76.4247 45.817 76.405 45.8041C76.3853 45.7913 76.3699 45.7729 76.3608 45.7512C76.2485 45.4935 76.1523 45.2289 76.0728 44.9592C75.7758 44.3442 75.4416 43.7479 75.072 43.1736C75.0559 43.1468 75.0508 43.1147 75.058 43.0842C75.0652 43.0537 75.084 43.0272 75.1104 43.0104C75.1237 43.0017 75.1386 42.9958 75.1543 42.993C75.1699 42.9902 75.186 42.9906 75.2014 42.9942C75.2169 42.9978 75.2315 43.0045 75.2443 43.0139C75.2571 43.0233 75.2679 43.0351 75.276 43.0488C75.372 43.2024 76.2144 44.5656 76.3032 44.8968C76.38 45.1552 76.473 45.4085 76.5816 45.6552C76.588 45.6697 76.5914 45.6853 76.5917 45.7011C76.592 45.7169 76.5892 45.7327 76.5834 45.7474C76.5776 45.7621 76.5689 45.7755 76.5579 45.7869C76.5469 45.7983 76.5338 45.8073 76.5192 45.8136C76.504 45.82 76.4877 45.8233 76.4712 45.8232Z" fill="#263238"/>
<path d="M77.0976 45.816C77.0717 45.8156 77.0466 45.8071 77.0259 45.7915C77.0052 45.776 76.99 45.7543 76.9824 45.7296L76.812 45.144C76.8076 45.1283 76.8063 45.1118 76.8083 45.0955C76.8102 45.0793 76.8154 45.0636 76.8234 45.0493C76.8314 45.0351 76.8422 45.0225 76.855 45.0124C76.8679 45.0023 76.8826 44.9948 76.8984 44.9904C76.9141 44.986 76.9306 44.9847 76.9469 44.9867C76.9631 44.9886 76.9788 44.9938 76.9931 45.0018C77.0073 45.0098 77.0199 45.0206 77.03 45.0334C77.0401 45.0463 77.0476 45.0611 77.052 45.0768L77.2224 45.6624C77.2268 45.6775 77.2282 45.6934 77.2265 45.7091C77.2248 45.7247 77.22 45.7399 77.2124 45.7537C77.2048 45.7675 77.1946 45.7797 77.1823 45.7896C77.17 45.7994 77.1559 45.8068 77.1408 45.8112L77.0976 45.816Z" fill="#263238"/>
<path d="M80.076 49.9896C80.076 49.9896 78.7512 48.108 78.252 48.3096C77.7528 48.5112 76.728 49.8648 76.848 50.3712C76.968 50.8776 77.8416 51.1608 77.8416 51.1608L80.076 49.9896Z" fill="#EE7814"/>
<path d="M77.8416 51.2856H77.8032C77.7648 51.2856 76.8624 50.9736 76.7304 50.4072C76.5984 49.8408 77.6904 48.4224 78.2064 48.2064C78.7224 47.9904 79.8504 49.4664 80.1744 49.9272C80.1842 49.9409 80.1908 49.9567 80.1937 49.9733C80.1966 49.9899 80.1958 50.007 80.1912 50.0232C80.1876 50.04 80.1803 50.0558 80.17 50.0694C80.1596 50.0831 80.1464 50.0944 80.1312 50.1024L77.8968 51.2784C77.8791 51.2844 77.8603 51.2869 77.8416 51.2856ZM78.3432 48.4056C78.3282 48.402 78.3126 48.402 78.2976 48.4056C77.8176 48.5976 76.8576 49.896 76.9632 50.3256C77.0424 50.664 77.5776 50.9232 77.832 51.0144L79.8984 49.9272C79.332 49.1664 78.6264 48.4152 78.3432 48.4152V48.4056Z" fill="#263238"/>
<path d="M95.6448 57.5232C95.6448 57.5232 94.0152 57.4584 93.18 57.7632C92.3448 58.068 90.8184 57.1944 90.3 57.012C88.5144 56.3832 85.26 54.2232 83.8512 52.452C82.1184 50.2752 79.9704 48.4368 78.5712 49.3848C77.172 50.3328 77.1552 51.2784 77.2632 51.612C77.3712 51.9456 77.9088 54.0408 82.6416 59.1336C85.0008 61.68 86.9088 62.64 88.68 63.5496C90.4512 64.4592 92.4 65.3592 92.4 65.3592L95.6448 57.5232Z" fill="#EE7814"/>
<path d="M92.4 65.4792C92.3825 65.4789 92.3653 65.4748 92.3496 65.4672C92.3304 65.4672 90.384 64.5576 88.6272 63.6576L88.5504 63.6168C86.8368 62.736 84.8928 61.74 82.5672 59.2344C79.6056 56.0496 77.6904 53.376 77.1744 51.708L77.16 51.6696C77.1216 51.5472 76.8288 50.4528 78.516 49.3056C80.2032 48.1584 82.6392 50.7456 83.9496 52.3944C85.3344 54.1344 88.5816 56.2872 90.3456 56.9064C90.4632 56.9472 90.624 57.0216 90.8136 57.108C91.4568 57.3984 92.5296 57.8856 93.1392 57.66C93.9888 57.3408 95.5848 57.4008 95.652 57.4032C95.6717 57.4034 95.691 57.4086 95.7082 57.4182C95.7254 57.4279 95.7399 57.4417 95.7504 57.4584C95.7587 57.4756 95.763 57.4945 95.763 57.5136C95.763 57.5327 95.7587 57.5516 95.7504 57.5688L92.5008 65.4048C92.4953 65.42 92.4864 65.4338 92.4747 65.445C92.4631 65.4563 92.449 65.4647 92.4336 65.4696C92.4231 65.4749 92.4117 65.4781 92.4 65.4792ZM79.44 49.2672C79.1607 49.2647 78.8874 49.3485 78.6576 49.5072C77.4048 50.3592 77.2752 51.2232 77.3976 51.5976L77.4096 51.6384C77.916 53.2728 79.8096 55.9128 82.7496 59.0784C85.0488 61.5528 86.8872 62.496 88.6656 63.4104L88.7448 63.4512C90.252 64.224 91.9032 64.9992 92.3448 65.2056L95.4648 57.6456C95.028 57.6456 93.864 57.6456 93.2184 57.8856C92.5176 58.1472 91.4304 57.6456 90.7104 57.3288C90.5256 57.2448 90.3672 57.1728 90.2616 57.1344C88.4664 56.5056 85.1664 54.3168 83.7576 52.548C82.9032 51.468 80.9616 49.2672 79.44 49.2672Z" fill="#263238"/>
<path d="M93.1056 45.9576C93.1056 45.9576 91.0488 47.2632 90.8496 47.9352C90.6504 48.6072 90.5328 49.2408 90.216 49.596C89.8992 49.9512 88.9104 50.076 88.8336 50.388C88.7568 50.7 89.3472 51.6144 89.3472 51.6144C89.3472 51.6144 89.7816 53.2368 89.8608 53.7504C89.94 54.264 90.4536 55.056 90.8496 55.056C91.3299 55.0096 91.8062 54.9294 92.2752 54.816C92.2752 54.816 92.5512 56.952 92.5152 57.6648C92.4792 58.3776 92.3952 58.4952 92.7912 58.4952C93.1872 58.4952 94.7304 57.3864 94.8888 57.2688C95.0472 57.1512 95.4408 54.1824 95.7576 53.076C96.0744 51.9696 95.916 48.5664 95.244 47.4576C94.572 46.3488 93.66 45.6408 93.1056 45.9576Z" fill="white"/>
<path d="M92.7888 58.6176C92.7266 58.626 92.6633 58.6213 92.603 58.604C92.5427 58.5866 92.4866 58.5569 92.4384 58.5168C92.34 58.4088 92.3496 58.2528 92.3736 57.9408C92.3736 57.8592 92.3856 57.7656 92.3928 57.66C92.3683 56.7583 92.2946 55.8585 92.172 54.9648C91.7373 55.0691 91.2952 55.1397 90.8496 55.176C90.3696 55.176 89.8248 54.312 89.7432 53.7696C89.6688 53.2896 89.2848 51.8496 89.2344 51.6624C89.112 51.4728 88.632 50.7024 88.716 50.3592C88.7736 50.1192 89.0808 50.0136 89.436 49.8792C89.6884 49.8073 89.9236 49.6848 90.1272 49.5192C90.3672 49.2552 90.4824 48.8136 90.624 48.3024C90.66 48.1704 90.696 48.0384 90.7344 47.904C90.9408 47.208 92.8272 45.984 93.0408 45.8568C93.636 45.5184 94.5816 46.152 95.34 47.4024C96.0288 48.54 96.1944 51.9624 95.8656 53.1144C95.7144 53.6448 95.5416 54.6216 95.3856 55.4832C95.1144 57.0144 95.0496 57.2952 94.9488 57.372C94.9416 57.3792 93.2616 58.6176 92.7888 58.6176ZM92.2752 54.6984C92.2993 54.6982 92.3229 54.7058 92.3424 54.72C92.3562 54.7297 92.3679 54.7422 92.3765 54.7566C92.3852 54.7711 92.3908 54.7873 92.3928 54.804C92.3928 54.8904 92.6712 56.964 92.6328 57.684C92.6328 57.792 92.6328 57.8856 92.6136 57.9696C92.589 58.0997 92.589 58.2332 92.6136 58.3632C92.6136 58.3632 92.6496 58.3872 92.7864 58.3872C93.084 58.3872 94.356 57.528 94.812 57.1872C94.8648 57.0912 95.0208 56.2272 95.1552 55.4496C95.3088 54.5832 95.484 53.5992 95.6352 53.0496C95.9448 51.9672 95.784 48.6 95.1336 47.5296C94.4832 46.4592 93.624 45.8064 93.1632 46.0656C92.5992 46.4256 91.1112 47.46 90.96 47.9856C90.9216 48.12 90.8856 48.2496 90.8496 48.3792C90.7008 48.9192 90.5736 49.3872 90.3024 49.692C90.0753 49.8903 89.8074 50.0361 89.5176 50.1192C89.2776 50.2128 88.9704 50.328 88.944 50.4336C88.8984 50.616 89.208 51.2064 89.4432 51.5664C89.4494 51.5769 89.4543 51.5882 89.4576 51.6C89.4768 51.6672 89.8968 53.2344 89.976 53.748C90.0552 54.2616 90.5496 54.948 90.8448 54.948C91.3154 54.9008 91.7822 54.8206 92.2416 54.708L92.2752 54.6984Z" fill="#263238"/>
<path d="M90.24 51.9432C90.1269 51.9451 90.0141 51.933 89.904 51.9072C89.8888 51.9036 89.8744 51.8969 89.8618 51.8877C89.8492 51.8784 89.8386 51.8668 89.8305 51.8533C89.8225 51.8399 89.8172 51.8251 89.815 51.8096C89.8128 51.7941 89.8136 51.7783 89.8176 51.7632C89.825 51.7324 89.8443 51.7057 89.8713 51.6891C89.8982 51.6725 89.9307 51.6672 89.9616 51.6744C90.1815 51.7197 90.4091 51.7117 90.6254 51.6512C90.8416 51.5907 91.0403 51.4793 91.2048 51.3264C91.2159 51.3152 91.2292 51.3062 91.2438 51.3001C91.2584 51.294 91.2741 51.2909 91.29 51.2909C91.3058 51.2909 91.3215 51.294 91.3361 51.3001C91.3507 51.3062 91.364 51.3152 91.3752 51.3264C91.3864 51.3374 91.3952 51.3504 91.4013 51.3648C91.4074 51.3793 91.4105 51.3948 91.4105 51.4104C91.4105 51.4261 91.4074 51.4415 91.4013 51.456C91.3952 51.4704 91.3864 51.4835 91.3752 51.4944C91.0702 51.787 90.6626 51.9481 90.24 51.9432Z" fill="#263238"/>
<path d="M91.5168 49.308C91.4544 49.5288 91.3296 49.6872 91.2336 49.6608C91.1376 49.6344 91.1112 49.4328 91.1736 49.212C91.236 48.9912 91.3608 48.8328 91.4544 48.8592C91.548 48.8856 91.5768 49.0872 91.5168 49.308Z" fill="#263238"/>
<path d="M92.2752 48.2928C92.2527 48.2931 92.2305 48.287 92.2113 48.2751C92.1922 48.2631 92.1769 48.246 92.1672 48.2256C92.0616 48.012 91.9272 47.8944 91.8 47.8704C91.7281 47.8672 91.6563 47.8788 91.589 47.9044C91.5218 47.93 91.4604 47.969 91.4088 48.0192C91.398 48.0317 91.3846 48.0418 91.3697 48.0489C91.3548 48.056 91.3385 48.0599 91.322 48.0604C91.3055 48.0609 91.289 48.058 91.2737 48.0519C91.2583 48.0457 91.2444 48.0365 91.2328 48.0247C91.2212 48.0129 91.2121 47.9989 91.2062 47.9835C91.2003 47.968 91.1976 47.9515 91.1984 47.935C91.1991 47.9185 91.2033 47.9023 91.2106 47.8875C91.2179 47.8726 91.2282 47.8595 91.2408 47.8488C91.3184 47.7718 91.4118 47.7126 91.5146 47.6753C91.6174 47.638 91.7271 47.6235 91.836 47.6328C91.9588 47.6628 92.0726 47.7222 92.1675 47.8058C92.2623 47.8894 92.3356 47.9947 92.3808 48.1128C92.3882 48.1268 92.3927 48.1421 92.394 48.1578C92.3953 48.1736 92.3935 48.1894 92.3886 48.2044C92.3836 48.2194 92.3757 48.2333 92.3653 48.2452C92.3549 48.2571 92.3422 48.2667 92.328 48.2736C92.3124 48.2844 92.2942 48.2911 92.2752 48.2928Z" fill="#263238"/>
<path d="M90.1992 78.4944L90.696 81.1008C90.696 81.1008 90.2856 84.2568 91.3824 89.4C92.0664 92.6088 93.0984 93.9432 93.1992 94.2528C93.3 94.5624 93.9024 99.7896 94.0056 101.436C94.1088 103.082 94.7256 105.809 94.7256 106.375C94.7256 106.942 94.4184 108.022 94.1088 108.432C93.7992 108.842 92.412 110.182 91.9992 110.388C91.5864 110.594 91.0224 110.954 91.5888 111.158C92.3891 111.406 93.2402 111.442 94.0584 111.262C94.932 111.055 95.8584 110.491 96.5256 110.028C97.1928 109.565 97.9656 109.565 98.1216 108.948C98.2776 108.331 97.3488 106.889 97.3488 105.552C97.3488 104.215 97.7784 98.3664 97.728 95.8992C97.6776 93.432 97.008 92.76 97.008 92.76L97.2984 90.3264L99.6648 93.876C100.178 94.6464 101.054 97.5792 102.545 99.5328C104.035 101.486 105.631 106.169 105.684 106.322C105.737 106.476 105.168 109.771 104.911 110.438C104.654 111.106 104.758 112.034 106.404 112.034C108.05 112.034 108.718 111.211 108.511 110.028C108.305 108.845 108 107.969 108 107.04C108 106.111 107.126 101.587 106.92 100.404C106.714 99.2208 106.303 95.5176 105.737 94.0248C105.17 92.532 104.143 91.248 103.524 90.4752C102.905 89.7024 102.444 86.8224 102.29 85.5888C102.137 84.3552 101.827 80.5992 101.417 78.5928C101.006 76.5864 100.85 76.4328 100.85 76.4328L100.594 75.8664C100.594 75.8664 97.0944 76.9464 95.0376 76.9992C92.9808 77.052 90.0984 77.256 90.0984 77.256L90.1992 78.4944Z" fill="#263238"/>
<path d="M106.404 112.154C105.641 112.154 105.122 111.96 104.863 111.581C104.758 111.403 104.697 111.202 104.686 110.996C104.675 110.79 104.713 110.584 104.798 110.395C105.067 109.702 105.588 106.555 105.566 106.349C105.554 106.315 103.954 101.575 102.446 99.6072C101.465 98.3184 100.75 96.6192 100.229 95.3784C100.042 94.8828 99.8187 94.4016 99.5616 93.9384L97.3776 90.66L97.1376 92.7216C97.2888 92.9136 97.8072 93.7248 97.8576 95.8944C97.8888 97.4184 97.7376 100.214 97.6176 102.463C97.5432 103.846 97.4784 105.038 97.4784 105.55C97.4784 106.238 97.7304 106.954 97.9584 107.582C98.1864 108.211 98.3328 108.648 98.2512 108.974C98.1408 109.423 97.7448 109.586 97.3296 109.759C97.0768 109.854 96.8353 109.976 96.6096 110.124C95.6496 110.789 94.8048 111.211 94.0992 111.377C93.2585 111.562 92.3843 111.524 91.5624 111.269C91.3584 111.197 91.2528 111.089 91.2456 110.952C91.2384 110.815 91.3032 110.606 91.9656 110.278C92.3544 110.083 93.732 108.758 94.032 108.358C94.3834 107.752 94.5865 107.072 94.6248 106.373C94.5721 105.834 94.492 105.298 94.3848 104.767C94.2 103.714 93.9672 102.401 93.9048 101.441C93.804 99.8136 93.204 94.5816 93.1056 94.2888C93.0617 94.1868 93.0104 94.0881 92.952 93.9936C92.6184 93.3984 91.836 92.0064 91.272 89.4336C90.228 84.5376 90.552 81.3912 90.5832 81.1152L90.0888 78.5256L89.988 77.292C89.9863 77.2762 89.9877 77.2602 89.9923 77.245C89.9968 77.2297 90.0043 77.2155 90.0144 77.2032C90.0359 77.179 90.0661 77.1644 90.0984 77.1624C90.1272 77.1624 93.0048 76.956 95.0424 76.9056C97.08 76.8552 100.529 75.7896 100.562 75.7776C100.59 75.7686 100.62 75.7703 100.647 75.7822C100.674 75.7942 100.695 75.8157 100.706 75.8424L100.961 76.4016C101.03 76.512 101.201 76.9464 101.539 78.5952C101.839 80.0664 102.082 82.4208 102.259 84.1392C102.322 84.744 102.374 85.2696 102.418 85.6008C102.6 87.06 103.058 89.7168 103.618 90.4272C104.239 91.2024 105.276 92.4984 105.85 94.008C106.282 95.1456 106.625 97.5576 106.85 99.1536C106.925 99.672 106.987 100.114 107.038 100.409C107.081 100.649 107.15 101.035 107.237 101.498C107.566 103.301 108.12 106.318 108.12 107.066C108.144 107.679 108.237 108.287 108.396 108.878C108.478 109.238 108.559 109.61 108.636 110.028C108.695 110.281 108.697 110.544 108.643 110.798C108.588 111.052 108.477 111.291 108.319 111.497C107.94 111.919 107.28 112.154 106.404 112.154ZM97.2984 90.2064C97.3182 90.2066 97.3376 90.2115 97.3552 90.2206C97.3727 90.2298 97.3878 90.243 97.3992 90.2592L99.7632 93.8088C100.03 94.2825 100.26 94.7759 100.452 95.2848C100.97 96.5136 101.676 98.1984 102.641 99.4608C104.167 101.46 105.78 106.238 105.797 106.286C105.874 106.514 105.252 109.886 105.024 110.482C104.954 110.633 104.921 110.799 104.927 110.966C104.933 111.133 104.979 111.296 105.06 111.442C105.271 111.746 105.734 111.91 106.404 111.91C107.206 111.91 107.803 111.703 108.13 111.314C108.266 111.136 108.361 110.929 108.407 110.709C108.452 110.488 108.448 110.261 108.394 110.042C108.322 109.632 108.24 109.262 108.154 108.905C107.991 108.296 107.896 107.67 107.873 107.04C107.873 106.32 107.321 103.31 106.992 101.52C106.908 101.054 106.836 100.67 106.795 100.428C106.745 100.135 106.68 99.6864 106.606 99.1656C106.38 97.5816 106.039 95.184 105.617 94.0728C105.058 92.5968 104.035 91.32 103.423 90.5544C102.684 89.6304 102.223 86.0184 102.163 85.608C102.122 85.2744 102.07 84.7488 102.007 84.1416C101.842 82.524 101.59 80.0808 101.287 78.6216C100.908 76.7712 100.75 76.5192 100.742 76.5096C100.735 76.5 100.742 76.5096 100.728 76.4856L100.514 76.0176C99.924 76.1928 96.8832 77.076 95.028 77.124C93.2352 77.1672 90.7848 77.3328 90.216 77.364L90.3096 78.4704L90.804 81.072C90.8065 81.0847 90.8065 81.0977 90.804 81.1104C90.804 81.1416 90.408 84.3072 91.488 89.3664C92.0328 91.9152 92.8008 93.2856 93.1296 93.8712C93.1955 93.9787 93.2533 94.091 93.3024 94.2072C93.4176 94.5552 94.0224 99.8832 94.1136 101.422C94.1736 102.367 94.404 103.673 94.5936 104.722C94.7037 105.266 94.7838 105.815 94.8336 106.368C94.8336 106.93 94.5336 108.048 94.1928 108.497C93.852 108.946 92.472 110.273 92.0328 110.486C91.5648 110.726 91.4448 110.882 91.4496 110.933C91.4544 110.983 91.4832 110.993 91.608 111.038C92.3858 111.28 93.2131 111.313 94.008 111.137C94.6824 110.978 95.5008 110.57 96.4368 109.922C96.6764 109.766 96.9323 109.635 97.2 109.534C97.5912 109.37 97.9008 109.243 97.9824 108.912C98.0472 108.655 97.884 108.192 97.6968 107.659C97.4568 107.009 97.2168 106.274 97.2168 105.545C97.2168 105.026 97.2816 103.831 97.356 102.444C97.476 100.202 97.6272 97.404 97.596 95.8944C97.5456 93.5232 96.9168 92.844 96.9096 92.8368C96.8967 92.8242 96.8869 92.8087 96.8811 92.7916C96.8752 92.7745 96.8735 92.7563 96.876 92.7384L97.1664 90.3048C97.1695 90.2804 97.1798 90.2576 97.1961 90.2392C97.2124 90.2208 97.2338 90.2077 97.2576 90.2016L97.2984 90.2064Z" fill="#263238"/>
<path d="M96.5256 110.028C97.1952 109.565 97.9656 109.565 98.1216 108.948C98.2776 108.331 97.3488 106.889 97.3488 105.552C97.3488 105.312 97.3656 104.969 97.3944 104.558C96.4395 104.882 95.4046 104.882 94.4496 104.558C94.5722 105.157 94.6644 105.762 94.7256 106.37C94.7256 106.937 94.4184 108.017 94.1088 108.427C93.7992 108.838 92.412 110.177 91.9992 110.383C91.5864 110.59 91.0224 110.95 91.5888 111.154C92.3892 111.402 93.2402 111.437 94.0584 111.257C94.932 111.055 95.8584 110.491 96.5256 110.028Z" fill="white"/>
<path d="M93.024 111.494C92.5231 111.502 92.0244 111.426 91.548 111.271C91.344 111.199 91.2384 111.091 91.2312 110.954C91.224 110.818 91.2888 110.609 91.9512 110.28C92.34 110.086 93.7176 108.761 94.0176 108.36C94.369 107.754 94.5721 107.074 94.6104 106.375C94.5577 105.835 94.4776 105.299 94.3704 104.767L94.3392 104.582C94.3349 104.562 94.3362 104.541 94.343 104.522C94.3498 104.502 94.3617 104.485 94.3776 104.472C94.3935 104.458 94.4127 104.449 94.4333 104.445C94.4539 104.44 94.4752 104.442 94.4952 104.448C95.4244 104.763 96.4316 104.763 97.3608 104.448C97.3796 104.442 97.3996 104.44 97.4192 104.443C97.4388 104.446 97.4574 104.453 97.4736 104.465C97.4893 104.477 97.5017 104.494 97.5101 104.512C97.5184 104.53 97.5224 104.55 97.5216 104.57C97.4904 105.022 97.476 105.336 97.476 105.554C97.476 106.243 97.728 106.958 97.956 107.587C98.184 108.216 98.3304 108.653 98.2488 108.979C98.1384 109.428 97.7424 109.591 97.3272 109.764C97.0744 109.858 96.8329 109.981 96.6072 110.129C95.6472 110.794 94.8024 111.216 94.0968 111.382C93.7447 111.46 93.3847 111.498 93.024 111.494ZM94.6008 104.736C94.7109 105.278 94.791 105.825 94.8408 106.375C94.8408 106.937 94.5408 108.055 94.2 108.504C93.8592 108.953 92.4792 110.28 92.04 110.494C91.572 110.734 91.452 110.89 91.4568 110.94C91.4616 110.99 91.4904 111 91.6152 111.046C92.393 111.287 93.2203 111.321 94.0152 111.144C94.6896 110.986 95.508 110.578 96.444 109.93C96.6836 109.773 96.9395 109.642 97.2072 109.541C97.5984 109.378 97.908 109.25 97.9896 108.919C98.0544 108.662 97.8912 108.199 97.704 107.666C97.464 107.016 97.224 106.282 97.224 105.552C97.224 105.358 97.236 105.094 97.2576 104.729C96.3908 104.985 95.4689 104.987 94.6008 104.736Z" fill="#263238"/>
<path d="M104.986 104.429C105.394 105.475 105.662 106.262 105.684 106.322C105.734 106.478 105.168 109.771 104.911 110.438C104.654 111.106 104.758 112.034 106.404 112.034C108.05 112.034 108.718 111.211 108.511 110.028C108.305 108.845 108 107.969 108 107.04C108 106.56 107.76 105.091 107.506 103.632C106.841 104.189 105.905 104.4 104.986 104.429Z" fill="white"/>
<path d="M106.404 112.154C105.641 112.154 105.122 111.96 104.863 111.581C104.758 111.403 104.697 111.202 104.686 110.996C104.675 110.79 104.713 110.584 104.798 110.395C105.067 109.702 105.588 106.555 105.566 106.349C105.566 106.349 105.295 105.552 104.873 104.474C104.865 104.457 104.86 104.438 104.86 104.419C104.86 104.4 104.865 104.381 104.873 104.364C104.883 104.348 104.898 104.335 104.914 104.325C104.931 104.315 104.95 104.31 104.969 104.309C106.034 104.268 106.855 104.011 107.414 103.546C107.43 103.532 107.449 103.522 107.47 103.518C107.491 103.515 107.512 103.516 107.532 103.524C107.551 103.532 107.569 103.544 107.582 103.56C107.595 103.576 107.605 103.595 107.609 103.615C107.942 105.516 108.106 106.637 108.106 107.045C108.13 107.657 108.222 108.265 108.382 108.857C108.463 109.217 108.545 109.589 108.622 110.006C108.681 110.259 108.683 110.522 108.628 110.776C108.573 111.03 108.463 111.269 108.305 111.475C107.94 111.919 107.28 112.154 106.404 112.154ZM105.158 104.542C105.55 105.55 105.794 106.279 105.797 106.286C105.874 106.514 105.252 109.886 105.024 110.482C104.954 110.633 104.921 110.799 104.927 110.966C104.933 111.133 104.979 111.296 105.06 111.442C105.271 111.746 105.734 111.91 106.404 111.91C107.206 111.91 107.803 111.703 108.13 111.314C108.266 111.136 108.361 110.929 108.407 110.709C108.452 110.488 108.448 110.261 108.394 110.042C108.322 109.632 108.24 109.262 108.154 108.905C107.991 108.296 107.896 107.67 107.873 107.04C107.873 106.658 107.722 105.614 107.414 103.848C106.742 104.285 105.96 104.525 105.158 104.542Z" fill="#263238"/>
<path d="M97.2984 90.4464C97.2774 90.4463 97.2569 90.4407 97.2388 90.4301C97.2207 90.4196 97.2057 90.4045 97.1952 90.3864C96.5413 89.2101 95.9873 87.981 95.5392 86.712C94.9128 84.924 94.716 84.312 94.6728 84.168L92.7408 82.3896C92.7172 82.368 92.7032 82.3379 92.7019 82.3059C92.7005 82.2739 92.7119 82.2427 92.7336 82.2192C92.7552 82.1956 92.7853 82.1817 92.8173 82.1803C92.8492 82.179 92.8804 82.1904 92.904 82.212L94.86 84.012C94.8747 84.028 94.8862 84.0467 94.8936 84.0672C94.8936 84.0672 95.0568 84.6048 95.7648 86.6328C96.208 87.8876 96.7555 89.103 97.4016 90.2664C97.4097 90.2799 97.415 90.2949 97.4172 90.3105C97.4195 90.326 97.4185 90.3419 97.4145 90.3571C97.4105 90.3724 97.4034 90.3866 97.3938 90.3991C97.3842 90.4115 97.3721 90.4219 97.3584 90.4296C97.3405 90.441 97.3196 90.4468 97.2984 90.4464Z" fill="white"/>
<path d="M100.282 80.4144H100.267C99.3336 80.2968 98.6736 79.98 98.3016 79.4736C98.0561 79.1421 97.9493 78.7281 98.004 78.3192C98.0066 78.3036 98.0123 78.2888 98.0207 78.2754C98.0292 78.2621 98.0402 78.2506 98.0532 78.2417C98.0662 78.2327 98.0809 78.2265 98.0963 78.2233C98.1118 78.2201 98.1277 78.2201 98.1432 78.2232C98.1743 78.229 98.2019 78.2469 98.2199 78.273C98.2378 78.2991 98.2448 78.3312 98.2392 78.3624C98.1997 78.7075 98.2923 79.0548 98.4984 79.3344C98.8296 79.7856 99.4344 80.0688 100.296 80.1768C100.312 80.1777 100.327 80.1818 100.341 80.1887C100.356 80.1956 100.368 80.2052 100.379 80.217C100.389 80.2289 100.397 80.2426 100.402 80.2575C100.408 80.2724 100.41 80.2882 100.409 80.304C100.408 80.3198 100.404 80.3352 100.397 80.3494C100.39 80.3636 100.38 80.3763 100.369 80.3867C100.357 80.3972 100.343 80.4053 100.328 80.4104C100.313 80.4156 100.297 80.4177 100.282 80.4168V80.4144Z" fill="white"/>
<path d="M94.0584 111.262C94.932 111.055 95.8584 110.491 96.5256 110.028C97.1928 109.565 97.9656 109.565 98.1216 108.948C98.2104 108.593 97.9416 107.966 97.6992 107.244C97.183 107.544 96.6348 107.786 96.0648 107.964C96.0648 107.964 95.4984 107.194 95.0856 107.194C94.914 107.199 94.7442 107.23 94.5816 107.285C94.4864 107.69 94.3241 108.076 94.1016 108.427C93.7944 108.84 92.4048 110.177 91.992 110.383C91.5792 110.59 91.0152 110.95 91.5816 111.154C92.3838 111.404 93.2375 111.442 94.0584 111.262Z" fill="white"/>
<path d="M93.024 111.494C92.5231 111.502 92.0244 111.426 91.548 111.271C91.344 111.199 91.2384 111.091 91.2312 110.954C91.224 110.818 91.2888 110.609 91.9512 110.28C92.34 110.086 93.7176 108.761 94.0176 108.36C94.2294 108.021 94.3819 107.649 94.4688 107.258C94.4745 107.239 94.4849 107.221 94.4991 107.206C94.5134 107.192 94.531 107.181 94.5504 107.174C94.7245 107.115 94.9066 107.083 95.0904 107.078C95.4864 107.078 95.952 107.623 96.1128 107.83C96.6452 107.656 97.1577 107.425 97.6416 107.143C97.6568 107.134 97.674 107.128 97.6918 107.125C97.7097 107.123 97.7278 107.125 97.7448 107.131C97.7615 107.138 97.7766 107.148 97.789 107.16C97.8015 107.173 97.811 107.189 97.8168 107.206C97.86 107.335 97.9056 107.46 97.9488 107.582C98.1576 108.18 98.3232 108.65 98.2416 108.977C98.1312 109.426 97.7352 109.589 97.32 109.762C97.0672 109.856 96.8257 109.978 96.6 110.126C95.64 110.791 94.7952 111.214 94.0896 111.379C93.7399 111.458 93.3824 111.496 93.024 111.494ZM94.68 107.378C94.5838 107.775 94.4216 108.154 94.2 108.497C93.8736 108.934 92.4792 110.273 92.04 110.486C91.572 110.726 91.452 110.882 91.4568 110.933C91.4616 110.983 91.4904 110.993 91.6152 111.038C92.393 111.28 93.2203 111.313 94.0152 111.137C94.6896 110.978 95.508 110.57 96.444 109.922C96.6836 109.766 96.9395 109.635 97.2072 109.534C97.5984 109.37 97.908 109.243 97.9896 108.912C98.0544 108.655 97.8912 108.192 97.7016 107.654L97.6176 107.414C97.1302 107.686 96.6163 107.907 96.084 108.074C96.0602 108.081 96.0349 108.081 96.0113 108.073C95.9877 108.066 95.967 108.051 95.952 108.031C95.748 107.753 95.328 107.311 95.0712 107.311C94.938 107.318 94.8064 107.343 94.68 107.386V107.378Z" fill="#263238"/>
<path d="M108.511 110.028C108.346 109.068 108.118 108.322 108.031 107.582L107.791 108.175C107.791 108.175 107.431 107.045 106.507 107.045C105.929 107.045 105.612 107.563 105.454 107.954C105.324 108.793 105.142 109.622 104.911 110.438C104.654 111.108 104.758 112.034 106.404 112.034C108.05 112.034 108.72 111.211 108.511 110.028Z" fill="white"/>
<path d="M106.404 112.154C105.641 112.154 105.122 111.96 104.863 111.581C104.758 111.403 104.697 111.202 104.686 110.996C104.675 110.79 104.713 110.584 104.798 110.395C105.028 109.587 105.207 108.765 105.336 107.935V107.911C105.516 107.46 105.866 106.925 106.5 106.925C107.206 106.925 107.604 107.503 107.782 107.861L107.914 107.537C107.924 107.513 107.943 107.493 107.965 107.479C107.988 107.466 108.014 107.46 108.041 107.462C108.067 107.466 108.092 107.478 108.111 107.497C108.13 107.516 108.141 107.541 108.144 107.568C108.202 108.003 108.282 108.435 108.384 108.862C108.463 109.219 108.547 109.582 108.624 110.006C108.683 110.259 108.685 110.522 108.631 110.776C108.576 111.03 108.465 111.269 108.307 111.475C107.94 111.919 107.28 112.154 106.404 112.154ZM105.571 108C105.439 108.841 105.256 109.674 105.024 110.494C104.954 110.645 104.921 110.811 104.927 110.978C104.933 111.145 104.979 111.308 105.06 111.454C105.271 111.758 105.734 111.922 106.404 111.922C107.206 111.922 107.803 111.715 108.13 111.326C108.266 111.148 108.361 110.941 108.407 110.721C108.452 110.5 108.448 110.273 108.394 110.054C108.322 109.646 108.24 109.277 108.154 108.922C108.086 108.619 108.022 108.329 107.971 108.043L107.897 108.228C107.888 108.251 107.872 108.27 107.851 108.284C107.83 108.297 107.806 108.304 107.782 108.302C107.757 108.301 107.733 108.293 107.713 108.278C107.694 108.263 107.679 108.242 107.671 108.218C107.671 108.218 107.326 107.172 106.5 107.172C106.01 107.165 105.725 107.609 105.571 108Z" fill="#263238"/>
<path d="M89.7288 78.24C89.7288 78.24 89.7288 79.5216 90.156 79.7352C90.5832 79.9488 92.8776 80.0016 96.1344 79.6272C97.9211 79.4439 99.688 79.1026 101.414 78.6072L100.848 76.4472L89.7288 78.24Z" fill="#EE7814"/>
<path d="M91.9464 80.0112C90.9864 80.0112 90.3288 79.9464 90.1032 79.8336C89.6232 79.5936 89.6088 78.3696 89.6088 78.2304C89.609 78.2021 89.6193 78.1747 89.6377 78.1532C89.6562 78.1316 89.6816 78.1173 89.7096 78.1128L100.829 76.32C100.858 76.3149 100.889 76.3213 100.914 76.3378C100.939 76.3543 100.956 76.3797 100.963 76.4088L101.53 78.5688C101.537 78.5987 101.533 78.6304 101.519 78.6575C101.504 78.6847 101.48 78.7053 101.45 78.7152C99.7155 79.2098 97.9408 79.5527 96.1464 79.74C94.7525 79.9074 93.3503 79.9979 91.9464 80.0112ZM89.8512 78.3312C89.8656 78.8112 89.9664 79.4928 90.2112 79.6152C90.5904 79.8072 92.8512 79.872 96.12 79.4976C97.8602 79.3122 99.5821 78.9831 101.268 78.5136L100.759 76.5696L89.8512 78.3312Z" fill="#263238"/>
<path d="M95.3616 55.92C95.3616 55.92 91.2456 58.0464 89.3256 60.7896C87.4056 63.5328 88.2288 68.7456 88.3656 71.6256C88.5024 74.5056 88.5024 76.5648 88.2288 77.4552C87.9552 78.3456 89.256 78.5544 90.3528 78.8952C91.4496 79.236 93.0984 78.072 93.9888 78.276C94.8792 78.48 96.8016 78.552 97.5552 78.3456C98.3088 78.1392 99.4752 77.316 99.6816 77.316H100.915C101.067 74.2405 100.72 71.1607 99.888 68.196C98.5152 63.5328 98.0352 58.3896 97.1448 56.9496C96.2544 55.5096 95.3616 55.92 95.3616 55.92Z" fill="#EE7814"/>
<path d="M90.8088 79.0896C90.6462 79.0913 90.4843 79.0678 90.3288 79.02C90.168 78.9696 90.0024 78.924 89.8488 78.876C89.1096 78.6648 88.4088 78.4656 88.1688 78.0264C88.1214 77.9353 88.0934 77.8355 88.0864 77.7331C88.0793 77.6306 88.0935 77.5279 88.128 77.4312C88.368 76.6368 88.4112 74.8512 88.26 71.6424C88.236 71.1624 88.1952 70.6224 88.1496 70.044C87.924 67.0944 87.6144 63.0552 89.2416 60.7296C91.1616 57.9936 95.2776 55.8456 95.3208 55.824C95.3616 55.8048 96.3192 55.3848 97.2552 56.8968C97.7352 57.6888 98.1 59.5008 98.5512 61.7976C98.9376 63.7752 99.3768 66.0144 100.013 68.1744C100.846 71.1546 101.194 74.2492 101.045 77.34C101.043 77.3703 101.029 77.3988 101.007 77.4194C100.985 77.44 100.955 77.4511 100.925 77.4504H99.6912C99.4805 77.5382 99.2774 77.6434 99.084 77.7648C98.6164 78.0595 98.1173 78.301 97.596 78.4848C96.8232 78.696 94.8672 78.624 93.972 78.4176C93.5976 78.3312 93.048 78.5184 92.4648 78.7176C91.9357 78.9275 91.3769 79.053 90.8088 79.0896ZM95.412 56.0376C95.2752 56.1096 91.2816 58.2144 89.424 60.8688C87.8448 63.1224 88.152 67.1088 88.3752 70.0272C88.4208 70.6056 88.4616 71.1528 88.4856 71.6304C88.6392 74.8704 88.596 76.6704 88.3416 77.5008C88.3168 77.5671 88.3062 77.6379 88.3103 77.7085C88.3144 77.7792 88.3333 77.8482 88.3656 77.9112C88.5552 78.2616 89.2368 78.4584 89.8944 78.6456C90.06 78.6936 90.228 78.7416 90.3888 78.792C90.96 78.96 91.68 78.72 92.3784 78.48C92.9928 78.2712 93.5784 78.072 94.0152 78.1752C94.8864 78.3744 96.78 78.4464 97.524 78.2448C98.0272 78.0673 98.51 77.8364 98.964 77.556C99.384 77.316 99.576 77.2104 99.684 77.2104H100.8C100.932 74.1852 100.584 71.1582 99.7704 68.2416C99.132 66.0816 98.6904 63.8256 98.304 61.8432C97.8744 59.6616 97.5048 57.7776 97.0392 57.024C96.24 55.7208 95.4696 56.0136 95.412 56.0376Z" fill="#263238"/>
<path d="M101.153 79.9896C101.105 80.8586 101.006 81.724 100.858 82.5816C100.673 83.3592 100.486 83.4696 100.93 83.4696C101.374 83.4696 101.522 82.212 101.522 82.212L102.041 82.692C102.041 82.692 102.929 84.5808 103.262 84.7296C103.596 84.8784 103.742 84.7296 103.56 84.2496C103.378 83.7696 103.042 82.7688 103.042 82.7688L103.301 82.9176C103.301 82.9176 104.225 84.4728 104.448 84.6216C104.671 84.7704 104.856 84.9168 104.892 84.5472C104.928 84.1776 104.004 82.8432 104.004 82.8432L105.262 84.2832C105.262 84.2832 105.521 84.5784 105.634 84.2832C105.746 83.988 104.892 82.764 104.892 82.764L104.743 82.5048C104.969 82.6775 105.203 82.8377 105.446 82.9848C105.559 83.0208 105.854 83.1696 106.003 83.0952C106.152 83.0208 105.854 82.6512 105.595 82.356C105.336 82.0608 104.671 81.4296 104.412 80.9856C104.153 80.5416 103.781 79.9104 103.781 79.9104L101.153 79.9896Z" fill="white"/>
<path d="M103.474 84.9048C103.384 84.9007 103.296 84.8787 103.214 84.84C102.866 84.684 102.115 83.1312 101.942 82.764L101.609 82.4544C101.537 82.8624 101.35 83.5896 100.932 83.5896C100.786 83.5896 100.649 83.5896 100.577 83.4864C100.505 83.3832 100.541 83.2464 100.61 83.0184C100.646 82.9008 100.694 82.7496 100.74 82.5528C100.89 81.7025 100.99 80.8443 101.04 79.9824C101.042 79.9525 101.056 79.9244 101.077 79.9036C101.099 79.8828 101.128 79.8707 101.158 79.8696L103.798 79.7952C103.819 79.796 103.839 79.8019 103.858 79.8123C103.876 79.8228 103.892 79.8375 103.903 79.8552C103.903 79.8552 104.275 80.484 104.534 80.9304C104.792 81.3028 105.086 81.6492 105.41 81.9648C105.528 82.0896 105.634 82.2048 105.706 82.2816C106.08 82.7088 106.207 82.9224 106.186 83.0736C106.18 83.1026 106.168 83.13 106.15 83.1533C106.132 83.1767 106.109 83.1955 106.082 83.208C105.888 83.2569 105.683 83.2294 105.509 83.1312L105.437 83.1024C105.353 83.0626 105.272 83.0152 105.197 82.9608C105.468 83.376 105.874 84.0648 105.775 84.3264C105.762 84.3772 105.735 84.4234 105.698 84.4599C105.66 84.4963 105.613 84.5216 105.562 84.5328C105.493 84.5353 105.425 84.5213 105.362 84.4921C105.3 84.4629 105.246 84.4192 105.204 84.3648L104.861 83.9712C104.966 84.1496 105.029 84.3501 105.043 84.5568C105.045 84.6194 105.03 84.6813 105.002 84.7371C104.973 84.7928 104.932 84.8405 104.88 84.876C104.743 84.9384 104.602 84.8448 104.448 84.7416L104.412 84.7176C104.21 84.5832 103.589 83.5752 103.322 83.1336C103.435 83.4672 103.596 83.9256 103.702 84.204C103.807 84.4824 103.822 84.7176 103.702 84.8304C103.672 84.8596 103.636 84.8815 103.596 84.8945C103.557 84.9074 103.515 84.9109 103.474 84.9048ZM101.52 82.092C101.535 82.0915 101.55 82.094 101.564 82.0994C101.578 82.1047 101.591 82.1128 101.602 82.1232L102.12 82.6032C102.132 82.6129 102.142 82.6252 102.149 82.6392C102.576 83.5464 103.126 84.5352 103.31 84.6168C103.442 84.6768 103.495 84.6624 103.502 84.6552C103.51 84.648 103.541 84.54 103.445 84.288C103.26 83.808 102.929 82.812 102.924 82.8024C102.916 82.7792 102.916 82.754 102.922 82.7304C102.929 82.7068 102.943 82.6859 102.962 82.6705C102.981 82.655 103.005 82.6458 103.029 82.6441C103.054 82.6424 103.078 82.6482 103.099 82.6608L103.358 82.8096C103.376 82.8199 103.39 82.8339 103.402 82.8504C103.848 83.604 104.388 84.432 104.513 84.516L104.549 84.54C104.61 84.5865 104.677 84.6244 104.748 84.6528C104.758 84.6125 104.765 84.5716 104.77 84.5304C104.794 84.3048 104.278 83.4456 103.903 82.908C103.883 82.8829 103.875 82.8509 103.878 82.8192C103.882 82.7875 103.898 82.7585 103.924 82.7388C103.949 82.7191 103.981 82.7101 104.012 82.714C104.044 82.7178 104.073 82.7341 104.093 82.7592L105.35 84.1992C105.398 84.252 105.466 84.2928 105.487 84.288C105.509 84.2832 105.504 84.2736 105.518 84.2352C105.566 84.108 105.233 83.4624 104.798 82.8288L104.64 82.56C104.626 82.5363 104.621 82.5085 104.625 82.4813C104.629 82.4541 104.643 82.4293 104.664 82.4112C104.685 82.3939 104.712 82.3844 104.74 82.3844C104.767 82.3844 104.794 82.3939 104.815 82.4112C105.03 82.5778 105.253 82.7324 105.485 82.8744L105.571 82.908C105.68 82.9595 105.797 82.9912 105.917 83.0016C105.81 82.7932 105.672 82.6029 105.506 82.4376L105.218 82.1304C104.878 81.8027 104.573 81.4408 104.306 81.0504C104.098 80.6904 103.812 80.2056 103.714 80.0376L101.266 80.1072C101.219 80.9468 101.121 81.7828 100.973 82.6104C100.925 82.8096 100.879 82.968 100.841 83.0904C100.809 83.1741 100.788 83.261 100.776 83.3496C100.828 83.3445 100.88 83.3445 100.932 83.3496C101.16 83.3496 101.35 82.6632 101.412 82.1976C101.414 82.1756 101.422 82.1546 101.436 82.1371C101.45 82.1197 101.468 82.1065 101.489 82.0992L101.52 82.092Z" fill="#263238"/>
<path d="M100.19 77.916C100.19 77.916 100.375 79.9536 100.598 80.1384C100.822 80.3232 104.04 80.1024 104.198 80.1024C104.357 80.1024 104.198 77.4624 104.198 77.4624C104.198 77.4624 101.83 77.2776 101.458 77.352C101.019 77.5003 100.594 77.6891 100.19 77.916Z" fill="#EE7814"/>
<path d="M101.412 80.3328C100.81 80.3328 100.596 80.292 100.522 80.2296C100.282 80.0352 100.128 78.5496 100.07 77.928C100.069 77.9045 100.074 77.881 100.085 77.8602C100.096 77.8394 100.112 77.8221 100.133 77.8104C100.545 77.5814 100.978 77.3917 101.426 77.244C101.801 77.1672 103.954 77.3328 104.198 77.352C104.227 77.3543 104.254 77.367 104.275 77.3877C104.295 77.4084 104.307 77.4358 104.309 77.4648C104.45 80.004 104.328 80.136 104.287 80.1792C104.26 80.2045 104.226 80.2197 104.189 80.2224L103.882 80.2368C102.691 80.304 101.916 80.3328 101.412 80.3328ZM100.32 77.9856C100.406 78.9024 100.56 79.9296 100.678 80.0472C100.778 80.0976 101.419 80.136 103.872 79.9968L104.112 79.9848C104.147 79.1848 104.135 78.3833 104.074 77.5848C103.354 77.5296 101.748 77.424 101.472 77.4792C101.073 77.6104 100.687 77.78 100.32 77.9856Z" fill="#263238"/>
<path d="M94.8816 60.3192C94.8816 60.3192 97.5552 70.332 97.968 72.9384C98.3808 75.5448 98.448 77.6712 99.3384 78.084C100.229 78.4968 102.838 77.7408 102.838 77.7408C102.838 77.7408 103.934 78.288 104.758 77.8776C105.581 77.4672 105.648 76.4376 105.238 74.7216C104.827 73.0056 101.122 63.612 100.094 61.9656C99.0672 60.3192 97.2816 56.8224 96.8016 56.5464C96.3216 56.2704 94.4688 55.9992 94.0584 57.3024" fill="#EE7814"/>
<path d="M100.109 78.324C99.8291 78.337 99.5496 78.292 99.288 78.192C98.5224 77.8392 98.328 76.4424 98.0712 74.5104C98.004 74.0136 97.9344 73.5 97.848 72.9576C97.44 70.3872 94.8 60.4512 94.764 60.3504C94.7601 60.3351 94.7591 60.3192 94.7613 60.3036C94.7635 60.2879 94.7688 60.2729 94.7768 60.2593C94.7849 60.2457 94.7955 60.2338 94.8081 60.2243C94.8207 60.2148 94.8351 60.2079 94.8504 60.204C94.8656 60.1997 94.8814 60.1984 94.897 60.2003C94.9127 60.2022 94.9277 60.2072 94.9414 60.215C94.955 60.2229 94.967 60.2334 94.9765 60.2459C94.986 60.2584 94.9929 60.2728 94.9968 60.288C95.0232 60.3888 97.6776 70.3368 98.0856 72.9192C98.172 73.464 98.2416 73.98 98.3088 74.4792C98.5488 76.2648 98.7432 77.676 99.3888 77.9736C100.229 78.3624 102.778 77.6328 102.804 77.6256C102.818 77.6197 102.832 77.6166 102.847 77.6166C102.862 77.6166 102.877 77.6197 102.89 77.6256C102.89 77.6256 103.946 78.1416 104.702 77.7624C105.422 77.4048 105.542 76.5024 105.12 74.7432C104.698 72.984 100.99 63.6192 99.9912 62.0232C99.6192 61.428 99.1416 60.5832 98.6808 59.7576C97.9008 58.3728 97.02 56.8056 96.7416 56.6376C96.1602 56.3866 95.507 56.3576 94.9056 56.556C94.7317 56.6177 94.5747 56.7194 94.4471 56.8527C94.3196 56.9861 94.2251 57.1475 94.1712 57.324C94.1666 57.3389 94.159 57.3527 94.149 57.3646C94.139 57.3766 94.1267 57.3864 94.1129 57.3935C94.099 57.4007 94.0839 57.405 94.0684 57.4062C94.0529 57.4075 94.0372 57.4056 94.0224 57.4008C94.0073 57.3964 93.9933 57.3891 93.9811 57.3792C93.9689 57.3692 93.9588 57.357 93.9514 57.3431C93.944 57.3293 93.9395 57.314 93.9381 57.2984C93.9367 57.2827 93.9384 57.267 93.9432 57.252C94.0067 57.0411 94.1188 56.848 94.2705 56.6884C94.4223 56.5287 94.6094 56.4069 94.8168 56.3328C95.486 56.1044 96.2168 56.1388 96.8616 56.4288C97.1736 56.6064 97.836 57.7584 98.8896 59.6304C99.3504 60.4488 99.8256 61.296 100.195 61.8864C101.201 63.4944 104.921 72.8784 105.353 74.6808C105.806 76.5696 105.646 77.5608 104.81 77.9712C104.028 78.36 103.044 77.9544 102.826 77.8536C101.941 78.1138 101.029 78.2717 100.109 78.324Z" fill="#263238"/>
<path d="M92.3592 46.7232L94.3752 51.6888C94.3752 51.6888 93.8952 54.0888 92.8344 55.3488C91.7736 56.6088 90.8112 57.7488 91.0032 59.2992C91.1952 60.8496 91.8696 60.2592 91.8696 60.2592C91.8696 60.2592 95.5704 55.2024 97.884 57.7464L100.094 61.9608C100.094 61.9608 102.662 62.3064 102.854 59.5128C103.046 56.7192 102.218 54.4992 101.174 51.552C100.56 49.8048 100.613 47.6352 99.2544 45.9024C98.2416 44.6016 95.4144 43.5696 93.4344 44.2344C93.1966 44.3221 92.979 44.4572 92.7949 44.6315C92.6108 44.8058 92.4641 45.0157 92.3635 45.2484C92.263 45.4811 92.2108 45.7319 92.21 45.9854C92.2093 46.2389 92.26 46.4899 92.3592 46.7232Z" fill="#263238"/>
<path d="M100.366 62.1C100.269 62.1011 100.173 62.0955 100.078 62.0832C100.059 62.0805 100.041 62.0735 100.025 62.0627C100.009 62.0518 99.9958 62.0375 99.9864 62.0208L97.7856 57.8208C97.5981 57.6005 97.3626 57.4262 97.0971 57.3114C96.8316 57.1965 96.5433 57.1442 96.2544 57.1584C94.236 57.2664 91.9896 60.3048 91.968 60.3336L91.9488 60.3552C91.8776 60.4146 91.7926 60.4552 91.7016 60.4732C91.6106 60.4912 91.5165 60.4861 91.428 60.4584C91.1448 60.3504 90.9672 59.9784 90.8832 59.3136C90.684 57.7056 91.6824 56.5224 92.7432 55.272C93.7032 54.1392 94.1832 51.9984 94.2504 51.6984L92.2488 46.7688C92.1442 46.511 92.0933 46.2347 92.099 45.9565C92.1048 45.6784 92.1672 45.4044 92.2824 45.1512C92.3908 44.9115 92.5473 44.6967 92.7421 44.52C92.937 44.3433 93.1661 44.2085 93.4152 44.124C95.4456 43.44 98.3304 44.4984 99.3672 45.8328C100.282 47.0064 100.567 48.3576 100.829 49.6728C100.944 50.3008 101.101 50.9205 101.297 51.528L101.417 51.8688C102.391 54.6384 103.162 56.8248 102.974 59.5368C102.912 60.432 102.607 61.1088 102.065 61.5528C101.576 61.9207 100.977 62.1135 100.366 62.1ZM100.169 61.86C100.791 61.9107 101.411 61.7342 101.914 61.3632C102.394 60.9648 102.679 60.3432 102.734 59.5176C102.919 56.856 102.156 54.6888 101.191 51.9456L101.071 51.6048C100.87 50.9871 100.71 50.357 100.591 49.7184C100.327 48.4392 100.056 47.1168 99.1752 45.9864C98.1936 44.7216 95.376 43.7232 93.4896 44.3592C93.2715 44.4333 93.071 44.5514 92.9005 44.7062C92.73 44.861 92.5931 45.0493 92.4984 45.2592C92.3973 45.4824 92.3425 45.7238 92.3371 45.9688C92.3317 46.2138 92.376 46.4574 92.4672 46.6848L94.4856 51.6504C94.4915 51.6724 94.4915 51.6956 94.4856 51.7176C94.4664 51.8184 93.9864 54.1728 92.9184 55.4328C91.8936 56.6448 90.9264 57.7872 91.116 59.292C91.2072 60.012 91.3992 60.2016 91.5072 60.252C91.5532 60.2649 91.6015 60.2665 91.6483 60.2569C91.695 60.2473 91.7388 60.2267 91.776 60.1968C91.9632 59.9424 94.152 57.0456 96.2352 56.9376C96.5623 56.9188 96.8892 56.977 97.1897 57.1074C97.4903 57.2379 97.756 57.437 97.9656 57.6888C97.9725 57.6958 97.9782 57.7039 97.9824 57.7128L100.169 61.86Z" fill="#263238"/>
<path d="M99.2736 45.9072C99.4842 45.6778 99.7544 45.5114 100.054 45.4267C100.354 45.3419 100.671 45.3421 100.97 45.4272C102.041 45.7128 103.042 48.6408 103.183 50.424C103.325 52.2072 103.255 53.4216 103.682 53.4936C103.984 53.5194 104.285 53.4443 104.539 53.28C104.539 53.28 104.897 54.2064 103.682 54.7776C102.468 55.3488 100.322 54.636 100.186 52.4232C100.049 50.2104 99.2736 45.9072 99.2736 45.9072Z" fill="#263238"/>
<path d="M102.787 55.0848C102.076 55.085 101.394 54.8072 100.885 54.3107C100.377 53.8142 100.083 53.1385 100.066 52.428C99.924 50.2464 99.1632 45.9696 99.156 45.9264C99.1526 45.9096 99.153 45.8923 99.1572 45.8757C99.1613 45.8591 99.1691 45.8436 99.18 45.8304C99.404 45.5812 99.6938 45.4002 100.016 45.3081C100.338 45.216 100.68 45.2165 101.002 45.3096C102.125 45.6096 103.162 48.5664 103.303 50.412C103.339 50.8512 103.361 51.2544 103.38 51.612C103.43 52.5336 103.474 53.3304 103.702 53.3688C103.974 53.3879 104.245 53.3189 104.474 53.172C104.489 53.1627 104.506 53.1565 104.523 53.1541C104.541 53.1516 104.558 53.1528 104.575 53.1576C104.592 53.1634 104.608 53.1729 104.621 53.1853C104.635 53.1977 104.645 53.2128 104.652 53.2296C104.652 53.2296 105.034 54.2688 103.735 54.8808C103.438 55.0175 103.114 55.0872 102.787 55.0848ZM99.4008 45.9432C99.4944 46.4664 100.174 50.3592 100.306 52.4232C100.315 52.8429 100.43 53.2535 100.639 53.6171C100.849 53.9808 101.147 54.2858 101.506 54.504C101.82 54.6981 102.175 54.8149 102.543 54.845C102.911 54.875 103.281 54.8174 103.622 54.6768C104.462 54.2832 104.491 53.7168 104.453 53.4768C104.208 53.6071 103.929 53.6598 103.654 53.628C103.236 53.5584 103.198 52.8816 103.13 51.648C103.111 51.2904 103.09 50.8872 103.054 50.448C102.914 48.7104 101.94 45.828 100.93 45.5592C100.664 45.4825 100.382 45.4776 100.113 45.545C99.8449 45.6125 99.599 45.7499 99.4008 45.9432Z" fill="#263238"/>
</svg>
