<svg width="16" height="16" viewBox="0 0 16 16" fill="none" xmlns="http://www.w3.org/2000/svg">
<path d="M4.66984 0.000680039C4.48373 0.0277942 4.31612 0.104418 4.19661 0.217017C4.0771 0.329616 4.01339 0.470945 4.01673 0.616039V1.2314H1.1295C0.486827 1.2314 0 1.6043 0 2.09659V15.077C0 15.6308 0.486827 16 1.1295 16H14.8619C15.5046 16 15.9914 15.6271 15.9914 15.1348V2.09659C16.0717 1.6043 15.5801 1.2314 14.9374 1.2314H12.0502V0.616039C12.0502 0.452835 11.9655 0.296316 11.8149 0.180914C11.6642 0.0655123 11.4599 0.000680039 11.2468 0.000680039H4.82007C4.79491 -0.00022668 4.76971 -0.00022668 4.74456 0.000680039C4.7194 -0.00022668 4.6942 -0.00022668 4.66904 0.000680039H4.66984ZM5.62341 1.2314H10.4435V2.46211H5.62341V1.2314ZM1.60669 2.46211H4.01673V3.07747C4.01673 3.24068 4.10136 3.39719 4.25202 3.5126C4.40268 3.628 4.60701 3.69283 4.82007 3.69283H11.2468C11.4599 3.69283 11.6642 3.628 11.8149 3.5126C11.9655 3.39719 12.0502 3.24068 12.0502 3.07747V2.46211H14.4602V14.7693H1.60669V2.46211ZM3.21338 5.53891V8.00034H6.42676V5.53891H3.21338ZM4.01673 6.15426H5.62341V7.38498H4.01673V6.15426ZM8.03345 6.15426V7.38498H12.8535V6.15426H8.03345ZM3.21338 9.23106V11.6925H6.42676V9.23106H3.21338ZM8.03345 9.84642V11.0771H12.8535V9.84642H8.03345Z" fill="white"/>
</svg>
