<svg width="16" height="16" viewBox="0 0 16 16" fill="none" xmlns="http://www.w3.org/2000/svg">
<path d="M5.93964 1V1.38C5.2438 1.05 4.49766 0.88 3.75151 0.88C2.56104 0.88 1.37056 1.31 0.356142 2.17C-0.0714233 2.53 -0.121725 3.26 0.247155 3.7L2.40175 6.27H3.33233V7.38C4.05332 8.24 4.99229 8.69 5.93964 8.74V11H4.26291C3.80182 11 3.42455 11.45 3.42455 12V14C3.42455 15.1 4.17908 16 5.10128 16H13.4849C14.8766 16 16 14.66 16 13V1C16 0.45 15.6227 0 15.1616 0H6.778C6.3169 0 5.93964 0.45 5.93964 1ZM5.00906 6.41V4.26H3.09759L2.22569 3.22C2.71249 2.99592 3.22972 2.88066 3.75151 2.88C4.87492 2.88 5.92287 3.4 6.71932 4.34L7.90141 5.75L7.73374 5.95C7.5231 6.20367 7.27238 6.40499 6.99609 6.54231C6.71979 6.67963 6.4234 6.75022 6.12408 6.75C5.73005 6.75 5.3444 6.63 5.00906 6.41ZM14.3233 13C14.3233 13.55 13.946 14 13.4849 14C13.0238 14 12.6465 13.55 12.6465 13V12C12.6465 11.45 12.2693 11 11.8082 11H7.61637V8.41C8.09423 8.18 8.53857 7.84 8.92421 7.38L9.09189 7.18L11.4645 10H12.6465V8.59L7.61637 2.62V2H14.3233V13Z" fill="white"/>
</svg>
