<svg width="16" height="16" viewBox="0 0 16 16" fill="none" xmlns="http://www.w3.org/2000/svg">
<g clip-path="url(#clip0_520_288)">
<path d="M8 8C10.525 8 12.5714 6.20937 12.5714 4C12.5714 1.79063 10.525 0 8 0C5.475 0 3.42857 1.79063 3.42857 4C3.42857 6.20937 5.475 8 8 8ZM4.57143 9.725C1.92857 10.4031 0 12.5406 0 15.0719C0 15.5844 0.475 16 1.06071 16H14.9393C15.525 16 16 15.5844 16 15.0719C16 12.5406 14.0714 10.4031 11.4286 9.725V11.3125C12.4143 11.5344 13.1429 12.3188 13.1429 13.25V14.5C13.1429 14.775 12.8857 15 12.5714 15H12C11.6857 15 11.4286 14.775 11.4286 14.5C11.4286 14.225 11.6857 14 12 14V13.25C12 12.6969 11.4893 12.25 10.8571 12.25C10.225 12.25 9.71429 12.6969 9.71429 13.25V14C10.0286 14 10.2857 14.225 10.2857 14.5C10.2857 14.775 10.0286 15 9.71429 15H9.14286C8.82857 15 8.57143 14.775 8.57143 14.5V13.25C8.57143 12.3188 9.3 11.5344 10.2857 11.3125V9.52812C10.0714 9.50937 9.85357 9.5 9.63214 9.5H6.36786C6.14643 9.5 5.92857 9.50937 5.71429 9.52812V11.5719C6.53929 11.7875 7.14286 12.4563 7.14286 13.25C7.14286 14.2156 6.24643 15 5.14286 15C4.03929 15 3.14286 14.2156 3.14286 13.25C3.14286 12.4563 3.74643 11.7875 4.57143 11.5719V9.725ZM5.14286 14C5.61786 14 6 13.6656 6 13.25C6 12.8344 5.61786 12.5 5.14286 12.5C4.66786 12.5 4.28571 12.8344 4.28571 13.25C4.28571 13.6656 4.66786 14 5.14286 14Z" fill="white"/>
</g>
<defs>
<clipPath id="clip0_520_288">
<rect width="16" height="16" fill="white"/>
</clipPath>
</defs>
</svg>
